<?xml version="1.0" encoding="UTF-8"?>
<svg width="1951px" height="1198px" viewBox="0 0 1951 1198" version="1.1" xmlns="http://www.w3.org/2000/svg" xmlns:xlink="http://www.w3.org/1999/xlink">
    <title>编组 6</title>
    <defs>
        <linearGradient x1="4.75625251%" y1="40.3109399%" x2="77.192679%" y2="57.1038042%" id="linearGradient-1">
            <stop stop-color="#13288A" offset="0%"></stop>
            <stop stop-color="#1B2638" offset="100%"></stop>
        </linearGradient>
        <linearGradient x1="4.75625251%" y1="40.2550839%" x2="77.192679%" y2="57.1447566%" id="linearGradient-2">
            <stop stop-color="#13288A" offset="0%"></stop>
            <stop stop-color="#1B2638" offset="100%"></stop>
        </linearGradient>
        <linearGradient x1="36.5963427%" y1="41.7115079%" x2="73.3926109%" y2="65.1956198%" id="linearGradient-3">
            <stop stop-color="#204CD8" offset="0%"></stop>
            <stop stop-color="#0D204F" offset="100%"></stop>
        </linearGradient>
        <linearGradient x1="36.5963427%" y1="46.8322103%" x2="73.3926109%" y2="55.8076339%" id="linearGradient-4">
            <stop stop-color="#204CD8" offset="0%"></stop>
            <stop stop-color="#0D204F" offset="100%"></stop>
        </linearGradient>
        <linearGradient x1="37.9683526%" y1="48.368073%" x2="64.3495677%" y2="53.5514148%" id="linearGradient-5">
            <stop stop-color="#0E204E" offset="0%"></stop>
            <stop stop-color="#0C1A43" offset="100%"></stop>
        </linearGradient>
        <linearGradient x1="18.3719147%" y1="15.5850755%" x2="68.502578%" y2="70.3676859%" id="linearGradient-6">
            <stop stop-color="#204CD8" offset="0%"></stop>
            <stop stop-color="#1B2638" stop-opacity="0" offset="100%"></stop>
        </linearGradient>
        <linearGradient x1="18.3719147%" y1="21.9495863%" x2="55.8160774%" y2="57.5771325%" id="linearGradient-7">
            <stop stop-color="#204CD8" offset="0%"></stop>
            <stop stop-color="#1B2638" stop-opacity="0" offset="100%"></stop>
        </linearGradient>
        <linearGradient x1="23.2934126%" y1="100%" x2="107.792224%" y2="17.5624745%" id="linearGradient-8">
            <stop stop-color="#214AC4" offset="0%"></stop>
            <stop stop-color="#1538A1" offset="52%"></stop>
            <stop stop-color="#2B51C1" offset="100%"></stop>
        </linearGradient>
        <linearGradient x1="18.4858069%" y1="14.6042567%" x2="78.562218%" y2="81.0641987%" id="linearGradient-9">
            <stop stop-color="#87A0FD" offset="0%"></stop>
            <stop stop-color="#3B6EF8" offset="44.9958219%"></stop>
            <stop stop-color="#3465F7" offset="100%"></stop>
        </linearGradient>
        <linearGradient x1="82.9945275%" y1="88.5268444%" x2="-83.6238946%" y2="-88.9566448%" id="linearGradient-10">
            <stop stop-color="#3457DF" offset="0%"></stop>
            <stop stop-color="#0F237C" offset="100%"></stop>
        </linearGradient>
        <linearGradient x1="18.3719147%" y1="15.7037845%" x2="68.502578%" y2="70.2974307%" id="linearGradient-11">
            <stop stop-color="#204CD8" offset="0%"></stop>
            <stop stop-color="#1B2638" stop-opacity="0" offset="100%"></stop>
        </linearGradient>
        <linearGradient x1="18.3719147%" y1="22.0357729%" x2="55.8160774%" y2="57.5538513%" id="linearGradient-12">
            <stop stop-color="#204CD8" offset="0%"></stop>
            <stop stop-color="#1B2638" stop-opacity="0" offset="100%"></stop>
        </linearGradient>
        <linearGradient x1="23.1580182%" y1="100%" x2="108.085213%" y2="17.5624745%" id="linearGradient-13">
            <stop stop-color="#214AC4" offset="0%"></stop>
            <stop stop-color="#1538A1" offset="52%"></stop>
            <stop stop-color="#2B51C1" offset="100%"></stop>
        </linearGradient>
        <linearGradient x1="18.3260394%" y1="14.6042567%" x2="78.7070199%" y2="81.0641987%" id="linearGradient-14">
            <stop stop-color="#87A0FD" offset="0%"></stop>
            <stop stop-color="#3B6EF8" offset="44.9958219%"></stop>
            <stop stop-color="#3465F7" offset="100%"></stop>
        </linearGradient>
        <linearGradient x1="78.5194737%" y1="88.5268444%" x2="-65.5004611%" y2="-88.9566448%" id="linearGradient-15">
            <stop stop-color="#3457DF" offset="0%"></stop>
            <stop stop-color="#0F237C" offset="100%"></stop>
        </linearGradient>
        <path d="M5.10411446,4.38960305 L3.07836305,10.0542991 C2.44861859,11.8163916 1.78951542,13.5616738 1.4742762,15.29164 L1.4742762,15.29164 C1.09664972,17.2801112 1.04857482,19.2024619 1.3326204,20.9880888 L1.3326204,20.9880888 C1.85997633,24.6676757 3.81012905,27.6109717 6.87114218,29.3472884 L6.87114218,29.3472884 C11.1784328,27.6262877 15.2391102,24.6788826 18.3874655,20.9880888 L18.3874655,20.9880888 C19.9493492,19.1990998 21.2877397,17.2786169 22.3571309,15.29164 L22.3571309,15.29164 C23.2089007,13.556444 23.9248864,11.8048112 24.4981153,10.0542991 L24.4981153,10.0542991 L26.5234997,4.38960305 L16.936778,1.25840535 L5.10411446,4.38960305 Z" id="path-16"></path>
        <path d="M9.63101114,9.90562958 L8.98083601,11.5469567 L8.08769024,11.5469567 C7.84790089,11.5480529 7.58345657,11.6368424 7.35321107,11.7939597 L7.35321107,11.7939597 C7.12296556,11.9510769 6.94640424,12.1637333 6.86329317,12.3836974 L6.86329317,12.3836974 L4.2582184,18.9588715 C4.16874476,19.1748164 4.18027692,19.3827227 4.29082657,19.531436 L4.29082657,19.531436 C4.40177389,19.6808801 4.6006042,19.7579772 4.8399959,19.7448232 L4.8399959,19.7448232 L13.7825881,19.7448232 C14.0084593,19.7572464 14.2653481,19.6783224 14.488038,19.5281475 L14.488038,19.5281475 C14.7111257,19.3779727 14.8789384,19.1707971 14.949722,18.9588715 L14.949722,18.9588715 L17.5543991,12.3836974 C17.6621652,12.1677526 17.6689254,11.9532692 17.5718962,11.7935943 L17.5718962,11.7935943 C17.4752647,11.6342847 17.2843876,11.544399 17.0473818,11.5469567 L17.0473818,11.5469567 L17.0609023,11.5469567 L16.1677565,11.5469567 L16.8179317,9.90562958 C17.5400834,8.08233873 16.5169026,6.60360966 14.532576,6.60360966 L14.532576,6.60360966 C12.5474542,6.60360966 10.3531628,8.08233873 9.63101114,9.90562958 L9.63101114,9.90562958 Z M11.1385426,9.82378246 C11.6002266,8.77365462 12.8695593,7.94312554 14.0140266,7.94312554 L14.0140266,7.94312554 C15.1580962,7.94312554 15.7696982,8.77365462 15.3994762,9.82378246 L15.3994762,9.82378246 L14.6995935,11.5469567 L10.4561569,11.5469567 L11.1385426,9.82378246 Z M10.229888,16.0313753 C9.69861345,15.7814493 9.5920404,15.1591919 9.9757829,14.5413192 L9.9757829,14.5413192 C10.3595254,13.9230811 11.1270104,13.4798643 11.8137703,13.4798643 L11.8137703,13.4798643 C12.5009279,13.4798643 12.9172786,13.9230811 12.8115008,14.5413192 L12.8115008,14.5413192 C12.7053255,15.1591919 12.1060509,15.7814493 11.3763436,16.0313753 L11.3763436,16.0313753 L10.8132562,17.4527383 L9.6668006,17.4527383 L10.229888,16.0313753 Z" id="path-18"></path>
        <linearGradient x1="18.3719147%" y1="15.7037845%" x2="38.1852287%" y2="34.6985663%" id="linearGradient-20">
            <stop stop-color="#204CD8" offset="0%"></stop>
            <stop stop-color="#1B2638" stop-opacity="0" offset="100%"></stop>
        </linearGradient>
        <linearGradient x1="18.3719147%" y1="22.0357729%" x2="39.1346627%" y2="37.954907%" id="linearGradient-21">
            <stop stop-color="#204CD8" offset="0%"></stop>
            <stop stop-color="#1B2638" stop-opacity="0" offset="100%"></stop>
        </linearGradient>
        <linearGradient x1="23.1580182%" y1="100%" x2="108.085213%" y2="17.5624745%" id="linearGradient-22">
            <stop stop-color="#214AC4" offset="0%"></stop>
            <stop stop-color="#1538A1" offset="52%"></stop>
            <stop stop-color="#2B51C1" offset="100%"></stop>
        </linearGradient>
        <linearGradient x1="18.3260394%" y1="14.6042567%" x2="78.7070199%" y2="81.0641987%" id="linearGradient-23">
            <stop stop-color="#87A0FD" offset="0%"></stop>
            <stop stop-color="#3B6EF8" offset="44.9958219%"></stop>
            <stop stop-color="#3465F7" offset="100%"></stop>
        </linearGradient>
        <linearGradient x1="83.0062839%" y1="88.5268444%" x2="-83.6715066%" y2="-88.9566448%" id="linearGradient-24">
            <stop stop-color="#3457DF" offset="0%"></stop>
            <stop stop-color="#0F237C" offset="100%"></stop>
        </linearGradient>
        <linearGradient x1="18.3719147%" y1="15.6753695%" x2="57.0898563%" y2="58.2269875%" id="linearGradient-25">
            <stop stop-color="#204CD8" offset="0%"></stop>
            <stop stop-color="#1B2638" stop-opacity="0" offset="100%"></stop>
        </linearGradient>
        <linearGradient x1="18.3719147%" y1="22.1116192%" x2="50%" y2="53.6061473%" id="linearGradient-26">
            <stop stop-color="#204CD8" offset="0%"></stop>
            <stop stop-color="#1B2638" stop-opacity="0" offset="100%"></stop>
        </linearGradient>
        <linearGradient x1="22.9728906%" y1="100%" x2="108.262381%" y2="17.7778809%" id="linearGradient-27">
            <stop stop-color="#3A62DA" offset="0%"></stop>
            <stop stop-color="#17399D" offset="52%"></stop>
            <stop stop-color="#365FD8" offset="100%"></stop>
        </linearGradient>
        <linearGradient x1="18.7301947%" y1="15.2848536%" x2="78.9050106%" y2="81.0641987%" id="linearGradient-28">
            <stop stop-color="#A3B7FF" offset="0%"></stop>
            <stop stop-color="#5C78F7" offset="44.9958219%"></stop>
            <stop stop-color="#5369FA" offset="100%"></stop>
        </linearGradient>
        <linearGradient x1="56.368903%" y1="59.9750755%" x2="44.8423961%" y2="41.5635%" id="linearGradient-29">
            <stop stop-color="#2F4BB6" offset="0%"></stop>
            <stop stop-color="#152467" offset="100%"></stop>
        </linearGradient>
        <linearGradient x1="66.8075969%" y1="71.8680857%" x2="36.4765007%" y2="35.8730478%" id="linearGradient-30">
            <stop stop-color="#2F4BB6" offset="0%"></stop>
            <stop stop-color="#152467" offset="100%"></stop>
        </linearGradient>
    </defs>
    <g id="页面-1" stroke="none" stroke-width="1" fill="none" fill-rule="evenodd">
        <g id="基础用户-h5注册" transform="translate(355.000000, -188.000000)">
            <g id="编组-6" transform="translate(0.000000, 188.000000)">
                <g id="bg/" transform="translate(-355.000000, 12.000000)">
                    <g id="Group-10" transform="translate(0.162685, 0.000000)">
                        <polygon id="Shape" fill="url(#linearGradient-1)" opacity="0.100000001" points="1949.68204 422.144248 1185.81779 1185.94802 0.630990675 0.855037816 1527.55669 0.0523175449"></polygon>
                        <polygon id="Shape" fill="url(#linearGradient-2)" opacity="0.100000001" points="1775.43163 332.795307 1187.19179 921.004023 266.167177 0.0523175449 1450.36594 7.73990784"></polygon>
                        <g id="Group-11" transform="translate(372.837315, 27.000000)">
                            <g id="Group-2">
                                <ellipse id="Oval" fill="url(#linearGradient-3)" opacity="0.100000001" transform="translate(558.298424, 383.859774) rotate(-45.000000) translate(-558.298424, -383.859774) " cx="558.298424" cy="383.859774" rx="288.354455" ry="123.180051"></ellipse>
                                <g id="Clipped" transform="translate(373.053851, 117.761432)">
                                    <g id="Group">
                                        <ellipse id="Oval" fill="url(#linearGradient-4)" opacity="0.100000001" transform="translate(256.479512, 256.761006) rotate(-45.000000) translate(-256.479512, -256.761006) " cx="256.479512" cy="256.761006" rx="286.635955" ry="75.6980668"></ellipse>
                                        <ellipse id="Oval" fill="url(#linearGradient-5)" opacity="0.182087054" transform="translate(284.865489, 279.729988) rotate(-45.000000) translate(-284.865489, -279.729988) " cx="284.865489" cy="279.729988" rx="228.824751" ry="46.8195053"></ellipse>
                                    </g>
                                </g>
                            </g>
                            <g id="Group-9" transform="translate(271.990459, 246.498806)">
                                <polygon id="Shape" fill="url(#linearGradient-6)" opacity="0.100000001" points="396.346953 325.303133 90.2227311 17.5603645 22.5934055 35.0466528 7.42728532 88.8916954 314.572413 397.134396 381.986214 378.886847 396.346953 325.303133"></polygon>
                                <polygon id="Shape" fill="url(#linearGradient-7)" opacity="0.200000003" points="71.0591342 66.1890661 7.42728532 88.0054741 314.167462 395.783599 381.492382 377.563552 71.0591342 66.1890661"></polygon>
                                <g id="Group-3" transform="translate(0.675208, 0.000000)">
                                    <path d="M68.109324,73.4154275 L11.1881818,88.3131119 C10.0327252,88.6162891 8.80343675,88.2856712 7.95453809,87.4434214 L0.890097038,80.4407191 L79.5115797,0.960047897 L86.2718104,7.73685659 C87.1280886,8.60186157 87.4550546,9.86118021 87.1281063,11.0349035 L70.5204729,71.0209551 C70.2037178,72.1950766 69.2834958,73.1089339 68.109324,73.4154275 L68.109324,73.4154275 Z" id="Shape" fill="url(#linearGradient-8)" fill-rule="nonzero"></path>
                                    <path d="M60.3463258,65.00089 L2.10693856,80.5423713 C0.980233447,80.836033 0.30421038,80.305183 0.574619607,79.3451351 L17.4751963,18.6362239 C17.9107198,17.5325844 18.8362231,16.696753 19.9764816,16.3772877 L78.2158688,0.835806405 C79.3425739,0.542144695 80.018597,1.07299471 79.7481878,2.03304261 L62.8476111,62.7419538 C62.4120876,63.8455933 61.4865843,64.6814247 60.3463258,65.00089 L60.3463258,65.00089 Z" id="Shape" fill="url(#linearGradient-9)" fill-rule="nonzero"></path>
                                    <path d="M43.1590031,56.4887207 L42.9074196,57.3215028 C42.7949797,57.5761932 42.516163,57.7905179 42.1543893,57.9003529 L14.7997288,65.5108483 C14.4378645,65.6170231 14.2127661,65.5725406 14.2694638,65.3053728 L14.5210473,64.4725907 C14.6334872,64.2179003 14.9123039,64.0035756 15.2740776,63.8937407 L42.6287381,56.2832452 C42.9906024,56.1770704 43.2157008,56.221553 43.1590031,56.4887207 Z M53.6152756,49.2565781 L53.363692,50.0893601 C53.2512521,50.3440505 52.9724354,50.5583753 52.6106617,50.6682102 L16.1273309,61.2033311 C15.7654666,61.3095059 15.5403682,61.2650233 15.5970659,60.9978556 L15.8486494,60.1650735 C15.9610894,59.9103831 16.239906,59.6960584 16.6016798,59.5862234 L53.0850105,49.0511026 C53.4468748,48.9449277 53.6719732,48.9894103 53.6152756,49.2565781 Z M46.5391185,45.1940396 L46.2875349,46.0268217 C46.175095,46.2815121 45.8962784,46.4958368 45.5345046,46.6056717 L18.1798441,54.2161672 C17.8179799,54.322342 17.5928814,54.2778594 17.6495791,54.0106917 L17.9011626,53.1779096 C18.0136026,52.9232192 18.2924192,52.7088944 18.654193,52.5990595 L46.0088534,44.9885641 C46.3707177,44.8823892 46.5958161,44.9268718 46.5391185,45.1940396 Z M56.9953909,37.9618969 L56.7438073,38.794679 C56.6313674,39.0493694 56.3525508,39.2636941 55.990777,39.3735291 L19.5074463,49.9086499 C19.145582,50.0148248 18.9204836,49.9703422 18.9771812,49.7031744 L19.2287648,48.8703924 C19.3412047,48.615702 19.6200213,48.4013772 19.9817951,48.2915423 L56.4651258,37.7564214 C56.8269901,37.6502466 57.0520885,37.6947292 56.9953909,37.9618969 Z M49.9192338,33.8993584 L49.6676503,34.7321405 C49.5552103,34.9868309 49.2763937,35.2011557 48.9146199,35.3109906 L21.5599595,42.921486 C21.1980952,43.0276608 20.9729968,42.9831783 21.0296944,42.7160105 L21.281278,41.8832284 C21.3937179,41.628538 21.6725345,41.4142133 22.0343083,41.3043784 L49.3889688,33.6938829 C49.7508331,33.5877081 49.9759315,33.6321907 49.9192338,33.8993584 Z M60.3755062,26.6672158 L60.1239227,27.4999978 C60.0114827,27.7546883 59.7326661,27.969013 59.3708924,28.0788479 L22.8875616,38.6139688 C22.5256973,38.7201436 22.3005989,38.6756611 22.3572966,38.4084933 L22.6088801,37.5757112 C22.72132,37.3210208 23.0001367,37.1066961 23.3619104,36.9968611 L59.8452412,26.4617403 C60.2071055,26.3555654 60.4322039,26.400048 60.3755062,26.6672158 Z M63.5532102,14.8314385 L60.7777086,22.5138071 L23.2333416,32.9713141 L25.2138779,26.1266711 L63.5532102,14.8314385 Z" id="形状结合" fill="url(#linearGradient-10)"></path>
                                </g>
                            </g>
                            <g id="Group-9-Copy-3" transform="translate(417.814868, 386.734513)">
                                <polygon id="Shape" fill="url(#linearGradient-11)" opacity="0.100000001" points="236.51343 193.225897 54.0750851 10.1395433 13.7705899 20.5427147 4.73216147 52.5769119 187.778927 235.960692 227.954978 225.104621 236.51343 193.225897"></polygon>
                                <polygon id="Shape" fill="url(#linearGradient-12)" opacity="0.200000003" points="42.7043771 39.5780174 4.73216147 52.5769119 187.778927 235.960692 227.954978 225.104621 42.7043771 39.5780174"></polygon>
                                <g id="Group-3">
                                    <path d="M40.8655944,43.938021 L6.71290905,52.8540594 C6.0196351,53.0355064 5.28206205,52.8376366 4.77272285,52.3335628 L0.534058223,48.1425516 L47.7069478,0.57457412 L51.7630862,4.63039144 C52.2768531,5.14808382 52.4730328,5.90176694 52.2768638,6.60422254 L42.3122837,42.5049655 C42.1222307,43.2076595 41.5700975,43.7545892 40.8655944,43.938021 L40.8655944,43.938021 Z" id="Shape" fill="url(#linearGradient-13)" fill-rule="nonzero"></path>
                                    <path d="M36.2077955,38.9020478 L1.26416313,48.2033889 C0.588140068,48.3791409 0.182526228,48.0614353 0.344771764,47.4868611 L10.4851178,11.1534976 C10.7464319,10.4929861 11.3017338,9.99275369 11.985889,9.80155853 L46.9295213,0.50021747 C47.6055444,0.324465386 48.0111582,0.642171076 47.8489127,1.2167452 L37.7085667,37.5501087 C37.4472525,38.2106202 36.8919506,38.7108526 36.2077955,38.9020478 L36.2077955,38.9020478 Z" id="Shape" fill="url(#linearGradient-14)" fill-rule="nonzero"></path>
                                    <g id="Group-7" transform="translate(26.186859, 23.882228) rotate(-4.000000) translate(-26.186859, -23.882228) translate(12.186859, 8.382228)">
                                        <mask id="mask-17" fill="white">
                                            <use xlink:href="#path-16"></use>
                                        </mask>
                                        <use id="Clip-2" fill="url(#linearGradient-15)" transform="translate(13.836861, 15.302847) rotate(-4.000000) translate(-13.836861, -15.302847) " xlink:href="#path-16"></use>
                                        <mask id="mask-19" fill="white">
                                            <use xlink:href="#path-18"></use>
                                        </mask>
                                        <use id="Clip-5" fill="#3B6EF8" transform="translate(10.919408, 13.174939) rotate(-8.000000) translate(-10.919408, -13.174939) " xlink:href="#path-18"></use>
                                    </g>
                                </g>
                            </g>
                            <g id="Group-9-Copy-2" transform="translate(246.332565, 29.020446)">
                                <polygon id="Shape" fill="url(#linearGradient-20)" opacity="0.100000001" points="473.321272 386.711562 108.444582 20.5388553 27.8355911 41.3451982 9.7587343 105.413592 375.852266 472.181153 456.204368 450.469011 473.321272 386.711562"></polygon>
                                <polygon id="Shape" fill="url(#linearGradient-21)" opacity="0.200000003" points="85.7031656 79.4158034 9.7587343 105.413592 375.852266 472.181153 456.204368 450.469011 85.7031656 79.4158034"></polygon>
                                <g id="Group-3" transform="translate(0.294411, 0.259769)">
                                    <path d="M81.7311888,87.876042 L13.4258181,105.708119 C12.0392702,106.071013 10.5641241,105.675273 9.5454457,104.667126 L1.06811645,96.2851032 L95.4138956,1.14914824 L103.526172,9.26078288 C104.553706,10.2961676 104.946066,11.8035339 104.553728,13.2084451 L84.6245675,85.009931 C84.2444613,86.415319 83.140195,87.5091785 81.7311888,87.876042 L81.7311888,87.876042 Z" id="Shape" fill="url(#linearGradient-22)" fill-rule="nonzero"></path>
                                    <path d="M72.4155909,77.8040956 L2.52832627,96.4067777 C1.17628014,96.7582819 0.365052456,96.1228705 0.689543528,94.9737223 L20.9702355,22.3069953 C21.4928638,20.9859722 22.6034677,19.9855074 23.9717779,19.6031171 L93.8590426,1.00043494 C95.2110887,0.648930771 96.0223164,1.28434215 95.6978253,2.43349039 L75.4171333,75.1002174 C74.8945051,76.4212404 73.7839012,77.4217053 72.4155909,77.8040956 L72.4155909,77.8040956 Z" id="Shape" fill="url(#linearGradient-23)" fill-rule="nonzero"></path>
                                    <path d="M63.5336249,57.4801864 L61.3289579,66.0855957 L17.0636408,78.6718979 L19.4402844,70.4790677 L63.5336249,57.4801864 Z M41.0664208,38.0219671 L34.1523684,62.5780134 L20.7989323,66.4417339 L27.5525612,42.0883465 L41.0664208,38.0219671 Z M71.8010437,29.6152559 L64.9622518,52.8741536 L38.5102085,61.0095528 L45.1740531,37.0994403 L71.8010437,29.6152559 Z M76.2638522,17.7527824 L72.9332503,26.9483448 L27.8800099,39.4656638 L30.2566535,31.2728336 L76.2638522,17.7527824 Z" id="形状结合" fill="url(#linearGradient-24)"></path>
                                </g>
                            </g>
                            <g id="Group-9-Copy" transform="translate(444.843645, 132.681039)">
                                <polygon id="Shape" fill="url(#linearGradient-25)" opacity="0.100000001" points="645.766015 526.975074 147.251223 26.4823872 37.1187451 54.9209415 12.4211398 142.490993 512.598448 643.796738 622.37995 614.120118 645.766015 526.975074"></polygon>
                                <polygon id="Shape" fill="url(#linearGradient-26)" opacity="0.200000003" points="116.253615 107.530223 12.4211398 143.026592 512.950237 643.796738 622.808951 614.151825 116.253615 107.530223"></polygon>
                                <g id="Group-3" transform="translate(0.267400, 0.466442)">
                                    <path d="M112.118426,119.134336 L18.4174684,143.512365 C16.5154091,144.008473 14.4918113,143.467462 13.0943935,142.089235 L1.46523666,130.630268 L130.888293,0.570987469 L142.016672,11.6603108 C143.426238,13.0757735 143.964475,15.1364767 143.426267,17.0571148 L116.087548,115.216108 C115.56612,117.137398 114.051293,118.632801 112.118426,119.134336 L112.118426,119.134336 Z" id="Shape" fill="url(#linearGradient-27)" fill-rule="nonzero"></path>
                                    <path d="M99.3393363,105.365093 L3.46834501,130.796608 C1.61361506,131.277145 0.500777087,130.408481 0.945912276,128.837494 L28.7668616,29.4956391 C29.4838003,27.6896836 31.0073211,26.3219595 32.8843621,25.799198 L128.755353,0.367683208 C130.610083,-0.112854135 131.722921,0.755809524 131.277786,2.32679699 L103.456837,101.668652 C102.739898,103.474607 101.216377,104.842331 99.3393363,105.365093 L99.3393363,105.365093 Z" id="Shape" fill="url(#linearGradient-28)" fill-rule="nonzero"></path>
                                    <g transform="translate(35.949329, 26.571529)" id="Path">
                                        <path d="M43.1632353,23.7775591 C39.2015321,34.6247655 18.4971816,44.6273352 14.9620663,57.7312189 C12.0371572,68.5728806 18.2022796,73.7072373 12.3468971,71.8534721 C1.88622017,68.5414609 -3.0288142,50.617418 15.2662421,34.2717554 C23.1933579,27.187526 34.8280789,21.9293386 42.217323,2.52671923 C42.2191777,2.52117457 42.2247419,2.51932635 42.2265966,2.51378168 C42.3508635,2.11271783 42.560448,2.26427191 42.5715764,2.27351301 C45.1923098,5.08650469 46.8337458,13.728784 43.1632353,23.7775591" fill="url(#linearGradient-29)" transform="translate(24.154214, 37.231595) rotate(-5.000000) translate(-24.154214, -37.231595) "></path>
                                        <path d="M48.3290602,29.2277601 C50.1411313,31.3439726 54.7408616,38.629658 49.4956853,50.1884294 C44.0761644,62.1242377 32.3932204,67.3639429 31.9128453,67.5580061 C25.7829629,70.0586485 26.9774089,72.5038443 25.7829629,70.0586485 C23.7279221,65.8447056 20.2002257,58.0008576 37.3620419,41.7272757 C42.4217453,36.9311433 46.9380127,31.7080721 48.0452865,29.2628763 C48.1695534,29.1390455 48.2697088,29.1760099 48.3290602,29.2277601" fill="url(#linearGradient-30)" transform="translate(37.973175, 50.124783) rotate(-5.000000) translate(-37.973175, -50.124783) "></path>
                                    </g>
                                </g>
                            </g>
                        </g>
                    </g>
                </g>
            </g>
        </g>
    </g>
</svg>