<svg width="186" height="150" viewBox="0 0 186 150" fill="none" xmlns="http://www.w3.org/2000/svg">
<path d="M158 125.445C158 122.717 156.227 121.08 153.273 121.626C133.569 124.342 113.426 127.095 93.2807 127.108C72.9485 127.121 52.6142 124.367 32.7273 121.626C30.3636 121.081 28 123.263 28 125.445V136.903C28 139.631 29.7727 142.36 32.7273 142.905C72.3182 151.635 113.682 151.635 153.273 142.905C155.636 142.36 158 139.631 158 136.903V125.445Z" fill="white"/>
<path fill-rule="evenodd" clip-rule="evenodd" d="M103.371 34.7798C108.318 31.4346 111.571 25.7637 111.571 19.3311C111.571 9.04715 103.257 0.710388 93 0.710388C82.7433 0.710388 74.4286 9.04715 74.4286 19.3311C74.4286 25.5087 77.4289 30.9837 82.0482 34.371C75.7303 45.0816 69.4124 55.7265 63.0945 65.912C59.4076 71.543 53.8774 75.113 48.3471 75.113C43.4313 75.113 33.8735 72.1687 30.8011 68.4147C26.9696 63.9561 21.068 57.2332 16.7843 52.7221C17.9945 51.1498 18.7145 49.1786 18.7145 47.0388C18.7145 41.8968 14.5571 37.7284 9.42878 37.7284C4.30042 37.7284 0.143066 41.8968 0.143066 47.0388C0.143066 51.9616 3.95363 55.9921 8.77867 56.3267L9.29449 57.7784C10.9747 64.3363 13.4913 71.1542 16.082 78.1727L16.082 78.1728C19.1761 86.5551 22.3759 95.2237 24.3826 104.078C24.9971 106.58 26.8405 108.457 29.2984 108.457C50.1905 110.96 71.6971 112.211 93.2037 112.211C114.71 112.211 136.217 110.96 157.109 108.457C158.952 108.457 160.796 106.58 161.41 104.078C163.417 95.2238 166.617 86.5554 169.711 78.1732C172.302 71.1545 174.819 64.3365 176.499 57.7784L176.991 56.3398C181.925 56.1197 185.857 52.0397 185.857 47.0388C185.857 41.8968 181.7 37.7284 176.571 37.7284C171.443 37.7284 167.286 41.8968 167.286 47.0388C167.286 49.5511 168.278 51.8311 169.891 53.5059C164.744 58.4651 157.821 65.6605 154.378 69.666C150.692 73.42 141.747 75.113 136.831 75.113C130.687 75.113 125.771 71.543 122.084 65.912C115.847 55.8561 109.609 45.3524 103.371 34.7798Z" fill="white"/>
</svg>
