<svg width="776" height="243" viewBox="0 0 776 243" fill="none" xmlns="http://www.w3.org/2000/svg">
<path d="M263.418 178V60.55H281.238V161.152H339.558V178H263.418ZM344.224 119.356C344.224 111.256 345.79 103.588 348.922 96.352C352.054 89.008 356.32 82.582 361.72 77.074C367.228 71.566 373.6 67.246 380.836 64.114C388.072 60.874 395.848 59.254 404.164 59.254C412.372 59.254 420.094 60.874 427.33 64.114C434.674 67.246 441.046 71.566 446.446 77.074C451.954 82.582 456.274 89.008 459.406 96.352C462.646 103.588 464.266 111.256 464.266 119.356C464.266 127.672 462.646 135.448 459.406 142.684C456.274 149.92 451.954 156.292 446.446 161.8C441.046 167.2 434.674 171.466 427.33 174.598C420.094 177.73 412.372 179.296 404.164 179.296C395.848 179.296 388.072 177.73 380.836 174.598C373.6 171.466 367.228 167.2 361.72 161.8C356.32 156.292 352.054 149.92 348.922 142.684C345.79 135.448 344.224 127.672 344.224 119.356ZM361.882 119.518C361.882 125.458 362.962 131.074 365.122 136.366C367.39 141.55 370.468 146.086 374.356 149.974C378.244 153.862 382.78 156.94 387.964 159.208C393.148 161.476 398.656 162.61 404.488 162.61C410.32 162.61 415.774 161.476 420.85 159.208C426.034 156.94 430.516 153.862 434.296 149.974C438.184 146.086 441.208 141.55 443.368 136.366C445.636 131.074 446.77 125.404 446.77 119.356C446.77 113.416 445.636 107.854 443.368 102.67C441.208 97.378 438.184 92.788 434.296 88.9C430.408 85.012 425.872 81.934 420.688 79.666C415.612 77.398 410.158 76.264 404.326 76.264C398.494 76.264 392.986 77.398 387.802 79.666C382.618 81.934 378.082 85.012 374.194 88.9C370.414 92.788 367.39 97.378 365.122 102.67C362.962 107.962 361.882 113.578 361.882 119.518ZM550.577 60.55V77.398H520.931V178H503.273V77.398H474.275V60.55H550.577ZM639.803 60.55V77.398H610.157V178H592.499V77.398H563.501V60.55H639.803ZM649.715 119.356C649.715 111.256 651.281 103.588 654.413 96.352C657.545 89.008 661.811 82.582 667.211 77.074C672.719 71.566 679.091 67.246 686.327 64.114C693.563 60.874 701.339 59.254 709.655 59.254C717.863 59.254 725.585 60.874 732.821 64.114C740.165 67.246 746.537 71.566 751.937 77.074C757.445 82.582 761.765 89.008 764.897 96.352C768.137 103.588 769.757 111.256 769.757 119.356C769.757 127.672 768.137 135.448 764.897 142.684C761.765 149.92 757.445 156.292 751.937 161.8C746.537 167.2 740.165 171.466 732.821 174.598C725.585 177.73 717.863 179.296 709.655 179.296C701.339 179.296 693.563 177.73 686.327 174.598C679.091 171.466 672.719 167.2 667.211 161.8C661.811 156.292 657.545 149.92 654.413 142.684C651.281 135.448 649.715 127.672 649.715 119.356ZM667.373 119.518C667.373 125.458 668.453 131.074 670.613 136.366C672.881 141.55 675.959 146.086 679.847 149.974C683.735 153.862 688.271 156.94 693.455 159.208C698.639 161.476 704.147 162.61 709.979 162.61C715.811 162.61 721.265 161.476 726.341 159.208C731.525 156.94 736.007 153.862 739.787 149.974C743.675 146.086 746.699 141.55 748.859 136.366C751.127 131.074 752.261 125.404 752.261 119.356C752.261 113.416 751.127 107.854 748.859 102.67C746.699 97.378 743.675 92.788 739.787 88.9C735.899 85.012 731.363 81.934 726.179 79.666C721.103 77.398 715.649 76.264 709.817 76.264C703.985 76.264 698.477 77.398 693.293 79.666C688.109 81.934 683.573 85.012 679.685 88.9C675.905 92.788 672.881 97.378 670.613 102.67C668.453 107.962 667.373 113.578 667.373 119.518Z" fill="white"/>
<path d="M160.53 164.048C160.53 161.291 158.738 159.637 155.753 160.189C135.841 162.933 115.486 165.715 95.1291 165.728C74.5829 165.741 54.0345 162.958 33.9382 160.189C31.5496 159.637 29.1611 161.843 29.1611 164.048V175.627C29.1611 178.384 30.9525 181.141 33.9382 181.692C73.9459 190.514 115.745 190.514 155.753 181.692C158.141 181.141 160.53 178.384 160.53 175.627V164.048Z" fill="white"/>
<path fill-rule="evenodd" clip-rule="evenodd" d="M105.326 72.428C110.325 69.0476 113.613 63.3171 113.613 56.8167C113.613 46.4245 105.21 38 94.8457 38C84.481 38 76.0788 46.4245 76.0788 56.8167C76.0788 63.0594 79.1107 68.5921 83.7787 72.015C77.3943 82.8384 71.0098 93.5953 64.6254 103.888C60.8998 109.578 55.3113 113.186 49.7228 113.186C44.7552 113.186 35.0968 110.211 31.9921 106.417C29.1933 103.16 25.3015 98.7079 21.7243 94.7683C23.9155 92.4965 25.2632 89.4057 25.2632 86.0001C25.2632 79.0239 19.6078 73.3685 12.6316 73.3685C5.65536 73.3685 0 79.0239 0 86.0001C0 92.4367 4.81421 97.7488 11.0383 98.5322C12.6869 104.273 14.875 110.201 17.118 116.278C20.2447 124.749 23.4782 133.508 25.506 142.456C26.1269 144.985 27.9898 146.881 30.4735 146.881C51.5856 149.41 73.3187 150.675 95.0517 150.675C116.785 150.675 138.518 149.41 159.63 146.881C161.493 146.881 163.356 144.985 163.976 142.456C166.004 133.509 169.238 124.749 172.365 116.279L172.365 116.278L172.365 116.278L172.365 116.278C174.472 110.571 176.53 104.996 178.138 99.5831C178.543 99.6222 178.953 99.6423 179.368 99.6423C186.345 99.6423 192 93.9869 192 87.0106C192 80.0344 186.345 74.379 179.368 74.379C172.392 74.379 166.737 80.0344 166.737 87.0106C166.737 89.8508 167.674 92.472 169.256 94.5819C164.69 99.1395 159.654 104.443 156.87 107.682C153.145 111.475 144.106 113.186 139.139 113.186C132.929 113.186 127.962 109.578 124.236 103.888C117.933 93.7263 111.63 83.112 105.326 72.428Z" fill="white"/>
</svg>
