<svg id="SvgjsSvg1001" width="288" height="288" xmlns="http://www.w3.org/2000/svg" version="1.1" xmlns:xlink="http://www.w3.org/1999/xlink" xmlns:svgjs="http://svgjs.com/svgjs"><defs id="SvgjsDefs1002"></defs><g id="SvgjsG1008" transform="matrix(0.9167,0,0,0.9167,10.669563677978516,10.669563677978516)"><svg xmlns="http://www.w3.org/2000/svg" width="288" height="288"><g stroke="null" fill="#000000" class="color000 svgShape"><rect width="256.172" height="256.172" fill="rgba(105,77,255,0)" opacity=".3" class="colorrgba105772550 svgShape"></rect><path fill="#ffffff" d="m128.085945,21.347657a106.738287,106.738287 0 1 0 106.738287,106.738287a106.738287,106.738287 0 0 0 -106.738287,-106.738287z" class="colorfff svgShape"></path><path fill="#303fe1" d="m128.085945,32.021486a96.064459,96.064459 0 1 0 96.064459,96.064459a96.064459,96.064459 0 0 0 -96.064459,-96.064459zm-11.314258,47.498538a16.010743,16.010743 0 0 1 27.325002,11.314258a15.263575,15.263575 0 0 1 -4.696485,11.314258a16.010743,16.010743 0 0 1 -22.521779,0a15.797267,15.797267 0 0 1 0,-22.628517l-0.106738,0zm36.077541,112.608893l-47.818753,0l0,-5.550391l3.842578,0a13.235548,13.235548 0 0 0 3.308887,-0.747168a6.297559,6.297559 0 0 0 3.415625,-2.668457a9.179493,9.179493 0 0 0 0.960645,-4.589746l0,-44.830081a9.072754,9.072754 0 0 0 -1.174121,-4.696485a10.033399,10.033399 0 0 0 -2.988672,-3.202149a15.904005,15.904005 0 0 0 -4.162793,-1.707813a27.004787,27.004787 0 0 0 -5.0167,-1.067383l0,-5.657129l38.319045,0l0,59.773441a8.645801,8.645801 0 0 0 1.174121,4.589746a6.937989,6.937989 0 0 0 3.308887,2.775195l3.308887,1.174121a22.735255,22.735255 0 0 0 3.842578,0.747168l-0.320215,5.657129z" class="color3339a9 svgShape"></path></g></svg></g></svg>