<?xml version="1.0" standalone="no"?><!DOCTYPE svg PUBLIC "-//W3C//DTD SVG 1.1//EN" "http://www.w3.org/Graphics/SVG/1.1/DTD/svg11.dtd"><svg t="1628095663198" class="icon" viewBox="0 0 4522 1024" version="1.1" xmlns="http://www.w3.org/2000/svg" p-id="1212" xmlns:xlink="http://www.w3.org/1999/xlink" width="883.203125" height="200"><defs><style type="text/css"></style></defs><path d="M1433.941333 167.68A179.456 179.456 0 0 0 1307.392 41.216C1195.861333 11.392 748.373333 11.392 748.373333 11.392S301.141333 11.392 189.354667 41.173333a179.456 179.456 0 0 0-126.549334 126.549334C33.024 279.210667 33.024 512 33.024 512s0 232.789333 29.781333 344.32a179.456 179.456 0 0 0 126.549334 126.506667c111.786667 29.781333 559.018667 29.781333 559.018666 29.781333s447.488 0 559.018667-29.781333a179.456 179.456 0 0 0 126.549333-126.549334c29.824-111.488 29.824-344.277333 29.824-344.277333s0-232.789333-29.866666-344.32z" fill="#FF0000" p-id="1213"></path><path d="M605.44 726.613333L977.109333 512 605.44 297.386667z" fill="#FFFFFF" p-id="1214"></path><path d="M2109.696 922.282667c-28.202667-19.114667-48.469333-48.682667-60.288-88.96-11.861333-40.277333-18.005333-93.781333-18.005333-160.682667v-91.008c0-67.584 6.826667-121.728 20.48-162.688 13.653333-40.96 35.072-70.784 64-89.429333 28.885333-18.688 66.901333-28.245333 114.005333-28.245334 46.421333 0 83.541333 9.557333 111.530667 28.672 27.989333 19.114667 48.469333 48.938667 61.44 89.429334 12.970667 40.533333 19.370667 94.677333 19.370666 162.048v91.008c0 66.901333-6.4 120.618667-18.901333 161.109333-12.544 40.533333-33.024 70.314667-61.44 88.96-28.245333 18.688-66.730667 28.245333-115.2 28.245333-49.621333 0.213333-88.746667-9.344-116.992-28.458666z m158.634667-98.304c7.765333-20.48 11.861333-53.930667 11.861333-100.138667v-195.456c0-45.056-3.84-77.824-11.861333-98.773333-7.68-20.693333-21.589333-31.146667-41.386667-31.146667-19.157333 0-32.554667 10.453333-40.533333 31.146667-7.722667 20.736-11.818667 53.717333-11.818667 98.773333v195.456c0 46.421333 3.626667 79.872 11.136 100.138667 7.509333 20.48 21.162667 30.72 40.96 30.72 20.053333 0 33.706667-10.24 41.642667-30.72z m2014.336-149.76v31.658666c0 40.277333 1.152 70.314667 3.669333 90.581334 2.261333 20.010667 7.253333 34.816 14.805333 43.904 7.509333 9.088 19.114667 13.866667 34.816 13.866666 21.162667 0 35.712-8.192 43.477334-24.576 7.722667-16.384 12.032-43.690667 12.714666-81.92l121.770667 7.082667c0.682667 5.461333 0.938667 12.970667 0.938667 22.528 0 58.026667-15.957333 101.248-47.573334 129.92-31.658667 28.672-76.501333 43.008-134.528 43.008-69.632 0-118.357333-21.845333-146.346666-65.536-27.989333-43.690667-41.898667-111.061333-41.898667-202.538667v-109.44c0-94.208 14.592-162.688 43.52-206.165333 28.885333-43.221333 78.506667-64.853333 148.821333-64.853333 48.469333 0 85.589333 8.874667 111.530667 26.624 25.941333 17.749333 44.16 45.269333 54.869333 82.816 10.453333 37.546667 15.914667 89.429333 15.914667 155.434666v107.392h-236.501333v0.256z m18.005333-263.936c-7.04 8.874667-11.818667 23.466667-14.336 43.477333-2.517333 20.010667-3.669333 50.730667-3.669333 91.477333v45.056h103.338666v-45.056c0-40.277333-1.365333-70.784-4.096-91.477333-2.730667-20.736-7.722667-35.498667-14.762666-43.946667-7.082667-8.405333-18.218667-12.714667-33.28-12.714666-14.976-0.256-26.154667 4.309333-33.194667 13.184z m-2534.656 252.16L1605.333333 82.346667h140.202667l56.234667 262.826666c14.336 64.853333 24.789333 119.893333 31.616 165.632h4.096c4.778667-32.768 15.274667-87.594667 31.658666-164.736l58.24-263.978666h140.202667l-162.517333 580.266666v278.314667h-139.050667v-278.314667z m1112.106667-348.885334v626.944h-110.378667l-12.330667-76.714666h-2.944c-30.037333 58.026667-75.093333 86.954667-134.954666 86.954666-41.685333 0-72.405333-13.653333-92.16-40.96-19.84-27.306667-29.610667-69.888-29.610667-127.914666V313.6H2636.8v460.373333c0 27.989333 2.986667 48 9.130667 59.818667 6.144 11.861333 16.384 18.005333 30.72 18.005333 12.288 0 24.106667-3.669333 35.285333-11.178666 11.093333-7.509333 19.541333-17.066667 25.002667-28.672V313.6h141.141333z m724.224 0v626.944h-110.378667l-12.288-76.714666h-2.986667c-29.994667 58.026667-75.093333 86.954667-134.954666 86.954666-41.642667 0-72.362667-13.653333-92.16-40.96-19.797333-27.306667-29.610667-69.888-29.610667-127.914666V313.6h141.141333v460.373333c0 27.989333 2.986667 48 9.088 59.818667 6.144 11.861333 16.384 18.005333 30.72 18.005333 12.288 0 24.149333-3.669333 35.285334-11.178666 11.178667-7.509333 19.584-17.066667 25.045333-28.672V313.6h141.098667z" fill="#282828" p-id="1215"></path><path d="M3261.866667 195.925333h-140.202667v744.533334h-138.154667V195.968H2843.306667V82.389333h418.346666v113.536h0.213334z m807.765333 218.026667c-8.618667-39.637333-22.272-68.266667-41.386667-86.058667-19.157333-17.749333-45.312-26.624-78.762666-26.624-25.941333 0-50.090667 7.296-72.618667 22.101334a148.352 148.352 0 0 0-52.138667 57.770666h-1.109333V50.773333h-136.106667v889.984h116.48l14.378667-59.392h2.986667c10.88 21.162667 27.306667 37.76 49.152 50.048a145.365333 145.365333 0 0 0 72.576 18.432c47.786667 0 82.858667-22.058667 105.386666-65.962666 22.528-43.946667 33.706667-112.64 33.706667-206.165334v-99.242666c0.213333-70.058667-4.096-124.928-12.544-164.522667z m-129.493333 255.744c0 45.738667-1.834667 81.493333-5.674667 107.392-3.669333 25.941333-10.026667 44.373333-18.901333 55.296-8.874667 10.922667-20.736 16.384-35.754667 16.384a62.72 62.72 0 0 1-56.448-32.768V459.946667c4.778667-17.066667 12.970667-30.976 24.576-41.898667 11.648-10.922667 24.149333-16.384 37.802667-16.384 14.336 0 25.472 5.717333 33.237333 16.853333 7.722667 11.136 13.226667 30.293333 16.384 56.661334 2.986667 26.624 4.565333 64.426667 4.565333 113.536v81.024h0.213334z" fill="#282828" p-id="1216"></path></svg>