<?xml version="1.0" encoding="utf-8"?>
<!-- Generator: Adobe Illustrator 19.2.1, SVG Export Plug-In . SVG Version: 6.00 Build 0)  -->
<svg version="1.1" id="layer" xmlns="http://www.w3.org/2000/svg" xmlns:xlink="http://www.w3.org/1999/xlink" x="0px" y="0px"
	 viewBox="0 0 652 652" style="enable-background:new 0 0 652 652;" xml:space="preserve">
<style type="text/css">
	.st0{fill:url(#SVGID_1_);}
	.st1{fill:#11293B;}
</style>
<g>
	
		<linearGradient id="SVGID_1_" gradientUnits="userSpaceOnUse" x1="32.9267" y1="725.1132" x2="27.5307" y2="719.7172" gradientTransform="matrix(23.9866 0 0 -16.946 -643.6331 12562.3604)">
		<stop  offset="0" style="stop-color:#11C4D1"/>
		<stop  offset="1" style="stop-color:#0062AD"/>
	</linearGradient>
	<path class="st0" d="M153.8,278.2c4.4,59.5-33.8,87.6-68.1,90.6c-31.9,2.8-61.9-16.8-64.5-46.9c-2.2-24.9,13.2-35.4,25.3-36.5
		c12.4-1.1,22.8,7.5,23.7,17.8c0.9,10-5.3,14.5-9.7,14.9c-3.4,0.3-7.7-1.8-8.1-6.2c-0.3-3.8,1.1-4.4,0.8-8.4
		c-0.6-7.2-7-8.1-10.4-7.8c-4.2,0.4-11.8,5.3-10.7,17.4c1.1,12.3,12.8,22,28.3,20.6c16.6-1.5,28.2-14.4,29.1-32.6
		c0-1,0.2-1.9,0.6-2.8l0,0c0.2-0.4,0.4-0.7,0.6-1.1c0.4-0.5,0.8-1.1,1.4-1.8c0,0,0,0,0,0c0.4-0.5,0.9-1,1.5-1.6
		c7.3-6.9,33.5-23,58.2-17.9C153,276.2,153.8,277.1,153.8,278.2"/>
	<g transform="translate(33 1.5)">
		<path class="st1" d="M173.3,302.2h11.3c0.2,0,0.4,0.2,0.4,0.4v56.6c0,0.2-0.2,0.4-0.4,0.4h-11.3c-0.2,0-0.4-0.2-0.4-0.4v-56.6
			C172.9,302.4,173.1,302.2,173.3,302.2z"/>
		<path class="st1" d="M345.8,281.9v8.9c0,0.2-0.2,0.4-0.4,0.4h-23c-0.2,0-0.4,0.2-0.4,0.4v67.6c0,0.2-0.2,0.4-0.4,0.4c0,0,0,0,0,0
			h-11.8c-0.2,0-0.4-0.2-0.4-0.4v-67.6c0-0.2-0.2-0.4-0.4-0.4h-25c-0.2,0-0.4-0.2-0.4-0.4v-8.9c0-0.2,0.2-0.4,0.4-0.4h61.4
			c0.1,0,0.2,0,0.3,0.1C345.8,281.7,345.8,281.8,345.8,281.9z M287.2,323l0.1,0v36.2c0,0.2-0.2,0.4-0.4,0.4h-11.1
			c-0.2,0-0.4-0.2-0.4-0.4c0,0,0,0,0,0v-27.8c0-1.2,0-2.4,0-3.5c0-0.6,0-1.2,0-1.8c0-1.7-0.1-3.4-0.3-5c-0.8-6-3.3-10.4-12-10.3
			c-2.5,0.1-5,0.8-7.2,2c-2.6,1.5-5.5,3.6-7.1,6.5c0.3,1.9,0.4,3.9,0.4,5.8v0.1c0,0.3,0,0.6,0,0.9V360c0,0.2-0.2,0.4-0.4,0.4H238
			c-0.2,0-0.4-0.2-0.4-0.4v-28.6c0-6.3,0.3-12.9-2.8-16.9c-1.9-2.4-4.6-3.6-9.8-3.6c-2.1,0-4.9,0.8-7.1,1.8
			c-1.5,0.7-2.8,1.5-4.1,2.6c-1.8,1.6-3,3.6-3,5.8v38.1c0,0.2-0.2,0.4-0.4,0.4h-11c-0.2,0-0.4-0.2-0.4-0.4v-56.2
			c0-0.2,0.2-0.4,0.4-0.4h4.6c1.9,0,3.5,1.2,4.1,2.9l0.7,2.3c0,0.2,0.1,0.3,0.2,0.3c0.1,0.1,0.3,0,0.4-0.1
			c4.9-4.6,11.9-6.8,18.7-6.8c7.1,0,11.6,2.1,14.6,5.4l-0.3-0.4c0.9,1,1.7,2.1,2.4,3.3c0.1,0.2,0.4,0.3,0.5,0.2c0,0,0.1-0.1,0.1-0.1
			c4.5-5.4,13.3-8.4,20.4-8.4C282.2,301.2,287.2,312.2,287.2,323L287.2,323L287.2,323z M468,359.6h-12c-0.1,0-0.2-0.1-0.3-0.2
			c-4.5-6-7.9-11.8-9.4-13.6l-0.3-0.3c-2.5-3.1-7.5-9.5-14.5-10.7c-0.1,0-0.3,0-0.3,0.1l-5.1,5.3c-0.1,0.1-0.1,0.2-0.1,0.3v18.7
			c0,0.2-0.2,0.4-0.4,0.4h-11.2c-0.2,0-0.4-0.2-0.4-0.4v-78.5c0-0.2,0.2-0.4,0.4-0.4h11.2c0.2,0,0.4,0.2,0.4,0.4v45.2
			c0,0.1,0.1,0.3,0.2,0.3c0.1,0.1,0.3,0,0.4-0.1l24.6-24.7c0.1-0.1,0.2-0.1,0.3-0.1h13.2c0.2,0,0.3,0.1,0.3,0.2
			c0.1,0.1,0,0.3-0.1,0.4l-25.1,25c-0.1,0.1-0.1,0.2-0.1,0.3c0,0.1,0.1,0.2,0.2,0.3c7.2,3.3,12.3,9.5,14.6,12.4l0.3,0.3
			c2,2.5,8.7,12.1,13.6,18.7c0.1,0.1,0.1,0.3,0,0.4C468.3,359.6,468.2,359.6,468,359.6L468,359.6z"/>
		<ellipse class="st1" cx="178.9" cy="286.1" rx="7.3" ry="7"/>
		<path class="st1" d="M373.2,299.7c-17.5,0-28.9,11.1-28.9,30.1c0,19,11.5,30.1,28.9,30.1c17.4,0,28.9-11.1,28.9-30.1
			C402.1,310.9,390.6,299.7,373.2,299.7z M373.2,350.5c-11.8,0-17.5-7.7-17.5-21.2c0-13.4,5.7-20.1,17.5-20.1s17.4,7.2,17.4,20.7
			C390.6,343.2,385,350.5,373.2,350.5z M502.7,351.2c-6.3,0.8-12.6-1.8-16.2-6.8c-1.9-2.5-3-5.4-3.7-9.2c0-0.1,0-0.2,0.1-0.3
			c0.1-0.1,0.2-0.1,0.3-0.1l31.9-4.3c8.7-1.2,12.4-8.8,9.1-16.1c-3-6.1-8.2-10.8-14.6-13.2c-8.7-3.4-20.3-1.4-26.5,3.6
			c-8.3,6.6-11.1,14.5-11.6,23c-0.1,0.9-0.1,1.9-0.1,2.8c0,2,0.2,3.9,0.5,5.8c2.2,12.7,11.5,24.3,27.1,24.3
			c17.6,0.1,26-10.2,27.4-17.9c0-0.1,0-0.2-0.1-0.3c-0.1-0.1-0.2-0.1-0.3-0.1l-11,1.6c-0.1,0-0.2,0.1-0.3,0.2
			C511.6,348.5,508.1,350.4,502.7,351.2z M486.2,315.4c3.1-3.8,7.6-6.1,12.5-6.4c5-0.4,9,0.3,12.5,3.6c1.3,1.2,2.3,2.6,3.2,4
			c1.3,2.2-0.1,5.4-3,5.8l-29.1,3.9c-0.1,0-0.2,0-0.3-0.1c-0.1-0.1-0.1-0.2-0.1-0.3C482.4,321.6,483.8,318.4,486.2,315.4z M588,324
			v35.1c0,0.2-0.2,0.4-0.4,0.4h-11c-0.2,0-0.4-0.2-0.4-0.4c0,0,0,0,0,0V330c0,0,0.1-4.9-0.3-9.5c-0.3-3.2-1.4-6.4-4-8.4
			c-3.7-2.9-8.8-2.3-8.8-2.3c-6.4,0.7-12,4.5-15.4,8.4l-0.2,0.2l0.2-0.1v40.8c0,0.2-0.2,0.4-0.4,0.4h-11c-0.2,0-0.4-0.2-0.4-0.4
			c0,0,0,0,0,0v-57.3c0-0.2,0.2-0.4,0.4-0.4h9c0.2,0,0.4,0.2,0.4,0.4v5.6c0,0.1,0.1,0.3,0.2,0.3c0.1,0.1,0.3,0,0.4-0.1
			c4.7-4.8,11.7-7.7,19.1-7.7C571.6,300,588,300.2,588,324L588,324z"/>
	</g>
</g>
</svg>
