<svg width="580" height="400" xmlns="http://www.w3.org/2000/svg">
 <!-- Created with Method Draw - http://github.com/duopixel/Method-Draw/ -->

 <g>
  <title>background</title>
  <rect fill="#fff" id="canvas_background" height="402" width="582" y="-1" x="-1"/>
  <g display="none" overflow="visible" y="0" x="0" height="100%" width="100%" id="canvasGrid">
   <rect fill="url(#gridpattern)" stroke-width="0" y="0" x="0" height="100%" width="100%"/>
  </g>
 </g>
 <g>
  <title>Layer 1</title>
  <g stroke="null" id="svg_8">
   <g stroke="null" transform="matrix(0.9408899631496466,0,0,3.246489729106102,120.95290216907506,0) " id="svg_4" fill-rule="evenodd" fill="#FFF">
    <path stroke="null" id="svg_5" d="m74.960011,57.856502c0.455,0.46 1.146,0.595 1.742,0.342c0.594,-0.256 0.98,-0.84 0.982,-1.486a1.605,1.605 0 0 0 -1.19,-1.545a1.592,1.592 0 0 0 -1.802,0.758a1.643,1.643 0 0 0 0.268,1.931zm-0.149,1.575l2.561,0l0,9.538l-2.561,0l0,-9.538zm8.159,0.223a2.783,2.783 0 0 0 -1.057,1.173l-0.179,-1.381l-2.1,0l0,9.538l2.532,0l0,-4.947c0,-0.862 0.12,-1.486 0.447,-1.932a1.45,1.45 0 0 1 1.31,-0.624c0.29,0 0.572,0.094 0.804,0.268c0.196,0.148 0.346,0.349 0.432,0.579c0.091,0.253 0.147,0.519 0.164,0.787c0.015,0.283 0.015,0.684 0.015,1.189l0,4.68l2.56,0l0,-5.037c0,-0.936 0.12,-1.366 0.432,-1.812a1.712,1.712 0 0 1 1.415,-0.639c0.29,0.008 0.572,0.107 0.804,0.282c0.188,0.156 0.327,0.362 0.402,0.595c0.086,0.243 0.137,0.499 0.149,0.757c0.015,0.283 0.03,0.684 0.03,1.189l0,4.68l2.53,0l0,-5.304c0.006,-0.521 -0.02,-1.042 -0.074,-1.56a4.532,4.532 0 0 0 -0.298,-1.174a2.756,2.756 0 0 0 -1.146,-1.352a3.178,3.178 0 0 0 -1.608,-0.386a3.524,3.524 0 0 0 -1.965,0.49a3.111,3.111 0 0 0 -1.072,1.248a3.083,3.083 0 0 0 -0.983,-1.218a2.957,2.957 0 0 0 -1.727,-0.52a2.853,2.853 0 0 0 -1.817,0.43l0,0.001zm13.058,9.33l2.516,0l0,-1.768c0.041,-0.539 0.215,-1.06 0.507,-1.515c0.135,-0.31 0.294,-0.608 0.476,-0.892c0.15,-0.238 0.314,-0.466 0.491,-0.683l0.298,-0.446c0.283,0.342 2.919,4.829 3.142,5.29l2.918,0c-0.432,-0.877 -3.871,-6.33 -4.362,-7.073l4.198,-5.66l-2.948,0s-4.705,6.21 -4.705,6.403l0,-6.418l-2.53,0l0,12.762l-0.001,0zm27.62,-9.627c-0.343,1.322 -1.712,5.957 -2.085,7.057c-0.52,-1.783 -1.697,-6.003 -1.965,-7.057l-2.487,0c0.492,1.604 2.234,7.978 2.323,8.29c0.09,0.312 0.149,0.624 0.253,0.966c0.104,0.332 0.164,0.677 0.179,1.025c0.004,0.44 -0.161,0.865 -0.462,1.188c-0.338,0.347 -0.81,0.531 -1.295,0.505l-1.534,-0.074l0,2.229l1.713,0.074l0.193,0c0.488,-0.006 0.97,-0.112 1.415,-0.312c0.43,-0.2 0.823,-0.47 1.161,-0.802a5.29,5.29 0 0 0 0.864,-1.13c0.238,-0.415 0.461,-0.846 0.655,-1.277a51.249,51.249 0 0 0 2.025,-5.468c0.61,-1.797 1.072,-3.432 1.593,-5.214l-2.546,0z"/>
    <path stroke="null" id="svg_6" d="m112.168011,67.067502a8.095,8.095 0 0 1 -1.34,0.06a2.375,2.375 0 0 1 -1.117,-0.372a1.025,1.025 0 0 1 -0.327,-0.341a1.086,1.086 0 0 1 -0.12,-0.372c-0.03,-0.312 0,-0.505 0.477,-0.624l2.382,-0.52c0.49,-0.109 0.972,-0.248 1.445,-0.416c0.372,-0.128 0.72,-0.32 1.027,-0.564c0.268,-0.21 0.482,-0.48 0.625,-0.788a2.52,2.52 0 0 0 0.15,-1.055a2.66,2.66 0 0 0 -0.284,-1.158a3.378,3.378 0 0 0 -1.95,-1.664a5.292,5.292 0 0 0 -1.683,-0.223a5.89,5.89 0 0 0 -2.084,0.386a4.248,4.248 0 0 0 -1.504,1.055a4.48,4.48 0 0 0 -1.012,1.56a5.39,5.39 0 0 0 -0.358,2.065c0,0.7 0.105,1.396 0.313,2.065c0.176,0.578 0.476,1.11 0.878,1.56c0.404,0.443 0.903,0.788 1.46,1.01c0.65,0.252 1.343,0.373 2.04,0.357c0.815,0.01 1.629,-0.07 2.426,-0.238a4.228,4.228 0 0 0 1.772,-0.876l0,-2.11c-0.923,0.698 -2.07,1.04 -3.216,1.203zm-2.903,-3.283a0.26,0.26 0 0 1 -0.313,-0.297a3.173,3.173 0 0 1 0.7,-1.56c0.448,-0.52 1.1,-0.818 1.787,-0.817c0.314,-0.012 0.626,0.071 0.893,0.237a0.961,0.961 0 0 1 0.491,0.773c0.015,0.55 -0.446,0.921 -1.34,1.144l-2.218,0.52z" fill-rule="nonzero"/>
    <path stroke="null" id="svg_7" d="m66.056011,68.598502a5.974,5.974 0 0 1 -4.258,5.7a5.992,5.992 0 0 1 -6.706,-2.403a5.962,5.962 0 0 1 0.348,-7.1c0.4,-0.495 1.104,-0.621 1.652,-0.298l1.668,0.98c-0.357,0.357 -0.7,0.729 -1.027,1.115a3.066,3.066 0 0 0 -0.26,3.672a3.08,3.08 0 0 0 3.457,1.283a3.072,3.072 0 0 0 2.208,-2.95a3.081,3.081 0 0 0 -1.34,-2.54l-0.015,0l-0.358,-0.208l-1.86,-1.1l-0.016,-0.014l-2.382,-1.397l-0.953,-0.564c-0.045,-0.03 -0.074,-0.045 -0.12,-0.075a3.466,3.466 0 0 1 -0.386,-0.252a7.569,7.569 0 0 1 -2.931,-8.38a7.59,7.59 0 0 1 7.052,-5.407a7.593,7.593 0 0 1 7.36,4.982a7.567,7.567 0 0 1 -2.429,8.537a1.304,1.304 0 0 1 -1.474,0.104l-2.68,-1.545l0,-3.328l1.237,0l0,-3.402l-1.237,0l0,-1.426l-2.053,0l0,8.186l2.054,1.189l2.249,1.307c0.036,0.017 0.07,0.037 0.104,0.06l0.104,0.059c0.06,0.03 0.104,0.06 0.164,0.089a6.04,6.04 0 0 1 2.829,5.126l-0.001,0z"/>
   </g>
  </g>
 </g>
</svg>