<svg width="132" height="40" viewBox="0 0 132 40" fill="none" xmlns="http://www.w3.org/2000/svg">
<path d="M8.477 39.9981C8.13507 39.9981 7.8023 39.9933 7.46444 39.9867C6.76345 39.978 6.06411 39.9208 5.37216 39.8156C4.72675 39.712 4.10148 39.5191 3.51699 39.2433C2.93791 38.9694 2.40979 38.6102 1.95286 38.1795C1.48958 37.7542 1.10389 37.261 0.811065 36.7193C0.514953 36.1741 0.310063 35.5896 0.203529 34.9863C0.0881055 34.3383 0.02551 33.683 0.0162824 33.0261C0.0101765 32.8056 0 32.0707 0 32.0707V7.91596C0 7.91596 0.0101765 7.19348 0.0162824 6.98054C0.0254412 6.3246 0.0875177 5.66961 0.202512 5.02222C0.309118 4.41745 0.513993 3.83143 0.810047 3.28446C1.40556 2.19635 2.35263 1.31097 3.51699 0.753856C4.09967 0.478549 4.72332 0.286595 5.36707 0.184424C6.06132 0.0785038 6.76308 0.0213056 7.46648 0.0133089L8.477 0H123.517L124.54 0.0123583C125.237 0.020914 125.932 0.0770017 126.62 0.183473C127.27 0.286032 127.901 0.478928 128.49 0.755757C129.652 1.31514 130.597 2.20001 131.193 3.28636C131.485 3.82917 131.687 4.41096 131.793 5.01081C131.908 5.66295 131.974 6.32269 131.987 6.98434C131.99 7.27999 131.99 7.59845 131.99 7.91501C132 8.30668 132 8.68028 132 9.05578V30.9414C132 31.3216 132 31.6924 131.99 32.066C131.99 32.4063 131.99 32.7172 131.986 33.0385C131.973 33.6881 131.909 34.3359 131.794 34.9768C131.69 35.5844 131.486 36.1734 131.19 36.7231C130.895 37.2589 130.511 37.7478 130.053 38.1719C129.595 38.6044 129.066 38.9655 128.486 39.2414C127.898 39.5192 127.269 39.7128 126.62 39.8156C125.928 39.9211 125.229 39.9781 124.527 39.9867C124.2 39.9933 123.856 39.9971 123.523 39.9971L122.309 40L8.477 39.9981Z" fill="black"/>
<path fill-rule="evenodd" clip-rule="evenodd" d="M23.7803 12.4828C23.8223 12.4279 23.8684 12.3751 23.9186 12.3249L25.7828 10.4608C26.3972 9.84639 27.3934 9.84639 28.0078 10.4608C28.6222 11.0752 28.6222 12.0714 28.0078 12.6858L26.4032 14.2904C27.7857 15.6063 28.6248 17.2408 28.9533 19.1731C29.1354 20.2428 28.7969 20.6553 27.6236 20.6451L10.5565 20.6499C9.30703 20.6685 8.86862 20.2086 9.08224 19.106C9.42609 17.3352 10.1512 15.8188 11.2775 14.5933L9.46082 12.7766C8.84639 12.1622 8.84639 11.166 9.46082 10.5516C10.0752 9.93719 11.0714 9.93719 11.6858 10.5516L13.55 12.4157C13.6359 12.5016 13.7097 12.595 13.7716 12.6937C14.1302 12.5034 14.5091 12.3285 14.9084 12.1693C17.9746 10.9459 20.9751 11.0725 23.7803 12.4828ZM15.2026 17.0802C15.2026 17.5147 14.8504 17.8669 14.4159 17.8669C13.9815 17.8669 13.6293 17.5147 13.6293 17.0802C13.6293 16.6458 13.9815 16.2936 14.4159 16.2936C14.8504 16.2936 15.2026 16.6458 15.2026 17.0802ZM23.6136 17.8669C24.0481 17.8669 24.4003 17.5147 24.4003 17.0802C24.4003 16.6458 24.0481 16.2936 23.6136 16.2936C23.1791 16.2936 22.8269 16.6458 22.8269 17.0802C22.8269 17.5147 23.1791 17.8669 23.6136 17.8669Z" fill="#A4C639"/>
<path d="M10.1959 29.3309C10.6101 29.3309 10.8313 29.1191 10.9866 28.5731L11.2361 27.8059H13.3965L13.6412 28.5731C13.7966 29.105 14.0366 29.3309 14.4508 29.3309C14.8979 29.3309 15.1898 29.0673 15.1898 28.6579C15.1898 28.4931 15.1474 28.3049 15.0627 28.0413L13.6459 23.8758C13.3871 23.1086 13.0294 22.8074 12.3516 22.8074C11.6738 22.8074 11.3067 23.1133 11.0525 23.8758L9.63108 28.0413C9.52283 28.3566 9.48047 28.5355 9.48047 28.6908C9.48047 29.0673 9.77229 29.3309 10.1959 29.3309ZM11.5561 26.681L12.2857 24.2476H12.361L13.0811 26.681H11.5561Z" fill="#A4C639"/>
<path d="M17.1964 29.3262C17.6953 29.3262 17.9777 29.0203 17.9777 28.4884V27.227H19.0132C20.4864 27.227 21.3901 26.441 21.3901 25.0337C21.3901 23.7111 20.5005 22.8544 19.0932 22.8544H17.4412C16.7069 22.8544 16.4245 23.151 16.4245 23.9182V28.4884C16.4245 29.025 16.7022 29.3262 17.1964 29.3262ZM17.9824 26.0692V24.0547H18.8626C19.498 24.0547 19.851 24.4218 19.851 25.0619C19.851 25.8056 19.4933 26.0692 18.6884 26.0692H17.9824Z" fill="#A4C639"/>
<path d="M27.0916 29.3168C27.534 29.3168 27.8399 29.0156 27.8399 28.5826C27.8399 28.366 27.7693 28.206 27.5199 27.8718L25.9102 25.6973L27.421 24.0641C27.6281 23.8382 27.7034 23.6922 27.7034 23.4993C27.7034 23.118 27.4069 22.8168 27.021 22.8168C26.7997 22.8168 26.6209 22.9156 26.4091 23.1463L24.2487 25.4949H24.164V23.6452C24.164 23.1133 23.8816 22.8074 23.3826 22.8074C22.8837 22.8074 22.606 23.1086 22.606 23.6452V28.4884C22.606 29.0156 22.8978 29.3262 23.4015 29.3262C23.891 29.3262 24.164 29.025 24.164 28.4884V27.2835L24.757 26.681L26.3196 28.832C26.5644 29.1709 26.7997 29.3168 27.0916 29.3168Z" fill="#A4C639"/>
<path d="M33.416 8.808V9.552H36.408V15.824H37.168V11.408C37.84 11.752 38.68 12.256 39.688 12.912L40.144 12.224C39.136 11.616 38.144 11.072 37.168 10.6V9.552H40.576V8.808H33.416ZM41.872 9.024V9.712H43.368V10.288H41.456V10.984H45.896C45.944 11.672 46.032 12.272 46.144 12.768C46.224 13.168 46.328 13.536 46.44 13.872C46.048 14.464 45.576 14.912 45.016 15.216L45.424 15.824C45.92 15.552 46.368 15.176 46.768 14.68C46.824 14.792 46.888 14.904 46.96 15.008C47.296 15.488 47.6 15.728 47.888 15.728C48.248 15.728 48.52 15.192 48.704 14.128L48.056 13.784C47.968 14.56 47.88 14.952 47.8 14.952C47.696 14.952 47.552 14.76 47.36 14.392C47.304 14.288 47.248 14.168 47.2 14.04C47.592 13.368 47.912 12.544 48.16 11.568L47.48 11.264C47.328 11.912 47.136 12.496 46.904 13.024C46.872 12.888 46.848 12.744 46.816 12.6C46.736 12.184 46.672 11.648 46.624 10.984H48.536V10.288H46.584C46.552 9.728 46.536 9.104 46.536 8.408H45.8C45.8 9.08 45.816 9.712 45.848 10.288H44.104V9.712H45.488V9.024H44.104V8.416H43.368V9.024H41.872ZM47.352 8.488L46.776 8.856C47.176 9.304 47.488 9.704 47.712 10.064L48.28 9.664C48.064 9.328 47.752 8.936 47.352 8.488ZM45.488 14.096C45.112 14.144 44.72 14.184 44.304 14.224V13.712H45.448V13.08H44.304V12.552H43.56V13.08H42.784C42.944 12.832 43.104 12.56 43.248 12.256H45.528V11.584H43.528C43.576 11.456 43.624 11.328 43.672 11.184L42.952 11.048C42.888 11.232 42.832 11.408 42.768 11.584H41.696V12.256H42.472C42.304 12.592 42.128 12.872 41.936 13.104L42.08 13.712H43.56V14.296C42.984 14.344 42.384 14.384 41.744 14.416L41.832 15.12C42.432 15.072 43.008 15.024 43.56 14.976V15.8H44.304V14.896C44.712 14.848 45.104 14.8 45.488 14.752V14.096Z" fill="#FAFAFA"/>
<path d="M35.392 26.152L35.886 24.605C36.237 23.526 36.549 22.512 36.861 21.381H36.913C37.238 22.499 37.537 23.526 37.901 24.605L38.395 26.152H35.392ZM39.617 30H40.761L37.498 20.484H36.315L33.065 30H34.144L35.119 26.997H38.668L39.617 30ZM42.0426 30H43.0956V24.865C43.8236 24.111 44.3566 23.721 45.0976 23.721C46.0726 23.721 46.4886 24.319 46.4886 25.671V30H47.5546V25.541C47.5546 23.747 46.8786 22.798 45.4096 22.798C44.4476 22.798 43.7196 23.344 43.0436 24.007H43.0046L42.9006 22.98H42.0426V30ZM52.2797 30.169C53.1377 30.169 53.8917 29.714 54.4507 29.155H54.4767L54.5807 30H55.4517V19.652H54.3987V22.408L54.4507 23.63C53.8137 23.11 53.2677 22.798 52.4357 22.798C50.8237 22.798 49.3807 24.228 49.3807 26.503C49.3807 28.843 50.5117 30.169 52.2797 30.169ZM52.5007 29.272C51.2137 29.272 50.4857 28.219 50.4857 26.49C50.4857 24.852 51.4087 23.695 52.6047 23.695C53.2157 23.695 53.7617 23.916 54.3987 24.475V28.271C53.7747 28.934 53.1767 29.272 52.5007 29.272ZM57.9118 30H58.9648V25.424C59.4458 24.202 60.1738 23.76 60.7718 23.76C61.0448 23.76 61.2008 23.799 61.4348 23.877L61.6428 22.954C61.4088 22.837 61.2008 22.798 60.9018 22.798C60.1088 22.798 59.3938 23.383 58.9128 24.267H58.8738L58.7698 22.98H57.9118V30ZM65.3759 30.169C67.0919 30.169 68.6129 28.817 68.6129 26.503C68.6129 24.15 67.0919 22.798 65.3759 22.798C63.6599 22.798 62.1519 24.15 62.1519 26.503C62.1519 28.817 63.6599 30.169 65.3759 30.169ZM65.3759 29.285C64.1149 29.285 63.2439 28.167 63.2439 26.503C63.2439 24.826 64.1149 23.695 65.3759 23.695C66.6369 23.695 67.5209 24.826 67.5209 26.503C67.5209 28.167 66.6369 29.285 65.3759 29.285ZM70.5182 30H71.5712V22.98H70.5182V30ZM71.0512 21.472C71.4672 21.472 71.8182 21.173 71.8182 20.757C71.8182 20.302 71.4672 20.029 71.0512 20.029C70.6092 20.029 70.2842 20.302 70.2842 20.757C70.2842 21.173 70.6092 21.472 71.0512 21.472ZM76.3754 30.169C77.2334 30.169 77.9874 29.714 78.5464 29.155H78.5724L78.6764 30H79.5474V19.652H78.4944V22.408L78.5464 23.63C77.9094 23.11 77.3634 22.798 76.5314 22.798C74.9194 22.798 73.4764 24.228 73.4764 26.503C73.4764 28.843 74.6074 30.169 76.3754 30.169ZM76.5964 29.272C75.3094 29.272 74.5814 28.219 74.5814 26.49C74.5814 24.852 75.5044 23.695 76.7004 23.695C77.3114 23.695 77.8574 23.916 78.4944 24.475V28.271C77.8704 28.934 77.2724 29.272 76.5964 29.272ZM85.812 21.459H94.496V23.214H95.393V20.653H90.752C90.57 20.224 90.258 19.613 89.985 19.119L89.114 19.34C89.322 19.73 89.569 20.237 89.751 20.653H84.941V23.214H85.812V21.459ZM92.26 25.021C91.844 26.113 91.246 27.01 90.466 27.725C89.504 27.335 88.529 26.984 87.58 26.672C87.931 26.191 88.295 25.632 88.659 25.021H92.26ZM95.757 25.021V24.189H89.153C89.517 23.526 89.855 22.85 90.115 22.252L89.218 22.057C88.932 22.72 88.568 23.448 88.139 24.189H84.616V25.021H87.645C87.177 25.788 86.696 26.503 86.241 27.062L86.228 27.075C87.346 27.413 88.542 27.868 89.712 28.349C88.451 29.22 86.813 29.792 84.824 30.156C85.006 30.351 85.279 30.728 85.37 30.936C87.489 30.455 89.231 29.792 90.596 28.726C92.26 29.441 93.755 30.221 94.73 30.871L95.445 30.117C94.431 29.48 92.949 28.752 91.337 28.076C92.143 27.257 92.78 26.269 93.222 25.021H95.757ZM104.805 23.903H102.049V24.67H108.523V23.903H105.663V21.732H108.757V20.965H105.663V19.132H104.805V20.965H101.659V21.732H104.805V23.903ZM99.761 21.212C99.436 20.796 98.734 20.25 98.162 19.886L97.629 20.38C98.214 20.77 98.89 21.342 99.215 21.771L99.761 21.212ZM100.268 25.203H101.087V19.132H100.268V22.382C99.111 22.902 97.993 23.448 97.2 23.76L97.499 24.488C98.305 24.111 99.306 23.656 100.268 23.188V25.203ZM107.574 27.023C107.002 27.439 106.066 27.998 105.286 28.375C104.727 27.907 104.272 27.348 103.908 26.737H108.952V26.022H103.882C103.713 25.671 103.479 25.229 103.258 24.878L102.426 25.112C102.595 25.385 102.764 25.723 102.894 26.022H97.395V26.737H101.997C100.775 27.634 98.877 28.362 97.213 28.7C97.382 28.869 97.59 29.155 97.707 29.35C98.5 29.155 99.319 28.895 100.112 28.544V29.532C100.112 30.052 99.696 30.234 99.449 30.312C99.566 30.494 99.722 30.845 99.761 31.04C100.021 30.871 100.463 30.767 104.142 29.948C104.142 29.779 104.142 29.441 104.181 29.233L100.957 29.922V28.154C101.776 27.738 102.517 27.257 103.076 26.737H103.089C104.142 28.843 106.053 30.26 108.588 30.884C108.692 30.663 108.913 30.338 109.095 30.182C107.86 29.909 106.742 29.454 105.845 28.804C106.625 28.44 107.522 27.959 108.211 27.491L107.574 27.023ZM120.067 21.719C119.95 25.45 119.807 26.776 119.547 27.101C119.43 27.244 119.313 27.27 119.105 27.27C118.897 27.27 118.351 27.27 117.766 27.218C117.896 27.439 117.974 27.79 118 28.037C118.598 28.076 119.17 28.076 119.508 28.05C119.846 28.011 120.093 27.92 120.314 27.647C120.665 27.179 120.808 25.684 120.951 21.316C120.964 21.199 120.964 20.887 120.964 20.887H113.697C113.996 20.38 114.269 19.86 114.516 19.314L113.645 19.067C112.891 20.848 111.604 22.525 110.187 23.578C110.395 23.734 110.746 24.059 110.902 24.202C111.695 23.552 112.475 22.707 113.164 21.719H120.067ZM116.661 23.916V26.126H113.099V23.916H116.661ZM114.737 29.883C113.346 29.883 113.099 29.701 113.099 28.999V26.919H117.493V23.136H112.241V28.999C112.241 30.364 112.839 30.702 114.802 30.702H119.833C121.562 30.702 121.926 30.221 122.095 28.531C121.861 28.492 121.484 28.362 121.276 28.219C121.146 29.584 120.951 29.883 119.833 29.883H114.737Z" fill="#FAFAFA"/>
</svg>
