<svg xmlns="http://www.w3.org/2000/svg" width="93" height="93" viewBox="0 0 93 93">
    <g fill="#FFF" fill-rule="evenodd">
        <path d="M22.647 9.256c.455.46 1.146.595 1.742.342.594-.256.98-.84.982-1.486a1.605 1.605 0 0 0-1.19-1.545 1.592 1.592 0 0 0-1.802.758 1.643 1.643 0 0 0 .268 1.931zM22.498 10.831h2.561v9.538h-2.561zM30.657 11.054a2.783 2.783 0 0 0-1.057 1.173l-.179-1.381h-2.1v9.538h2.532v-4.947c0-.862.12-1.486.447-1.932a1.45 1.45 0 0 1 1.31-.624c.29 0 .572.094.804.268.196.148.346.349.432.579.091.253.147.519.164.787.015.283.015.684.015 1.189v4.68h2.56v-5.037c0-.936.12-1.366.432-1.812a1.712 1.712 0 0 1 1.415-.639c.29.008.572.107.804.282.188.156.327.362.402.595.086.243.137.499.149.757.015.283.03.684.03 1.189v4.68h2.53v-5.304c.006-.521-.02-1.042-.074-1.56a4.532 4.532 0 0 0-.298-1.174 2.756 2.756 0 0 0-1.146-1.352 3.178 3.178 0 0 0-1.608-.386 3.524 3.524 0 0 0-1.965.49 3.111 3.111 0 0 0-1.072 1.248 3.083 3.083 0 0 0-.983-1.218 2.957 2.957 0 0 0-1.727-.52 2.853 2.853 0 0 0-1.817.43zM43.715 20.384h2.516v-1.768c.041-.539.215-1.06.507-1.515.135-.31.294-.608.476-.892.15-.238.314-.466.491-.683l.298-.446c.283.342 2.919 4.829 3.142 5.29h2.918c-.432-.877-3.871-6.33-4.362-7.073l4.198-5.66h-2.948s-4.705 6.21-4.705 6.403V7.622h-2.53v12.762zM71.335 10.757c-.343 1.322-1.712 5.957-2.085 7.057-.52-1.783-1.697-6.003-1.965-7.057h-2.487c.492 1.604 2.234 7.978 2.323 8.29.09.312.149.624.253.966.104.332.164.677.179 1.025.004.44-.161.865-.462 1.188-.338.347-.81.531-1.295.505l-1.534-.074v2.229l1.713.074h.193c.488-.006.97-.112 1.415-.312.43-.2.823-.47 1.161-.802a5.29 5.29 0 0 0 .864-1.13c.238-.415.461-.846.655-1.277a51.249 51.249 0 0 0 2.025-5.468c.61-1.797 1.072-3.432 1.593-5.214h-2.546z"/>
        <path fill-rule="nonzero" d="M59.855 18.467a8.095 8.095 0 0 1-1.34.06 2.375 2.375 0 0 1-1.117-.372 1.025 1.025 0 0 1-.327-.341 1.086 1.086 0 0 1-.12-.372c-.03-.312 0-.505.477-.624l2.382-.52c.49-.109.972-.248 1.445-.416.372-.128.72-.32 1.027-.564.268-.21.482-.48.625-.788a2.52 2.52 0 0 0 .15-1.055 2.66 2.66 0 0 0-.284-1.158 3.378 3.378 0 0 0-1.95-1.664 5.292 5.292 0 0 0-1.683-.223 5.89 5.89 0 0 0-2.084.386 4.248 4.248 0 0 0-1.504 1.055 4.48 4.48 0 0 0-1.012 1.56 5.39 5.39 0 0 0-.358 2.065c0 .7.105 1.396.313 2.065.176.578.476 1.11.878 1.56.404.443.903.788 1.46 1.01.65.252 1.343.373 2.04.357.815.01 1.629-.07 2.426-.238a4.228 4.228 0 0 0 1.772-.876v-2.11c-.923.698-2.07 1.04-3.216 1.203zm-2.903-3.283a.26.26 0 0 1-.313-.297 3.173 3.173 0 0 1 .7-1.56c.448-.52 1.1-.818 1.787-.817.314-.012.626.071.893.237a.961.961 0 0 1 .491.773c.015.55-.446.921-1.34 1.144l-2.218.52z"/>
        <path d="M13.743 19.998a5.974 5.974 0 0 1-4.258 5.7 5.992 5.992 0 0 1-6.706-2.403 5.962 5.962 0 0 1 .348-7.1c.4-.495 1.104-.621 1.652-.298l1.668.98c-.357.357-.7.729-1.027 1.115a3.066 3.066 0 0 0-.26 3.672 3.08 3.08 0 0 0 3.457 1.283 3.072 3.072 0 0 0 2.208-2.95 3.081 3.081 0 0 0-1.34-2.54H9.47l-.358-.208-1.86-1.1-.016-.014-2.382-1.397-.953-.564c-.045-.03-.074-.045-.12-.075a3.466 3.466 0 0 1-.386-.252 7.569 7.569 0 0 1-2.931-8.38A7.59 7.59 0 0 1 7.516.06a7.593 7.593 0 0 1 7.36 4.982 7.567 7.567 0 0 1-2.429 8.537 1.304 1.304 0 0 1-1.474.104l-2.68-1.545V8.81H9.53V5.408H8.293V3.982H6.24v8.186l2.054 1.189 2.249 1.307c.036.017.07.037.104.06l.104.059c.06.03.104.06.164.089a6.04 6.04 0 0 1 2.829 5.126z"/>
    </g>
</svg>
