<svg width="345" height="246" viewBox="0 0 345 246" fill="none" xmlns="http://www.w3.org/2000/svg">
<circle cx="193.5" cy="107.5" r="3.5" fill="#E8E8E8"/>
<rect x="25.75" y="228.75" width="59.5" height="9.5" rx="4.75" stroke="black" stroke-width="1.5"/>
<rect x="0.75" y="218.75" width="59.5" height="9.5" rx="4.75" stroke="black" stroke-width="1.5"/>
<rect x="12.75" y="207.75" width="59.5" height="10.5" rx="5.25" stroke="black" stroke-width="1.5"/>
<rect x="108.624" y="0.623684" width="118.5" height="235.753" rx="21.8289" fill="white" stroke="black" stroke-width="1.24737"/>
<rect x="114.487" y="6.48682" width="106.774" height="224.026" rx="17.2132" fill="white" stroke="black" stroke-width="0.5"/>
<circle cx="168" cy="180" r="11" fill="#E8E8E8"/>
<rect x="189.5" y="65.5" width="16" height="6" rx="1.5" stroke="white"/>
<path d="M155.862 62H144.296C143.283 62 142.462 62.8209 142.462 63.8336C142.462 64.8463 143.283 65.6672 144.296 65.6672H155.862C156.874 65.6672 157.695 64.8463 157.695 63.8336C157.695 62.8209 156.874 62 155.862 62Z" fill="#E8E8E8"/>
<path d="M197.612 62H164.889C163.877 62 163.056 62.8209 163.056 63.8336C163.056 64.8463 163.877 65.6672 164.889 65.6672H197.612C198.624 65.6672 199.445 64.8463 199.445 63.8336C199.445 62.8209 198.624 62 197.612 62Z" fill="#E8E8E8"/>
<path d="M189.431 85.6957H187.738C186.726 85.6957 185.905 86.5166 185.905 87.5293C185.905 88.5419 186.726 89.3629 187.738 89.3629H189.431C190.444 89.3629 191.265 88.5419 191.265 87.5293C191.265 86.5166 190.444 85.6957 189.431 85.6957Z" fill="#E8E8E8"/>
<path d="M200.15 85.6957H198.458C197.445 85.6957 196.624 86.5166 196.624 87.5293C196.624 88.5419 197.445 89.3629 198.458 89.3629H200.15C201.163 89.3629 201.984 88.5419 201.984 87.5293C201.984 86.5166 201.163 85.6957 200.15 85.6957Z" fill="#E8E8E8"/>
<path d="M178.43 85.6957H145.707C144.694 85.6957 143.874 86.5166 143.874 87.5293C143.874 88.5419 144.694 89.3629 145.707 89.3629H178.43C179.442 89.3629 180.263 88.5419 180.263 87.5293C180.263 86.5166 179.442 85.6957 178.43 85.6957Z" fill="#E8E8E8"/>
<path d="M199.586 70.1807H188.021C187.008 70.1807 186.187 71.0016 186.187 72.0143C186.187 73.0269 187.008 73.8479 188.021 73.8479H199.586C200.599 73.8479 201.42 73.0269 201.42 72.0143C201.42 71.0016 200.599 70.1807 199.586 70.1807Z" fill="#E8E8E8"/>
<path d="M137.527 70.1807H135.834C134.821 70.1807 134 71.0016 134 72.0143C134 73.0269 134.821 73.8479 135.834 73.8479H137.527C138.539 73.8479 139.36 73.0269 139.36 72.0143C139.36 71.0016 138.539 70.1807 137.527 70.1807Z" fill="#E8E8E8"/>
<path d="M179.276 70.1807H146.553C145.541 70.1807 144.72 71.0016 144.72 72.0143C144.72 73.0269 145.541 73.8479 146.553 73.8479H179.276C180.289 73.8479 181.109 73.0269 181.109 72.0143C181.109 71.0016 180.289 70.1807 179.276 70.1807Z" fill="#E8E8E8"/>
<path d="M156.426 81.7464H167.992C169.004 81.7464 169.825 80.9255 169.825 79.9128C169.825 78.9001 169.004 78.0792 167.992 78.0792H156.426C155.413 78.0792 154.592 78.9001 154.592 79.9128C154.592 80.9255 155.413 81.7464 156.426 81.7464Z" fill="#E8E8E8"/>
<path d="M135.834 81.7464H147.399C148.412 81.7464 149.233 80.9255 149.233 79.9128C149.233 78.9001 148.412 78.0792 147.399 78.0792H135.834C134.821 78.0792 134 78.9001 134 79.9128C134 80.9255 134.821 81.7464 135.834 81.7464Z" fill="#E8E8E8"/>
<path d="M176.737 81.7464H209.459C210.472 81.7464 211.293 80.9255 211.293 79.9128C211.293 78.9001 210.472 78.0792 209.459 78.0792H176.737C175.724 78.0792 174.903 78.9001 174.903 79.9128C174.903 80.9255 175.724 81.7464 176.737 81.7464Z" fill="#E8E8E8"/>
<path d="M154.25 201C154.25 222.677 136.677 240.25 115 240.25C93.3228 240.25 75.75 222.677 75.75 201C75.75 179.323 93.3228 161.75 115 161.75C136.677 161.75 154.25 179.323 154.25 201Z" fill="white" stroke="black" stroke-width="1.5"/>
<path d="M146.75 201C146.75 218.535 132.535 232.75 115 232.75C97.465 232.75 83.25 218.535 83.25 201C83.25 183.465 97.465 169.25 115 169.25C132.535 169.25 146.75 183.465 146.75 201Z" stroke="black" stroke-width="0.5"/>
<path d="M113.545 220V215.325C111.064 215.279 108.497 214.446 107 213.289L108.027 210.188C109.806 211.458 111.964 212.155 114.187 212.178C117.225 212.178 119.278 210.28 119.278 207.642C119.278 205.096 117.61 203.523 114.444 202.134C110.08 200.283 107.385 198.153 107.385 194.127C107.385 190.285 109.909 187.369 113.845 186.675V182H116.497V186.49C118.475 186.515 120.404 187.077 122.059 188.11L120.989 191.164C119.402 190.13 117.522 189.581 115.599 189.591C112.305 189.591 111.064 191.72 111.064 193.571C111.064 195.978 112.647 197.181 116.369 198.848C120.775 200.792 123 203.199 123 207.318C123 210.974 120.647 214.4 116.241 215.186V220H113.545Z" fill="#FAC166"/>
<path d="M74.2495 176C74.2495 192.707 60.7061 206.25 43.9995 206.25C27.2929 206.25 13.7495 192.707 13.7495 176C13.7495 159.293 27.2929 145.75 43.9995 145.75C60.7061 145.75 74.2495 159.293 74.2495 176Z" fill="white" stroke="black" stroke-width="1.5"/>
<path d="M68.5497 176C68.5497 189.559 57.5583 200.55 43.9997 200.55C30.4411 200.55 19.4497 189.559 19.4497 176C19.4497 162.441 30.4411 151.45 43.9997 151.45C57.5583 151.45 68.5497 162.441 68.5497 176Z" stroke="black" stroke-width="0.5"/>
<path d="M43.4995 190V186.555C41.7936 186.521 40.0289 185.907 38.9995 185.055L39.7053 182.77C40.9286 183.706 42.4121 184.219 43.9406 184.236C46.0289 184.236 47.4406 182.838 47.4406 180.894C47.4406 179.018 46.2936 177.859 44.1171 176.835C41.1171 175.471 39.2642 173.902 39.2642 170.935C39.2642 168.105 40.9995 165.956 43.7054 165.445V162H45.5289V165.308C46.8886 165.327 48.2149 165.741 49.3524 166.502L48.617 168.753C47.5261 167.99 46.2333 167.586 44.9112 167.593C42.6466 167.593 41.7936 169.162 41.7936 170.526C41.7936 172.3 42.8818 173.186 45.4407 174.414C48.47 175.847 49.9995 177.62 49.9995 180.655C49.9995 183.349 48.3818 185.873 45.3524 186.453V190H43.4995Z" fill="#E8E8E8"/>
<path d="M271.197 55H179.804C178.648 55 177.503 55.2277 176.435 55.6702C175.367 56.1126 174.396 56.7612 173.579 57.5787C172.761 58.3963 172.113 59.3669 171.67 60.4351C171.228 61.5033 171 62.6482 171 63.8044V112.23C171 114.565 171.928 116.805 173.579 118.456C175.23 120.107 177.469 121.035 179.804 121.035H271.197C272.353 121.035 273.498 120.807 274.566 120.365C275.634 119.922 276.605 119.274 277.422 118.456C278.24 117.638 278.889 116.668 279.331 115.6C279.773 114.531 280.001 113.387 280.001 112.23V63.8044C280.001 62.6482 279.773 61.5033 279.331 60.4351C278.889 59.3669 278.24 58.3963 277.422 57.5788C276.605 56.7612 275.634 56.1127 274.566 55.6702C273.498 55.2277 272.353 55 271.197 55ZM271.572 104.612C271.568 106.021 271.007 107.371 270.01 108.368C269.014 109.364 267.663 109.926 266.254 109.93H252.959C251.549 109.926 250.199 109.364 249.203 108.368C248.206 107.371 247.644 106.021 247.64 104.612L247.649 97.1027C247.653 95.6935 248.214 94.3432 249.211 93.3467C250.207 92.3502 251.558 91.7886 252.967 91.7845H266.262C267.672 91.7886 269.022 92.3502 270.018 93.3467C271.015 94.3432 271.577 95.6935 271.581 97.1027L271.572 104.612Z" fill="#2F3133"/>
<circle cx="178.5" cy="113.5" r="3.5" fill="#E8E8E8"/>
<path fill-rule="evenodd" clip-rule="evenodd" d="M193.554 78.2187C193.548 79.872 192.415 81.3276 190.762 81.8047C189.109 82.2818 187.325 81.6683 186.366 80.2932C185.408 78.9182 185.5 77.1047 186.594 75.8257C186.857 75.5147 187.318 75.4352 187.678 75.6387L188.771 76.2557C188.537 76.48 188.312 76.7137 188.097 76.9568C187.511 77.6053 187.442 78.5461 187.927 79.2672C188.411 79.9882 189.335 80.317 190.194 80.0745C191.052 79.832 191.642 79.0763 191.641 78.2187C191.641 77.5799 191.312 76.982 190.762 76.6203H190.752L190.518 76.4894L189.298 75.7977L189.288 75.7883L187.727 74.9096L187.102 74.5544C187.073 74.5357 187.053 74.5264 187.024 74.5077C186.936 74.4602 186.851 74.4071 186.77 74.3488C185.009 73.172 184.235 71.047 184.849 69.0767C185.462 67.1065 187.326 65.7349 189.472 65.6741C191.618 65.6133 193.563 66.8768 194.297 68.8089C195.031 70.7409 194.389 72.9061 192.705 74.1805C192.428 74.3923 192.043 74.4184 191.738 74.2459L189.981 73.2738V71.1799H190.791V69.0392H189.981V68.1418H188.634V73.2925L189.981 74.0403L191.455 74.8629C191.479 74.8738 191.502 74.8863 191.524 74.9003L191.592 74.9377C191.631 74.9564 191.66 74.9751 191.699 74.9938C192.856 75.6914 193.556 76.9097 193.554 78.2187Z" fill="#E8E8E8"/>
<rect x="252.053" y="96.3525" width="6.33611" height="1.81032" rx="0.905159" fill="#E8E8E8"/>
<rect x="252.053" y="99.9731" width="6.33611" height="1.81033" rx="0.905163" fill="#E8E8E8"/>
<rect x="252.053" y="103.594" width="6.33611" height="1.81032" rx="0.905159" fill="#E8E8E8"/>
<rect x="261.105" y="96.3525" width="6.33611" height="1.81032" rx="0.905159" fill="#E8E8E8"/>
<rect x="261.105" y="99.9731" width="6.33611" height="1.81033" rx="0.905163" fill="#E8E8E8"/>
<rect x="261.105" y="103.594" width="6.33611" height="1.81032" rx="0.905159" fill="#E8E8E8"/>
<path d="M309.621 218.277L311.438 226.454C311.438 226.454 308.145 227.632 304.662 229.167C301.178 230.703 297.809 234.18 297.809 234.18L318.935 234.18L315.527 218.277L309.621 218.277Z" fill="white" stroke="black" stroke-width="1.5"/>
<path d="M317.344 218.342L320.968 226.472C320.968 226.472 317.004 227.632 313.52 229.167C308.478 231.39 304.378 234.18 304.378 234.18L331.428 234.18L323.77 217.272L317.344 218.342Z" fill="white" stroke="black" stroke-width="1.5"/>
<path d="M325.801 124.277C316.487 124.277 298.263 127.867 298.263 127.867C298.263 127.867 306.441 190.109 308.718 225.438L320.07 223.274C320.07 161.941 325.801 124.277 325.801 124.277Z" fill="#2A80EA" stroke="black" stroke-width="1.5"/>
<path d="M330.344 123.368C321.031 123.368 302.806 126.958 302.806 126.958C302.806 126.958 314.613 189.2 316.89 224.53H327.794C327.794 163.196 330.344 123.368 330.344 123.368Z" fill="#2A80EA" stroke="black" stroke-width="1.5"/>
<mask id="mask0" mask-type="alpha" maskUnits="userSpaceOnUse" x="287" y="122" width="45" height="106">
<path d="M321.988 150.544L330.344 123.368C304.532 123.368 292.595 123.587 302.516 153.433C297.543 176.853 294.278 202.394 288.032 224.567L296.205 226.947C301.209 210.415 308.62 194.033 313.966 176.643" stroke="white" stroke-width="1.5"/>
</mask>
<g mask="url(#mask0)">
</g>
<path fill-rule="evenodd" clip-rule="evenodd" d="M317.084 50.3246L335.467 50.7902L335.481 50.4957L335.7 45.9886L335.971 42L317.344 43.8173L317.119 49.6215L317.084 50.3246Z" fill="white" stroke="black" stroke-width="1.5"/>
<path fill-rule="evenodd" clip-rule="evenodd" d="M331.743 61.5125L335.28 55.9848V49.9564L329.133 45.8559H323.128L315.713 50.702L318.323 51.4475L318.695 51.8203C319.119 54.6675 324.636 56.9455 326.151 57.7847L331.743 61.5125Z" fill="black" stroke="black" stroke-width="1.5"/>
<path fill-rule="evenodd" clip-rule="evenodd" d="M317.076 48.0416L335.517 49.2691V45.1802L317.344 45.6346L317.076 48.0416Z" fill="white" stroke="black" stroke-width="1.5"/>
<path fill-rule="evenodd" clip-rule="evenodd" d="M317.139 51.4646L317.349 50.3838C317.712 48.946 328.615 49.4949 328.615 49.4949L335.098 51.4646L335.281 52.3889C344.104 52.6413 344.318 51.8358 344.383 50.5069C344.453 49.0569 336.424 47.4901 326.448 47.0073C316.473 46.5246 308.329 47.3087 308.258 48.7587C308.211 49.728 311.784 50.7496 317.139 51.4646Z" fill="black"/>
<path d="M324.66 69.7137L323.541 64.9771H320.559C320.559 64.9771 318.811 61.893 318.437 60.0216C318.343 59.5549 317.204 59.276 317.204 59.276C317.204 59.276 318.07 57.5491 318.039 57.0393C317.934 55.2912 318.073 53.4293 318.743 51.8265L322.796 55.921H323.57L326.18 53.3116L327.298 57.0393L326.151 57.7849L330.251 60.0216L328.015 65.2404L327.642 69.3409" fill="white"/>
<path d="M324.66 69.7137L323.541 64.9771H320.559C320.559 64.9771 318.811 61.893 318.437 60.0216C318.343 59.5549 317.204 59.276 317.204 59.276C317.204 59.276 318.07 57.5492 318.039 57.0393C317.934 55.2913 318.073 53.4293 318.743 51.8265L322.796 55.921H323.57L326.18 53.3116L327.298 57.0393L326.151 57.7849L330.251 60.0216L328.015 65.2404L327.642 69.3409" stroke="black" stroke-width="1.5"/>
<path d="M317.344 69.7136L314.618 76.0741L331.567 71.7512L332.337 67.442L317.344 69.7136Z" fill="white" stroke="black" stroke-width="1.5"/>
<path d="M279.186 125.595L262.729 120.893L273.73 120.893L273.964 120.893L274.156 120.76L279.87 116.804L282.626 116.804L279.186 125.595Z" fill="white" stroke="black" stroke-width="1.5"/>
<path d="M285.342 85.981L285.416 86.1131L285.535 86.2062L289.831 89.5541L289.184 93.9211L280.385 90.9806L280.386 78.3456L280.386 78.3456L280.386 77.1313L285.342 85.981Z" fill="white" stroke="black" stroke-width="1.5"/>
<path d="M278.839 127.002L310.53 113.059L308.822 105.695L285.997 107.607L278.839 127.002Z" fill="white" stroke="black" stroke-width="1.5"/>
<path d="M316.436 71.9852L288.406 129.719L337.334 122.415L333.838 69.2593L316.436 71.9852Z" fill="white" stroke="black" stroke-width="1.5"/>
<path d="M321.433 71.5309L290.085 128.775L336.426 122.415L333.246 69.7812L321.433 71.5309Z" fill="white" stroke="black" stroke-width="0.5"/>
<path d="M323.291 103.166L326.568 79.7652L321.027 75.6198L310.53 97.4185L323.291 103.166Z" fill="white" stroke="black" stroke-width="1.5"/>
<path d="M284.963 102.011L324.16 108.331L327.34 79.2544L320.525 74.7112L313.709 89.6418L293.816 81.5656L284.963 102.011Z" fill="white" stroke="black" stroke-width="1.5"/>
<path d="M320.747 75.1654L323.018 107.422" stroke="black" stroke-width="0.5"/>
<path d="M310.752 126.503L317.338 224.157" stroke="black" stroke-width="0.5"/>
</svg>
