<svg width="260" height="80" viewBox="0 0 260 80" fill="none" xmlns="http://www.w3.org/2000/svg">
<path fill-rule="evenodd" clip-rule="evenodd" d="M25 40.5081C30.3038 31.7159 35.5901 22.9527 40.9033 14.1447C46.219 22.9563 51.5096 31.7268 56.8107 40.5142C55.7359 41.1491 54.6878 41.768 53.6397 42.3872C49.4967 44.8346 45.3535 47.2816 41.2114 49.7304C41.0326 49.8361 40.8952 49.914 40.6635 49.7763C35.5188 46.7248 30.3668 43.6856 25.2165 40.6439C25.1546 40.6072 25.0945 40.5675 25 40.5081Z" fill="#777A8C"/>
<path fill-rule="evenodd" clip-rule="evenodd" d="M25.5572 43.6274C25.6686 43.6889 25.7815 43.7474 25.8911 43.812C30.9286 46.785 35.9672 49.7562 40.9995 52.7377C41.2437 52.8826 41.4079 52.8732 41.647 52.7316C46.6805 49.752 51.7198 46.7822 56.7583 43.8111C56.8688 43.7458 56.9823 43.686 57.1379 43.6663C51.8741 51.0724 46.6105 58.4787 41.3188 65.9246C36.0356 58.4865 30.7741 51.0791 25.5127 43.6718C25.5275 43.657 25.5424 43.6422 25.5572 43.6274Z" fill="#777A8C"/>
<path fill-rule="evenodd" clip-rule="evenodd" d="M212.511 39.3821C213.894 37.2451 215.714 36.0515 218.227 36.2125C220.786 36.3763 222.345 37.8791 223.287 40.2211C223.397 40.0072 223.479 39.8407 223.568 39.6785C224.457 38.0548 225.713 36.8511 227.542 36.3761C230.58 35.5873 233.436 37.1925 234.464 40.2249C234.757 41.0893 234.905 41.9781 234.907 42.8879C234.914 45.5313 234.91 48.1748 234.908 50.8182C234.908 50.949 234.904 51.0875 234.863 51.2093C234.764 51.5067 234.543 51.6566 234.227 51.6363C233.922 51.6168 233.738 51.4401 233.68 51.1469C233.653 51.0065 233.656 50.8589 233.655 50.7147C233.647 47.9025 233.693 45.0887 233.612 42.2785C233.565 40.6533 232.936 39.2077 231.567 38.219C229.632 36.8223 226.863 37.2863 225.393 39.2157C224.332 40.6074 223.84 42.2158 223.77 43.9303C223.691 45.8465 223.727 47.7673 223.714 49.6861C223.712 50.0844 223.717 50.4829 223.713 50.8811C223.707 51.3685 223.478 51.6426 223.086 51.6401C222.693 51.6378 222.475 51.3671 222.475 50.8691C222.474 48.1654 222.481 45.4615 222.471 42.7578C222.467 41.59 222.193 40.485 221.563 39.4905C220.546 37.8843 219.053 37.2755 217.198 37.4567C214.589 37.7119 213.112 39.4646 212.689 41.9982C212.508 43.0833 212.514 44.2048 212.497 45.3109C212.468 47.1088 212.489 48.9077 212.488 50.7063C212.488 50.8388 212.491 50.9729 212.474 51.1037C212.431 51.4319 212.212 51.6291 211.895 51.6397C211.565 51.6507 211.311 51.4514 211.254 51.124C211.236 51.0183 211.244 50.9075 211.244 50.799C211.244 46.3087 211.244 41.8185 211.244 37.3284C211.244 37.2559 211.241 37.1834 211.245 37.1111C211.265 36.7223 211.526 36.4515 211.874 36.4536C212.213 36.4561 212.47 36.7046 212.481 37.0885C212.497 37.6915 212.486 38.2954 212.49 38.8988C212.49 39.0261 212.501 39.1534 212.511 39.3821Z" fill="#777A8C"/>
<path fill-rule="evenodd" clip-rule="evenodd" d="M84.8976 43.4182C84.6315 41.2109 83.7087 39.4126 81.8219 38.2488C79.7998 37.0014 77.7083 37.0363 75.7264 38.3577C73.9469 39.5442 73.0858 41.3065 72.8072 43.4182H84.8976ZM72.8124 44.6725C72.9318 45.8344 73.2818 46.862 73.8674 47.8074C75.9087 51.1032 79.5354 51.3198 82.0858 49.9375C82.8402 49.5287 83.4369 48.9307 83.955 48.2528C84.0137 48.1762 84.0667 48.0949 84.128 48.0206C84.3895 47.7047 84.7344 47.6365 85.0182 47.8418C85.2906 48.0388 85.3479 48.365 85.1444 48.7098C84.3772 50.0095 83.2564 50.8981 81.8543 51.4135C79.5198 52.2718 77.2341 52.2346 75.0932 50.8448C73.2474 49.6466 72.1325 47.9073 71.7145 45.7736C71.1185 42.7311 71.9356 40.0798 74.2086 37.9414C76.737 35.5627 80.836 35.5416 83.4286 37.8567C85.2154 39.4525 86.1266 41.4612 86.2203 43.8447C86.2443 44.4521 86.0132 44.6717 85.4021 44.6719C81.3805 44.6729 77.3587 44.6725 73.3371 44.6725H72.8124Z" fill="#777A8C"/>
<path fill-rule="evenodd" clip-rule="evenodd" d="M132 43.4188H144.039C144.114 42.147 143.183 39.6413 141.215 38.3602C139.351 37.1471 137.384 37.0002 135.426 38.0573C133.335 39.1865 132.348 41.0823 132 43.4188ZM131.949 44.6724C132.131 45.3477 132.243 45.9772 132.469 46.563C133.169 48.3798 134.356 49.7595 136.239 50.4139C138.767 51.2921 141.549 50.4094 143.153 48.2625C143.225 48.1657 143.291 48.0639 143.371 47.9742C143.615 47.7018 143.946 47.6498 144.213 47.8347C144.48 48.0198 144.556 48.3485 144.374 48.6686C143.893 49.5122 143.237 50.1983 142.42 50.7204C139.663 52.4811 135.731 52.5579 133.127 49.8995C131.307 48.0423 130.524 45.7856 130.787 43.1983C131.025 40.8657 132.058 38.9456 133.935 37.5132C136.496 35.5593 140.211 35.7048 142.624 37.8493C144.424 39.45 145.339 41.4706 145.424 43.8693C145.445 44.4481 145.208 44.6717 144.618 44.6719C140.584 44.673 136.55 44.6724 132.517 44.6724H131.949Z" fill="#777A8C"/>
<path fill-rule="evenodd" clip-rule="evenodd" d="M168.65 43.4133H180.666C180.787 40.4734 177.884 37.4582 174.827 37.3804C171.131 37.2864 168.87 40.5612 168.65 43.4133ZM168.652 44.6724C168.717 48.2633 172.109 51.1495 175.616 50.6791C177.394 50.4406 178.788 49.5997 179.837 48.1609C179.886 48.0928 179.936 48.0233 179.993 47.962C180.242 47.6974 180.576 47.6521 180.838 47.8435C181.088 48.0266 181.192 48.3727 180.983 48.6492C180.549 49.2226 180.121 49.8239 179.585 50.2923C178.444 51.2892 177.056 51.7405 175.558 51.9203C171.424 52.4165 168.156 49.3631 167.49 45.5899C166.969 42.6376 167.782 40.0574 169.975 37.9906C172.769 35.358 177.193 35.5575 179.796 38.3832C181.219 39.9275 181.971 41.7487 182.031 43.849C182.048 44.4551 181.826 44.6718 181.21 44.672C177.177 44.6728 173.143 44.6724 169.109 44.6724H168.652Z" fill="#777A8C"/>
<path fill-rule="evenodd" clip-rule="evenodd" d="M111.342 39.3164C111.977 38.4601 112.639 37.7034 113.508 37.144C116.578 35.1676 120.396 36.3107 121.877 39.6455C122.34 40.6871 122.56 41.7771 122.563 42.9109C122.569 45.5535 122.566 48.1961 122.565 50.8387C122.565 50.9347 122.563 51.0329 122.544 51.1266C122.479 51.4554 122.271 51.6307 121.938 51.6365C121.597 51.6424 121.403 51.4463 121.331 51.1287C121.304 51.0134 121.317 50.8887 121.317 50.7681C121.316 48.1012 121.33 45.4344 121.31 42.768C121.3 41.2897 120.883 39.9323 119.877 38.8112C118.863 37.6804 117.559 37.3067 116.08 37.4556C113.232 37.7424 111.71 39.9074 111.384 42.4471C111.268 43.3479 111.345 44.2739 111.343 45.1884C111.339 46.6604 111.342 48.1325 111.342 49.6046C111.342 50.039 111.348 50.4735 111.34 50.9078C111.331 51.384 111.112 51.6362 110.721 51.6392C110.315 51.6426 110.088 51.38 110.088 50.8888C110.087 42.1043 110.087 33.3199 110.088 24.5354C110.088 24.0301 110.328 23.7387 110.727 23.7457C111.124 23.7525 111.341 24.0342 111.341 24.5629C111.342 29.0275 111.342 33.4921 111.342 37.9566V39.3164Z" fill="#777A8C"/>
<path fill-rule="evenodd" clip-rule="evenodd" d="M201.386 48.5447C201.003 49.0763 200.686 49.5711 200.315 50.0211C198.606 52.0945 195.788 52.6709 193.415 51.4092C191.785 50.543 190.893 49.0942 190.464 47.3525C190.307 46.715 190.231 46.043 190.225 45.3856C190.198 42.7068 190.213 40.0276 190.213 37.3483C190.213 37.2761 190.211 37.2032 190.218 37.1314C190.252 36.7969 190.488 36.5691 190.807 36.5605C191.139 36.5514 191.401 36.785 191.437 37.1295C191.448 37.2371 191.441 37.3464 191.441 37.4551C191.442 40.0861 191.437 42.7169 191.444 45.3476C191.447 46.3608 191.646 47.3367 192.094 48.2517C193.158 50.4218 195.168 51.1883 197.38 50.6725C199.271 50.2316 200.243 48.8689 200.794 47.1306C201.25 45.6918 201.375 44.2025 201.383 42.7027C201.393 40.9408 201.386 39.1789 201.386 37.4168C201.386 37.3084 201.378 37.1977 201.395 37.0917C201.444 36.7859 201.701 36.5633 201.992 36.5602C202.301 36.5567 202.565 36.7852 202.611 37.1073C202.628 37.2259 202.624 37.348 202.624 37.4686C202.624 41.9217 202.624 46.375 202.624 50.8281C202.624 51.4293 202.405 51.7484 201.999 51.7462C201.588 51.7439 201.386 51.4386 201.386 50.8205C201.386 50.0798 201.386 49.3387 201.386 48.5447Z" fill="#777A8C"/>
<path fill-rule="evenodd" clip-rule="evenodd" d="M97.0376 37.7054C96.1617 37.7054 95.3314 37.7056 94.5013 37.7054C94.2718 37.7054 94.0423 37.7111 93.813 37.7035C93.3792 37.6893 93.1184 37.4501 93.1211 37.0795C93.124 36.7148 93.3947 36.4561 93.8166 36.4521C94.7463 36.4431 95.676 36.4489 96.6059 36.4487H97.0376V36.0217C97.0376 34.5495 97.0352 33.0773 97.0392 31.605C97.0405 31.1001 97.382 30.8069 97.8242 30.9248C98.1769 31.019 98.2749 31.2846 98.2743 31.6181C98.2718 33.0663 98.2734 34.5143 98.2737 35.9623V36.4261C98.4381 36.435 98.5655 36.4476 98.6927 36.4477C99.6466 36.4496 100.601 36.4515 101.554 36.4471C101.836 36.446 102.082 36.5074 102.241 36.7623C102.511 37.1966 102.208 37.6941 101.649 37.7015C100.683 37.7143 99.7172 37.7053 98.7513 37.7054H98.2737V38.2412C98.2737 42.4045 98.2737 46.5679 98.2733 50.7312C98.2733 50.8759 98.2789 51.0218 98.2644 51.1652C98.2317 51.4882 97.9724 51.7366 97.6727 51.7453C97.38 51.7537 97.093 51.509 97.046 51.1967C97.0282 51.0784 97.0379 50.9559 97.0379 50.8352C97.0376 46.6358 97.0376 42.4363 97.0376 38.2369V37.7054Z" fill="#777A8C"/>
<path fill-rule="evenodd" clip-rule="evenodd" d="M155.063 39.7706C155.655 39.1456 156.201 38.4854 156.834 37.9214C157.781 37.076 158.901 36.5572 160.19 36.458C160.238 36.4542 160.286 36.4509 160.334 36.4509C160.748 36.4507 161.048 36.6673 161.08 36.9875C161.119 37.3838 160.896 37.6421 160.444 37.7119C159.439 37.8675 158.507 38.209 157.687 38.82C156.228 39.9072 155.502 41.4227 155.215 43.17C155.113 43.7859 155.075 44.4176 155.07 45.0426C155.051 46.9977 155.065 48.953 155.061 50.908C155.06 51.4393 154.637 51.7632 154.209 51.5409C154.052 51.4587 153.937 51.2586 153.851 51.0876C153.798 50.9802 153.832 50.8271 153.832 50.6944C153.832 46.2531 153.832 41.8119 153.832 37.3706C153.832 37.274 153.829 37.1773 153.835 37.0809C153.856 36.7077 154.108 36.4509 154.447 36.453C154.785 36.4551 155.054 36.7154 155.059 37.0828C155.069 37.8552 155.063 38.6276 155.063 39.3999C155.063 39.532 155.063 39.664 155.063 39.7706Z" fill="#777A8C"/>
</svg>
