<svg width="260" height="80" viewBox="0 0 260 80" fill="none" xmlns="http://www.w3.org/2000/svg">
<path fill-rule="evenodd" clip-rule="evenodd" d="M69.5986 17.2678V44.1759L57.0732 38.424C60.1076 33.2909 63.1406 28.1579 66.1763 23.0262C67.3143 21.1054 68.4578 19.1873 69.5986 17.2678Z" fill="#777A8C"/>
<path fill-rule="evenodd" clip-rule="evenodd" d="M83.1248 38.4688L70.5518 44.2413V17.1282C71.1765 18.1802 71.8001 19.2347 72.4208 20.2892C73.8679 22.7468 75.3067 25.2083 76.7592 27.6633C78.0973 29.9223 79.4506 32.1736 80.7942 34.4314C80.8691 34.5569 80.9112 34.7004 80.9683 34.8363C81.6859 36.0484 82.3897 37.2669 83.1248 38.4688Z" fill="#777A8C"/>
<path fill-rule="evenodd" clip-rule="evenodd" d="M82.6837 43.0265L70.5518 48.5977V45.2394L78.3697 41.6504C79.81 42.1104 81.2094 42.5563 82.6837 43.0265Z" fill="#777A8C"/>
<path fill-rule="evenodd" clip-rule="evenodd" d="M69.5989 45.174V48.5324L57.7324 43.0842C59.1945 42.6101 60.5871 42.159 62.0219 41.6952L69.5989 45.174Z" fill="#777A8C"/>
<path fill-rule="evenodd" clip-rule="evenodd" d="M69.5989 49.5305V53.4117C65.4959 51.6883 61.3875 49.9817 57.2791 48.2684C57.1974 48.2351 57.1239 48.1851 57 48.1172C58.8881 47.5073 60.7409 46.9089 62.5909 46.3131L69.5989 49.5305Z" fill="#777A8C"/>
<path fill-rule="evenodd" clip-rule="evenodd" d="M83.476 48.0788C83.367 48.3018 83.1505 48.3172 82.9817 48.3864C78.9413 50.0611 74.8983 51.7294 70.8593 53.4054C70.7546 53.4489 70.6539 53.4848 70.5518 53.5106V49.5959L77.8019 46.267C79.78 46.9 81.6219 47.4883 83.476 48.0788Z" fill="#777A8C"/>
<path fill-rule="evenodd" clip-rule="evenodd" d="M83.4365 50.147C82.2563 51.3117 81.0774 52.4789 79.8943 53.6399C79.7255 53.8052 79.5296 53.946 79.3457 54.0986C78.7548 55.0122 77.8469 55.658 77.0872 56.4281C75.0155 58.5295 72.8986 60.5912 70.79 62.6618C70.7054 62.745 70.6362 62.8501 70.5518 62.9371V55.23C73.5029 54.0152 76.4406 52.9209 79.396 51.7012C79.6805 51.5833 79.9448 51.3976 80.2769 51.3936C81.3195 50.9566 82.3065 50.3879 83.4365 50.147Z" fill="#777A8C"/>
<path fill-rule="evenodd" clip-rule="evenodd" d="M69.5988 55.1877V62.5938C69.3483 62.3491 69.1169 62.0877 68.8705 61.8404C65.1405 58.1167 61.4174 54.3869 57.7037 50.6492C57.5499 50.4942 57.1973 50.3981 57.3552 50.0624L57.3403 50.0483C59.826 51.0963 62.3104 52.1483 64.7975 53.1927C66.3616 53.8487 67.9326 54.4907 69.4967 55.1467C69.5348 55.1621 69.5689 55.1748 69.5988 55.1877Z" fill="#777A8C"/>
<path fill-rule="evenodd" clip-rule="evenodd" d="M116.374 28.3662H108.918V17.095H116.374V19.0579H111.128V21.7016H115.595V23.6646H111.128V26.4032H116.374V28.3662ZM127.421 28.3662H125.45L120.966 21.4483V28.3662H118.757V17.095H120.728L125.211 23.997V17.095H127.421V28.3662ZM137.562 19.0579H134.605V28.3662H132.395V19.0579H129.438V17.095H137.562V19.0579ZM147.035 28.3662H139.579V17.095H147.035V19.0579H141.789V21.7016H146.256V23.6646H141.789V26.4032H147.035V28.3662ZM157.987 28.3662H155.427L153.217 23.8704H151.628V28.3662H149.418V17.095H153.853C154.934 17.095 155.817 17.4169 156.5 18.0606C157.184 18.7044 157.526 19.5328 157.526 20.546C157.526 21.4642 157.208 22.224 156.572 22.8256C156.286 23.0999 155.915 23.3268 155.459 23.5063L157.987 28.3662ZM151.628 22.034H153.71C154.187 22.034 154.574 21.8968 154.871 21.6225C155.168 21.3481 155.316 20.9892 155.316 20.546C155.316 20.1027 155.168 19.7439 154.871 19.4695C154.574 19.1951 154.187 19.0579 153.71 19.0579H151.628V22.034ZM160.036 17.095H164.424C165.515 17.095 166.411 17.4248 167.11 18.0844C167.81 18.744 168.159 19.5856 168.159 20.6093C168.159 21.6436 167.81 22.4878 167.11 23.1422C166.411 23.7965 165.515 24.1236 164.424 24.1236H162.246V28.3662H160.036V17.095ZM162.246 22.1449H164.312C164.81 22.1449 165.208 22.005 165.505 21.7253C165.801 21.4457 165.95 21.0737 165.95 20.6093C165.95 20.145 165.801 19.7703 165.505 19.4854C165.208 19.2004 164.81 19.0579 164.312 19.0579H162.246V22.1449ZM178.809 28.3662H176.25L174.04 23.8704H172.45V28.3662H170.24V17.095H174.676C175.757 17.095 176.639 17.4169 177.323 18.0606C178.006 18.7044 178.348 19.5328 178.348 20.546C178.348 21.4642 178.03 22.224 177.394 22.8256C177.108 23.0999 176.737 23.3268 176.281 23.5063L178.809 28.3662ZM172.45 22.034H174.533C175.01 22.034 175.396 21.8968 175.693 21.6225C175.99 21.3481 176.138 20.9892 176.138 20.546C176.138 20.1027 175.99 19.7439 175.693 19.4695C175.396 19.1951 175.01 19.0579 174.533 19.0579H172.45V22.034ZM183.068 28.3662H180.858V17.095H183.068V28.3662ZM191.555 19.6912C191.28 19.4484 190.994 19.269 190.697 19.1529C190.273 18.9946 189.823 18.9155 189.346 18.9155C188.763 18.9155 188.307 19.0395 187.979 19.2875C187.65 19.5355 187.486 19.8811 187.486 20.3244C187.486 21.042 187.947 21.4641 188.869 21.5908L190.204 21.7808C191.243 21.9285 192.009 22.2636 192.501 22.786C192.994 23.3084 193.241 24.0498 193.241 25.0101C193.241 26.0866 192.851 26.9309 192.072 27.543C191.293 28.1551 190.225 28.4611 188.869 28.4611C187.947 28.4611 187.136 28.3134 186.436 28.0179C185.97 27.8385 185.461 27.4902 184.91 26.9731L186.341 25.5484C186.68 25.8544 187.009 26.0708 187.327 26.1974C187.825 26.3979 188.402 26.4982 189.06 26.4982C190.406 26.4982 191.079 26.0286 191.079 25.0893C191.079 24.6883 190.97 24.3822 190.753 24.1711C190.535 23.9601 190.194 23.8229 189.727 23.7595L188.36 23.5696C186.357 23.2952 185.355 22.2557 185.355 20.451C185.355 19.3851 185.718 18.5435 186.444 17.9261C187.17 17.3087 188.159 17 189.409 17C190.172 17 190.872 17.1214 191.508 17.3641C191.932 17.533 192.414 17.8496 192.954 18.3139L191.555 19.6912ZM203 28.3662H195.544V17.095H203V19.0579H197.754V21.7016H202.221V23.6646H197.754V26.4032H203V28.3662ZM116.374 45.6356H108.918V34.3644H116.374V36.3274H111.128V38.971H115.595V40.934H111.128V43.6726H116.374V45.6356ZM126.038 36.3274H123.081V45.6356H120.871V36.3274H117.914V34.3644H126.038V36.3274ZM136.306 45.6356H134.096V40.9182H130.265V45.6356H128.055V34.3644H130.265V38.971H134.096V34.3644H136.306V45.6356ZM146.622 45.6356H139.166V34.3644H146.622V36.3274H141.375V38.971H145.843V40.934H141.375V43.6726H146.622V45.6356ZM157.573 45.6356H155.014L152.804 41.1398H151.214V45.6356H149.005V34.3644H153.44C154.521 34.3644 155.403 34.6863 156.087 35.3301C156.771 35.9738 157.112 36.8023 157.112 37.8154C157.112 38.7336 156.794 39.4934 156.159 40.095C155.872 40.3694 155.501 40.5963 155.046 40.7757L157.573 45.6356ZM151.214 39.3035H153.297C153.774 39.3035 154.161 39.1663 154.457 38.8919C154.754 38.6175 154.903 38.2587 154.903 37.8154C154.903 37.3722 154.754 37.0133 154.457 36.739C154.161 36.4646 153.774 36.3274 153.297 36.3274H151.214V39.3035ZM167.078 45.6356H159.622V34.3644H167.078V36.3274H161.832V38.971H166.299V40.934H161.832V43.6726H167.078V45.6356ZM177.617 34.3644V41.773C177.617 42.9233 177.225 43.8705 176.44 44.6145C175.656 45.3586 174.66 45.7306 173.452 45.7306C172.243 45.7306 171.247 45.3586 170.463 44.6145C169.679 43.8705 169.286 42.9233 169.286 41.773V34.3644H171.496V41.6938C171.496 42.3376 171.671 42.8442 172.021 43.2136C172.371 43.5829 172.848 43.7676 173.452 43.7676C174.056 43.7676 174.535 43.5829 174.89 43.2136C175.245 42.8442 175.423 42.3376 175.423 41.6938V34.3644H177.617ZM190.556 45.6356H188.346V39.066L186.184 43.3402H184.689L182.512 39.066V45.6356H180.302V34.3644H182.48L185.437 40.4591L188.378 34.3644H190.556V45.6356ZM117.661 62.905H115.356L114.689 60.9104H110.666L109.983 62.905H107.678L111.795 51.6338H113.528L117.661 62.905ZM114.1 59.0583L112.717 54.9582L111.287 59.0583H114.1ZM126.626 62.905H119.281V51.6338H121.491V60.9421H126.626V62.905ZM135.988 62.905H128.643V51.6338H130.853V60.9421H135.988V62.905ZM140.215 62.905H138.005V51.6338H140.215V62.905ZM151.818 62.905H149.513L148.846 60.9104H144.823L144.14 62.905H141.835L145.952 51.6338H147.685L151.818 62.905ZM148.257 59.0583L146.874 54.9582L145.443 59.0583H148.257ZM162.102 62.905H160.131L155.648 55.9872V62.905H153.438V51.6338H155.41L159.893 58.5359V51.6338H162.102V62.905ZM171.894 61.7019C171.396 62.1663 170.908 62.4987 170.431 62.6992C169.933 62.8997 169.382 63 168.778 63C167.527 63 166.499 62.5884 165.694 61.7652C165.429 61.4908 165.217 61.198 165.058 60.8867C164.899 60.5753 164.787 60.2007 164.724 59.7627C164.66 59.3247 164.62 58.9527 164.605 58.6467C164.589 58.3406 164.581 57.8815 164.581 57.2694V56.8103C164.581 55.6811 164.658 54.8368 164.811 54.2775C164.965 53.7182 165.259 53.2169 165.694 52.7736C166.499 51.9504 167.522 51.5389 168.762 51.5389C169.398 51.5389 169.954 51.6391 170.431 51.8396C170.908 52.0402 171.396 52.3726 171.894 52.8369L170.431 54.2933C170.124 53.9873 169.851 53.7788 169.612 53.668C169.374 53.5572 169.09 53.5018 168.762 53.5018C168.168 53.5018 167.697 53.6971 167.347 54.0875C167.177 54.2775 167.048 54.5493 166.957 54.9028C166.867 55.2563 166.817 55.565 166.806 55.8289C166.796 56.0927 166.791 56.4674 166.791 56.9528V57.5544C166.791 58.4514 166.828 59.0978 166.902 59.4936C166.976 59.8893 167.124 60.2086 167.347 60.4513C167.697 60.8418 168.168 61.037 168.762 61.037C169.09 61.037 169.374 60.9816 169.612 60.8708C169.851 60.76 170.124 60.5516 170.431 60.2455L171.894 61.7019ZM181.574 62.905H174.118V51.6338H181.574V53.5968H176.327V56.2405H180.795V58.2034H176.327V60.9421H181.574V62.905Z" fill="#777A8C"/>
</svg>
