<svg width="260" height="80" viewBox="0 0 260 80" fill="none" xmlns="http://www.w3.org/2000/svg">
<path fill-rule="evenodd" clip-rule="evenodd" d="M114.838 41.5154C114.817 41.5333 114.8 41.5484 114.782 41.5636C114.798 41.5817 114.812 41.6127 114.829 41.6141C114.846 41.6156 114.864 41.5875 114.882 41.5723C114.867 41.5532 114.852 41.534 114.838 41.5154ZM83.3382 52.3885C83.9068 52.4316 84.3843 52.1562 84.8143 51.773C85.3196 51.3225 85.7132 50.7782 86.0443 50.188C87.0198 48.4493 87.5159 46.5518 87.8319 44.5948C87.8654 44.3873 87.8269 44.2566 87.609 44.1777C87.1959 44.0278 86.9968 43.6788 86.9098 43.2694C86.7049 42.3046 86.9046 41.1638 87.8294 40.6114C87.9403 40.5452 88.0515 40.4787 88.0299 40.3212C87.9632 39.8342 87.9362 39.3396 87.7209 38.8838C87.5513 38.5247 87.2817 38.3203 86.8958 38.2579C86.2636 38.1556 85.7232 38.3607 85.2504 38.7692C84.7823 39.1735 84.3814 39.6407 84.0539 40.1716C82.813 42.1826 82.1207 44.3987 81.6943 46.7119C81.4414 48.0839 81.3445 49.4658 81.5624 50.8525C81.736 51.957 82.221 52.3709 83.3382 52.3885ZM170.748 49.2781C170.748 49.4974 170.73 49.7186 170.752 49.9357C170.808 50.4789 170.818 51.0301 171.055 51.5417C171.263 51.9927 171.6 52.257 172.076 52.3456C172.828 52.4854 173.505 52.3392 174.082 51.8026C174.375 51.5299 174.649 51.2408 174.876 50.9094C176.184 49.0016 176.772 46.8308 177.12 44.5715C177.156 44.3431 177.063 44.2418 176.872 44.1639C176.506 44.0149 176.335 43.7053 176.225 43.3386C175.947 42.4108 176.239 41.11 177.111 40.6206C177.249 40.5434 177.332 40.4485 177.317 40.275C177.272 39.7632 177.212 39.2563 176.969 38.7931C176.826 38.5188 176.603 38.351 176.304 38.2825C175.612 38.124 175.022 38.345 174.509 38.8017C174.019 39.2372 173.598 39.7365 173.266 40.309C171.659 43.0765 170.892 46.0883 170.748 49.2781ZM150.319 49.0821C150.319 49.2832 150.302 49.4859 150.322 49.6848C150.39 50.3582 150.461 51.0325 150.872 51.6062C151.07 51.8818 151.312 52.0824 151.652 52.148C152.257 52.2646 152.834 52.1984 153.373 51.8869C154.493 51.2398 155.114 50.2309 155.391 48.9807C155.454 48.6965 155.486 48.4052 155.545 48.1201C156.094 45.4948 156.625 42.8654 157.208 40.248C157.389 39.4352 156.844 38.4638 155.833 38.4425C155.214 38.4294 154.659 38.6064 154.172 38.9842C153.655 39.3853 153.196 39.8477 152.844 40.4111C151.193 43.0581 150.49 45.9906 150.319 49.0821ZM129.669 49.0292C129.669 49.3218 129.645 49.6167 129.674 49.9065C129.732 50.5094 129.834 51.1034 130.203 51.6109C130.39 51.8694 130.614 52.0732 130.933 52.1382C131.553 52.265 132.148 52.212 132.705 51.8769C133.814 51.2096 134.449 50.1795 134.721 48.947C135.364 46.0403 135.955 43.122 136.557 40.2061C136.734 39.3461 136.19 38.5819 135.333 38.4642C134.636 38.3685 134.014 38.5807 133.464 39.0107C132.933 39.4265 132.473 39.9127 132.116 40.4956C130.519 43.1092 129.817 45.9889 129.669 49.0292ZM124.229 52.2248C124.025 52.3346 123.973 52.5005 123.884 52.6327C123.506 53.1918 123.095 53.7222 122.633 54.2125C121.223 55.7065 119.48 56.1776 117.508 55.9412C117.205 55.9049 116.901 55.8453 116.609 55.7595C114.997 55.2869 114.048 54.2112 113.773 52.5219C113.602 51.4724 113.75 50.4458 113.944 49.4185C114.097 48.6116 114.326 47.8194 114.388 46.9946C114.425 46.497 114.403 46.0058 114.248 45.5306C114.058 44.9438 113.736 44.7082 113.136 44.6695C112.711 44.642 112.308 44.7301 111.931 44.9136C111.36 45.1911 110.851 45.5687 110.348 45.9567C110.171 46.0932 110.137 46.2797 110.096 46.4801C109.491 49.3952 108.882 52.3091 108.274 55.2234C108.266 55.2592 108.263 55.2959 108.256 55.3316C108.161 55.7627 108.161 55.7663 107.738 55.7692C107.198 55.7728 106.658 55.7701 106.117 55.7701C105.145 55.7701 104.173 55.7718 103.2 55.7686C103.025 55.768 102.844 55.801 102.645 55.71C102.768 55.1928 102.889 54.6833 103.018 54.1366C102.773 54.1658 102.667 54.3244 102.533 54.4274C101.087 55.5431 99.467 56.0829 97.6441 55.9801C96.0233 55.8888 94.7687 54.9419 94.2441 53.3797C93.9916 52.6279 93.901 51.8589 93.9574 51.0581C94.1376 48.5007 94.5256 45.9731 94.9591 43.4509C94.9743 43.3624 94.9718 43.2708 94.9828 43.0961C93.858 44.1736 92.5976 44.5832 91.1162 44.212C90.9527 44.7364 90.9697 45.2717 90.8792 45.7888C90.5427 47.7112 89.9923 49.5571 89.0251 51.2559C88.2012 52.703 87.1416 53.9247 85.7246 54.8102C84.082 55.8368 82.306 56.0911 80.4272 55.8146C79.7268 55.7116 79.0513 55.5228 78.4241 55.1899C76.9375 54.4007 76.1526 53.0949 75.8597 51.4639C75.5778 49.8939 75.7258 48.3275 76.0113 46.7736C76.3707 44.8179 77.0223 42.9642 77.9683 41.2214C79.0863 39.1618 80.6285 37.5435 82.7623 36.5661C84.2304 35.8936 85.7805 35.7191 87.3596 35.9567C89.2476 36.2408 90.3475 37.4502 90.8553 39.2572C91.0829 40.0672 91.2107 40.904 91.1866 41.7496C91.1769 42.0932 91.3126 42.2322 91.6073 42.3363C92.9575 42.8135 94.4734 42.3 95.274 41.0867C95.4103 40.8801 95.4593 40.6521 95.503 40.4204C96.1834 36.812 96.9394 33.2202 97.7725 29.645C97.8873 29.1524 97.8882 29.1576 98.3468 29.0953C99.8634 28.8891 101.379 28.6778 102.896 28.4711C103.088 28.4449 103.282 28.4345 103.458 28.4183C103.563 28.5705 103.512 28.6957 103.486 28.8143C102.611 32.9229 101.768 37.0383 100.987 41.1666C100.461 43.9485 99.9275 46.7298 99.573 49.542C99.5133 50.0153 99.4822 50.4904 99.5106 50.9654C99.5532 51.6749 99.9169 52.0556 100.611 52.1717C101.468 52.3149 102.162 51.9828 102.775 51.4159C103.631 50.624 104.117 49.62 104.38 48.4913C105.136 45.2348 105.717 41.9425 106.332 38.6566C106.973 35.2271 107.644 31.8033 108.304 28.3775C108.348 28.1497 108.369 27.9307 108.698 27.8881C110.463 27.6587 112.226 27.4041 114.081 27.1455C113.086 32.1251 112.048 37.042 111.049 42.0216C111.319 41.9657 111.458 41.7973 111.614 41.6722C113.75 39.9637 115.887 38.2557 118.014 36.5348C118.309 36.2962 118.614 36.1659 118.986 36.1199C120.272 35.9605 121.555 35.7793 122.874 35.6017C122.828 35.8213 122.649 35.8783 122.52 35.9704C120.148 37.6629 117.773 39.3511 115.4 41.043C115.233 41.1618 115.035 41.2531 114.925 41.4485C115.064 41.5849 115.189 41.5118 115.304 41.5068C115.826 41.484 116.346 41.4747 116.863 41.5863C118.378 41.9131 119.355 42.848 119.809 44.3304C120.143 45.417 120.141 46.5275 119.889 47.6377C119.598 48.92 119.314 50.2037 119.026 51.4866C118.953 51.8111 118.935 52.1406 118.972 52.4688C119.027 52.9599 119.296 53.2255 119.78 53.2672C120.355 53.3169 120.889 53.1894 121.361 52.838C121.624 52.6427 121.862 52.4205 122.076 52.1711C122.135 52.1022 122.191 52.03 122.246 51.958C123.294 50.596 124.001 49.1284 124.17 47.3449C124.404 44.8741 125.307 42.5908 126.607 40.4898C127.622 38.8492 128.94 37.5193 130.699 36.6956C132.116 36.0319 133.601 35.8639 135.13 36.1292C136.092 36.2962 136.519 36.6738 137.017 37.7148C137.206 37.3893 137.203 37.0431 137.277 36.7227C137.396 36.2089 137.389 36.1996 137.881 36.1568C139.514 36.0144 141.144 35.857 142.765 35.6086C142.814 35.6012 142.867 35.6255 142.917 35.635C142.97 35.8365 142.866 36.0023 142.818 36.1706C141.716 39.9838 140.934 43.8668 140.342 47.7921C140.194 48.7687 140.061 49.7464 140.008 50.7336C140 50.8973 139.997 51.0628 140.01 51.2261C140.055 51.8034 140.371 52.1747 140.903 52.3398C141.539 52.537 142.15 52.4593 142.71 52.0783C143.042 51.8527 143.338 51.5862 143.565 51.2498C144.184 50.333 144.594 49.3528 144.71 48.2198C145.04 44.9735 146.07 41.9823 148.067 39.3857C148.955 38.231 150.045 37.3128 151.365 36.6975C152.783 36.0367 154.268 35.8614 155.797 36.129C156.666 36.2811 157.341 36.7204 157.626 37.6294C157.635 37.6568 157.676 37.6736 157.731 37.7187C157.994 36.4588 158.255 35.2155 158.514 33.9721C158.873 32.2557 159.234 30.5397 159.587 28.822C159.634 28.5905 159.683 28.4285 159.969 28.3902C161.754 28.1513 163.536 27.8914 165.319 27.6409C165.368 27.634 165.422 27.6544 165.471 27.6618C165.514 27.8059 165.44 27.9208 165.402 28.0359C164.143 31.8196 163.298 35.7105 162.517 39.6164C161.887 42.7696 161.333 45.9376 160.866 49.1206C160.802 49.554 160.655 49.9734 160.654 50.4171C160.653 50.6546 160.641 50.8941 160.666 51.1291C160.729 51.7114 161.005 52.0213 161.566 52.1414C162.527 52.347 163.351 52.0844 164.016 51.3517C164.41 50.9179 164.701 50.4144 164.921 49.8665C164.984 49.7084 165 49.5509 165.007 49.3859C165.137 46.409 165.921 43.6174 167.367 41.0297C168.461 39.0728 169.969 37.5352 172.008 36.588C173.473 35.907 175.022 35.7235 176.602 35.9465C178.486 36.2124 179.61 37.3907 180.135 39.2032C180.365 39.9966 180.461 40.8133 180.485 41.6397C180.505 42.3111 180.79 42.6255 181.448 42.7087C181.735 42.745 182.025 42.7383 182.307 42.6628C183.108 42.4479 183.789 42.0132 184.405 41.4628C184.527 41.3534 184.622 41.2253 184.657 41.0523C184.868 40.0142 185.086 38.9773 185.299 37.9396C185.306 37.9064 185.289 37.8683 185.281 37.8104C184.908 37.6998 184.505 37.8377 184.116 37.7181C184.124 37.264 184.276 36.8475 184.342 36.4164C184.367 36.2582 184.467 36.2088 184.61 36.2097C184.808 36.2109 185.006 36.2106 185.204 36.208C185.639 36.2021 185.643 36.2023 185.735 35.7806C185.954 34.7812 186.168 33.7809 186.384 32.7809C186.491 32.2809 186.619 31.7841 186.701 31.2797C186.756 30.9383 186.904 30.7465 187.225 30.6017C188.724 29.9266 190.176 29.157 191.551 28.2444C192.152 27.8458 192.713 27.3974 193.238 26.8708C193.344 27.0526 193.261 27.1824 193.226 27.3114C192.485 30.0446 191.863 32.806 191.316 35.5855C191.294 35.693 191.274 35.8008 191.25 35.9076C191.202 36.117 191.274 36.2211 191.494 36.2083C191.602 36.202 191.71 36.2081 191.818 36.2082C192.844 36.2083 193.871 36.206 194.897 36.2106C195.073 36.2113 195.258 36.166 195.457 36.2873C195.384 36.6862 195.303 37.0948 195.236 37.5057C195.203 37.7099 195.093 37.7735 194.901 37.7704C194.415 37.7629 193.928 37.7682 193.442 37.7683C192.758 37.7683 192.074 37.767 191.389 37.7687C190.9 37.7701 190.896 37.7709 190.796 38.2438C190.152 41.3009 189.509 44.3582 188.869 47.416C188.667 48.3814 188.467 49.3474 188.282 50.3163C188.206 50.7129 188.203 51.1135 188.334 51.5091C188.489 51.9801 188.8 52.2227 189.286 52.2657C190.048 52.3332 190.747 52.1221 191.421 51.7913C192.437 51.2926 193.311 50.5913 194.139 49.8241C194.252 49.7193 194.33 49.5587 194.563 49.5324C194.332 50.9551 193.854 52.2337 192.858 53.2565C190.986 55.1803 188.72 56.1231 186.044 55.981C184.497 55.8989 183.324 54.9368 182.899 53.4199C182.535 52.1185 182.612 50.8126 182.882 49.5094C183.28 47.5953 183.687 45.6835 184.089 43.7704C184.122 43.6115 184.142 43.4498 184.166 43.3033C184.018 43.1918 183.949 43.3029 183.872 43.3603C182.948 44.0523 181.916 44.3418 180.772 44.238C180.372 44.2016 180.371 44.2111 180.327 44.6166C180.078 46.892 179.516 49.0732 178.415 51.0873C177.485 52.7865 176.257 54.2019 174.526 55.0878C172.332 56.2107 170.084 56.2035 167.845 55.2454C166.773 54.7867 166.043 53.9324 165.566 52.8573C165.529 52.7739 165.496 52.6887 165.46 52.6052C165.425 52.5243 165.424 52.4253 165.305 52.3437C165.139 52.4289 165.061 52.618 164.951 52.7686C164.096 53.9443 163.029 54.8418 161.669 55.3526C160.583 55.7603 159.463 55.8827 158.323 55.6847C156.907 55.4384 156.011 54.5792 155.605 53.1855C155.549 52.993 155.506 52.7966 155.456 52.6006C155.257 52.5631 155.225 52.7463 155.149 52.8514C154.579 53.637 153.94 54.3532 153.14 54.9039C151.57 55.984 149.865 56.2924 148.045 55.7416C146.572 55.2959 145.66 54.2326 145.115 52.8105C145.069 52.6914 145.033 52.5687 144.991 52.448C144.951 52.3314 144.91 52.2153 144.866 52.0885C144.663 52.2104 144.595 52.4095 144.486 52.5716C143.591 53.9007 142.471 54.9561 140.976 55.5501C139.897 55.9786 138.779 56.1143 137.637 55.9031C136.375 55.6699 135.546 54.9029 135.102 53.6942C134.971 53.3377 134.886 52.9668 134.824 52.599C134.632 52.5677 134.594 52.7186 134.522 52.8101C134.15 53.2816 133.78 53.7545 133.344 54.1677C132.098 55.3487 130.663 56.0423 128.917 55.9963C126.794 55.9404 125.255 54.8753 124.466 52.8655C124.386 52.6623 124.314 52.4559 124.229 52.2248Z" fill="#777A8C"/>
<path fill-rule="evenodd" clip-rule="evenodd" d="M60.6019 59.0074C60.8077 58.1924 61.0073 57.3984 61.2086 56.6048C62.034 53.3495 62.8967 50.1026 63.5839 46.814C64.1517 44.0973 64.6299 41.3615 65.1634 38.6373C65.9182 34.7837 66.6875 30.9329 67.8618 27.1813C67.9926 26.7634 68.1452 26.3524 68.2726 25.9336C68.4022 25.5077 68.673 25.2053 69.0318 24.971C70.3664 24.0999 72.7288 24.1732 74.0195 25.1035C74.266 25.2812 74.2618 25.4643 74.1974 25.7136C73.6219 27.9411 73.11 30.184 72.6716 32.4433C72.2854 34.4334 71.9264 36.4289 71.5582 38.4226C71.5356 38.5449 71.5373 38.6718 71.5239 38.8457C71.8741 38.8636 72.1836 38.7857 72.4857 38.6953C73.5082 38.3895 74.3911 37.8285 75.153 37.0849C76.956 35.3259 77.9662 33.1356 78.4453 30.6736C78.6919 29.4063 78.7253 28.135 78.4534 26.8606C77.952 24.5105 76.3623 23.0862 73.9942 22.9792C72.0693 22.8922 70.1671 23.115 68.3996 23.9401C65.1357 25.4638 63.1656 28.0157 62.6564 31.6688C62.5346 32.5422 62.5181 33.4153 62.6579 34.2913C62.7451 34.8375 62.9676 35.3304 63.2239 35.867C62.5167 35.9582 61.867 35.8525 61.22 35.7498C60.9368 35.7049 60.656 35.6274 60.3829 35.5369C58.9365 35.0576 58.121 33.9559 58.0148 32.4022C57.9228 31.0559 58.2622 29.8327 58.9604 28.6986C59.392 27.9975 59.9052 27.3625 60.4708 26.7704C62.9595 24.1648 65.989 22.5406 69.4248 21.6257C71.4728 21.0804 73.5374 20.9039 75.6321 21.1916C77.8543 21.4969 79.8407 22.3298 81.3597 24.0719C82.8174 25.7437 83.331 27.7561 83.1522 29.9321C82.6587 35.9394 77.7513 39.7953 73.0476 40.3022C72.5634 40.3544 72.079 40.3831 71.5931 40.3988C71.1513 40.413 71.1464 40.4132 71.0438 40.8692C70.6629 42.5614 70.2969 44.2572 69.9043 45.9466C69.2718 48.6672 68.6606 51.3934 67.8864 54.0779C67.0553 56.9598 65.1152 58.5099 62.242 58.9418C61.779 59.0114 61.3134 59.064 60.8437 59.0501C60.776 59.0481 60.7088 59.0269 60.6019 59.0074Z" fill="#777A8C"/>
<path fill-rule="evenodd" clip-rule="evenodd" d="M199.815 55.9906C198.466 56.0764 196.612 54.9658 196.599 52.7812C196.587 50.7689 198.145 49.5295 199.766 49.5157C201.529 49.5009 202.998 50.9463 202.988 52.73C202.976 54.8198 201.271 56.0383 199.815 55.9906Z" fill="#777A8C"/>
<path fill-rule="evenodd" clip-rule="evenodd" d="M114.838 41.5154C114.852 41.5339 114.867 41.5529 114.882 41.5719C114.864 41.587 114.845 41.6149 114.829 41.6134C114.812 41.612 114.797 41.5812 114.782 41.5633C114.799 41.5482 114.817 41.5332 114.838 41.5154Z" fill="#777A8C"/>
</svg>
