<svg width="260" height="80" viewBox="0 0 260 80" fill="none" xmlns="http://www.w3.org/2000/svg">
<mask id="mask0" mask-type="alpha" maskUnits="userSpaceOnUse" x="18" y="24" width="31" height="25">
<path d="M18.4854 24.4844H48.2153V48.1723H18.4854V24.4844Z" fill="#777A8C"/>
</mask>
<g mask="url(#mask0)">
<path fill-rule="evenodd" clip-rule="evenodd" d="M48.2153 34.3655V34.38C46.4126 36.9666 44.2538 39.2335 41.832 41.1516V32.8397C41.832 32.1422 41.2409 31.561 40.5169 31.561H38.7585C38.0492 31.561 37.4582 32.1422 37.4582 32.8397V44.0724C36.8376 44.4211 36.2022 44.7408 35.552 45.046V35.5716C35.552 34.9177 35.0053 34.38 34.3389 34.38H32.3751C31.7102 34.38 31.1782 34.9177 31.1782 35.5716V46.7476C30.5428 46.935 29.9222 47.1109 29.2721 47.2547V38.9138C29.2721 38.3471 28.7845 37.8675 28.1934 37.8675H25.9607C25.3711 37.8675 24.8983 38.3471 24.8983 38.9138V47.9958C23.6851 48.1266 22.4454 48.1847 21.2175 48.1702C19.4901 45.7289 18.4854 42.7791 18.4854 39.5677C18.4854 31.2413 25.3563 24.4843 33.8232 24.4843C40.4267 24.4843 46.058 28.5966 48.2153 34.3655Z" fill="#777A8C"/>
</g>
<path fill-rule="evenodd" clip-rule="evenodd" d="M48.9769 39.5676C48.9769 47.894 42.1207 54.6365 33.6539 54.6365C30.344 54.6365 27.2853 53.6048 24.7881 51.8611C27.4611 51.5559 30.0632 50.9456 32.5457 50.0447C33.5061 49.6959 34.4518 49.3036 35.3827 48.8822C36.0329 48.577 36.6683 48.2573 37.2889 47.9086C38.8256 47.0803 40.2885 46.1358 41.6627 45.0605C44.4258 42.968 46.8492 40.4395 48.8292 37.5333C48.9326 38.2017 48.9769 38.8701 48.9769 39.5676Z" fill="#777A8C"/>
<path fill-rule="evenodd" clip-rule="evenodd" d="M228.445 36.4608C228.445 40.3519 228.401 44.1493 228.47 47.9445C228.492 49.2194 228.074 49.5965 226.838 49.5694C223.852 49.5046 223.871 49.5609 223.88 46.4806C223.895 41.2616 223.903 36.0424 223.86 30.8237C223.851 29.7844 224.03 29.1376 225.067 29.2773C225.357 29.3166 225.823 29.2728 226.116 29.2612C231.45 29.0469 230.251 29.3513 232.327 33.054C233.699 35.5025 235.309 37.8231 236.891 40.3066C237.374 39.7104 237.224 39.1364 237.229 38.6345C237.252 35.9489 237.255 33.2631 237.216 30.5781C237.201 29.6078 237.505 29.2673 238.517 29.2889C241.801 29.3583 241.8 29.3151 241.8 32.7219C241.801 37.8901 241.781 43.0588 241.83 48.2266C241.839 49.1832 241.635 49.6854 240.623 49.5782C240.532 49.5685 240.437 49.5691 240.346 49.5837C237.986 49.9605 236.45 49.1957 235.256 46.8857C233.525 43.5357 231.321 40.4375 229.305 37.2403C229.131 36.963 229.049 36.571 228.445 36.4608Z" fill="#777A8C"/>
<path fill-rule="evenodd" clip-rule="evenodd" d="M101.179 39.2826C101.179 36.4443 101.241 33.6041 101.15 30.7688C101.11 29.5082 101.549 29.1582 102.698 29.2979C103.436 29.3877 104.201 29.4014 104.939 29.3146C106.191 29.1673 106.497 29.7651 106.444 30.9018C106.375 32.3685 106.46 33.8427 106.391 35.3091C106.339 36.3904 106.641 36.8853 107.811 36.8211C109.402 36.7337 111.004 36.7608 112.598 36.8269C113.463 36.8625 113.768 36.5344 113.753 35.6944C113.722 34.0226 113.775 32.3484 113.714 30.6781C113.679 29.7258 113.944 29.3314 114.96 29.3006C119.022 29.1789 119.016 29.1466 119.005 33.2745C118.992 38.1906 118.96 43.1068 119.002 48.0226C119.012 49.1761 118.745 49.6305 117.501 49.6019C113.707 49.5145 113.727 49.5675 113.742 45.764C113.749 44.2018 114.393 42.2245 113.518 41.1873C112.6 40.0992 110.607 40.9231 109.088 40.8573C106.407 40.7417 106.405 40.7901 106.418 43.423C106.426 45.096 106.407 46.769 106.452 48.4405C106.473 49.2056 106.225 49.5973 105.441 49.548C105.342 49.5422 105.242 49.5635 105.142 49.5699C101.19 49.8134 101.19 49.8134 101.189 45.8203C101.188 43.6409 101.189 41.4618 101.189 39.2826H101.179Z" fill="#777A8C"/>
<path fill-rule="evenodd" clip-rule="evenodd" d="M147.793 35.7012C147.799 38.6552 147.799 38.6552 150.614 38.3463C152.246 38.1676 153.459 37.0026 153.47 35.6059C153.481 34.0495 152.697 33.3324 150.734 33.1048C147.786 32.763 147.786 32.763 147.793 35.7012ZM142.655 39.434C142.655 36.4931 142.685 33.5516 142.638 30.6113C142.622 29.627 142.91 29.2895 143.92 29.3166C146.514 29.3872 149.111 29.3351 151.707 29.3342C152.76 29.3336 153.798 29.4587 154.816 29.7396C156.912 30.3179 158.435 31.5553 158.795 33.8008C159.171 36.1394 158.638 38.2391 156.623 39.7265C156.34 39.9346 156.079 40.1748 155.784 40.3632C155.159 40.7625 155.052 41.072 155.602 41.7528C157.341 43.9064 158.974 46.1485 160.636 48.3663C160.861 48.6661 161.288 48.9695 161.009 49.4056C160.791 49.7493 160.36 49.5499 160.027 49.5596C155.045 49.7048 155.052 49.6969 152.166 45.5696C151.445 44.5382 150.673 43.5427 149.896 42.5533C149.493 42.0398 148.954 41.7933 148.302 42.0474C147.615 42.3156 147.763 42.9376 147.764 43.4797C147.764 45.1019 147.742 46.7259 147.799 48.3462C147.832 49.2763 147.485 49.6296 146.578 49.5715C145.733 49.5173 144.879 49.5152 144.034 49.5724C142.954 49.6458 142.49 49.2729 142.574 48.1003C142.68 46.6373 142.638 45.1627 142.648 43.693C142.657 42.2736 142.649 40.8535 142.649 39.434H142.655Z" fill="#777A8C"/>
<path fill-rule="evenodd" clip-rule="evenodd" d="M168.951 49.8308C167.43 49.8524 165.488 49.4138 163.583 48.7796C162.86 48.5388 162.404 48.1191 162.466 47.2247C162.533 46.2672 162.453 45.3003 162.467 44.3379C162.47 44.0509 162.481 43.6318 162.653 43.5074C163.001 43.2557 163.277 43.6486 163.546 43.8482C165.648 45.4105 168.007 46.1631 170.603 46.1643C170.95 46.1643 171.303 46.1363 171.644 46.0748C172.734 45.8782 173.836 45.4403 173.901 44.2226C173.964 43.0338 172.88 42.6308 171.874 42.3417C170.195 41.859 168.446 41.6746 166.8 41.0415C163.789 39.8835 162.478 38.2784 162.42 35.5636C162.366 33.0287 163.808 30.8678 166.595 29.8641C170.41 28.4899 174.254 28.8883 178.051 30.1246C178.996 30.432 178.792 31.2135 178.807 31.8874C178.882 35.0687 178.871 35.0751 176.142 33.7229C174.339 32.8299 172.434 32.56 170.459 32.7526C170.021 32.7949 169.562 32.9091 169.173 33.1108C168.489 33.4669 167.894 33.9925 167.886 34.8435C167.876 35.7237 168.644 36.0469 169.271 36.2356C171.181 36.8093 173.138 37.2186 175.053 37.7747C177.639 38.5258 179.199 40.3288 179.367 42.626C179.552 45.1682 178.203 47.4885 175.86 48.6578C174.023 49.5739 172.187 49.9136 168.951 49.8308Z" fill="#777A8C"/>
<path fill-rule="evenodd" clip-rule="evenodd" d="M210.437 35.0833C210.007 36.4754 209.698 37.4736 209.39 38.4722C208.349 41.852 208.349 41.8517 211.879 41.6149C211.979 41.6082 212.079 41.6131 212.178 41.6094C212.597 41.5948 212.876 41.4551 212.667 40.9642C211.9 39.1652 211.554 37.1997 210.437 35.0833ZM210.511 45.3967C210.361 45.3952 210.211 45.3909 210.061 45.3949C206.877 45.4816 207.016 45.3413 206.159 48.1018C205.792 49.2829 205.184 49.6125 204.135 49.594C199.639 49.5139 200.335 49.937 201.657 46.2851C203.518 41.1477 205.382 36.0115 207.199 30.8586C207.583 29.7712 208.076 29.3512 209.274 29.3512C209.371 29.3512 209.536 29.3524 209.636 29.3518C214.369 29.3512 213.47 28.7425 215.087 33.1954C216.902 38.2403 218.751 43.2736 220.637 48.292C221.003 49.2631 220.803 49.5821 219.815 49.5632C218.768 49.5434 217.719 49.5772 216.671 49.6061C215.925 49.6268 215.426 49.3185 215.213 48.5753C215.199 48.5269 215.18 48.4795 215.16 48.4329C213.769 44.8729 214.668 45.4816 210.511 45.3967Z" fill="#777A8C"/>
<path fill-rule="evenodd" clip-rule="evenodd" d="M124.005 39.4282C124.005 36.5397 124.032 33.6511 123.991 30.7628C123.976 29.6827 124.268 29.2137 125.444 29.3087C127.314 29.4593 129.205 29.5083 131.07 29.5366C133.026 29.5665 135.017 29.3832 136.993 29.2925C138.157 29.239 138.528 29.7183 138.428 30.803C138.386 31.2556 138.369 31.7158 138.396 32.1689C138.452 33.1264 138 33.3586 137.118 33.334C134.924 33.2719 132.727 33.3492 130.534 33.2841C129.487 33.2527 129.049 33.5951 129.22 34.6771C129.365 35.5889 128.681 36.9201 130.566 36.8005C132.504 36.6778 134.458 36.8309 136.4 36.7424C137.493 36.6928 137.849 37.1517 137.794 38.1527C137.791 38.2032 137.796 38.2541 137.793 38.3046C137.649 41.0148 138.24 40.8407 135.3 40.8222C133.704 40.8121 132.1 40.9168 130.513 40.792C129.194 40.6892 128.954 41.4646 129.285 42.3335C129.69 43.3963 127.886 45.4391 130.544 45.5109C132.638 45.5675 134.738 45.6147 136.829 45.5164C138.007 45.4607 138.455 45.7909 138.409 47.0178C138.304 49.8999 138.87 49.5554 135.852 49.5457C132.41 49.5341 128.966 49.4854 125.526 49.5743C124.248 49.6072 123.911 49.1908 123.949 47.9405C124.034 45.1052 123.976 42.2657 123.976 39.4282H124.005Z" fill="#777A8C"/>
<path fill-rule="evenodd" clip-rule="evenodd" d="M64.0808 36.9682C64.0682 34.8905 64.0994 32.8109 64.0251 30.7355C63.9885 29.7169 64.2354 29.2743 65.3391 29.2905C69.2806 29.3492 73.2235 29.3483 77.1656 29.3087C78.319 29.2972 78.8569 29.6688 78.6597 30.8926C78.604 31.2383 78.6109 31.6056 78.6537 31.9544C78.7832 33.0081 78.3861 33.3855 77.3148 33.3453C75.1216 33.2625 72.9212 33.3724 70.7294 33.2738C69.508 33.2193 69.1472 33.6773 69.2099 34.8509C69.2683 35.9462 69.0903 36.9682 70.7735 36.8356C72.709 36.6834 74.6658 36.834 76.6088 36.7509C77.5833 36.7092 78.0029 37.058 77.9903 38.0198C77.9837 38.5259 77.9711 39.0342 78.0059 39.5382C78.0745 40.5261 77.6493 40.877 76.6787 40.8505C74.584 40.793 72.4855 40.8727 70.392 40.8012C69.5458 40.772 69.2608 41.0063 69.217 41.8768C69.0328 45.5536 69.0082 45.5524 72.6533 45.5405C74.2004 45.535 75.7491 45.5734 77.2936 45.5089C78.3565 45.4644 78.7026 45.9273 78.6816 46.9496C78.6154 50.1669 78.9696 49.5098 76.1824 49.5399C72.6398 49.578 69.0957 49.504 65.5543 49.5752C64.3865 49.5987 63.9849 49.2666 64.0131 48.0474C64.097 44.4509 64.0694 40.8517 64.0856 37.2543C64.0838 37.16 64.0823 37.0638 64.0808 36.9682Z" fill="#777A8C"/>
<path fill-rule="evenodd" clip-rule="evenodd" d="M181.678 39.4993C181.69 32.9105 185.251 29.2224 191.734 29.0855C193.801 29.0419 195.799 29.342 197.741 30.1199C198.62 30.4718 199.025 30.9907 199.007 31.9232C198.99 32.8353 199.014 33.7484 199.007 34.6614C199 35.5635 198.586 35.7659 197.878 35.2616C196.897 34.5619 195.932 33.8573 194.781 33.4455C191.145 32.146 187.975 33.9565 187.244 37.7886C187.15 38.2844 187.08 38.7929 187.074 39.2966C187.043 41.7122 187.641 43.9121 189.867 45.1285C192.004 46.2963 194.203 46.0072 196.295 44.7865C197.097 44.3187 197.928 43.1223 198.705 43.5974C199.516 44.0932 198.888 45.4557 199.003 46.4293C199.16 47.7569 198.556 48.4237 197.341 48.8872C194.641 49.9162 191.908 50.1655 189.107 49.5775C184.23 48.5537 181.668 45.05 181.678 39.4993Z" fill="#777A8C"/>
<path fill-rule="evenodd" clip-rule="evenodd" d="M89.2055 29.312C91.6489 29.312 94.0936 29.3573 96.5355 29.2928C97.7606 29.2603 98.3149 29.6778 98.1277 30.9564C98.0767 31.3046 98.0644 31.6689 98.104 32.018C98.2146 32.9989 97.8352 33.3921 96.8445 33.3358C95.6512 33.2673 94.4505 33.3452 93.2557 33.2965C92.3585 33.2603 92.0646 33.5927 92.0733 34.5279C92.1158 38.9842 92.0433 43.4423 92.1119 47.8982C92.1326 49.2346 91.7277 49.6549 90.4098 49.6208C86.7869 49.528 86.8178 49.581 86.8672 45.9181C86.9179 42.1713 86.8687 38.423 86.9238 34.6758C86.9397 33.5902 86.5226 33.2497 85.5088 33.3057C84.3153 33.372 83.1145 33.2923 81.9198 33.3446C81.0322 33.3836 80.7034 33.0701 80.678 32.1309C80.6022 29.3455 80.5632 29.3421 83.2212 29.3312C85.2161 29.3233 87.2106 29.33 89.2055 29.33V29.312Z" fill="#777A8C"/>
<path fill-rule="evenodd" clip-rule="evenodd" d="M64.0804 36.9682C64.0819 37.0624 64.0834 37.1572 64.0852 37.2502C64.0552 37.1824 64.0177 37.1176 64.0003 37.0477C63.9955 37.0288 64.0519 36.9952 64.0804 36.9682Z" fill="#777A8C"/>
</svg>
