<svg width="260" height="80" viewBox="0 0 260 80" fill="none" xmlns="http://www.w3.org/2000/svg">
<path fill-rule="evenodd" clip-rule="evenodd" d="M133.943 26.2989C134.014 26.2967 134.085 26.2946 134.155 26.2946C136.024 26.2946 137.322 27.1381 138.015 28.8061C138.362 29.6354 138.523 30.584 138.523 31.7881C138.521 32.6962 138.41 33.4906 138.186 34.2183C137.551 36.2778 136.112 37.3419 134.024 37.2852C131.994 37.2345 130.66 36.0915 130.166 33.9854C129.755 32.2361 129.813 30.5658 130.339 29.0212C130.922 27.2982 132.168 26.3577 133.943 26.2989ZM140.033 28.0746C139.164 26.0111 137.398 24.6163 135.308 24.3428C133.274 24.075 131.275 24.9063 129.916 26.5705V23.0007C129.916 21.8252 129.916 20.6496 129.914 19.4739C129.912 19.0097 129.809 18.6791 129.596 18.4683C129.412 18.284 129.154 18.1967 128.82 18.203C128.104 18.2192 127.747 18.657 127.763 19.5061C127.765 19.5712 127.765 19.6381 127.763 19.703V37.725C127.763 37.8611 127.763 38.0028 127.771 38.1446C127.814 38.8097 128.213 39.1908 128.866 39.1908H128.874C129.467 39.1888 129.86 38.7996 129.9 38.1752C129.92 37.853 129.916 37.5408 129.91 37.1455V37.123C131.053 38.5158 132.672 39.2859 134.433 39.2859C134.728 39.2859 135.026 39.2658 135.328 39.2212C137.616 38.8867 139.485 37.2852 140.21 35.0453C141.004 32.5805 140.944 30.2354 140.033 28.0746Z" fill="#777A8C"/>
<path fill-rule="evenodd" clip-rule="evenodd" d="M145.04 30.1643C145.219 28.7778 145.895 27.6166 146.943 26.899C147.64 26.4224 148.448 26.1792 149.297 26.1792C149.704 26.1792 150.119 26.236 150.537 26.3497C152.081 26.767 153.322 28.5853 153.248 30.3206C153.236 30.5839 153.211 30.588 152.909 30.5839H152.889C151.978 30.5821 151.069 30.5821 150.16 30.5821H149.124C148.777 30.5821 148.43 30.5799 148.082 30.5799C147.223 30.5758 146.334 30.572 145.457 30.5902C145.356 30.5941 145.118 30.5983 145.062 30.5373C145.044 30.515 145.004 30.4382 145.04 30.1643ZM145.435 32.2988C146.451 32.3332 147.483 32.3251 148.481 32.3191C148.888 32.317 149.297 32.315 149.706 32.3132H151.284C152.181 32.315 153.076 32.315 153.971 32.3132C154.485 32.311 155.098 32.2037 155.251 31.3684C155.759 28.5934 153.844 25.3562 151.23 24.5738C147.674 23.5076 144.169 25.4393 143.081 29.0677C142.665 30.4562 142.575 31.936 142.815 33.4684C143.282 36.44 144.865 38.3091 147.523 39.0267C148.241 39.2191 148.956 39.3164 149.664 39.3164C151.135 39.3164 152.577 38.901 153.979 38.072C154.314 37.8731 154.689 37.6159 154.935 37.2105C155.211 36.7564 155.189 36.3062 154.872 35.9414C154.455 35.4589 153.951 35.7328 153.734 35.8501C153.552 35.9495 153.369 36.0508 153.187 36.1542C152.714 36.4197 152.226 36.6934 151.728 36.9022C150.117 37.5812 148.519 37.5305 147.233 36.7623C145.959 36.0001 145.145 34.6238 144.939 32.8887C144.905 32.615 144.919 32.4549 144.979 32.3882C145.038 32.3213 145.191 32.2927 145.435 32.2988Z" fill="#777A8C"/>
<path fill-rule="evenodd" clip-rule="evenodd" d="M117.025 53.6637C117.263 51.3002 119.033 49.6523 121.333 49.6523H121.345C122.43 49.6543 123.421 50.0577 124.129 50.7892C124.852 51.5293 125.245 52.5629 125.239 53.6982C125.239 53.8421 125.217 53.9435 125.177 53.9818C125.127 54.0325 124.989 54.0367 124.844 54.0367C123.939 54.0306 123.032 54.0325 122.127 54.0325L121.085 54.0347C120.734 54.0325 120.382 54.0325 120.029 54.0325C119.176 54.0286 118.293 54.0286 117.425 54.0406C117.324 54.0426 117.112 54.0468 117.058 53.986C117.04 53.9656 117.003 53.8966 117.025 53.6637ZM117.411 55.7414C118.438 55.7678 119.479 55.7617 120.488 55.7577C120.884 55.7554 121.283 55.7536 121.68 55.7536L122.845 55.7495C123.893 55.7473 124.977 55.7455 126.04 55.7554H126.064C126.832 55.7554 127.229 55.3523 127.281 54.5191C127.469 51.5009 125.778 48.7723 123.264 48.0327C120.204 47.1325 117.157 48.3468 115.687 51.055C114.901 52.5023 114.585 54.1401 114.722 56.0617C114.941 59.0982 116.159 61.0644 118.445 62.0716C119.519 62.5441 120.595 62.7811 121.67 62.7811C123.218 62.7811 124.762 62.2908 126.29 61.3135C126.483 61.1921 126.669 61.0137 126.844 60.7867C127.312 60.1786 127.132 59.7124 126.9 59.4284C126.471 58.9054 125.955 59.1813 125.677 59.327C125.479 59.4347 125.282 59.5441 125.084 59.6556C124.598 59.927 124.095 60.2068 123.581 60.4077C121.948 61.0381 120.349 60.9367 119.079 60.1178C117.848 59.3252 117.094 57.9608 116.955 56.2784C116.933 56.025 116.949 55.8793 117.005 55.8185C117.056 55.7617 117.195 55.7354 117.411 55.7414Z" fill="#777A8C"/>
<path fill-rule="evenodd" clip-rule="evenodd" d="M173.538 55.2812C173.52 55.9866 173.494 56.6211 173.353 57.2474C172.841 59.5298 171.416 60.74 169.235 60.744H169.22C167.005 60.744 165.634 59.5684 165.141 57.2474C164.818 55.717 164.856 54.2375 165.254 52.8488C165.838 50.8177 167.213 49.7454 169.232 49.7454H169.289C171.301 49.7657 172.718 50.8988 173.276 52.938C173.472 53.6596 173.558 54.4278 173.538 55.2812ZM175.755 55.2569C175.749 55.1415 175.745 55.0217 175.739 54.8981C175.727 54.6062 175.713 54.3062 175.687 53.9981C175.38 50.5136 173.042 48.0224 169.869 47.7974C166.28 47.5461 163.685 49.5386 162.925 53.1305C162.55 54.8981 162.625 56.615 163.145 58.2305C163.78 60.201 165.223 61.7251 167.102 62.4163C167.805 62.6738 168.535 62.8017 169.259 62.8017C170.46 62.8017 171.653 62.4528 172.712 61.7719C173.977 60.9569 175.669 59.394 175.757 55.2711V55.263L175.755 55.2569Z" fill="#777A8C"/>
<path fill-rule="evenodd" clip-rule="evenodd" d="M111.951 58.8489C111.947 59.7487 111.941 60.6467 111.945 61.5449C111.949 62.2442 111.574 62.6496 110.917 62.6555H110.901C110.566 62.6555 110.304 62.5604 110.117 62.3739C109.909 62.1611 109.806 61.8428 109.806 61.4009L109.808 59.8543C109.808 57.9388 109.81 56.0232 109.804 54.1075C109.802 53.5602 109.79 52.9746 109.725 52.4131C109.526 50.7305 108.625 49.8732 106.97 49.7901C105.555 49.7192 104.39 50.0879 103.592 50.8543C102.789 51.6264 102.356 52.8082 102.342 54.2719C102.324 56.0293 102.328 57.8149 102.334 59.5422C102.336 60.0811 102.336 60.6203 102.338 61.1577C102.338 61.7131 102.34 62.6435 101.268 62.6516H101.252C100.923 62.6516 100.665 62.5604 100.488 62.382C100.201 62.0879 100.177 61.628 100.177 61.18C100.185 56.9555 100.185 53.0778 100.177 49.3278C100.175 48.9003 100.199 48.4176 100.494 48.1197C100.673 47.9374 100.937 47.8523 101.264 47.8501C102.279 47.8582 102.302 48.6996 102.32 49.3138V49.3584C102.324 49.4334 102.318 49.5122 102.312 49.5913C102.306 49.6949 102.298 49.7919 102.312 49.8872C103.475 48.3712 105.099 47.684 107.258 47.7832C110.056 47.9131 111.735 49.5305 111.864 52.2205C111.973 54.4278 111.961 56.6757 111.951 58.8489Z" fill="#777A8C"/>
<path fill-rule="evenodd" clip-rule="evenodd" d="M111.108 38.846C110.911 39.0893 110.695 39.223 110.463 39.2433C110.441 39.2453 110.419 39.2453 110.397 39.2453C110.028 39.2453 109.709 38.9678 109.427 38.7226L109.391 38.692C107.877 37.3764 106.365 36.0589 104.852 34.7413L102.751 32.9089C102.628 32.8034 102.505 32.698 102.34 32.5602L102.338 32.5582C102.338 32.9962 102.336 33.4217 102.336 33.8415C102.334 35.1872 102.332 36.4582 102.344 37.7251C102.346 38.157 102.31 38.6372 102.018 38.9393C101.84 39.128 101.582 39.223 101.256 39.2251C100.931 39.219 100.677 39.1379 100.498 38.9555C100.201 38.6535 100.177 38.167 100.177 37.7372C100.187 31.7109 100.185 25.7697 100.181 19.7048C100.181 19.0764 100.179 18.2149 101.235 18.207C101.59 18.2089 101.848 18.294 102.032 18.4805C102.34 18.7908 102.34 19.273 102.338 19.7393V30.8332L107.938 25.7007C108.069 25.5814 108.2 25.4616 108.329 25.3399L108.677 25.0217C109.127 24.6082 109.788 24.0023 110.479 24.7764C110.695 25.0176 110.798 25.2692 110.784 25.5183C110.762 25.9339 110.437 26.2582 110.078 26.5805C109.048 27.5007 108.024 28.4291 107 29.3557C106.392 29.905 105.783 30.4562 105.174 31.0055C104.835 31.3116 104.573 31.5487 104.573 31.6562C104.573 31.7656 104.848 32.0048 105.198 32.3109L110.701 37.119C111.07 37.4413 111.759 38.0433 111.108 38.846Z" fill="#777A8C"/>
<path fill-rule="evenodd" clip-rule="evenodd" d="M125.189 26.0557C122.635 31.7577 120.059 37.5347 117.424 43.4435C117.271 43.784 117.049 44.1933 116.668 44.3273C116.584 44.3577 116.497 44.3717 116.406 44.3717C116.239 44.3717 116.058 44.3232 115.872 44.2219C115.074 43.7982 115.39 43.1111 115.6 42.655L115.642 42.5617C115.783 42.2514 115.918 41.9374 116.052 41.6232C116.352 40.9257 116.662 40.2043 117.031 39.5273C117.408 38.832 117.299 38.2928 117.003 37.6503C115.834 35.1124 114.669 32.5198 113.542 30.0124C112.966 28.7334 112.391 27.4523 111.813 26.1732C111.611 25.7273 111.361 25.1719 111.935 24.6611C112.308 24.3246 112.641 24.3104 112.853 24.359C113.219 24.4401 113.532 24.7602 113.762 25.2854C114.617 27.2334 115.469 29.1852 116.32 31.1354C116.824 32.2948 117.331 33.4523 117.837 34.6117C118.013 35.0151 118.196 35.4165 118.398 35.8663C118.442 35.9638 118.489 36.0651 118.535 36.1685L122.433 27.28C122.742 26.5786 123.052 25.875 123.356 25.1698C123.522 24.7807 123.745 24.5334 124.013 24.432C124.245 24.3428 124.507 24.3671 124.788 24.505C125.384 24.7969 125.519 25.3198 125.189 26.0557Z" fill="#777A8C"/>
<path fill-rule="evenodd" clip-rule="evenodd" d="M160.528 49.5832C159.663 51.8658 158.805 54.1482 157.948 56.4325L156.829 59.4102C156.581 60.071 156.333 60.7278 156.091 61.3906C155.904 61.9016 155.646 62.6028 154.777 62.6129H154.761C153.894 62.6129 153.634 61.9217 153.443 61.4192C152.157 58.0138 150.984 54.9284 149.859 51.9854C149.831 51.9122 149.81 51.8352 149.786 51.7582C149.742 51.6082 149.702 51.4724 149.619 51.3528C149.327 52.123 149.04 52.8933 148.752 53.6638C147.863 56.0332 146.942 58.4818 146.023 60.8798C145.977 60.9955 145.94 61.119 145.898 61.2528C145.707 61.869 145.471 62.6393 144.457 62.6028C143.524 62.5703 143.3 61.8408 143.12 61.2548C143.08 61.1251 143.042 61.0014 142.999 60.8861C141.945 58.1453 140.891 55.3523 139.873 52.6503L138.849 49.9379C138.827 49.8771 138.805 49.8163 138.785 49.7557C138.752 49.6561 138.72 49.5629 138.68 49.4778C138.521 49.1293 138.494 48.8151 138.603 48.5413C138.714 48.2636 138.954 48.0528 139.319 47.9131C139.599 47.8036 139.853 47.8016 140.073 47.903C140.335 48.0264 140.538 48.2899 140.689 48.7116L141.498 50.9557C142.232 52.9947 142.965 55.032 143.701 57.0692C143.915 57.6568 144.132 58.2428 144.368 58.8812L144.546 59.3658L148.266 49.4922C148.373 49.2082 148.484 48.9244 148.595 48.6426C148.859 47.9719 149.317 47.8219 149.655 47.8118C150.018 47.8016 150.514 47.9476 150.794 48.6933C151.042 49.3541 151.288 50.0172 151.532 50.6798C151.695 51.1219 151.86 51.5638 152.022 52.0055C152.675 53.757 153.328 55.5082 154.007 57.3244L154.757 59.3395C154.793 59.2462 154.826 59.1568 154.86 59.0676C155.047 58.5814 155.213 58.1474 155.374 57.7097C156.013 55.9683 156.652 54.2271 157.291 52.4859L158.623 48.8597C158.792 48.3974 159.046 47.7003 159.845 47.8888C160.209 47.9739 160.459 48.146 160.588 48.3955C160.738 48.6872 160.719 49.0764 160.528 49.5832Z" fill="#777A8C"/>
<path fill-rule="evenodd" clip-rule="evenodd" d="M137.299 61.0644C137.452 61.2326 137.519 61.4759 137.501 61.784C137.483 62.0941 137.386 62.3293 137.211 62.479C137.025 62.6414 136.785 62.686 136.537 62.686C136.386 62.686 136.233 62.6698 136.086 62.6536C135.989 62.6455 135.894 62.6353 135.804 62.6293C132.554 62.4791 131.087 60.9265 131.049 57.5961C131.041 56.8522 131.043 56.0982 131.045 55.3682C131.047 55.0297 131.047 54.6914 131.047 54.3509C131.047 53.9799 131.045 53.609 131.043 53.238C131.038 52.3401 131.032 51.4117 131.061 50.4975C131.067 50.2563 131.038 50.1061 130.97 50.0392C130.905 49.9766 130.764 49.954 130.549 49.9725C130.113 50.009 129.646 50.007 129.033 49.9622C128.495 49.9238 128.156 49.559 128.17 49.036C128.182 48.5171 128.509 48.1766 129.043 48.1279C129.162 48.1157 129.283 48.1117 129.404 48.1076L129.448 48.1056C130.262 48.0732 130.71 48.057 130.879 47.8725C131.047 47.686 131.047 47.2117 131.047 46.3502C131.047 46.204 131.049 46.0563 131.049 45.9081C131.053 45.5901 131.055 45.2617 131.045 44.9394C131.032 44.4874 131.127 44.163 131.335 43.9482C131.52 43.7576 131.788 43.6684 132.133 43.6725C132.847 43.6887 133.207 44.1245 133.201 44.9716C133.199 45.2412 133.205 45.511 133.211 45.7806C133.223 46.3178 133.234 46.8732 133.183 47.4184C133.153 47.7184 133.185 47.9189 133.276 48.0122C133.371 48.1117 133.576 48.1461 133.917 48.1178C134.443 48.0752 134.979 48.0853 135.495 48.0975C135.701 48.1015 135.908 48.1056 136.114 48.1056C136.477 48.1076 136.882 48.1441 137.13 48.4076C137.287 48.5718 137.362 48.8009 137.354 49.0887C137.331 49.9826 136.499 49.9786 136.146 49.9826C135.888 49.9806 135.63 49.9847 135.374 49.9847C134.78 49.9885 134.167 49.9928 133.562 49.9765C133.401 49.9684 133.298 49.9907 133.256 50.0333C133.213 50.0779 133.191 50.1813 133.193 50.3414C133.201 51.3164 133.199 52.3076 133.197 53.2664C133.195 54.8637 133.193 56.5137 133.238 58.1353C133.288 59.8238 134.04 60.5556 135.922 60.7399C136.021 60.7502 136.126 60.7522 136.235 60.7543C136.612 60.7644 137.041 60.7766 137.299 61.0644Z" fill="#777A8C"/>
<path fill-rule="evenodd" clip-rule="evenodd" d="M199.449 61.0907V62.309L199.355 62.3678C198.534 62.9009 197.913 62.5117 197.462 62.1144C195.73 60.5759 194.011 59.086 192.193 57.507C191.631 57.0184 191.066 56.5279 190.496 56.0313C190.427 56.6049 190.441 57.1603 190.453 57.7016C190.459 57.9934 190.465 58.2955 190.459 58.5934C190.449 59.0576 190.451 59.5299 190.453 59.988C190.455 60.5272 190.457 61.0847 190.439 61.634C190.429 61.9563 190.324 62.2198 190.135 62.3982C189.957 62.5684 189.701 62.6574 189.397 62.6574C189.371 62.6574 189.345 62.6574 189.319 62.6556C188.716 62.6272 188.357 62.2684 188.313 61.6421C188.301 61.4982 188.303 61.3563 188.303 61.2184V43.0887C188.305 43.0239 188.305 42.961 188.303 42.8962C188.288 42.4766 188.387 42.1543 188.597 41.9374C188.792 41.7367 189.071 41.6394 189.425 41.6475C189.81 41.6576 190.455 41.832 190.455 42.8799V54.288L196.986 48.3043C197.349 47.9718 197.659 47.8279 197.962 47.8522C198.212 47.8705 198.441 48.0063 198.641 48.2556C199.292 49.0603 198.568 49.709 198.329 49.9218C197.684 50.4995 197.043 51.0793 196.402 51.659C195.281 52.6725 194.12 53.7205 192.963 54.734C192.89 54.7989 192.667 54.9934 192.669 55.1049C192.669 55.182 192.769 55.3036 192.963 55.4678C194.547 56.8076 196.134 58.1961 197.67 59.538C198.238 60.0347 198.808 60.5333 199.379 61.0299L199.449 61.0907Z" fill="#777A8C"/>
<path fill-rule="evenodd" clip-rule="evenodd" d="M186.764 48.6934C186.786 49.0076 186.712 49.2632 186.544 49.4515C186.335 49.6846 185.998 49.8042 185.51 49.8164C184.081 49.8529 182.979 50.2767 182.233 51.0794C181.432 51.9427 181.047 53.2258 181.09 54.8941C181.128 56.2542 181.12 57.6387 181.112 58.9745C181.106 59.7427 181.102 60.509 181.106 61.2752C181.108 61.6907 181.086 62.1184 180.818 62.3921C180.646 62.5704 180.398 62.6576 180.064 62.6576H180.056C178.971 62.6536 178.973 61.6927 178.973 61.2815C178.975 57.2677 178.975 53.2522 178.971 49.2367C178.971 48.9488 178.991 48.5819 179.151 48.3022C179.324 47.9981 179.626 47.8443 180.046 47.8443H180.048C180.376 47.8443 180.632 47.9375 180.806 48.1218C181.076 48.4056 181.102 48.8536 181.09 49.2529C181.082 49.4698 181.084 49.6887 181.086 49.9826C182.116 48.6225 183.486 47.9375 185.351 47.8421L185.458 47.8362C185.952 47.8076 186.701 47.763 186.764 48.6934Z" fill="#777A8C"/>
<path fill-rule="evenodd" clip-rule="evenodd" d="M169.598 37.6399C169.592 38.4974 168.925 39.217 168.113 39.2433C168.098 39.2453 168.082 39.2453 168.066 39.2453C167.679 39.2453 167.31 39.0874 167.018 38.7974C166.704 38.4852 166.528 38.0557 166.53 37.6178C166.534 37.1717 166.702 36.7622 167.006 36.4663C167.306 36.1726 167.709 36.0183 168.133 36.0368C168.977 36.069 169.606 36.7582 169.598 37.6399Z" fill="#777A8C"/>
<path fill-rule="evenodd" clip-rule="evenodd" d="M165.773 24.6163C165.935 24.7705 166.021 24.9933 166.029 25.2773C166.053 26.1631 165.267 26.2989 164.969 26.3474C161.123 27.0041 160.397 27.8838 160.397 31.8834L160.395 33.5618C160.393 34.9665 160.391 36.4197 160.401 37.8487C160.402 38.1811 160.371 38.6595 160.073 38.9597C159.896 39.1381 159.648 39.2293 159.337 39.2293H159.307C158.231 39.2088 158.235 38.1672 158.235 37.8264C158.247 33.9203 158.247 29.8703 158.235 25.7899C158.235 25.4455 158.231 24.3974 159.305 24.3895C159.642 24.3852 159.892 24.4827 160.073 24.673C160.295 24.9082 160.389 25.2649 160.367 25.796C160.361 25.9604 160.359 26.1264 160.361 26.2928C161.432 25.0724 162.838 24.4766 164.834 24.3771C165.136 24.3609 165.515 24.3753 165.773 24.6163Z" fill="#777A8C"/>
<path fill-rule="evenodd" clip-rule="evenodd" d="M71.754 37.0116V65.3588L64.1714 53.9928C64.2214 53.8573 64.2503 53.7098 64.2503 53.5563C64.2503 53.0161 63.902 52.5576 63.4268 52.4101L61.0737 28.215C61.3662 27.9998 61.5567 27.645 61.5567 27.2443C61.5567 27.0489 61.5124 26.8656 61.4316 26.7041L71.1152 15.085C71.1941 15.1388 71.2788 15.1826 71.3692 15.2145V34.6894C70.9209 34.8508 70.5996 35.2954 70.5996 35.8156C70.5996 36.4754 71.1171 37.0116 71.754 37.0116Z" fill="#777A8C"/>
<path fill-rule="evenodd" clip-rule="evenodd" d="M87.7009 26.6005C87.6952 26.6384 87.6892 26.6782 87.6836 26.7181L72.478 34.7114V15.1229C72.6414 15.0252 72.7801 14.8857 72.8801 14.7202L87.7009 26.6005Z" fill="#777A8C"/>
<path fill-rule="evenodd" clip-rule="evenodd" d="M87.8779 27.8722L87.522 51.868L72.478 35.6402L87.6355 27.6709C87.7067 27.7486 87.7875 27.8184 87.8779 27.8722Z" fill="#777A8C"/>
<path fill-rule="evenodd" clip-rule="evenodd" d="M87.0968 52.8686C86.889 53.0639 86.7503 53.335 86.7216 53.64L72.8492 66.0106C72.7416 65.911 72.6164 65.8332 72.478 65.7854V37.1013L87.0968 52.8686Z" fill="#777A8C"/>
<path fill-rule="evenodd" clip-rule="evenodd" d="M71.9435 14.0883C71.9435 14.2279 71.9089 14.3614 71.8473 14.4751C71.8204 14.5249 71.7877 14.5727 71.7511 14.6146C71.6107 14.78 71.4048 14.8857 71.1739 14.8857C70.7487 14.8857 70.4043 14.5289 70.4043 14.0883C70.4043 13.6478 70.7487 13.291 71.1739 13.291C71.5991 13.291 71.9435 13.6478 71.9435 14.0883Z" fill="#777A8C"/>
<path fill-rule="evenodd" clip-rule="evenodd" d="M71.9435 35.8157C71.9435 36.256 71.5989 36.613 71.1739 36.613C70.7489 36.613 70.4043 36.256 70.4043 35.8157C70.4043 35.3754 70.7489 35.0184 71.1739 35.0184C71.5989 35.0184 71.9435 35.3754 71.9435 35.8157Z" fill="#777A8C"/>
<path fill-rule="evenodd" clip-rule="evenodd" d="M63.6496 53.5564C63.6496 53.9969 63.3052 54.3537 62.88 54.3537C62.4548 54.3537 62.1104 53.9969 62.1104 53.5564C62.1104 53.1158 62.4548 52.759 62.88 52.759C63.0166 52.759 63.1436 52.7969 63.2551 52.8607C63.4841 52.9942 63.6419 53.2454 63.6476 53.5344C63.6496 53.5424 63.6496 53.5484 63.6496 53.5564Z" fill="#777A8C"/>
<path fill-rule="evenodd" clip-rule="evenodd" d="M60.5392 27.2444C60.5392 27.4178 60.4853 27.5792 60.393 27.7108C60.2545 27.9121 60.0274 28.0417 59.7696 28.0417C59.3444 28.0417 59 27.6849 59 27.2444C59 26.8038 59.3444 26.447 59.7696 26.447C60.1275 26.447 60.4296 26.7002 60.5142 27.045C60.5315 27.1088 60.5392 27.1746 60.5392 27.2444Z" fill="#777A8C"/>
<path fill-rule="evenodd" clip-rule="evenodd" d="M89.5685 26.8457C89.5685 27.2862 89.2241 27.643 88.7989 27.643C88.3737 27.643 88.0293 27.2862 88.0293 26.8457C88.0293 26.4051 88.3737 26.0483 88.7989 26.0483C89.2241 26.0483 89.5685 26.4051 89.5685 26.8457Z" fill="#777A8C"/>
<path fill-rule="evenodd" clip-rule="evenodd" d="M89.5685 26.8457C89.5685 27.2862 89.2241 27.643 88.7989 27.643C88.3737 27.643 88.0293 27.2862 88.0293 26.8457C88.0293 26.4051 88.3737 26.0483 88.7989 26.0483C89.2241 26.0483 89.5685 26.4051 89.5685 26.8457Z" fill="#777A8C"/>
<path fill-rule="evenodd" clip-rule="evenodd" d="M88.5319 53.7557C88.5319 54.1962 88.1875 54.553 87.7623 54.553C87.3371 54.553 86.9927 54.1962 86.9927 53.7557C86.9927 53.3152 87.3371 52.9584 87.7623 52.9584C88.1875 52.9584 88.5319 53.3152 88.5319 53.7557Z" fill="#777A8C"/>
<path fill-rule="evenodd" clip-rule="evenodd" d="M88.5319 53.7557C88.5319 54.1962 88.1875 54.553 87.7623 54.553C87.3371 54.553 86.9927 54.1962 86.9927 53.7557C86.9927 53.3152 87.3371 52.9584 87.7623 52.9584C88.1875 52.9584 88.5319 53.3152 88.5319 53.7557Z" fill="#777A8C"/>
<path fill-rule="evenodd" clip-rule="evenodd" d="M72.9806 66.9117C72.9806 67.3522 72.6362 67.709 72.211 67.709C71.7858 67.709 71.4414 67.3522 71.4414 66.9117C71.4414 66.4711 71.7858 66.1143 72.211 66.1143C72.3515 66.1143 72.4823 66.1542 72.5958 66.222C72.6228 66.2379 72.6478 66.2539 72.6709 66.2738C72.8594 66.4173 72.9806 66.6505 72.9806 66.9117Z" fill="#777A8C"/>
</svg>
