<svg width="260" height="80" viewBox="0 0 260 80" fill="none" xmlns="http://www.w3.org/2000/svg">
<mask id="mask0" mask-type="alpha" maskUnits="userSpaceOnUse" x="71" y="18" width="43" height="43">
<path d="M71 18.0903H113.048V60.8865H71V18.0903Z" fill="#C4C9D9"/>
</mask>
<g mask="url(#mask0)">
<path fill-rule="evenodd" clip-rule="evenodd" d="M108.657 39.5199C108.652 29.995 101.37 22.5758 92.0186 22.5668C82.7999 22.5578 75.4125 30.0303 75.3901 39.316C75.3664 49.1148 82.9589 56.4264 92.0217 56.421C101.23 56.4156 108.641 49.0411 108.657 39.5199ZM92.005 18.0904C103.203 18.0664 112.608 27.3203 113.033 38.676C113.474 50.4632 104.24 60.4393 92.8709 60.8711C80.7743 61.3305 71.2949 51.4357 71.0068 40.0319C70.7091 28.2449 80.2184 18.1112 92.005 18.0904Z" fill="#777A8C"/>
</g>
<path fill-rule="evenodd" clip-rule="evenodd" d="M157.929 43.7755C158.761 43.7755 159.568 43.7519 160.372 43.7956C160.532 43.8042 160.749 44.0409 160.82 44.2237C161.878 46.9388 164.662 48.0302 167.111 46.6751C167.942 46.2148 168.452 45.5056 168.483 44.5154C168.513 43.5149 168.056 42.7335 167.191 42.3302C165.953 41.754 164.674 41.2793 163.424 40.732C162.517 40.3352 161.589 39.9661 160.741 39.4545C157.518 37.5088 157.459 33.1473 160.675 31.1826C163.391 29.5232 166.211 29.5963 168.931 31.2298C170.581 32.2208 171.427 33.9168 171.345 35.779C170.493 35.779 169.634 35.7995 168.778 35.757C168.65 35.7507 168.494 35.4678 168.419 35.2822C167.872 33.9144 167.071 32.8429 165.577 32.6016C164.581 32.4407 163.605 32.5819 162.703 33.058C161.842 33.5125 161.371 34.2805 161.37 35.3015C161.369 36.3068 161.906 36.9835 162.752 37.3446C164.208 37.9659 165.704 38.4859 167.149 39.1324C168.065 39.5422 168.984 40.0092 169.788 40.6159C172.212 42.4429 172.159 47.2071 169.02 48.7086C165.867 50.2164 162.794 50.0977 159.876 48.0476C158.478 47.0653 157.792 45.517 157.929 43.7755Z" fill="#777A8C"/>
<path fill-rule="evenodd" clip-rule="evenodd" d="M148.482 34.389C148.41 34.3888 148.337 34.3887 148.264 34.3884C147.416 36.9815 146.567 39.5746 145.712 42.1856H150.998C150.147 39.5496 149.315 36.9692 148.482 34.389ZM156.376 49.3149C156.25 49.3519 156.213 49.3689 156.174 49.3732C153.679 49.6549 153.385 49.4537 152.561 46.9726C152.342 46.3144 152.239 45.4401 151.786 45.092C151.358 44.7633 150.539 44.9864 149.892 44.9837C148.356 44.9775 146.82 44.9937 145.285 44.9719C144.906 44.9664 144.736 45.092 144.623 45.4762C144.322 46.501 143.975 47.5111 143.642 48.5255C143.391 49.2925 143.185 49.4408 142.439 49.4347C141.772 49.4291 141.105 49.4335 140.338 49.4335C140.459 48.9861 140.537 48.61 140.661 48.2516C142.606 42.648 144.555 37.0464 146.506 31.4452C146.811 30.5674 147.129 30.3326 147.988 30.3204C149.833 30.2941 149.835 30.2931 150.466 32.1145C152.338 37.5267 154.208 42.9395 156.078 48.3528C156.183 48.6573 156.269 48.969 156.376 49.3149Z" fill="#777A8C"/>
<path fill-rule="evenodd" clip-rule="evenodd" d="M139.17 36.6368C138.268 36.6368 137.445 36.6498 136.623 36.6224C136.504 36.6186 136.361 36.44 136.284 36.307C136.218 36.1921 136.235 36.0262 136.208 35.8845C135.694 33.2408 133.597 31.9679 131.142 32.8087C129.757 33.2833 128.524 35.0154 128.466 36.7931C128.398 38.857 128.333 40.9346 128.479 42.9897C128.733 46.5603 131.634 47.609 134.06 46.8565C135.315 46.4673 135.814 45.4124 136.123 44.2089C136.404 43.1128 136.396 43.1109 137.466 43.1124C137.976 43.1132 138.486 43.1126 139.04 43.1126C139.244 44.3127 139.025 45.4034 138.485 46.4124C137.348 48.5377 135.474 49.4527 133.275 49.6581C129.004 50.0572 125.742 47.2712 125.397 42.7751C125.224 40.5244 125.243 38.2121 125.531 35.9779C125.974 32.5267 128.736 30.1821 132.061 30.0419C133.697 29.9727 135.241 30.2864 136.629 31.2219C138.105 32.2164 138.985 33.6289 139.165 35.4812C139.2 35.8437 139.17 36.2131 139.17 36.6368Z" fill="#777A8C"/>
<path fill-rule="evenodd" clip-rule="evenodd" d="M174.835 30.4253C175.015 30.4139 175.169 30.3962 175.322 30.3956C176.107 30.3928 176.892 30.3942 177.734 30.3942V38.581H185.867V30.4623H188.835V49.2933H185.959V41.3751H177.856V49.2772H174.835V30.4253Z" fill="#777A8C"/>
<path fill-rule="evenodd" clip-rule="evenodd" d="M89.6124 28.8074V24.6848H94.4065V28.7633H100.456C100.456 29.8629 100.392 30.9159 100.472 31.9574C100.57 33.2341 100.147 34.2014 99.3091 35.1566C96.5642 38.286 93.9029 41.4914 91.2103 44.6683C91.098 44.8008 90.994 44.9405 90.8409 45.1339C91.061 45.1446 91.2159 45.1584 91.3707 45.1585C94.2216 45.1595 97.0726 45.1666 99.9234 45.1492C100.314 45.1468 100.429 45.2534 100.422 45.6523C100.399 46.9758 100.412 48.3002 100.412 49.6243C100.412 49.7857 100.412 49.9471 100.412 50.1535H94.4297C94.5118 51.5573 94.5909 52.9133 94.672 54.3021H89.6449V50.2056H83.5986C83.5986 49.0738 83.5847 47.9947 83.6017 46.9161C83.6331 44.9244 83.3944 45.4299 84.7539 43.8321C87.4817 40.6264 90.2162 37.4266 92.9471 34.2236C93.0428 34.1113 93.1309 33.9925 93.2783 33.8062H84.045V28.8074H89.6124Z" fill="#777A8C"/>
</svg>
