<svg width="260" height="80" viewBox="0 0 260 80" fill="none" xmlns="http://www.w3.org/2000/svg">
<path fill-rule="evenodd" clip-rule="evenodd" d="M237.956 45.2674C237.93 45.2913 237.886 45.3114 237.88 45.3398C237.365 47.7535 235.766 49.1349 233.532 49.7698C230.928 50.5098 228.548 49.992 226.573 48.0461C225.618 47.1041 225.13 45.9218 225.104 44.5611C225.093 44.0088 225.478 43.569 225.996 43.5355C226.547 43.5 226.974 43.8456 227.051 44.3893C227.358 46.5713 228.735 47.8746 230.922 48.0499C232.242 48.1558 233.476 47.9039 234.577 47.1274C236.271 45.9341 236.451 44.0189 234.999 42.5448C234.022 41.5544 232.796 41.0868 231.45 40.9271C229.879 40.741 228.409 40.2992 227.159 39.2824C225.108 37.6137 225.125 34.9645 227.183 33.2787C229.673 31.2406 233.698 31.2483 236.174 33.3054C237.007 33.9981 237.55 34.8711 237.684 35.9725C237.722 36.2866 237.731 36.6004 237.557 36.8857C237.328 37.2596 236.988 37.4257 236.563 37.3844C236.126 37.3418 235.78 37.0746 235.73 36.6608C235.497 34.7522 234.111 34.2141 232.56 33.926C231.367 33.7045 230.191 33.8675 229.098 34.4463C228.943 34.5282 228.791 34.6206 228.653 34.7285C227.614 35.5397 227.091 36.8479 228.783 37.8836C229.819 38.5173 230.966 38.7893 232.152 38.9616C233.708 39.1876 235.115 39.7838 236.299 40.8485C237.086 41.5563 237.61 42.4341 237.854 43.4766C237.873 43.5564 237.82 43.6794 237.956 43.7106V45.2674Z" fill="#777A8C"/>
<path fill-rule="evenodd" clip-rule="evenodd" d="M34.0655 48.9958C34.0549 48.9838 34.0443 48.9717 34.0337 48.9596C34.0226 48.9713 34.0115 48.9829 34.0005 48.9945C34.0165 49.0067 34.0325 49.0189 34.0486 49.0311C34.0542 49.0193 34.0598 49.0075 34.0655 48.9958ZM34.0011 48.8455C33.9848 48.7117 33.9558 48.5781 33.9555 48.4445C33.9551 48.2967 33.932 48.1159 34.004 48.0067C34.3511 47.4797 34.0443 47.2726 33.5772 47.1176C33.5291 47.5953 33.2864 47.9817 32.8367 48.2899C33.3521 48.295 33.6671 48.5595 34.0011 48.8455ZM62.861 47.0668C62.8721 47.0883 62.8832 47.1097 62.8944 47.1311C62.905 47.1174 62.9157 47.1037 62.9263 47.0899C62.9022 47.0847 62.8782 47.0793 62.8542 47.0741C62.6802 46.7696 62.4644 46.4831 62.496 46.0156C62.1938 46.402 61.9048 46.6604 61.5151 46.7095C61.2139 46.7474 61.1602 46.8587 61.2814 47.113C61.9946 46.7971 62.0827 46.7947 62.861 47.0668ZM40.7926 55.2592C41.1062 55.1306 41.3631 54.8704 41.8242 54.9221C41.4033 54.5637 41.1666 54.2235 41.1292 53.7819C41.1116 53.575 40.993 53.6282 40.879 53.6406C40.7348 53.6561 40.7401 53.7342 40.803 53.8347C41.102 54.312 41.015 54.7888 40.8012 55.2655C40.7835 55.2806 40.7656 55.2958 40.7479 55.3108C40.764 55.3158 40.7801 55.3208 40.7962 55.3258C40.795 55.3036 40.7939 55.2814 40.7926 55.2592ZM33.3464 50.7511C33.2263 50.7568 33.1061 50.7618 32.986 50.7683C32.3847 50.8005 31.9222 50.5305 31.7135 50.0247C31.5033 49.5153 31.6319 48.9812 32.0631 48.5766C32.1107 48.5321 32.1609 48.4903 32.2397 48.4209C31.5949 48.3352 31.1493 48.0384 30.9841 47.4161C30.8226 46.8072 31.0657 46.3311 31.5476 45.9236C31.4471 45.8665 31.3793 45.8293 31.3127 45.7901C30.4501 45.2808 30.3183 44.1915 31.0523 43.5114C31.2176 43.358 31.2517 43.3039 31.0636 43.1305C30.35 42.4725 30.3798 41.4655 31.1307 40.8513C31.3167 40.6992 31.3096 40.6261 31.1828 40.4442C30.6335 39.6553 30.8003 38.7265 31.5909 38.2032C31.7939 38.0689 31.8317 37.9728 31.7162 37.7579C31.6218 37.5827 31.5902 37.373 31.5255 37.1613C31.2394 37.3528 30.95 37.5193 30.5827 37.498C31.2348 38.7076 30.6684 39.6201 29.542 39.7973C29.8011 40.0226 30.0035 40.2705 30.0694 40.5977C30.1367 40.9313 30.0866 41.2489 29.9013 41.5391C29.6087 41.9974 29.0504 42.2033 28.5144 42.0504C28.03 41.9125 27.6758 41.4475 27.6602 40.9293C27.6392 40.228 27.9398 39.8858 28.8456 39.5801C27.8223 38.7041 28.1781 37.3328 29.5106 37.0604C29.1655 36.5833 29.0686 36.0633 29.2949 35.5248C29.5218 34.9847 29.9729 34.7357 30.5361 34.6768C30.2494 33.6712 30.4515 32.9972 31.1488 32.6153C31.5592 32.3906 31.7917 32.0732 31.8939 31.598C32.0357 30.9382 32.5881 30.4383 33.2946 30.3721C33.5091 30.352 33.5744 30.3043 33.594 30.0753C33.6731 29.1497 34.3491 28.5182 35.2605 28.5266C35.4759 28.5287 35.5523 28.4717 35.5831 28.2837C35.633 27.9786 35.8122 27.736 35.9707 27.4884C35.954 27.4621 35.9463 27.4335 35.9294 27.426C35.4684 27.2225 35.2133 27.2959 35.0117 27.8477C34.7917 28.4498 34.0523 28.6767 33.4277 28.4933C33.3269 28.4638 33.2268 28.4322 33.1227 28.4004C33.0497 29.6811 32.3405 30.1966 31.1829 29.8262C31.1536 29.8182 31.1243 29.81 31.0949 29.802C31.1053 29.8295 31.1156 29.8569 31.1259 29.8844C31.307 30.771 31.0035 31.4029 30.3122 31.5783C29.8138 31.7047 29.3156 31.5279 29.0215 31.1203C28.7274 30.7128 28.7087 30.1648 28.9742 29.7384C29.2392 29.313 29.7212 29.1055 30.2305 29.2016C30.3485 29.2239 30.4642 29.2584 30.5811 29.2873C30.5979 29.3002 30.6149 29.3132 30.6318 29.3262C30.6318 29.3144 30.6317 29.3024 30.6317 29.2905C30.6129 29.2926 30.5941 29.2946 30.5753 29.2968C30.6492 29.1847 30.5636 29.0897 30.5393 28.9904C30.2879 27.9611 31.1625 27.0908 32.1759 27.3643C32.2535 27.3852 32.3298 27.411 32.4232 27.4397C32.4285 27.1156 32.406 26.8025 32.5488 26.5089C32.8542 25.8813 33.513 25.5701 34.2109 25.7661C34.4293 25.8274 34.4986 25.8091 34.5554 25.5685C34.7748 24.6387 35.612 24.1672 36.5119 24.4622C36.7183 24.5298 36.7995 24.5136 36.8966 24.3056C37.285 23.4732 38.1269 23.1301 38.9576 23.4674C39.1689 23.5533 39.2717 23.5474 39.4156 23.3499C39.9392 22.631 40.7891 22.4234 41.574 22.8264C41.7824 22.9334 41.8809 22.9118 42.0457 22.7553C42.677 22.1558 43.5049 22.0718 44.243 22.5299C44.4294 22.6457 44.5479 22.6788 44.736 22.5332C44.9025 22.4042 45.1214 22.3448 45.3163 22.2527C45.3835 22.2209 45.5449 22.278 45.47 22.1043C45.4227 21.995 45.3419 21.9883 45.2384 22.0462C44.96 22.202 44.66 22.2555 44.3411 22.2467C43.8961 22.2344 43.5273 22.053 43.2253 21.7425C43.0938 21.6072 43.0308 21.5979 42.8712 21.7141C42.1994 22.2027 41.5314 22.1658 40.8656 21.6392C40.7847 21.5751 40.7443 21.4388 40.584 21.5907C39.7427 22.3883 39.2292 22.4067 38.2957 21.7091C37.662 22.8579 36.6262 23.0432 35.9391 22.1308C35.8767 21.9901 35.8142 21.8495 35.7517 21.7088C35.609 21.1446 35.7857 20.6313 36.2345 20.3076C36.7479 19.937 37.2846 19.9891 38.0012 20.491C38.1507 19.9281 38.4711 19.5304 39.0395 19.3634C39.6069 19.1967 40.0706 19.4011 40.492 19.7608C41.2499 18.757 41.9795 18.6289 42.9876 19.3335C43.1346 19.4363 43.1862 19.3689 43.2841 19.291C44.0738 18.6634 44.8824 18.6805 45.6214 19.353C45.7548 19.4743 45.8362 19.4849 45.9972 19.4019C46.8892 18.942 47.6629 19.0897 48.3193 19.856C48.4462 20.0042 48.5316 19.9962 48.6891 19.9512C49.5979 19.6915 50.3397 19.9569 50.8806 20.7378C50.9865 20.8906 51.0876 20.9497 51.2759 20.9321C52.2297 20.843 52.9248 21.2463 53.3486 22.1082C53.4304 22.2748 53.533 22.3031 53.6934 22.3178C54.6222 22.4025 55.2424 22.9064 55.551 23.786C55.619 23.9795 55.7128 24.0666 55.8992 24.1236C56.8025 24.3994 57.3171 25.0343 57.4817 25.9583C57.516 26.1504 57.5767 26.2561 57.7515 26.3576C58.5865 26.8423 58.9897 27.588 58.9508 28.5605C58.9425 28.7705 58.9889 28.9101 59.144 29.056C59.498 29.3892 59.7677 29.8062 59.8134 30.2903C59.9787 32.045 60.2834 33.7975 59.7855 35.5587C59.3736 37.0154 58.7189 38.3219 57.7061 39.4409C57.5587 39.6038 57.3868 39.7778 57.1484 39.6802C56.8925 39.5753 56.8721 39.3106 56.9017 39.083C57.1549 37.1306 56.393 35.5407 55.1859 34.105C54.8138 33.6624 54.3405 33.2876 54.265 32.6493C54.2437 32.4692 54.0898 32.4765 53.9481 32.4833C53.2019 32.5189 52.674 32.1934 52.3901 31.4928C52.3209 31.3217 52.2498 31.3191 52.0876 31.3734C51.2679 31.6472 50.7054 31.4728 50.2167 30.7735C50.0894 30.5913 50.0315 30.6304 49.8806 30.7244C49.2376 31.1251 48.5513 31.0546 47.9875 30.5293C47.8507 30.4019 47.7965 30.3867 47.6528 30.5318C47.0796 31.1104 46.4288 31.2032 45.7386 30.8033C45.5591 30.6992 45.514 30.7328 45.4139 30.8923C45.0161 31.5257 44.415 31.7677 43.7099 31.5863C43.5185 31.5372 43.4301 31.5147 43.3553 31.7657C43.149 32.4581 42.634 32.8339 41.9052 32.8534C41.6724 32.8596 41.5907 32.9037 41.5605 33.1577C41.4674 33.9424 41.0489 34.3897 40.2893 34.5361C40.0703 34.5784 40.0405 34.6629 40.0577 34.8625C40.1219 35.609 39.8277 36.1664 39.1424 36.4777C38.97 36.5561 38.966 36.6308 39.0291 36.7849C39.3374 37.5376 39.1666 38.1725 38.5371 38.6754C38.4089 38.7779 38.4216 38.8394 38.5059 38.9693C39.0352 39.7851 38.9778 40.3935 38.3107 41.1487C39.0093 41.7139 39.2265 42.4057 38.8156 43.2435C38.7568 43.3635 38.7916 43.407 38.8953 43.4605C39.624 43.8368 39.9281 44.4274 39.7543 45.2462C39.7195 45.4103 39.7938 45.4519 39.93 45.4966C40.8899 45.8119 41.1966 46.2611 41.1629 47.2975C42.0287 47.2998 42.6426 47.661 42.8527 48.5596C42.8917 48.7266 42.9846 48.7318 43.1208 48.7042C43.9511 48.5363 44.5432 48.858 44.9022 49.6188C44.9733 49.7693 45.0219 49.7711 45.1697 49.7198C46.0818 49.4026 46.6325 49.5876 47.221 50.406C47.5009 50.2159 47.7819 50.0198 48.1449 50.0002C48.5536 49.978 48.9293 50.0489 49.2437 50.3184C49.4022 50.4544 49.4882 50.4911 49.6554 50.3038C50.2268 49.6636 50.9877 49.5723 51.6945 50.0496C51.8655 50.1651 51.9279 50.1765 52.0638 49.998C52.5701 49.3332 53.2355 49.1799 54.0028 49.5364C54.1635 49.611 54.2506 49.6288 54.3617 49.4601C54.7302 48.9006 55.2649 48.6468 55.9217 48.7068C56.1716 48.7296 56.2331 48.6269 56.3118 48.422C56.5702 47.7494 57.0708 47.3724 57.7874 47.3356C58.0073 47.3243 58.0687 47.2661 58.1034 47.044C58.2245 46.2691 58.6864 45.8058 59.4504 45.6743C59.638 45.642 59.6868 45.5839 59.6901 45.3924C59.7069 44.4171 59.9495 44.0675 60.8613 43.7278C61.0381 43.6619 61.0082 43.5887 60.9801 43.4619C60.7696 42.5108 61.0092 42.008 61.8838 41.5818C61.998 41.5262 62.056 41.5108 61.9909 41.355C61.5299 40.2524 61.7059 39.762 62.7541 39.1663C61.8819 38.2547 62.0001 37.4367 63.141 36.7244C62.6655 36.4729 62.3371 36.1145 62.3099 35.5665C62.2924 35.2133 62.4157 34.8958 62.6619 34.6365C63.1469 34.1257 63.9954 34.1377 64.4756 34.6603C65.0615 35.2982 64.8805 36.0465 63.9666 36.7638C65.1418 37.5933 65.1172 38.7184 63.8662 39.3494C64.3349 39.7326 64.5853 40.2128 64.4728 40.8173C64.3626 41.4095 63.9724 41.76 63.4143 41.9334C63.9574 42.8341 63.879 43.6256 63.2118 44.1381C62.8092 44.4473 62.671 44.7535 62.6982 45.2782C62.6996 45.3043 62.7097 45.33 62.7233 45.3885C62.9766 45.1686 63.2298 44.9687 63.5707 44.9515C63.912 44.9344 64.2109 45.0345 64.4622 45.2682C64.8755 45.6524 64.9577 46.2739 64.6637 46.7631C64.3428 47.2972 63.8129 47.4336 62.9723 47.1679C63.3939 47.7503 63.5126 48.3357 63.0646 48.9046C62.6615 49.4166 62.117 49.4758 61.4755 49.2398C61.6625 49.8493 61.648 50.3842 61.2028 50.8232C60.7507 51.2688 60.2193 51.2693 59.651 51.0709C59.6272 51.3169 59.6365 51.551 59.5782 51.7665C59.3642 52.5595 58.539 52.962 57.7394 52.6549C57.5228 52.5718 57.4778 52.6113 57.4258 52.8214C57.1768 53.8283 56.2502 54.2614 55.3195 53.8008C55.1387 53.7113 55.0651 53.7141 55.0066 53.9093C54.9388 54.1353 54.7558 54.2881 54.5914 54.508C54.9279 54.5278 55.2276 54.5722 55.4693 54.7845C55.7022 54.989 55.8608 55.2319 55.8915 55.55C55.945 56.1062 55.6947 56.5764 55.2259 56.794C54.76 57.0104 54.1941 56.8902 53.8546 56.5031C53.4715 56.0662 53.4756 55.5481 53.8961 54.7986C53.4387 54.8385 53.0343 54.7635 52.6751 54.4925C52.4189 54.2992 52.4789 54.6497 52.3477 54.7061C52.6592 54.7914 52.9394 54.9021 53.151 55.1407C53.3681 55.3852 53.4729 55.6663 53.4661 55.9995C53.4548 56.5626 53.15 57.0089 52.6373 57.1813C52.0081 57.393 51.5539 57.1755 51.009 56.4015C50.2423 57.735 48.8693 57.3924 48.4444 56.3464C47.35 57.2897 46.3778 57.1095 45.8745 55.8466C45.5598 56.0566 45.235 56.2392 44.8449 56.2353C44.2289 56.2289 43.6769 55.8362 43.4853 55.2022C43.4099 54.953 43.3224 54.9411 43.1287 55.0362C42.9321 55.1328 42.7121 55.1076 42.4344 55.1216C42.7516 55.4532 42.9361 55.7909 42.8932 56.2122C42.8661 56.4783 42.761 56.7114 42.5841 56.9094C42.2407 57.2939 41.6445 57.3951 41.1724 57.152C40.6088 56.8619 40.4746 56.3898 40.6823 55.4056C40.447 55.5514 40.2348 55.72 39.9536 55.7565C38.9539 55.8866 38.3475 55.0761 38.6134 53.9569C38.6294 53.9407 38.6611 53.9128 38.6593 53.9103C38.6293 53.8699 38.5984 53.8844 38.5696 53.9144C37.533 54.1548 36.8017 53.7061 36.7118 52.7814C36.6874 52.5308 36.7816 52.3047 36.8229 52.0676C36.8326 52.0593 36.8437 52.052 36.8513 52.0419C36.8532 52.0392 36.8443 52.0282 36.8404 52.021C36.8377 52.0383 36.835 52.0557 36.8323 52.0731C36.7814 52.0083 36.7122 52.0327 36.6467 52.0316C35.4529 52.0123 34.8774 51.0701 35.348 49.8891C35.1229 49.772 34.857 49.7682 34.6388 49.6223C34.4347 49.4858 34.2812 49.3015 34.1241 49.1159C34.0007 49.2003 34.0657 49.3024 34.0766 49.3809C34.1662 50.0265 33.7757 50.404 33.3384 50.7579L33.3464 50.7511Z" fill="#777A8C"/>
<path fill-rule="evenodd" clip-rule="evenodd" d="M109.544 47.9223C113.359 47.9226 116.416 44.8693 116.494 41.1299C116.574 37.3092 113.541 33.9788 109.656 33.9634C105.735 33.9477 102.669 37.0097 102.667 40.9145C102.666 44.8511 105.68 47.922 109.544 47.9223ZM109.547 50.0203C104.596 50.0132 100.542 45.9159 100.584 40.9492C100.625 36.0637 104.415 31.8856 109.551 31.8744C114.578 31.8635 118.566 35.9653 118.559 40.9941C118.552 45.9885 114.5 50.0276 109.547 50.0203Z" fill="#777A8C"/>
<path fill-rule="evenodd" clip-rule="evenodd" d="M157.191 40.9107C157.191 38.2756 157.19 35.6406 157.191 33.0055C157.191 32.1847 157.566 31.784 158.371 31.7827C161.534 31.7768 164.696 31.7777 167.858 31.7824C168.48 31.7833 168.889 32.072 169.007 32.5562C169.126 33.0476 168.906 33.5449 168.472 33.7688C168.258 33.8789 168.03 33.8787 167.799 33.8787C165.097 33.8779 162.394 33.8856 159.691 33.8693C159.335 33.8671 159.242 33.9561 159.246 34.3177C159.266 36.0241 159.262 37.731 159.249 39.4376C159.246 39.7518 159.322 39.8563 159.65 39.8537C161.596 39.838 163.542 39.8429 165.488 39.8482C166.019 39.8497 166.417 40.184 166.501 40.6675C166.594 41.1949 166.333 41.6644 165.855 41.8531C165.696 41.9156 165.537 41.9076 165.376 41.9077C163.47 41.9086 161.565 41.9145 159.66 41.902C159.357 41.8998 159.243 41.9585 159.247 42.2978C159.265 44.0589 159.263 45.8203 159.248 47.5814C159.245 47.9029 159.332 47.9918 159.652 47.9903C162.381 47.9777 165.111 47.9822 167.841 47.9839C168.529 47.9843 168.967 48.3287 169.025 48.9024C169.094 49.5856 168.652 50.0664 167.937 50.0677C165.801 50.0714 163.666 50.0691 161.531 50.0691H158.531C157.514 50.069 157.191 49.7469 157.191 48.734V40.9107Z" fill="#777A8C"/>
<path fill-rule="evenodd" clip-rule="evenodd" d="M196.367 31.7517C198.199 31.804 199.91 32.3137 201.265 33.7174C201.96 34.4366 202.363 35.2966 202.353 36.3235C202.348 36.887 202 37.3098 201.484 37.3854C200.968 37.4609 200.44 37.1583 200.376 36.598C200.186 34.9249 198.994 34.351 197.636 34.0025C196.447 33.697 195.252 33.7971 194.104 34.2788C193.518 34.5248 193.016 34.8806 192.66 35.4221C192.171 36.166 192.269 36.9197 192.948 37.5C193.919 38.331 195.088 38.7019 196.318 38.8738C197.743 39.0731 199.083 39.48 200.281 40.3047C203.28 42.3692 203.404 46.3364 200.541 48.5943C197.929 50.6542 194.045 50.5684 191.56 48.3665C190.411 47.3476 189.762 46.0632 189.778 44.486C189.783 43.9475 190.173 43.5542 190.692 43.5341C191.239 43.5128 191.693 43.8772 191.71 44.4215C191.76 46.0689 192.681 47.0813 194.095 47.6548C195.972 48.4158 197.787 48.2096 199.424 46.981C200.875 45.8922 201.05 44.1839 199.884 42.796C198.903 41.6296 197.584 41.1069 196.124 40.9292C194.554 40.7382 193.082 40.3048 191.833 39.2864C189.786 37.6184 189.778 35.0156 191.806 33.317C193.112 32.2234 194.646 31.7955 196.367 31.7517Z" fill="#777A8C"/>
<path fill-rule="evenodd" clip-rule="evenodd" d="M146.633 31.7522C148.427 31.8215 150.127 32.3269 151.465 33.7299C152.165 34.4648 152.564 35.3427 152.543 36.3829C152.532 36.9085 152.152 37.3275 151.653 37.3863C151.151 37.4455 150.615 37.1368 150.564 36.6213C150.397 34.9646 149.233 34.3749 147.884 34.0194C146.594 33.6793 145.313 33.7991 144.09 34.3697C143.578 34.6089 143.149 34.9569 142.835 35.4362C142.379 36.135 142.453 36.8586 143.061 37.4277C143.892 38.2056 144.923 38.5761 146.005 38.7842C147.118 38.9985 148.245 39.1378 149.287 39.6317C150.632 40.2693 151.769 41.1427 152.389 42.5495C153.276 44.5599 152.708 46.8674 150.996 48.3686C148.373 50.6696 144.22 50.6519 141.677 48.3028C140.596 47.3046 139.962 46.0707 139.973 44.5528C139.977 43.9629 140.326 43.5641 140.856 43.5345C141.436 43.502 141.866 43.8689 141.908 44.4812C141.935 44.8935 141.978 45.2935 142.147 45.6739C142.614 46.7244 143.435 47.3887 144.485 47.7406C146.444 48.397 148.292 48.1711 149.86 46.7496C151.145 45.5852 151.157 43.968 149.985 42.6876C149.001 41.613 147.738 41.101 146.336 40.9316C144.794 40.7453 143.35 40.3226 142.101 39.355C139.988 37.7177 139.93 35.0641 141.976 33.3306C143.298 32.2107 144.862 31.7834 146.633 31.7522Z" fill="#777A8C"/>
<path fill-rule="evenodd" clip-rule="evenodd" d="M135.863 43.5061C135.863 45.3359 135.866 47.1657 135.861 48.9955C135.86 49.5021 135.607 49.8722 135.195 50.0131C134.77 50.1588 134.297 50.0231 134.023 49.6783C133.853 49.4637 133.819 49.2165 133.819 48.9484C133.823 45.5346 133.825 42.1208 133.821 38.707C133.818 36.5756 132.643 34.826 130.763 34.1362C127.953 33.1052 124.808 35.2032 124.75 38.2327C124.684 41.7408 124.73 45.251 124.727 48.7603C124.727 48.8832 124.735 49.0068 124.724 49.1289C124.679 49.648 124.281 50.0362 123.766 50.0677C123.226 50.1008 122.788 49.7608 122.693 49.2237C122.667 49.0775 122.664 48.9256 122.664 48.7763C122.662 45.3352 122.657 41.8941 122.664 38.4529C122.671 35.1072 125.133 32.2651 128.377 31.842C132.321 31.3277 135.825 34.4053 135.861 38.4263C135.875 40.1194 135.863 41.8128 135.863 43.5061Z" fill="#777A8C"/>
<path fill-rule="evenodd" clip-rule="evenodd" d="M89.6485 50.0334C85.2108 50.0334 81.0895 45.4718 81.5775 40.14C81.9729 35.8202 85.1056 32.4418 89.3711 31.8702C92.285 31.4797 94.7956 32.4442 96.8936 34.5145C96.9512 34.5715 97.0023 34.6361 97.0508 34.7015C97.4341 35.2184 97.4347 35.7904 97.0541 36.1496C96.6626 36.5188 96.0439 36.5044 95.5759 36.116C94.4729 35.2008 93.3121 34.3707 91.8961 34.0435C88.336 33.221 84.7426 35.5162 83.8067 39.1801C82.6359 43.7633 86.221 48.2095 90.896 47.9565C92.6364 47.8624 94.1369 47.1867 95.3841 45.9496C95.4613 45.8732 95.5355 45.7936 95.6136 45.7181C96.0587 45.2881 96.6572 45.2224 97.0382 45.5608C97.4194 45.8993 97.4827 46.5918 97.1467 47.0588C96.8267 47.5036 96.4063 47.8535 95.9766 48.1841C94.3649 49.4242 92.5454 50.048 89.6485 50.0334Z" fill="#777A8C"/>
<path fill-rule="evenodd" clip-rule="evenodd" d="M185.659 43.4821C185.659 45.3117 185.66 47.1412 185.658 48.9708C185.658 49.6321 185.272 50.0553 184.667 50.0679C184.059 50.0805 183.621 49.6326 183.62 48.9697C183.616 45.488 183.619 42.0064 183.618 38.5248C183.618 35.9564 181.574 33.8773 179.052 33.878C176.566 33.8785 174.537 35.9679 174.536 38.5309C174.534 41.9852 174.533 45.4396 174.539 48.8938C174.539 49.2225 174.484 49.5226 174.252 49.7592C173.934 50.083 173.544 50.142 173.129 50.0013C172.751 49.8733 172.501 49.5149 172.498 49.0891C172.49 48.0789 172.495 47.0685 172.495 46.0581C172.495 43.4775 172.491 40.8971 172.496 38.3166C172.502 34.92 175.256 32.0322 178.61 31.8074C182.044 31.5772 185.128 34.0997 185.616 37.5453C185.652 37.8007 185.657 38.0624 185.657 38.3212C185.661 40.0415 185.659 41.7618 185.659 43.4821Z" fill="#777A8C"/>
<path fill-rule="evenodd" clip-rule="evenodd" d="M212.847 46.0749C212.847 45.16 212.84 44.245 212.852 43.3303C212.855 43.0705 212.79 42.8633 212.63 42.6558C210.301 39.6277 207.978 36.5943 205.655 33.5617C205.224 32.9991 205.262 32.375 205.747 32.0072C206.245 31.6299 206.837 31.7413 207.263 32.2953C209.386 35.0538 211.509 37.812 213.628 40.5729C213.781 40.7713 213.863 40.941 214.109 40.6239C216.279 37.8332 218.466 35.0565 220.648 32.2753C221.072 31.7343 221.679 31.6322 222.169 32.0223C222.632 32.3916 222.67 33.0079 222.249 33.5484C220.219 36.1544 218.185 38.7579 216.152 41.3623C216.093 41.4373 216.044 41.5223 215.975 41.5858C215.045 42.4415 214.807 43.4992 214.89 44.7451C214.985 46.1588 214.916 47.5839 214.91 49.004C214.908 49.5335 214.617 49.9126 214.15 50.0325C213.67 50.1559 213.202 49.9581 212.972 49.5357C212.864 49.3373 212.847 49.1217 212.847 48.9015C212.848 47.9593 212.847 47.0171 212.847 46.0749Z" fill="#777A8C"/>
<path fill-rule="evenodd" clip-rule="evenodd" d="M35.7518 21.7088C35.8144 21.8495 35.8768 21.9901 35.9393 22.1307C35.7716 22.1908 35.8549 22.3369 35.8402 22.4441C35.7598 23.0276 35.3479 23.4534 34.7917 23.5165C34.2473 23.5782 33.7479 23.2611 33.5603 22.7348C33.374 22.2122 33.5628 21.6455 34.024 21.342C34.487 21.0376 35.0748 21.1056 35.5033 21.5097C35.5804 21.5824 35.6687 21.6427 35.7518 21.7088Z" fill="#777A8C"/>
<path fill-rule="evenodd" clip-rule="evenodd" d="M62.1152 32.982C62.1169 32.3011 62.6188 31.8076 63.3008 31.816C63.9484 31.824 64.457 32.3328 64.4666 32.9825C64.4761 33.6157 63.9021 34.2019 63.2805 34.1939C62.6216 34.1855 62.1135 33.657 62.1152 32.982Z" fill="#777A8C"/>
<path fill-rule="evenodd" clip-rule="evenodd" d="M33.3383 50.7578C33.4727 50.7532 33.607 50.7463 33.7414 50.7445C34.3393 50.7361 34.7971 51.1002 34.9047 51.6679C35.0152 52.2513 34.6987 52.8178 34.1565 53.0069C33.6214 53.1937 33.0378 52.9707 32.7597 52.4733C32.4755 51.9647 32.6057 51.3365 33.0647 50.9654C33.1567 50.891 33.2943 50.8779 33.3462 50.7512C33.3463 50.7511 33.3383 50.7578 33.3383 50.7578Z" fill="#777A8C"/>
<path fill-rule="evenodd" clip-rule="evenodd" d="M29.62 43.3912C29.615 44.0413 29.1268 44.5344 28.4939 44.5289C27.8754 44.5234 27.3573 44.0021 27.3521 43.3801C27.3468 42.7399 27.8724 42.2266 28.5247 42.2353C29.166 42.2437 29.6251 42.7283 29.62 43.3912Z" fill="#777A8C"/>
<path fill-rule="evenodd" clip-rule="evenodd" d="M57.1787 56.2196C56.5806 56.2315 56.0678 55.7282 56.0573 55.1188C56.0469 54.5152 56.5407 53.9934 57.1412 53.9733C57.7509 53.953 58.2828 54.4786 58.2823 55.1009C58.2818 55.7125 57.7937 56.2074 57.1787 56.2196Z" fill="#777A8C"/>
<path fill-rule="evenodd" clip-rule="evenodd" d="M64.954 45.0913C64.3575 45.0884 63.8453 44.5714 63.8438 43.9705C63.8421 43.3604 64.3405 42.8495 64.9438 42.843C65.5685 42.8361 66.0766 43.3501 66.0691 43.9813C66.0617 44.5939 65.5591 45.0942 64.954 45.0913Z" fill="#777A8C"/>
<path fill-rule="evenodd" clip-rule="evenodd" d="M44.9817 57.4543C44.9519 58.0697 44.4377 58.5518 43.8349 58.5294C43.2144 58.5065 42.7183 57.9579 42.7587 57.3392C42.7982 56.7315 43.3355 56.2464 43.927 56.2842C44.536 56.3232 45.0111 56.8502 44.9817 57.4543Z" fill="#777A8C"/>
<path fill-rule="evenodd" clip-rule="evenodd" d="M29.5375 32.3931C29.5333 33.0107 29.0386 33.5082 28.4274 33.5092C27.8229 33.5103 27.3254 33.0041 27.3237 32.3864C27.322 31.7449 27.8236 31.2433 28.4544 31.2557C29.067 31.2678 29.5416 31.7661 29.5375 32.3931Z" fill="#777A8C"/>
<path fill-rule="evenodd" clip-rule="evenodd" d="M63.7635 30.5449C63.7602 31.1722 63.285 31.653 62.668 31.6532C62.0713 31.6534 61.5672 31.1441 61.5616 30.5353C61.5558 29.9164 62.0856 29.3892 62.6973 29.4054C63.3104 29.4215 63.7668 29.9092 63.7635 30.5449Z" fill="#777A8C"/>
<path fill-rule="evenodd" clip-rule="evenodd" d="M34.971 55.1954C34.3606 55.1911 33.9013 54.7238 33.9048 54.1106C33.9082 53.5003 34.3734 53.039 34.9861 53.0385C35.6062 53.0378 36.0998 53.5374 36.0813 54.1466C36.0628 54.7553 35.5923 55.1999 34.971 55.1954Z" fill="#777A8C"/>
<path fill-rule="evenodd" clip-rule="evenodd" d="M28.4503 46.9762C27.8668 46.972 27.4045 46.499 27.4067 45.9086C27.4091 45.3109 27.8659 44.8542 28.4583 44.8574C29.0447 44.8606 29.5177 45.3358 29.5128 45.9168C29.508 46.4948 29.0211 46.9803 28.4503 46.9762Z" fill="#777A8C"/>
<path fill-rule="evenodd" clip-rule="evenodd" d="M33.5123 23.6014C33.5077 24.2102 33.0652 24.6399 32.4516 24.6316C31.877 24.6238 31.4328 24.1742 31.4254 23.593C31.418 23.0207 31.9108 22.5221 32.4812 22.5249C33.0599 22.5277 33.5167 23.0046 33.5123 23.6014Z" fill="#777A8C"/>
<path fill-rule="evenodd" clip-rule="evenodd" d="M65.9657 40.5965C66.5435 40.5984 66.9892 41.0435 66.9947 41.624C67.0002 42.223 66.5402 42.6969 65.9572 42.6932C65.3774 42.6894 64.9061 42.1993 64.9192 41.6136C64.932 41.0386 65.389 40.5946 65.9657 40.5965Z" fill="#777A8C"/>
<path fill-rule="evenodd" clip-rule="evenodd" d="M58.4786 54.1483C58.4849 53.5644 58.9301 53.1222 59.5091 53.1248C60.0977 53.1275 60.5673 53.6084 60.5523 54.1935C60.5379 54.7561 60.0628 55.2247 59.5045 55.2269C58.9229 55.2293 58.4719 54.7552 58.4786 54.1483Z" fill="#777A8C"/>
<path fill-rule="evenodd" clip-rule="evenodd" d="M61.7335 29.2076C61.1587 29.2006 60.708 28.7429 60.71 28.1683C60.7119 27.5862 61.2063 27.0953 61.7733 27.1125C62.3434 27.1299 62.7879 27.5918 62.7888 28.1676C62.7896 28.7686 62.3366 29.215 61.7335 29.2076Z" fill="#777A8C"/>
<path fill-rule="evenodd" clip-rule="evenodd" d="M46.173 59.4563C45.5779 59.4568 45.1177 58.9903 45.1306 58.3996C45.1434 57.8195 45.5905 57.3826 46.1729 57.3814C46.7575 57.3801 47.1978 57.8137 47.2057 58.3986C47.2139 59.0073 46.776 59.4557 46.173 59.4563Z" fill="#777A8C"/>
<path fill-rule="evenodd" clip-rule="evenodd" d="M28.1468 34.5361C28.156 35.1046 27.6928 35.5854 27.135 35.5861C26.5982 35.5868 26.1333 35.1234 26.1209 34.5754C26.1079 34.0045 26.5635 33.5392 27.1368 33.5376C27.6938 33.5361 28.1377 33.9751 28.1468 34.5361Z" fill="#777A8C"/>
<path fill-rule="evenodd" clip-rule="evenodd" d="M36.4622 57.1618C35.8946 57.1539 35.4742 56.7203 35.4785 56.1475C35.4828 55.5886 35.9296 55.1376 36.4807 55.1361C37.0441 55.1345 37.4944 55.6074 37.4814 56.1872C37.4688 56.758 37.038 57.17 36.4622 57.1618Z" fill="#777A8C"/>
<path fill-rule="evenodd" clip-rule="evenodd" d="M49.5575 59.1181C49.5574 59.6717 49.1292 60.1011 48.5798 60.0985C48.0435 60.096 47.6017 59.6401 47.612 59.1004C47.622 58.5764 48.0533 58.1441 48.5752 58.135C49.1082 58.1257 49.5575 58.5753 49.5575 59.1181Z" fill="#777A8C"/>
<path fill-rule="evenodd" clip-rule="evenodd" d="M61.6941 53.9197C61.1413 53.9097 60.7288 53.4791 60.7374 52.9211C60.7462 52.3612 61.1664 51.9617 61.7343 51.9733C62.2664 51.9842 62.6853 52.4112 62.6829 52.9407C62.6806 53.4802 62.2269 53.9293 61.6941 53.9197Z" fill="#777A8C"/>
<path fill-rule="evenodd" clip-rule="evenodd" d="M66.6482 38.2205C67.1886 38.218 67.6324 38.6627 67.6305 39.2049C67.6286 39.7219 67.1892 40.1746 66.6792 40.1849C66.1322 40.196 65.6954 39.7695 65.6871 39.2164C65.6789 38.662 66.1024 38.2229 66.6482 38.2205Z" fill="#777A8C"/>
<path fill-rule="evenodd" clip-rule="evenodd" d="M61.4927 25.962C61.487 26.5304 61.0721 26.9371 60.5117 26.9236C59.9777 26.9107 59.568 26.4902 59.5664 25.9535C59.5648 25.412 60.0118 24.9561 60.542 24.9588C61.0865 24.9614 61.4984 25.3961 61.4927 25.962Z" fill="#777A8C"/>
<path fill-rule="evenodd" clip-rule="evenodd" d="M28.7232 47.467C29.2815 47.4609 29.6885 47.8718 29.6881 48.4416C29.6878 48.9756 29.2754 49.4013 28.7484 49.4116C28.2149 49.4221 27.7712 48.9736 27.7744 48.4271C27.7776 47.8905 28.1903 47.4729 28.7232 47.467Z" fill="#777A8C"/>
<path fill-rule="evenodd" clip-rule="evenodd" d="M37.2994 57.9732C37.3048 57.444 37.6984 57.0539 38.2264 57.0543C38.7426 57.0548 39.1567 57.4629 39.163 57.9779C39.1692 58.4858 38.7057 58.9471 38.2011 58.9348C37.7005 58.9226 37.2941 58.4893 37.2994 57.9732Z" fill="#777A8C"/>
<path fill-rule="evenodd" clip-rule="evenodd" d="M30.4511 26.0119C29.9267 26.009 29.5262 25.6003 29.5373 25.0792C29.5479 24.5865 29.9574 24.1742 30.4447 24.1658C30.9457 24.1571 31.3761 24.5844 31.3785 25.093C31.3809 25.616 30.9786 26.0148 30.4511 26.0119Z" fill="#777A8C"/>
<path fill-rule="evenodd" clip-rule="evenodd" d="M25.2271 36.894C25.2245 36.3692 25.6328 35.9548 26.1474 35.9601C26.6359 35.965 27.0487 36.3807 27.0553 36.8746C27.0622 37.3784 26.6284 37.8139 26.1257 37.8078C25.6306 37.8018 25.2294 37.3939 25.2271 36.894Z" fill="#777A8C"/>
<path fill-rule="evenodd" clip-rule="evenodd" d="M59.9389 23.9127C59.9352 24.4257 59.5485 24.8239 59.0511 24.8273C58.5363 24.8307 58.143 24.4171 58.154 23.884C58.1646 23.3767 58.5666 22.9809 59.06 22.9923C59.5596 23.0038 59.9426 23.405 59.9389 23.9127Z" fill="#777A8C"/>
<path fill-rule="evenodd" clip-rule="evenodd" d="M51.9784 59.5148C51.9672 60.0045 51.5428 60.4214 51.0632 60.4141C50.5595 60.4061 50.14 59.9598 50.1646 59.4578C50.1889 58.9626 50.6189 58.5589 51.0998 58.58C51.5928 58.6017 51.9895 59.0238 51.9784 59.5148Z" fill="#777A8C"/>
<path fill-rule="evenodd" clip-rule="evenodd" d="M67.0146 37.6096C66.5293 37.601 66.1147 37.1774 66.1152 36.691C66.1158 36.1919 66.5617 35.7581 67.0567 35.7749C67.5429 35.7915 67.951 36.2278 67.9327 36.7118C67.914 37.2106 67.4971 37.6183 67.0146 37.6096Z" fill="#777A8C"/>
<path fill-rule="evenodd" clip-rule="evenodd" d="M63.6902 52.3274C63.187 52.3176 62.7981 51.9109 62.8129 51.4099C62.8276 50.912 63.238 50.5167 63.7332 50.5235C64.228 50.5302 64.6281 50.9362 64.6301 51.4333C64.632 51.946 64.2203 52.3378 63.6902 52.3274Z" fill="#777A8C"/>
<path fill-rule="evenodd" clip-rule="evenodd" d="M28.4712 50.9077C28.4669 50.4058 28.8283 50.029 29.3231 50.0196C29.8339 50.01 30.2289 50.4001 30.2219 50.9072C30.2152 51.3889 29.8156 51.7892 29.3431 51.7878C28.8574 51.7864 28.4754 51.4008 28.4712 50.9077Z" fill="#777A8C"/>
<path fill-rule="evenodd" clip-rule="evenodd" d="M40.1688 58.7056C40.6386 58.6962 41.0254 59.0648 41.0414 59.5369C41.0575 60.0108 40.6952 60.4069 40.2282 60.426C39.7383 60.4461 39.3429 60.0687 39.3384 59.5767C39.3341 59.1001 39.7012 58.715 40.1688 58.7056Z" fill="#777A8C"/>
<path fill-rule="evenodd" clip-rule="evenodd" d="M66.2515 34.1492C66.2554 33.6593 66.6189 33.3021 67.0992 33.3162C67.5628 33.3297 67.9 33.6856 67.8991 34.1602C67.8983 34.6348 67.5078 35.0222 67.0476 35.0052C66.6009 34.9888 66.2478 34.6091 66.2515 34.1492Z" fill="#777A8C"/>
<path fill-rule="evenodd" clip-rule="evenodd" d="M53.5855 58.7054C54.041 58.7061 54.405 59.0685 54.4117 59.5276C54.4185 60.0045 54.0407 60.396 53.578 60.3915C53.1197 60.387 52.728 59.979 52.741 59.5197C52.7537 59.0737 53.1363 58.7047 53.5855 58.7054Z" fill="#777A8C"/>
<path fill-rule="evenodd" clip-rule="evenodd" d="M57.2873 22.9108C56.8196 22.9045 56.4652 22.5495 56.4639 22.0858C56.4625 21.609 56.8394 21.2389 57.3185 21.2465C57.7782 21.2537 58.1373 21.6157 58.1419 22.0765C58.1467 22.5549 57.7754 22.9174 57.2873 22.9108Z" fill="#777A8C"/>
<path fill-rule="evenodd" clip-rule="evenodd" d="M66.3576 49.6807C66.3533 50.167 65.9851 50.525 65.5031 50.5116C65.0389 50.4987 64.7074 50.1443 64.7105 49.6643C64.7135 49.1966 65.065 48.8326 65.5202 48.826C65.9903 48.8192 66.3619 49.1984 66.3576 49.6807Z" fill="#777A8C"/>
<path fill-rule="evenodd" clip-rule="evenodd" d="M24.6465 39.3213C24.6489 38.8574 25.0139 38.4917 25.4644 38.5015C25.911 38.5113 26.2828 38.9028 26.2685 39.3483C26.2549 39.7773 25.8879 40.1395 25.4569 40.1495C25.0129 40.1598 24.6441 39.7829 24.6465 39.3213Z" fill="#777A8C"/>
<path fill-rule="evenodd" clip-rule="evenodd" d="M30.2758 52.4656C30.7234 52.4707 31.0651 52.8265 31.0545 53.2764C31.0438 53.7258 30.6886 54.0602 30.2362 54.0469C29.8062 54.0342 29.4787 53.693 29.4775 53.2563C29.4763 52.8039 29.823 52.4605 30.2758 52.4656Z" fill="#777A8C"/>
<path fill-rule="evenodd" clip-rule="evenodd" d="M29.3763 26.8187C29.3745 27.274 29.0263 27.6243 28.5881 27.612C28.1646 27.6 27.8283 27.2545 27.8223 26.8251C27.8162 26.377 28.1625 26.0161 28.6012 26.0133C29.0416 26.0105 29.3782 26.3603 29.3763 26.8187Z" fill="#777A8C"/>
<path fill-rule="evenodd" clip-rule="evenodd" d="M42.3447 60.0983C42.783 60.1005 43.1131 60.4301 43.117 60.8694C43.121 61.3166 42.7618 61.6682 42.3143 61.6554C41.886 61.643 41.5527 61.2903 41.5622 60.8595C41.5719 60.4212 41.9062 60.096 42.3447 60.0983Z" fill="#777A8C"/>
<path fill-rule="evenodd" clip-rule="evenodd" d="M66.7933 30.858C67.2165 30.8589 67.5661 31.2176 67.5601 31.6448C67.5543 32.0547 67.2174 32.3945 66.8084 32.4028C66.3786 32.4115 66.0252 32.0682 66.0225 31.6391C66.0196 31.2077 66.3655 30.8572 66.7933 30.858Z" fill="#777A8C"/>
<path fill-rule="evenodd" clip-rule="evenodd" d="M54.5811 20.5098C54.5763 20.0712 54.9182 19.7139 55.3391 19.7173C55.7544 19.7208 56.1171 20.0916 56.1134 20.5093C56.1098 20.9181 55.7733 21.2575 55.3609 21.2681C54.9216 21.2795 54.5859 20.953 54.5811 20.5098Z" fill="#777A8C"/>
<path fill-rule="evenodd" clip-rule="evenodd" d="M67.8706 47.6726C67.8797 48.0948 67.5258 48.4591 67.1032 48.4625C66.6888 48.4659 66.3512 48.141 66.337 47.7251C66.3217 47.2792 66.6375 46.9324 67.0716 46.9183C67.5007 46.9043 67.8614 47.2448 67.8706 47.6726Z" fill="#777A8C"/>
<path fill-rule="evenodd" clip-rule="evenodd" d="M56.0759 60.0268C55.6455 60.0276 55.3089 59.6809 55.3155 59.2441C55.3219 58.8337 55.6549 58.4906 56.0604 58.4767C56.4695 58.4626 56.8376 58.8251 56.8446 59.2491C56.8516 59.6776 56.5072 60.026 56.0759 60.0268Z" fill="#777A8C"/>
<path fill-rule="evenodd" clip-rule="evenodd" d="M25.0814 41.1043C25.4677 41.1104 25.7923 41.4569 25.783 41.8532C25.7736 42.2566 25.443 42.5687 25.0438 42.5513C24.6659 42.5348 24.3521 42.2104 24.3511 41.835C24.3499 41.4555 24.7068 41.0984 25.0814 41.1043Z" fill="#777A8C"/>
<path fill-rule="evenodd" clip-rule="evenodd" d="M69.0903 45.5096C69.0925 45.8941 68.7862 46.2112 68.4069 46.217C68.017 46.223 67.715 45.9309 67.7044 45.5374C67.6932 45.1228 67.9961 44.8056 68.3993 44.8097C68.7811 44.8135 69.0881 45.1244 69.0903 45.5096Z" fill="#777A8C"/>
<path fill-rule="evenodd" clip-rule="evenodd" d="M31.5077 54.7722C31.897 54.7813 32.1898 55.0827 32.1901 55.4746C32.1902 55.883 31.8782 56.1868 31.4682 56.1774C31.0864 56.1687 30.7778 55.8538 30.7783 55.4734C30.7787 55.0708 31.0993 54.7626 31.5077 54.7722Z" fill="#777A8C"/>
<path fill-rule="evenodd" clip-rule="evenodd" d="M45.3401 61.901C45.3308 62.2892 45.0151 62.6013 44.6375 62.5953C44.2356 62.5889 43.9322 62.2577 43.951 61.8459C43.9689 61.4529 44.2829 61.1611 44.6714 61.1763C45.0548 61.1913 45.3495 61.5106 45.3401 61.901Z" fill="#777A8C"/>
<path fill-rule="evenodd" clip-rule="evenodd" d="M66.1843 29.8655C65.7957 29.866 65.4864 29.5574 65.4868 29.1699C65.4873 28.7808 65.7952 28.4714 66.1833 28.47C66.5708 28.4685 66.8801 28.7788 66.8798 29.1686C66.8796 29.5592 66.5743 29.865 66.1843 29.8655Z" fill="#777A8C"/>
<path fill-rule="evenodd" clip-rule="evenodd" d="M58.5191 57.955C58.922 57.9562 59.2088 58.2453 59.2086 58.6502C59.2085 59.0366 58.8944 59.3514 58.5115 59.3489C58.1237 59.3463 57.8219 59.0363 57.8237 58.6427C57.8256 58.2401 58.1151 57.9538 58.5191 57.955Z" fill="#777A8C"/>
<path fill-rule="evenodd" clip-rule="evenodd" d="M53.1891 19.8791C52.7844 19.8796 52.4895 19.5914 52.4893 19.1952C52.4889 18.8091 52.7999 18.4898 53.1804 18.4854C53.5706 18.481 53.8651 18.7804 53.8687 19.1851C53.8724 19.6019 53.6015 19.8785 53.1891 19.8791Z" fill="#777A8C"/>
<path fill-rule="evenodd" clip-rule="evenodd" d="M27.5912 28.7114C27.5929 29.0853 27.331 29.3617 26.9658 29.3712C26.5829 29.3812 26.2857 29.0959 26.2847 28.7172C26.2835 28.3358 26.5733 28.054 26.9606 28.0598C27.3309 28.0654 27.5894 28.3325 27.5912 28.7114Z" fill="#777A8C"/>
<path fill-rule="evenodd" clip-rule="evenodd" d="M61.4789 57.7196C61.4742 58.0653 61.2046 58.339 60.8638 58.3441C60.5082 58.3494 60.2113 58.0547 60.2179 57.7033C60.2243 57.3644 60.5033 57.084 60.8391 57.0791C61.1996 57.0737 61.4839 57.3583 61.4789 57.7196Z" fill="#777A8C"/>
<path fill-rule="evenodd" clip-rule="evenodd" d="M65.8718 26.8349C65.8626 27.1916 65.6019 27.4522 65.2567 27.4499C64.8991 27.4474 64.6315 27.1589 64.6424 26.7876C64.6526 26.4373 64.9196 26.1741 65.2628 26.1758C65.6273 26.1776 65.8817 26.453 65.8718 26.8349Z" fill="#777A8C"/>
<path fill-rule="evenodd" clip-rule="evenodd" d="M51.5038 18.2027C51.4941 18.5666 51.2061 18.8305 50.8407 18.8106C50.4974 18.7919 50.2408 18.5111 50.2508 18.1649C50.2611 17.8058 50.5538 17.5417 50.9204 17.5605C51.2721 17.5785 51.5134 17.8442 51.5038 18.2027Z" fill="#777A8C"/>
<path fill-rule="evenodd" clip-rule="evenodd" d="M47.0588 61.9534C47.4013 61.9545 47.6796 62.228 47.6855 62.5688C47.6917 62.9266 47.396 63.2217 47.042 63.2113C46.7125 63.2015 46.428 62.9025 46.4322 62.5705C46.4365 62.2311 46.7195 61.9521 47.0588 61.9534Z" fill="#777A8C"/>
<path fill-rule="evenodd" clip-rule="evenodd" d="M24.9601 43.7472C25.2994 43.7422 25.5704 44.0224 25.5685 44.3761C25.5666 44.7143 25.322 44.9713 24.9875 44.9867C24.6547 45.0019 24.3579 44.722 24.3484 44.3839C24.339 44.0523 24.6274 43.7521 24.9601 43.7472Z" fill="#777A8C"/>
<path fill-rule="evenodd" clip-rule="evenodd" d="M69.3881 43.8054C69.0145 43.8048 68.7575 43.538 68.7684 43.162C68.7786 42.8102 69.039 42.5552 69.3895 42.554C69.7342 42.5527 69.9993 42.8143 70.0078 43.1641C70.017 43.5435 69.7632 43.8061 69.3881 43.8054Z" fill="#777A8C"/>
<path fill-rule="evenodd" clip-rule="evenodd" d="M33.5902 57.4978C33.5997 57.8558 33.3506 58.1228 32.9984 58.1319C32.6473 58.1411 32.3741 57.8848 32.3641 57.537C32.3539 57.1865 32.612 56.9119 32.9598 56.9028C33.3182 56.8935 33.5806 57.1411 33.5902 57.4978Z" fill="#777A8C"/>
<path fill-rule="evenodd" clip-rule="evenodd" d="M48.4696 16.9186C48.7775 16.9227 49.0342 17.192 49.0267 17.503C49.0188 17.8238 48.7615 18.065 48.4422 18.0508C48.1205 18.0365 47.9036 17.789 47.9166 17.451C47.9284 17.1449 48.1675 16.9147 48.4696 16.9186Z" fill="#777A8C"/>
<path fill-rule="evenodd" clip-rule="evenodd" d="M63.0668 57.0508C62.7632 57.0629 62.4946 56.8029 62.4875 56.4899C62.4806 56.1873 62.7064 55.9387 63.0053 55.9198C63.3337 55.8991 63.5844 56.1205 63.6023 56.4471C63.6193 56.7595 63.3718 57.0388 63.0668 57.0508Z" fill="#777A8C"/>
<path fill-rule="evenodd" clip-rule="evenodd" d="M70.6401 40.737C70.6437 41.0438 70.3767 41.3195 70.0762 41.3191C69.7883 41.3189 69.5338 41.0696 69.5211 40.7755C69.5071 40.4541 69.7442 40.1955 70.0602 40.1872C70.3816 40.1789 70.6363 40.4204 70.6401 40.737Z" fill="#777A8C"/>
<path fill-rule="evenodd" clip-rule="evenodd" d="M64.0508 24.035C64.3649 24.0408 64.6131 24.3031 64.6002 24.6157C64.5873 24.9294 64.3215 25.1836 64.0098 25.1542C63.6827 25.1234 63.4972 24.9365 63.4947 24.5928C63.4921 24.2553 63.7196 24.029 64.0508 24.035Z" fill="#777A8C"/>
<path fill-rule="evenodd" clip-rule="evenodd" d="M50.0898 62.9779C50.0805 63.2748 49.8278 63.5208 49.535 63.5182C49.2506 63.5156 48.9944 63.2518 48.9941 62.9611C48.9938 62.646 49.2597 62.3902 49.5712 62.406C49.8655 62.4207 50.0992 62.6786 50.0898 62.9779Z" fill="#777A8C"/>
<path fill-rule="evenodd" clip-rule="evenodd" d="M24.9668 30.7377C24.987 30.4682 25.1443 30.2773 25.4673 30.2574C25.7767 30.2383 26.0338 30.4733 26.0205 30.7798C26.0069 31.0951 25.8222 31.2856 25.5141 31.3195C25.2273 31.3511 24.9695 31.0858 24.9668 30.7377Z" fill="#777A8C"/>
<path fill-rule="evenodd" clip-rule="evenodd" d="M34.672 58.8581C34.9754 58.8552 35.2101 59.0883 35.2015 59.395C35.1924 59.7196 35.0069 59.8906 34.7001 59.9188C34.4 59.9463 34.1559 59.7076 34.1486 59.4033C34.1414 59.0979 34.3687 58.8611 34.672 58.8581Z" fill="#777A8C"/>
<path fill-rule="evenodd" clip-rule="evenodd" d="M25.6373 46.8823C25.6079 47.193 25.4632 47.4 25.1405 47.4108C24.8209 47.4214 24.6284 47.2397 24.619 46.9226C24.6099 46.611 24.773 46.4084 25.1017 46.3974C25.4278 46.3864 25.5834 46.5789 25.6373 46.8823Z" fill="#777A8C"/>
<path fill-rule="evenodd" clip-rule="evenodd" d="M65.5541 54.9425C65.5527 55.2664 65.3836 55.4478 65.0942 55.4633C64.8049 55.4789 64.6136 55.3091 64.5775 55.0099C64.5437 54.7293 64.778 54.4753 65.0604 54.4817C65.3599 54.4885 65.5256 54.6526 65.5541 54.9425Z" fill="#777A8C"/>
<path fill-rule="evenodd" clip-rule="evenodd" d="M46.4781 17.0894C46.4497 17.3774 46.3205 17.5734 46.0112 17.5959C45.7161 17.6173 45.4928 17.4041 45.4971 17.1051C45.5016 16.7919 45.6891 16.6187 45.9732 16.6122C46.2601 16.6057 46.4369 16.7882 46.4781 17.0894Z" fill="#777A8C"/>
<path fill-rule="evenodd" clip-rule="evenodd" d="M70.4258 38.726C70.1506 38.6937 69.9722 38.5487 69.9777 38.2331C69.983 37.925 70.1489 37.7593 70.4484 37.7434C70.7269 37.7285 70.9798 37.9798 70.9491 38.2555C70.9167 38.5456 70.7467 38.7159 70.4258 38.726Z" fill="#777A8C"/>
<path fill-rule="evenodd" clip-rule="evenodd" d="M63.0337 22.553C63.0117 22.8602 62.8483 23.0294 62.5519 23.0457C62.2713 23.061 62.0373 22.8116 62.0618 22.5263C62.0877 22.2251 62.2625 22.0588 62.5629 22.0646C62.8698 22.0706 63.0139 22.2572 63.0337 22.553Z" fill="#777A8C"/>
<path fill-rule="evenodd" clip-rule="evenodd" d="M52.061 63.544C51.79 63.526 51.6063 63.3865 51.5905 63.0967C51.5733 62.7824 51.757 62.604 52.0557 62.599C52.3396 62.5942 52.5149 62.7731 52.5171 63.0604C52.5191 63.3421 52.3617 63.5141 52.061 63.544Z" fill="#777A8C"/>
<path fill-rule="evenodd" clip-rule="evenodd" d="M36.9993 61.056C36.9845 61.319 36.8644 61.4934 36.5841 61.5063C36.2851 61.5201 36.1214 61.3457 36.1154 61.064C36.1096 60.7933 36.2943 60.6253 36.5501 60.62C36.8084 60.6144 36.9708 60.7771 36.9993 61.056Z" fill="#777A8C"/>
<path fill-rule="evenodd" clip-rule="evenodd" d="M66.5049 53.3011C66.5113 52.9874 66.6675 52.8351 66.9026 52.8306C67.1573 52.8257 67.3289 52.979 67.3289 53.2616C67.3289 53.5244 67.1667 53.6758 66.9322 53.6815C66.6763 53.6875 66.5123 53.5324 66.5049 53.3011Z" fill="#777A8C"/>
<path fill-rule="evenodd" clip-rule="evenodd" d="M43.8883 16.9878C43.8733 17.2613 43.7341 17.4233 43.4623 17.4193C43.2135 17.4155 43.0603 17.264 43.0572 17.0102C43.0538 16.7374 43.2047 16.5797 43.4795 16.5818C43.7351 16.5837 43.865 16.7352 43.8883 16.9878Z" fill="#777A8C"/>
<path fill-rule="evenodd" clip-rule="evenodd" d="M70.9793 35.73C70.9427 35.9965 70.7823 36.1396 70.5166 36.1145C70.268 36.0911 70.1333 35.9252 70.151 35.6701C70.1702 35.3923 70.343 35.2529 70.6085 35.2784C70.8559 35.3022 70.98 35.4683 70.9793 35.73Z" fill="#777A8C"/>
<path fill-rule="evenodd" clip-rule="evenodd" d="M60.8403 20.262C61.1054 20.2743 61.2589 20.4151 61.264 20.6632C61.2695 20.9272 61.1285 21.096 60.8464 21.0939C60.5658 21.0919 60.4235 20.9246 60.4325 20.6595C60.4411 20.411 60.5998 20.2753 60.8403 20.262Z" fill="#777A8C"/>
<path fill-rule="evenodd" clip-rule="evenodd" d="M25.5353 48.9885C25.7947 49.0151 25.9511 49.157 25.9477 49.4086C25.9444 49.6581 25.7902 49.8199 25.5357 49.8144C25.2876 49.8091 25.1357 49.6655 25.1367 49.4006C25.1378 49.1331 25.2984 49.0169 25.5353 48.9885Z" fill="#777A8C"/>
<path fill-rule="evenodd" clip-rule="evenodd" d="M24.1978 33.3862C23.9822 33.3598 23.8548 33.2142 23.8665 32.9789C23.8791 32.7209 24.0496 32.5727 24.2946 32.5936C24.5149 32.6125 24.6681 32.7663 24.654 33.0092C24.639 33.2692 24.4826 33.3948 24.1978 33.3862Z" fill="#777A8C"/>
<path fill-rule="evenodd" clip-rule="evenodd" d="M54.5563 63.3049C54.3237 63.2825 54.1778 63.1611 54.1768 62.9167C54.1755 62.6505 54.3353 62.51 54.5862 62.5192C54.8223 62.5278 54.9584 62.6894 54.9496 62.9244C54.9407 63.158 54.7999 63.294 54.5563 63.3049Z" fill="#777A8C"/>
<path fill-rule="evenodd" clip-rule="evenodd" d="M38.6312 62.8901C38.3864 62.8899 38.2599 62.7617 38.2527 62.5464C38.2455 62.329 38.3769 62.1817 38.5922 62.1778C38.8018 62.1741 38.9432 62.2939 38.9487 62.5252C38.954 62.7532 38.8357 62.8714 38.6312 62.8901Z" fill="#777A8C"/>
<path fill-rule="evenodd" clip-rule="evenodd" d="M41.3136 17.1624C41.2957 17.3681 41.1917 17.5061 40.9616 17.5043C40.7576 17.5026 40.6344 17.3935 40.6217 17.1836C40.6076 16.9537 40.7322 16.818 40.9488 16.8056C41.1682 16.7932 41.2953 16.9213 41.3136 17.1624Z" fill="#777A8C"/>
<path fill-rule="evenodd" clip-rule="evenodd" d="M68.9402 51.338C68.92 51.5642 68.8027 51.7108 68.5838 51.7077C68.3726 51.7046 68.223 51.5746 68.2292 51.3453C68.2346 51.1448 68.3523 51.0155 68.5601 51.0062C68.7864 50.9962 68.905 51.1232 68.9402 51.338Z" fill="#777A8C"/>
<path fill-rule="evenodd" clip-rule="evenodd" d="M70.7619 33.1566C70.7354 33.3851 70.6185 33.5315 70.3988 33.5211C70.1872 33.5111 70.055 33.3802 70.0661 33.1469C70.0761 32.9362 70.1959 32.8228 70.398 32.8165C70.6278 32.8093 70.7298 32.9561 70.7619 33.1566Z" fill="#777A8C"/>
<path fill-rule="evenodd" clip-rule="evenodd" d="M59.3013 19.0633C59.2913 19.2427 59.1606 19.3659 58.9442 19.3541C58.7501 19.3435 58.6283 19.2221 58.6289 19.0086C58.6297 18.7803 58.7492 18.6448 58.9687 18.6466C59.1869 18.6484 59.3081 18.7813 59.3013 19.0633Z" fill="#777A8C"/>
<path fill-rule="evenodd" clip-rule="evenodd" d="M57.3422 62.5391C57.3289 62.6966 57.2219 62.7988 57.031 62.7997C56.8337 62.8005 56.7221 62.6726 56.7198 62.4938C56.7171 62.289 56.8533 62.1562 57.0577 62.1689C57.2387 62.1801 57.3464 62.3032 57.3422 62.5391Z" fill="#777A8C"/>
<path fill-rule="evenodd" clip-rule="evenodd" d="M25.9106 51.8294C25.9343 51.6353 26.0535 51.5296 26.2356 51.5389C26.4191 51.5482 26.5353 51.6663 26.5206 51.8632C26.5065 52.0534 26.3956 52.1573 26.2004 52.1501C25.9981 52.1426 25.9222 52.0155 25.9106 51.8294Z" fill="#777A8C"/>
<path fill-rule="evenodd" clip-rule="evenodd" d="M69.9869 30.3705C70.1568 30.393 70.2655 30.4872 70.2659 30.6613C70.2664 30.8343 70.1692 30.9417 69.9892 30.9425C69.8079 30.9434 69.7138 30.8353 69.7115 30.6621C69.7092 30.4851 69.8179 30.3938 69.9869 30.3705Z" fill="#777A8C"/>
<path fill-rule="evenodd" clip-rule="evenodd" d="M38.7705 17.5736C38.7621 17.7604 38.6555 17.8568 38.4876 17.8575C38.3177 17.8581 38.2082 17.757 38.2075 17.577C38.2067 17.3948 38.3278 17.2947 38.4882 17.2928C38.6529 17.2908 38.7569 17.4007 38.7705 17.5736Z" fill="#777A8C"/>
<path fill-rule="evenodd" clip-rule="evenodd" d="M70.3187 49.2669C70.3165 49.4569 70.2188 49.5603 70.0472 49.5674C69.8745 49.5744 69.7647 49.4745 69.7559 49.2967C69.7469 49.1151 69.86 49.009 70.0251 49.0018C70.1919 48.9945 70.2984 49.0984 70.3187 49.2669Z" fill="#777A8C"/>
<path fill-rule="evenodd" clip-rule="evenodd" d="M23.2732 35.5977C23.0866 35.5852 22.9971 35.4786 23.0001 35.3079C23.0027 35.148 23.1155 35.0558 23.2604 35.0543C23.4038 35.0528 23.5154 35.1332 23.522 35.3012C23.5293 35.4804 23.4392 35.5757 23.2732 35.5977Z" fill="#777A8C"/>
<path fill-rule="evenodd" clip-rule="evenodd" d="M56.9165 17.8171C56.7439 17.7998 56.6358 17.6926 56.6362 17.5285C56.6367 17.363 56.7467 17.2497 56.9219 17.2481C57.1017 17.2463 57.1904 17.3525 57.1917 17.5317C57.193 17.7157 57.0908 17.8011 56.9165 17.8171Z" fill="#777A8C"/>
<path fill-rule="evenodd" clip-rule="evenodd" d="M41.0519 63.7932C41.042 63.9564 40.9519 64.0399 40.7941 64.0399C40.6053 64.0399 40.5348 63.9233 40.5455 63.7483C40.5559 63.5789 40.6647 63.513 40.8182 63.5235C40.9778 63.5344 41.0555 63.6308 41.0519 63.7932Z" fill="#777A8C"/>
<path fill-rule="evenodd" clip-rule="evenodd" d="M59.4487 61.5692C59.5917 61.5743 59.6839 61.6451 59.6899 61.7875C59.6968 61.9507 59.5944 62.0453 59.4406 62.0387C59.3091 62.033 59.2148 61.9412 59.2189 61.7979C59.2229 61.6577 59.3076 61.5799 59.4487 61.5692Z" fill="#777A8C"/>
<path fill-rule="evenodd" clip-rule="evenodd" d="M27.3478 54.2001C27.347 54.3269 27.2708 54.4051 27.1571 54.4108C27.0204 54.4178 26.9313 54.3308 26.9384 54.1897C26.9445 54.0682 27.0312 53.9982 27.1504 54.0009C27.269 54.0037 27.3478 54.0684 27.3478 54.2001Z" fill="#777A8C"/>
<path fill-rule="evenodd" clip-rule="evenodd" d="M71.4665 46.9857C71.4737 47.1996 71.4007 47.28 71.2808 47.2842C71.1414 47.289 71.0525 47.203 71.0568 47.0584C71.0607 46.9304 71.1472 46.8649 71.2701 46.8656C71.3973 46.8663 71.4643 46.9413 71.4665 46.9857Z" fill="#777A8C"/>
<path fill-rule="evenodd" clip-rule="evenodd" d="M69.295 27.9969C69.4101 28.0113 69.5026 28.0589 69.5167 28.1878C69.5331 28.3377 69.455 28.4206 69.3082 28.4218C69.1828 28.4229 69.1106 28.3528 69.1044 28.2215C69.0979 28.087 69.1801 28.0306 69.295 27.9969Z" fill="#777A8C"/>
<mask id="mask0" mask-type="alpha" maskUnits="userSpaceOnUse" x="54" y="16" width="1" height="1">
<path d="M54.5229 16.0819H54.9415V16.4973H54.5229V16.0819Z" fill="#777A8C"/>
</mask>
<g mask="url(#mask0)">
<path fill-rule="evenodd" clip-rule="evenodd" d="M54.7273 16.4973C54.6054 16.4904 54.5287 16.4202 54.5233 16.2979C54.5167 16.1488 54.6081 16.0807 54.7522 16.0819C54.8897 16.0831 54.9485 16.1731 54.9408 16.292C54.9332 16.4084 54.8611 16.4883 54.7273 16.4973Z" fill="#777A8C"/>
</g>
<path fill-rule="evenodd" clip-rule="evenodd" d="M36.0634 18.4659C35.9358 18.4613 35.8613 18.3879 35.8599 18.2691C35.8583 18.1282 35.9458 18.0521 36.0891 18.0589C36.2221 18.0651 36.27 18.1517 36.2651 18.2733C36.26 18.4003 36.1898 18.4636 36.0634 18.4659Z" fill="#777A8C"/>
<path fill-rule="evenodd" clip-rule="evenodd" d="M43.2846 64.7669C43.2865 64.8812 43.222 64.9489 43.119 64.9575C43.0166 64.9662 42.935 64.9123 42.9261 64.7991C42.9176 64.6898 42.9745 64.6215 43.0862 64.6103C43.2009 64.5989 43.2548 64.6693 43.2846 64.7669Z" fill="#777A8C"/>
<path fill-rule="evenodd" clip-rule="evenodd" d="M62.854 47.0757C62.8836 47.0821 62.9132 47.0886 62.9429 47.095C62.9298 47.1118 62.9167 47.1286 62.9036 47.1453C62.8898 47.1192 62.8761 47.093 62.8623 47.0668C62.8623 47.0667 62.854 47.0757 62.854 47.0757Z" fill="#777A8C"/>
<path fill-rule="evenodd" clip-rule="evenodd" d="M36.8343 52.0845C36.8376 52.0633 36.841 52.0421 36.8444 52.0209C36.8491 52.0297 36.8602 52.0432 36.8577 52.0465C36.8485 52.0588 36.8347 52.0677 36.8228 52.0779L36.8343 52.0845Z" fill="#777A8C"/>
<path fill-rule="evenodd" clip-rule="evenodd" d="M30.5752 29.2988C30.5984 29.2963 30.6215 29.2937 30.6447 29.2912C30.6447 29.3057 30.6448 29.3203 30.6448 29.3347C30.624 29.3189 30.6031 29.303 30.5823 29.2872L30.5752 29.2988Z" fill="#777A8C"/>
<path fill-rule="evenodd" clip-rule="evenodd" d="M34.0655 48.9955C34.0598 49.0071 34.0542 49.0188 34.0486 49.0305C34.0325 49.0184 34.0165 49.0063 34.0005 48.9942C34.0115 48.9827 34.0226 48.9712 34.0337 48.9596C34.0443 48.9716 34.0549 48.9836 34.0655 48.9955Z" fill="#777A8C"/>
<path fill-rule="evenodd" clip-rule="evenodd" d="M31.1299 29.902C31.1182 29.8687 31.1064 29.8353 31.0947 29.802C31.128 29.8119 31.1613 29.8217 31.1947 29.8314C31.1732 29.8547 31.1516 29.8784 31.1299 29.902Z" fill="#777A8C"/>
<path fill-rule="evenodd" clip-rule="evenodd" d="M38.5693 53.9208C38.6015 53.8842 38.636 53.8664 38.6692 53.9156C38.6714 53.9187 38.6361 53.9528 38.6182 53.9726C38.601 53.9563 38.5846 53.9392 38.5693 53.9208Z" fill="#777A8C"/>
<path fill-rule="evenodd" clip-rule="evenodd" d="M40.8028 55.2593C40.8043 55.2864 40.8057 55.3134 40.8071 55.3405C40.7873 55.3344 40.7674 55.3283 40.7476 55.3223C40.7695 55.3038 40.7915 55.2854 40.8133 55.2669L40.8028 55.2593Z" fill="#777A8C"/>
</svg>
