<svg width="260" height="80" viewBox="0 0 260 80" fill="none" xmlns="http://www.w3.org/2000/svg">
<path fill-rule="evenodd" clip-rule="evenodd" d="M104.048 65C103.451 64.9388 102.854 64.8832 102.257 64.8154C98.8755 64.4309 95.7088 63.4095 92.7513 61.7732C92.7072 61.7487 92.6674 61.717 92.5825 61.6596C97.6371 57.9874 102.668 54.3328 107.727 50.6576C108.24 51.1441 108.745 51.6218 109.249 52.1006C110.095 52.9048 110.949 53.702 111.781 54.52C111.985 54.7209 112.134 54.718 112.377 54.5988C114.93 53.3428 117.017 51.5744 118.626 49.2755C118.703 49.1654 118.78 49.0549 118.87 48.9242C118.942 49.0045 119.008 49.0689 119.063 49.1405C120.821 51.4147 122.576 53.6916 124.34 55.9614C124.492 56.1576 124.473 56.2744 124.312 56.4526C120.226 60.9635 115.151 63.7443 109.034 64.6952C108.263 64.8149 107.48 64.8602 106.703 64.9427C106.6 64.9537 106.499 64.9805 106.396 65H104.048Z" fill="#777A8C"/>
<path fill-rule="evenodd" clip-rule="evenodd" d="M80 39.483C80.0647 38.8618 80.12 38.2395 80.1956 37.6195C80.5908 34.3776 81.6182 31.3356 83.2687 28.4921C83.2885 28.4577 83.3158 28.4275 83.3695 28.3551C87.1809 33.2126 90.9779 38.0516 94.7897 42.9096C94.1216 43.5764 93.4599 44.2376 92.7972 44.8979C92.1182 45.5744 91.4428 46.2546 90.7552 46.9229C90.5963 47.0774 90.5687 47.1972 90.6727 47.4C91.9696 49.9282 93.8176 51.9856 96.2236 53.571C96.3176 53.633 96.4102 53.6972 96.5716 53.8065C94.0467 55.6469 91.5575 57.4614 89.0103 59.3181C88.1469 58.4772 87.2716 57.6994 86.4844 56.8451C82.9788 53.0405 80.891 48.5947 80.2105 43.5302C80.1367 42.9811 80.1113 42.4259 80.0593 41.8739C80.05 41.7746 80.0203 41.677 80 41.5786V39.483Z" fill="#777A8C"/>
<path fill-rule="evenodd" clip-rule="evenodd" d="M106.269 16C106.698 16.0419 107.126 16.086 107.555 16.1254C111.163 16.4571 114.54 17.4979 117.687 19.2449C117.731 19.2694 117.771 19.3016 117.847 19.3541C112.71 22.9361 107.597 26.5014 102.456 30.0866C102.254 29.9005 102.055 29.7217 101.862 29.5382C100.779 28.5134 99.6933 27.4915 98.6195 26.4581C98.4474 26.2925 98.3165 26.2741 98.1019 26.3784C95.5019 27.6417 93.3863 29.4388 91.7577 31.7774C91.6987 31.8621 91.6396 31.9468 91.5256 32.1103C89.6363 29.663 87.7712 27.247 85.873 24.7882C86.4428 24.2002 86.9697 23.6155 87.5404 23.0744C91.2594 19.5485 95.6715 17.3057 100.788 16.4034C101.773 16.2298 102.779 16.172 103.776 16.0587C103.889 16.0459 104 16.0199 104.112 16H106.269Z" fill="#777A8C"/>
<path fill-rule="evenodd" clip-rule="evenodd" d="M180.179 50.65C178.865 50.6486 177.551 50.6433 176.237 50.6503C176.053 50.6513 175.945 50.5938 175.841 50.4499C174.504 48.6003 173.161 46.755 171.82 44.9088C171.789 44.8668 171.756 44.8268 171.7 44.7557C171.469 45.0704 171.249 45.3671 171.032 45.6662C169.876 47.2629 168.72 48.8591 167.569 50.4591C167.471 50.5942 167.373 50.6518 167.196 50.6506C165.892 50.6418 164.587 50.6459 163.229 50.6459C163.449 50.342 163.645 50.066 163.846 49.7934C165.676 47.3139 167.506 44.8338 169.341 42.3582C169.462 42.1955 169.46 42.088 169.339 41.9247C167.422 39.3329 165.512 36.7359 163.6 34.1398C163.555 34.0777 163.515 34.0114 163.454 33.9199C163.563 33.9145 163.641 33.9075 163.718 33.9075C164.932 33.9068 166.146 33.9097 167.361 33.9038C167.529 33.903 167.635 33.9423 167.738 34.0874C168.993 35.8632 170.258 37.6329 171.521 39.4037C171.557 39.4533 171.599 39.4981 171.659 39.5699C172.116 38.9408 172.563 38.3276 173.008 37.7134C173.894 36.4913 174.778 35.2676 175.669 34.0487C175.717 33.9825 175.819 33.9135 175.897 33.913C177.229 33.9048 178.56 33.9071 179.945 33.9071C179.878 34.0073 179.834 34.0775 179.784 34.1441C177.867 36.7467 175.949 39.3495 174.028 41.9495C173.933 42.0786 173.904 42.1659 174.014 42.315C176.028 45.0344 178.034 47.7593 180.044 50.4819C180.078 50.5279 180.133 50.5591 180.179 50.5972V50.65Z" fill="#777A8C"/>
<path fill-rule="evenodd" clip-rule="evenodd" d="M155.311 39.1393L155.208 39.1135C154.813 39.42 154.423 39.7323 154.022 40.0323C152.072 41.4945 150.121 42.9551 148.165 44.4101C148.016 44.5204 147.942 44.6333 147.985 44.8083C148.146 45.4741 148.239 46.165 148.485 46.8004C149.241 48.7598 151.525 49.544 153.432 48.5427C154.248 48.1139 154.689 47.3991 154.988 46.5847C155.328 45.6579 155.367 44.6871 155.368 43.7191C155.369 42.4347 155.331 41.1502 155.311 39.8658C155.308 39.6237 155.311 39.3815 155.311 39.1393ZM147.813 41.5977C147.854 41.611 147.894 41.6242 147.935 41.6374C148.11 41.5048 148.285 41.3718 148.461 41.2398C150.652 39.5939 152.845 37.9496 155.031 36.2969C155.118 36.2305 155.193 36.0814 155.186 35.9763C155.164 35.6354 155.109 35.2957 155.052 34.9579C154.915 34.1476 154.65 33.3852 154.091 32.7499C152.755 31.2297 150.216 31.5491 149.172 32.4376C148.532 32.9825 148.246 33.7032 148.039 34.4679C147.806 35.3266 147.793 36.2023 147.807 37.0852C147.829 38.5891 147.813 40.0935 147.813 41.5977ZM144.008 40.4419C144.008 39.3591 143.991 38.2761 144.012 37.1937C144.043 35.5461 144.306 33.9402 145.051 32.4393C145.693 31.1468 146.664 30.1605 147.981 29.4971C148.891 29.0389 149.867 28.8672 150.876 28.7739C152.081 28.6624 153.239 28.8237 154.365 29.2182C155.898 29.7557 157.011 30.7692 157.794 32.1468C158.562 33.4997 158.9 34.9691 159.003 36.4896C159.081 37.6559 159.085 38.8274 159.113 39.9967C159.139 41.0618 159.183 42.1275 159.164 43.1921C159.139 44.6261 159.002 46.0474 158.473 47.4098C157.874 48.9504 156.952 50.2241 155.422 51.0127C154.483 51.4964 153.487 51.7674 152.419 51.848C151.368 51.9273 150.347 51.8469 149.335 51.5735C147.578 51.0991 146.312 50.0392 145.424 48.5165C144.631 47.1557 144.273 45.6752 144.178 44.1326C144.102 42.9044 144.084 41.6728 144.04 40.4427C144.029 40.4425 144.019 40.4422 144.008 40.4419Z" fill="#777A8C"/>
<path fill-rule="evenodd" clip-rule="evenodd" d="M121.329 21.7255C130.907 29.4413 132.993 42.6487 127.104 52.55C123.343 47.7198 119.593 42.9044 115.827 38.0686C115.909 37.9792 115.981 37.8947 116.059 37.8158C117.269 36.5953 118.475 35.3722 119.693 34.1596C119.862 33.9917 119.879 33.8642 119.773 33.6566C118.472 31.1084 116.622 29.0283 114.194 27.4352C114.098 27.3723 114.003 27.3078 113.834 27.195C116.349 25.3598 118.836 23.5452 121.329 21.7255Z" fill="#777A8C"/>
</svg>
