<svg width="260" height="80" viewBox="0 0 260 80" fill="none" xmlns="http://www.w3.org/2000/svg">
<mask id="mask0" mask-type="alpha" maskUnits="userSpaceOnUse" x="68" y="24" width="32" height="32">
<path d="M68.2275 24.1105H99.4639V55.7314H68.2275V24.1105Z" fill="#777A8C"/>
</mask>
<g mask="url(#mask0)">
<path fill-rule="evenodd" clip-rule="evenodd" d="M89.9966 36.4203C86.6888 39.7738 83.3705 43.138 80.0579 46.4963C82.5298 48.2358 86.3801 47.8387 88.6323 45.5779C91.1986 43.0017 91.3778 38.822 89.9966 36.4203ZM87.3633 33.4248C84.7367 31.6793 81.0335 32.071 78.7543 34.3682C76.1513 36.9919 76.1073 41.1625 77.4191 43.5144C80.7218 40.1634 84.0329 36.8039 87.3633 33.4248ZM96.7222 24.1105C97.6165 24.9359 98.5109 25.7614 99.4639 26.641C98.2071 27.9216 97.1283 29.0243 96.0455 30.123C94.97 31.2141 93.8908 32.3013 92.783 33.4208C94.5434 36.1402 95.1606 39.086 94.5256 42.2645C94.0657 44.5662 92.9591 46.5063 91.2743 48.1253C87.8815 51.3856 81.7518 52.1775 77.2459 49.1382C75.1018 51.3333 72.9488 53.5378 70.8063 55.7315C69.9308 54.819 69.0896 53.9425 68.2275 53.0441C70.3344 50.9282 72.5164 48.7366 74.6805 46.563C71.5288 41.792 72.3325 35.9971 75.4374 32.4956C78.7293 28.7831 85.0239 27.43 90.1814 30.7719C91.3107 29.61 92.4508 28.4317 93.5971 27.2593C94.5289 26.3063 95.4689 25.3617 96.4016 24.4097C96.486 24.3238 96.5434 24.2109 96.6135 24.1105H96.7222Z" fill="#777A8C"/>
</g>
<path fill-rule="evenodd" clip-rule="evenodd" d="M217 45.5163C216.778 46.1897 216.632 46.9028 216.317 47.5284C215.533 49.0858 214.232 50.1065 212.591 50.5231C208.143 51.6521 204.177 50.6183 200.648 47.5604C201.404 46.6447 202.132 45.7625 202.867 44.8709C203.584 45.3708 204.258 45.888 204.975 46.3325C206.791 47.4566 208.761 47.8754 210.864 47.493C212.408 47.2125 213.32 46.1896 213.303 44.8423C213.292 43.9767 212.947 43.2548 212.166 42.923C211.02 42.4365 209.827 42.0607 208.648 41.6583C207.278 41.1912 205.852 40.8592 204.537 40.2706C200.699 38.5534 200.847 33.6931 202.798 31.3731C204.082 29.8473 205.765 29.1587 207.659 28.9905C210.755 28.7154 213.589 29.4808 216.079 31.4188C216.163 31.4841 216.238 31.5608 216.34 31.6526C215.679 32.5963 215.032 33.5215 214.406 34.4154C213.401 33.884 212.451 33.3204 211.451 32.8677C210.2 32.3015 208.868 32.154 207.513 32.3995C205.855 32.7 204.923 33.9967 205.251 35.4998C205.42 36.2738 205.936 36.7762 206.606 37.0444C207.646 37.4607 208.73 37.7625 209.79 38.1297C211.259 38.6386 212.77 39.0571 214.176 39.7095C215.724 40.4284 216.675 41.7351 216.926 43.4965C216.933 43.5471 216.975 43.5926 217 43.6405V45.5163Z" fill="#777A8C"/>
<path fill-rule="evenodd" clip-rule="evenodd" d="M43 38.7855C43.0998 38.3058 43.1957 37.8253 43.3003 37.3466C44.4644 32.0191 49.181 28.4209 54.9677 28.9C57.7464 29.13 60.1511 30.1592 62.1691 32.2307C61.3897 33.1443 60.6138 34.0539 59.8039 35.0033C59.6671 34.8909 59.5466 34.7937 59.428 34.6943C57.9531 33.4578 56.3781 32.4715 54.3836 32.3669C50.6595 32.1716 47.5281 34.7992 47.0242 38.5606C46.7128 40.8851 47.1042 43.0438 48.5445 44.9117C50.787 47.8203 54.8906 48.4431 57.9121 46.3685C58.6 45.8962 59.2475 45.3634 59.9111 44.8605C60.6735 45.652 61.4522 46.4605 62.2633 47.3025C61.0997 48.6117 59.6733 49.7427 57.9375 50.3373C54.9512 51.3607 51.9495 51.3868 49.0543 49.9754C45.6013 48.2922 43.7113 45.426 43.1109 41.6318C43.0828 41.454 43.0373 41.279 43 41.1027V38.7855Z" fill="#777A8C"/>
<path fill-rule="evenodd" clip-rule="evenodd" d="M134.423 50.677V29.2593C135.697 29.2593 136.943 29.2444 138.187 29.278C138.343 29.2822 138.531 29.5157 138.64 29.6854C140.118 31.9982 141.584 34.3189 143.055 36.6365C143.61 37.5103 144.168 38.3813 144.773 39.3285C145.375 38.3884 145.927 37.5325 146.473 36.6723C147.933 34.3696 149.399 32.07 150.843 29.7563C151.071 29.3901 151.312 29.2298 151.752 29.2433C152.854 29.2774 153.959 29.2546 155.105 29.2546V50.6397H151.489V35.5923C151.438 35.5768 151.386 35.5616 151.335 35.5463C149.155 38.8414 146.976 42.1368 144.742 45.5146C142.533 42.1612 140.383 38.8967 138.233 35.6322C138.184 35.638 138.136 35.6437 138.088 35.6494V36.2486C138.088 40.8457 138.081 45.4428 138.098 50.0399C138.1 50.5378 137.98 50.711 137.467 50.6893C136.474 50.6472 135.478 50.677 134.423 50.677Z" fill="#777A8C"/>
<path fill-rule="evenodd" clip-rule="evenodd" d="M185.808 39.8955C185.853 38.8184 185.579 37.7037 185.117 36.6318C183.232 32.2653 177.707 30.9232 174.136 34.0184C171.92 35.9383 171.249 38.4809 171.669 41.3395C172.291 45.5665 176.206 48.2949 180.303 47.3916C183.551 46.6753 185.807 43.6462 185.808 39.8955ZM189.738 39.9812C189.652 46.338 184.813 51.114 178.539 51.0357C172.276 50.9576 167.561 46.1697 167.628 39.9555C167.696 33.6122 172.556 28.7853 178.801 28.8582C185.068 28.9314 189.823 33.7664 189.738 39.9812Z" fill="#777A8C"/>
<path fill-rule="evenodd" clip-rule="evenodd" d="M121.364 31.6548C120.693 32.6157 120.055 33.5278 119.423 34.4323C118.522 33.9386 117.669 33.4271 116.779 32.9952C115.456 32.3531 114.05 32.15 112.596 32.387C110.894 32.6642 109.941 33.991 110.304 35.5536C110.499 36.3951 111.108 36.867 111.832 37.1477C112.809 37.5271 113.829 37.7914 114.821 38.1337C116.306 38.6465 117.853 39.0417 119.252 39.7381C123.27 41.7376 122.674 47.742 119.315 49.7582C117.497 50.8498 115.533 51.0314 113.497 50.9298C110.701 50.7902 107.735 49.5085 105.703 47.5287C106.434 46.6438 107.169 45.7539 107.899 44.8692C108.619 45.3746 109.28 45.8869 109.986 46.3241C111.817 47.4582 113.803 47.8862 115.924 47.4864C117.306 47.226 118.128 46.4091 118.293 45.2488C118.444 44.1888 118.127 43.3298 117.162 42.9127C115.889 42.3623 114.541 41.9888 113.224 41.5413C112.026 41.134 110.794 40.8077 109.634 40.3096C105.662 38.6044 105.854 33.4249 108.022 31.1395C109.301 29.7925 110.886 29.1521 112.66 28.993C115.754 28.7156 118.588 29.4672 121.081 31.3998C121.165 31.4647 121.24 31.5419 121.364 31.6548Z" fill="#777A8C"/>
</svg>
