<svg width="54" height="54" viewBox="0 0 54 54" fill="none" xmlns="http://www.w3.org/2000/svg">
<path d="M14.795 8.35059H22.8115C23.3627 8.35059 23.8136 8.91425 23.8136 9.60316V17.1186C23.8136 17.8075 23.3627 18.3712 22.8115 18.3712H14.795C14.2439 18.3712 13.793 17.8075 13.793 17.1186V9.60316C13.793 8.91425 14.2439 8.35059 14.795 8.35059Z" stroke="#43454F" stroke-width="2" stroke-linecap="round" stroke-linejoin="round"/>
<path d="M30.3829 8.35059H38.3994C38.9506 8.35059 39.4015 8.91425 39.4015 9.60316V17.1186C39.4015 17.8075 38.9506 18.3712 38.3994 18.3712H30.3829C29.8318 18.3712 29.3809 17.8075 29.3809 17.1186V9.60316C29.3809 8.91425 29.8318 8.35059 30.3829 8.35059Z" stroke="#43454F" stroke-width="2" stroke-linecap="round" stroke-linejoin="round"/>
<path d="M14.795 22.2681H22.8115C23.3627 22.2681 23.8136 22.8317 23.8136 23.5206V31.0361C23.8136 31.725 23.3627 32.2887 22.8115 32.2887H14.795C14.2439 32.2887 13.793 31.725 13.793 31.0361V23.5206C13.793 22.8317 14.2439 22.2681 14.795 22.2681Z" stroke="#43454F" stroke-width="2" stroke-linecap="round" stroke-linejoin="round"/>
<path d="M30.3829 22.2681H38.3994C38.9506 22.2681 39.4015 22.8317 39.4015 23.5206V31.0361C39.4015 31.725 38.9506 32.2887 38.3994 32.2887H30.3829C29.8318 32.2887 29.3809 31.725 29.3809 31.0361V23.5206C29.3809 22.8317 29.8318 22.2681 30.3829 22.2681Z" stroke="#43454F" stroke-width="2" stroke-linecap="round" stroke-linejoin="round"/>
<circle opacity="0.4" cx="26.3721" cy="47.0928" r="2" fill="#43454F"/>
<rect opacity="0.4" x="7" y="1" width="39.1959" height="52" rx="5.68041" stroke="#43454F" stroke-width="2"/>
</svg>
