<svg width="350" height="250" viewBox="0 0 350 250" fill="none" xmlns="http://www.w3.org/2000/svg">
<path d="M0 0H350V250H0V0Z" fill="white"/>
<path d="M138.5 69.7653V35.0634L162.5 27.677V59.6679L138.5 69.7653Z" fill="white" stroke="black"/>
<path d="M92.5 69.7653V35.0634L116.5 27.677V59.6679L92.5 69.7653Z" fill="white" stroke="black"/>
<path d="M138.5 235.765V201.063L162.5 193.677V225.668L138.5 235.765Z" fill="white" stroke="black"/>
<path d="M92.5 235.765V201.063L116.5 193.677V225.668L92.5 235.765Z" fill="white" stroke="black"/>
<path fill-rule="evenodd" clip-rule="evenodd" d="M337 236H225V131H337V236Z" fill="white" stroke="black"/>
<path fill-rule="evenodd" clip-rule="evenodd" d="M325 236H236V154H325V236Z" stroke="black" stroke-width="0.5"/>
<path fill-rule="evenodd" clip-rule="evenodd" d="M341 131H221V124H341V131Z" stroke="black"/>
<path fill-rule="evenodd" clip-rule="evenodd" d="M276.706 213C276.706 213 267.419 205.38 274.938 190.042C274.938 190.042 285.718 201.811 288.442 180C288.442 180 296.314 196.467 291.368 204.37" fill="#FAC166"/>
<path fill-rule="evenodd" clip-rule="evenodd" d="M268.363 207.611L270.5 203L295.246 215.525L293.109 220.137L268.363 207.611Z" fill="#E8E8E8"/>
<path fill-rule="evenodd" clip-rule="evenodd" d="M271.999 221.5L269.762 216.327L291.763 203.327L293.999 208.5L271.999 221.5Z" fill="#E8E8E8"/>
<path fill-rule="evenodd" clip-rule="evenodd" d="M282 236H267V173H282V236Z" stroke="#E8E8E8" stroke-width="1.54879"/>
<path fill-rule="evenodd" clip-rule="evenodd" d="M312 236H297V173H312V236Z" stroke="#E8E8E8" stroke-width="1.54879"/>
<path fill-rule="evenodd" clip-rule="evenodd" d="M297 236H282V173H297V236Z" stroke="#E8E8E8" stroke-width="1.54879"/>
<path fill-rule="evenodd" clip-rule="evenodd" d="M267 236H252V173H267V236Z" stroke="#E8E8E8" stroke-width="1.54879"/>
<path d="M71.5 212V212.5H72H81.45H141.015C159.404 212.5 173.594 208.381 183.513 200.069C193.521 191.746 198.5 179.838 198.5 164.421C198.5 155.075 196.044 147.057 191.112 140.392C186.498 133.99 180.039 129.543 171.765 127.043C178.991 123.768 184.555 119.27 188.431 113.54C192.527 107.483 194.574 100.668 194.574 93.1085C194.574 78.3602 189.704 67.1892 179.907 59.6862C170.138 52.2038 155.953 48.5 137.425 48.5H81.45H72H71.5V49V71.8379V72.3379H72H80.95V188.886H72H71.5V189.386V212ZM158.542 77.6048L158.545 77.6072C163.017 81.0625 165.306 86.7082 165.306 94.6758C165.306 101.862 162.852 107.381 157.977 111.303C153.159 115.163 146.404 117.126 137.65 117.126H110.33V72.3379H137.425C147.104 72.3379 154.111 74.1247 158.542 77.6048ZM141.352 188.886H110.33V138.948H143.702C152.299 139.134 158.659 141.37 162.872 145.575C167.085 149.779 169.232 156.031 169.232 164.421C169.232 172.141 166.769 178.114 161.886 182.405C156.994 186.705 150.17 188.886 141.352 188.886Z" fill="white" stroke="black"/>
<path d="M31.6913 180.972C34.1721 180.972 36.1833 178.961 36.1833 176.48C36.1833 173.999 34.1721 171.988 31.6913 171.988C29.2104 171.988 27.1992 173.999 27.1992 176.48C27.1992 178.961 29.2104 180.972 31.6913 180.972Z" fill="#E8E8E8"/>
<path d="M67.1035 225.379V174.233" stroke="#3F3D56" stroke-width="0.918574" stroke-miterlimit="10"/>
<path d="M67.1034 181.466C71.0979 181.466 74.3361 178.227 74.3361 174.233C74.3361 170.238 71.0979 167 67.1034 167C63.1088 167 59.8706 170.238 59.8706 174.233C59.8706 178.227 63.1088 181.466 67.1034 181.466Z" fill="#E8E8E8"/>
<path d="M82.681 181.903C82.6908 181.994 82.7012 182.094 82.712 182.205C82.7692 182.786 82.8396 183.637 82.8917 184.708C82.996 186.851 83.0271 189.877 82.7341 193.399C82.1476 200.451 80.2651 209.46 75.1035 217.375C69.9419 225.291 62.4577 230.647 56.2414 234.027C53.1361 235.716 50.3551 236.908 48.3518 237.677C47.3503 238.061 46.5438 238.34 45.9891 238.522C45.8834 238.556 45.7868 238.587 45.6998 238.615C45.6901 238.524 45.6797 238.423 45.6688 238.313C45.6116 237.732 45.5413 236.881 45.4891 235.81C45.3849 233.667 45.3537 230.641 45.6467 227.119C46.2332 220.067 48.1158 211.058 53.2774 203.143C58.439 195.227 65.9232 189.871 72.1395 186.491C75.2447 184.802 78.0258 183.61 80.0291 182.841C81.0305 182.457 81.837 182.178 82.3917 181.996C82.4974 181.962 82.594 181.93 82.681 181.903Z" fill="white" stroke="black"/>
<path d="M1.5016 185.856C1.50111 185.892 1.50061 185.941 1.5003 186.002C1.49983 186.095 1.49981 186.217 1.50101 186.365M1.5016 185.856L44.4964 238.947M1.5016 185.856C4.54469 186.445 20.8557 190.073 31.9692 202.02C32.5023 202.589 33.0208 203.178 33.525 203.787L1.5016 185.856ZM1.50101 186.365C1.34576 186.335 1.22015 186.311 1.12616 186.294C1.07461 186.285 1.03257 186.277 1.00038 186.272C1.01681 189.519 1.61785 207.697 12.6969 221.06M1.50101 186.365C1.50175 186.457 1.50295 186.558 1.50479 186.669C1.51445 187.253 1.54176 188.106 1.61244 189.176C1.75385 191.317 2.06871 194.327 2.76234 197.793C4.1509 204.732 7.0504 213.466 13.0818 220.741M1.50101 186.365C1.57117 186.379 1.64739 186.394 1.72948 186.411C2.25693 186.518 3.02648 186.687 3.98935 186.93C5.91547 187.417 8.61309 188.203 11.6926 189.4C17.857 191.796 25.5231 195.825 31.6031 202.361L31.6046 202.363C32.1304 202.923 32.642 203.504 33.1396 204.106L33.1401 204.106C43.6471 216.778 44.638 233.865 44.7162 238.107M12.6969 221.06C22.4508 232.819 37.3697 237.291 42.9812 238.614C43.6089 238.763 44.123 238.871 44.4964 238.947M12.6969 221.06L13.0818 220.741C13.0818 220.741 13.0818 220.741 13.0818 220.741M12.6969 221.06L13.0818 220.741M44.4964 238.947L44.5958 238.457C44.5957 238.457 44.5956 238.457 44.5955 238.457L44.4964 238.947ZM13.0818 220.741L44.7208 238.482M44.7162 238.107C44.7185 238.246 44.72 238.372 44.7208 238.482M44.7162 238.107C44.7162 238.106 44.7161 238.106 44.7161 238.106L45.2161 238.098L44.7162 238.107ZM44.7208 238.482C44.891 238.516 45.0255 238.541 45.1217 238.558C45.1395 238.561 45.1561 238.564 45.1712 238.567C45.19 238.57 45.2067 238.573 45.2214 238.576C45.2229 238.907 45.2188 239.082 45.2188 239.082C45.2188 239.082 45.0449 239.055 44.7202 238.992C44.7207 238.952 44.7212 238.897 44.7215 238.827C44.7219 238.737 44.7218 238.621 44.7208 238.482Z" fill="white" stroke="black"/>
<path d="M37.6903 202.87C48.1376 218.891 45.275 239.268 45.275 239.268C45.275 239.268 25.4739 233.67 15.0265 217.648C4.57916 201.627 7.44175 181.249 7.44175 181.249C7.44175 181.249 27.2429 186.848 37.6903 202.87Z" stroke="black" stroke-width="0.5" stroke-miterlimit="10"/>
<path d="M60.2071 205.681C59.7991 215.122 56.0883 223.544 52.4622 229.62C50.6507 232.655 48.865 235.098 47.5331 236.78C46.8672 237.621 46.3152 238.272 45.9307 238.711C45.8574 238.795 45.7902 238.871 45.7294 238.939C45.6748 238.866 45.6144 238.784 45.5486 238.695C45.2034 238.224 44.7096 237.528 44.1188 236.633C42.937 234.842 41.3686 232.254 39.8258 229.074C36.7373 222.707 33.7669 213.997 34.1749 204.556C34.5829 195.115 38.2936 186.693 41.9198 180.617C43.7312 177.581 45.517 175.139 46.8489 173.456C47.5147 172.615 48.0667 171.965 48.4513 171.525C48.5246 171.442 48.5918 171.366 48.6525 171.298C48.7072 171.371 48.7675 171.452 48.8333 171.542C49.1786 172.013 49.6724 172.709 50.2632 173.604C51.445 175.395 53.0134 177.982 54.5562 181.163C57.6447 187.529 60.6151 196.24 60.2071 205.681Z" fill="white" stroke="black"/>
<path d="M45.6968 239.177L48.8154 171.298" stroke="black" stroke-width="0.5" stroke-miterlimit="10"/>
<circle cx="279.459" cy="54" r="43.4" fill="white" stroke="black" stroke-width="1.2"/>
<circle cx="279.458" cy="54.0001" r="36.6149" stroke="black" stroke-width="0.5"/>
<path fill-rule="evenodd" clip-rule="evenodd" d="M279.753 63.9885L292.273 54.0723L279.753 74.6314L267.232 54.406L279.753 63.9885Z" fill="#E8E8E8"/>
<path fill-rule="evenodd" clip-rule="evenodd" d="M279.753 33.4497L291.631 52.1629L279.699 61.148L268.388 52.48L279.753 33.4497Z" fill="#E8E8E8"/>
<path d="M132.534 121L124.003 122.3L121.7 127.067L124.003 132.7L125.167 134.433L130.367 136.6L135.134 127.933V124.467L138.6 121.867L132.534 121Z" fill="black"/>
<path d="M118.234 121.867L109.703 123.167L107.4 127.933L109.703 133.567L113.9 135.733L116.5 127.933L120.834 125.333L124.3 122.733L118.234 121.867Z" fill="black"/>
<path d="M135.639 133.221L135.551 133.313L135.518 133.437C135.082 135.054 134.757 136.245 134.541 137.031C134.463 137.317 134.399 137.55 134.349 137.73L133.088 137.415L132.639 137.303L132.493 137.742L131.766 139.923C131.446 139.864 131.043 139.799 130.68 139.741C130.494 139.712 130.315 139.684 130.158 139.66L130.843 137.541L131.008 137.032L130.489 136.902C130.123 136.81 129.806 136.729 129.58 136.668C129.509 136.649 129.449 136.632 129.4 136.618C129.352 136.532 129.279 136.392 129.178 136.177C128.971 135.736 128.66 135.003 128.238 133.831L128.083 133.402L127.642 133.516L126.792 133.735L125.502 129.941L126.346 130.152L127.242 130.376L126.94 129.503C126.769 129.009 126.615 128.582 126.488 128.23C126.419 128.038 126.358 127.869 126.307 127.723C126.267 127.61 126.233 127.511 126.204 127.425L133.508 125.503L135.276 130.809C135.304 130.974 135.39 131.1 135.444 131.171C135.521 131.271 135.617 131.364 135.711 131.445C135.901 131.608 136.141 131.774 136.364 131.917C136.477 131.988 136.589 132.057 136.694 132.119L135.639 133.221Z" fill="white" stroke="black"/>
<path d="M133.006 222.952L132 225.5L131.5 228L130 234L136.001 232L136 226L135.668 223.5L133.006 222.952Z" fill="white" stroke="black"/>
<path d="M122.739 141.717L127.137 138.518L135.627 139.462L137.259 144.357L122.739 141.717Z" fill="white" stroke="black"/>
<path d="M126.951 175.566L137.841 192.732L137.947 192.9L137.91 193.095L131.825 224.5H137.125L152.468 196.928L147.601 176.974L126.951 175.566Z" fill="#2A80EA" stroke="black"/>
<path d="M152.955 188.377C158.32 186.685 160.513 190.119 166.5 186L161.5 183.5L151 185L152.955 188.377Z" fill="white" stroke="black"/>
<path d="M103.86 176.058L125.765 140.523L137.65 141.474L152.742 179.446L103.86 176.058Z" fill="white" stroke="black"/>
<path d="M131.638 187.106L154 183.91V190.12L118.216 203.881L108.073 186.6L114.834 173.935L122.961 172.038L131.066 177.759L131.067 186.611L131.067 187.188L131.638 187.106Z" fill="#2A80EA" stroke="black"/>
<path d="M133.613 175L136.854 162.5H129.887L126.646 175H133.613Z" fill="#2A80EA" stroke="black"/>
<path d="M123.34 171.906L123.076 172.105L122.79 171.94L119.483 170.041L115.745 174.605L124.765 180.29L136.457 174.666L127.34 168.888L123.34 171.906Z" fill="white" stroke="black"/>
<path d="M148.34 173.03L149.916 178.153L153.781 180.167L155.872 178.811L153.417 173.174L149.062 170.696L149.489 172.718L149.714 173.782L148.76 173.26L148.34 173.03Z" fill="white" stroke="black"/>
<rect x="303.5" y="117.5" width="31" height="6" rx="3" stroke="black"/>
<rect x="288.077" y="119.652" width="31" height="6" rx="3" transform="rotate(-30 288.077 119.652)" stroke="black"/>
<rect x="231.5" y="117.5" width="31" height="6" rx="3" stroke="black"/>
<path d="M142.477 159.349L142.474 159.342L142.472 159.334L136.206 141.5H137.748L150.06 158.246L156.99 175.34L145.418 168.664L142.477 159.349Z" fill="white" stroke="black"/>
<path d="M131.5 141V162" stroke="black"/>
<path d="M123.188 167.221L107.104 187.562L95.6202 163.637L123.661 140.515L128.638 140.93L114.577 163.233L114.254 163.746L114.819 163.966L123.188 167.221Z" fill="white" stroke="black"/>
<path fill-rule="evenodd" clip-rule="evenodd" d="M347 236H215V222H347V236Z" fill="white" stroke="black"/>
<path d="M124 140.5L114 163.5" stroke="black" stroke-width="0.5"/>
<path d="M112.5 181L120.5 201L154 190" stroke="black" stroke-width="0.5"/>
</svg>
