<svg width="350" height="250" viewBox="0 0 350 250" fill="none" xmlns="http://www.w3.org/2000/svg">
<g clip-path="url(#clip0)">
<path d="M0 0H350V250H0V0Z" fill="white"/>
<path d="M84.4024 232.046L84.88 231.898L84.7646 231.527L84.3761 231.547L84.4024 232.046ZM86.0566 237.375L85.5791 237.523L85.7411 238.044L86.2463 237.837L86.0566 237.375ZM105.619 234.088L105.869 234.52L106.867 233.943L105.764 233.609L105.619 234.088ZM83.2277 247.049L82.7632 247.234L82.9773 247.772L83.4782 247.482L83.2277 247.049ZM77.3984 232.416L77.3721 231.917L76.676 231.954L76.9339 232.601L77.3984 232.416ZM83.9249 232.195L85.5791 237.523L86.5342 237.226L84.88 231.898L83.9249 232.195ZM86.0566 237.375C86.2463 237.837 86.2463 237.837 86.2463 237.837C86.2464 237.837 86.2465 237.837 86.2466 237.837C86.2469 237.837 86.2474 237.837 86.2481 237.836C86.2495 237.836 86.2517 237.835 86.2546 237.834C86.2604 237.831 86.2693 237.828 86.2813 237.823C86.3051 237.813 86.341 237.799 86.3882 237.78C86.4828 237.743 86.623 237.687 86.8042 237.618C87.1667 237.478 87.693 237.281 88.3456 237.05C89.6515 236.588 91.4604 235.993 93.4737 235.461C95.4886 234.928 97.6986 234.461 99.8086 234.251C101.926 234.04 103.904 234.091 105.474 234.566L105.764 233.609C104.011 233.079 101.883 233.039 99.7094 233.256C97.5286 233.473 95.2633 233.954 93.2182 234.494C91.1716 235.035 89.3359 235.639 88.0121 236.107C87.3499 236.341 86.815 236.542 86.4451 236.684C86.2601 236.755 86.1163 236.812 86.0184 236.851C85.9695 236.871 85.932 236.886 85.9065 236.896C85.8938 236.901 85.8841 236.905 85.8775 236.908C85.8742 236.909 85.8716 236.91 85.8699 236.911C85.869 236.911 85.8683 236.911 85.8678 236.912C85.8676 236.912 85.8674 236.912 85.8672 236.912C85.8671 236.912 85.867 236.912 86.0566 237.375ZM105.368 233.655L82.9772 246.616L83.4782 247.482L105.869 234.52L105.368 233.655ZM83.6922 246.864L77.8629 232.231L76.9339 232.601L82.7632 247.234L83.6922 246.864ZM77.4248 232.915L84.4288 232.546L84.3761 231.547L77.3721 231.917L77.4248 232.915Z" fill="black"/>
<path d="M24.2275 222.308L19.6911 231.022C19.6911 231.022 22.2126 234.804 24.0633 238.563C26.7424 244.004 28.2247 249.256 28.2247 249.256L8.93355 232.97L19.5672 216.861L24.2275 222.308Z" stroke="black"/>
<path d="M77.2324 127.659C67.6004 124.153 47.4022 121.006 47.4022 121.006C47.4022 121.006 41.3018 148.489 34.0428 178.095L11.4875 225.847L24.0427 227.882L52.1851 181.5C66.7277 146.885 77.2324 127.659 77.2324 127.659Z" fill="#2A80EA" stroke="black"/>
<path d="M40.311 124.049L75.0005 128.5C75.0005 128.5 77.9149 203.603 86.877 235.423L77.8828 238.042C64.4929 192.536 55.9765 174.994 40.311 124.049Z" fill="#2A80EA" stroke="black"/>
<path d="M68.4998 128.5L82.4999 216" stroke="black" stroke-width="0.5"/>
<path d="M100.73 83.5L103.971 71H96.0041L92.7633 83.5H100.73Z" stroke="black"/>
<path d="M100.73 83.5L103.971 71H97.0041L93.7633 83.5H100.73Z" fill="#2A80EA" stroke="black"/>
<path fill-rule="evenodd" clip-rule="evenodd" d="M57.2006 65.8L53.8506 63.575L51.6006 54.5125L60.4612 51L61.6006 49L70.6113 54.5125L68.0738 55.2375L67.7113 55.6C67.2996 58.3687 61.9341 60.5839 60.4613 61.4L57.2006 65.8Z" fill="black"/>
<path d="M61.9113 73L62.9988 68.3939L66.8006 67.4L67.9628 63.5751C68.0537 63.1212 69.1613 62.8501 69.1613 62.8501C69.1613 62.8501 68.3196 61.1708 68.3494 60.6751L67.6645 55.606L63.7238 59.5876H62.9706L60.4331 57.0501L59.3456 60.6751L60.4613 61.4L57.6006 65L58.6488 68.65L59.0113 72.6375" fill="white"/>
<path d="M61.9113 73L62.9988 68.3939L66.8006 67.4L67.9628 63.5751C68.0537 63.1212 69.1613 62.8501 69.1613 62.8501C69.1613 62.8501 68.3196 61.1708 68.3494 60.6751L67.6645 55.606L63.7238 59.5876H62.9706L60.4331 57.0501L59.3456 60.6751L60.4613 61.4L57.6006 65L58.6488 68.65L59.0113 72.6375" stroke="black"/>
<path d="M70.5 74L69.3253 77.7751L54.5 75.625L57 69L70.5 74Z" fill="white" stroke="black"/>
<path d="M102.965 97.3925L69.9648 104.042L64.9648 97.3925L85.4648 85.0425L102.965 97.3925Z" stroke="black"/>
<path d="M69.999 76L80.4648 130.042L30.4648 125.042L55.499 70.5L69.999 76Z" fill="white" stroke="black"/>
<path d="M64.5 74L80.4648 130.042L30.4648 125.042L55.499 70.5L64.5 74Z" fill="white" stroke="black" stroke-width="0.5"/>
<path d="M104 87.7468L104 77.8831L102.257 78.9287L101.612 79.3162L101.505 78.5707L101.133 75.9625L93.7129 82.2025L95.508 86.8698L95.6266 87.1781L95.3895 87.4082L92.7826 89.9376L96.9932 92.8851L104 87.7468Z" fill="white" stroke="black"/>
<path d="M14.1062 149.287L16.6343 145.383L17.0063 144.808L16.3457 144.628L7.8616 142.322L15.0142 133.27L22.3866 134.987L22.7176 135.064L22.9111 134.785L27.2172 128.565L34.7335 130.333L25.109 147.168L14.1062 149.287Z" stroke="black"/>
<path d="M6 126.5L36.3828 94.0001L56.3828 78.0001L64.3828 81.0001L49.3828 103L38.501 135.549L6 126.5Z" fill="white" stroke="black"/>
<path d="M56.5 78L49 103" stroke="black" stroke-width="0.5"/>
<rect x="139.624" y="5.62368" width="118.5" height="235.753" rx="21.8289" fill="white" stroke="black" stroke-width="1.24737"/>
<rect x="145.487" y="11.4868" width="106.774" height="224.026" rx="17.2132" fill="white" stroke="black" stroke-width="0.5"/>
<rect x="154.468" y="37.9316" width="89.4543" height="45.3868" rx="5.5" fill="#2A80EA" stroke="#2A80EA"/>
<rect x="162.5" y="45.5" width="16" height="6" rx="1.5" stroke="white"/>
<rect x="220.5" y="70.5" width="16" height="6" rx="1.5" stroke="white"/>
<rect x="162.5" y="54.5" width="51" height="6" rx="1.5" stroke="white"/>
<path d="M273.5 176H334C341.456 176 347.5 182.044 347.5 189.5C347.5 196.956 341.456 203 334 203H273.5V176Z" fill="white" stroke="black"/>
<path d="M324.5 146C324.5 140.753 320.247 136.5 315 136.5H212.5V241.5H315C320.247 241.5 324.5 237.247 324.5 232V146Z" fill="white" stroke="black"/>
<path d="M318.75 150C318.75 145.72 315.28 142.25 311 142.25H214.25V235.75H311C315.28 235.75 318.75 232.28 318.75 228V150Z" fill="white" stroke="black" stroke-width="0.5"/>
<path d="M313 155.5C313 153.291 311.209 151.5 309 151.5H232C229.791 151.5 228 153.291 228 155.5V166.5H313V155.5Z" fill="#2A81EA"/>
<path opacity="0.15" fill-rule="evenodd" clip-rule="evenodd" d="M313 166.411V154.81C313 152.982 311.518 151.5 309.69 151.5H299.25C299.086 152.308 299 153.144 299 154C299 160.904 304.596 166.5 311.5 166.5C312.008 166.5 312.508 166.47 313 166.411Z" fill="white"/>
<path fill-rule="evenodd" clip-rule="evenodd" d="M306.657 159.089C306.672 159.099 306.689 159.103 306.708 159.103C306.727 159.103 306.744 159.099 306.761 159.088L308.576 157.925C308.619 157.897 308.633 157.839 308.608 157.794L308.607 157.793L306.792 154.686C306.775 154.657 306.742 154.638 306.708 154.638C306.674 154.638 306.641 154.655 306.624 154.685L304.752 157.793C304.724 157.838 304.738 157.897 304.783 157.925L306.657 159.089Z" fill="#2A80EA"/>
<path fill-rule="evenodd" clip-rule="evenodd" d="M304.822 158.586L306.642 160.984C306.659 161.008 306.688 161.022 306.719 161.022C306.75 161.022 306.778 161.008 306.797 160.984L308.561 158.585C308.589 158.548 308.585 158.495 308.553 158.46C308.52 158.426 308.469 158.42 308.43 158.447L306.718 159.543L304.951 158.444C304.91 158.419 304.859 158.426 304.826 158.462C304.795 158.496 304.794 158.549 304.822 158.586Z" fill="#2A80EA"/>
<path d="M313 176.5C313 174.291 311.209 172.5 309 172.5H232.142C229.933 172.5 228.142 174.291 228.142 176.5V189.165H313V176.5Z" fill="#FAC166"/>
<path opacity="0.15" fill-rule="evenodd" clip-rule="evenodd" d="M313 187.411V175.81C313 173.982 311.518 172.5 309.69 172.5H299.25C299.086 173.308 299 174.144 299 175C299 181.904 304.596 187.5 311.5 187.5C312.008 187.5 312.508 187.47 313 187.411Z" fill="white"/>
<path d="M313 199.5C313 197.291 311.209 195.5 309 195.5H232.142C229.933 195.5 228.142 197.291 228.142 199.5V212.165H313V199.5Z" fill="#2F3133"/>
<path opacity="0.15" fill-rule="evenodd" clip-rule="evenodd" d="M313 210.411V198.81C313 196.982 311.518 195.5 309.69 195.5H299.25C299.086 196.308 299 197.144 299 198C299 204.904 304.596 210.5 311.5 210.5C312.008 210.5 312.508 210.47 313 210.411Z" fill="white"/>
<circle cx="334.5" cy="190" r="5" stroke="#101010"/>
<path d="M228.881 123.284C231.185 121.531 234.5 123.174 234.5 126.07V218.052C234.5 221.644 232.822 225.029 229.964 227.204L212.5 240.491V135.748L228.881 123.284Z" fill="white" stroke="black"/>
</g>
<defs>
<clipPath id="clip0">
<path d="M0 0H350V250H0V0Z" fill="white"/>
</clipPath>
</defs>
</svg>
