<svg width="24" height="24" viewBox="0 0 24 24" fill="none" xmlns="http://www.w3.org/2000/svg">
<g clip-path="url(#clip0)">
<path fill-rule="evenodd" clip-rule="evenodd" d="M9.23618 2.00174C9.78538 1.98565 10.5249 2.08305 11.2551 2.2244C11.6811 2.30684 12.1066 2.40879 12.513 2.54497C13.299 2.80839 14.0425 3.14657 14.7231 3.58229C15.1958 3.88497 15.6309 4.21963 16.0307 4.59421C16.5814 5.1101 17.0336 5.86022 17.3693 6.49518C17.6112 6.95256 17.7998 7.42706 17.8799 7.92931C17.8915 8.00202 17.9093 8.07399 17.9271 8.14598L17.9271 8.14605C17.9435 8.21254 17.9599 8.27905 17.9715 8.34615C17.997 8.49402 18.0506 8.90507 17.8799 8.92308C17.4879 8.96442 17.1377 8.99166 16.812 9.01699L16.812 9.017C15.2286 9.14016 14.2233 9.21836 11.7937 10.6538C9.54729 12.3846 9.45789 14.0541 9.52314 15.5462C9.53553 15.8295 9.53235 15.8391 9.21063 15.8075C8.96332 15.7833 8.71655 15.7546 8.4698 15.726L8.46972 15.726C8.14295 15.688 7.81621 15.6501 7.48826 15.6224C7.11495 15.5909 6.73237 15.5621 6.36329 15.5999C6.11953 15.6249 5.87896 15.7498 5.65994 15.8635L5.65688 15.865C5.20213 16.101 4.75221 16.3439 4.30229 16.5868L4.30211 16.5869L4.30176 16.5871C4.06221 16.7164 3.82266 16.8458 3.58238 16.974C3.54551 16.9937 3.48372 17.0084 3.45087 16.9946C3.42427 16.9834 3.40643 16.9231 3.41419 16.8896C3.49794 16.5269 3.58395 16.1645 3.67673 15.8035C3.71228 15.6651 3.7518 15.5274 3.79132 15.3898L3.79133 15.3898C3.82816 15.2615 3.865 15.1332 3.89862 15.0043C3.96855 14.7361 3.82954 14.5329 3.60031 14.3701C3.5179 14.3115 3.43123 14.2571 3.34461 14.2028L3.34459 14.2028C3.22819 14.1298 3.11188 14.0569 3.00612 13.9739C2.62702 13.6761 2.25267 13.3727 1.89564 13.0556C1.68568 12.8691 1.50368 12.6573 1.32489 12.4469C0.841501 11.8782 0.495538 11.2488 0.270922 10.5726C0.067857 9.96119 -0.0326578 9.6005 0.00946144 8.96429C0.0363436 8.55808 0.118551 7.89262 0.233263 7.49449C0.37005 7.01976 0.541626 6.55764 0.795095 6.12369C1.00882 5.7578 1.24323 5.39508 1.52161 5.0642C2.21015 4.2459 3.08431 3.60072 4.12147 3.12594L4.23706 3.07291C4.57634 2.91705 4.9172 2.76047 5.27352 2.64022C5.72366 2.4883 6.1912 2.37093 6.65842 2.26156C7.43429 2.07998 8.22816 2.00069 9.23618 2.00174ZM6.56669 7.11457C6.56815 6.66642 6.12727 6.3019 5.58664 6.29479C5.0091 6.28721 4.58786 6.66825 4.58209 7.12891C4.57631 7.58772 5.01286 7.954 5.53255 7.95393C6.14598 7.95388 6.56506 7.61476 6.56669 7.11457ZM12.9971 7.12186C12.9917 7.63371 12.5719 7.9573 12.0186 7.95812C11.4197 7.95333 11.0007 7.60017 11.0089 7.107C11.0161 6.67271 11.4888 6.28914 12.0111 6.29374C12.5692 6.29867 13.002 6.65671 12.9971 7.12186Z" fill="#43454F"/>
<path fill-rule="evenodd" clip-rule="evenodd" d="M10.5088 15.1718C10.4811 14.6381 10.6229 14.0952 10.8637 13.5746C11.1727 12.9067 11.6394 12.3217 12.2513 11.8236C12.9166 11.282 13.6694 10.8578 14.5304 10.5702C15.04 10.4 15.5648 10.2888 16.1026 10.2124C16.7497 10.1205 17.4017 10.1276 18.0497 10.1771C18.5356 10.2142 19.0199 10.2895 19.4812 10.4382C19.5603 10.4637 19.6396 10.4889 19.7189 10.5142C19.9943 10.6018 20.2698 10.6895 20.5394 10.7886C20.9909 10.9546 21.4082 11.1739 21.7743 11.454L21.8268 11.4941C22.1187 11.7172 22.4124 11.9417 22.6698 12.1918C22.8765 12.3928 23.043 12.6255 23.2075 12.8556L23.2468 12.9104C23.3758 13.0904 23.4988 13.2793 23.5787 13.4776C23.7134 13.8119 23.8187 14.1554 23.9221 14.4981C23.9612 14.6276 23.9748 14.7633 23.9883 14.8976V14.8976L23.992 14.9348C24.0528 15.53 23.9488 16.1066 23.7273 16.6723C23.4964 17.262 23.1353 17.7861 22.6471 18.2452C22.51 18.374 22.3646 18.4965 22.2192 18.619L22.2192 18.619C22.0865 18.7308 21.9538 18.8426 21.8274 18.9593C21.6236 19.1474 21.4626 19.3685 21.4944 19.6349C21.5082 19.7499 21.5551 19.862 21.6021 19.974C21.6219 20.0214 21.6417 20.0687 21.659 20.1162C21.6743 20.1582 21.6905 20.2 21.7067 20.2417C21.7367 20.319 21.7666 20.3963 21.7908 20.4748C21.8008 20.5069 21.7859 20.5631 21.7585 20.5794C21.7321 20.5952 21.6694 20.583 21.6322 20.5671C21.5131 20.5159 21.395 20.4628 21.277 20.4097L21.277 20.4097C21.0671 20.3153 20.8573 20.221 20.6415 20.1378C20.1607 19.9525 19.6585 19.8898 19.1365 20.0081C19.0374 20.0306 18.9385 20.0546 18.8395 20.0786L18.8394 20.0786C18.5563 20.1473 18.2728 20.216 17.984 20.2493C17.5632 20.2979 17.1322 20.2965 16.706 20.2927C16.2109 20.2884 15.7215 20.2145 15.2464 20.1021C14.6304 19.9564 14.047 19.7402 13.5051 19.4451C13.0419 19.1929 12.6076 18.9111 12.2236 18.577C12.1018 18.4711 11.9903 18.3566 11.8788 18.242C11.8237 18.1855 11.7686 18.1289 11.7122 18.0734C11.4039 17.7693 11.1742 17.423 10.9795 17.061C10.6629 16.4725 10.496 15.8541 10.5088 15.1718ZM15.9934 14.8209C15.9949 14.3727 15.554 14.0082 15.0133 14.0011C14.4358 13.9935 14.0146 14.3745 14.0088 14.8352C14.003 15.294 14.4396 15.6603 14.9593 15.6602C15.5727 15.6602 15.9918 15.3211 15.9934 14.8209ZM20.4248 14.8282C20.4194 15.34 19.9996 15.6636 19.4463 15.6644C18.8474 15.6596 18.4284 15.3065 18.4366 14.8133C18.4438 14.379 18.9165 13.9954 19.4388 14C19.9969 14.005 20.4297 14.363 20.4248 14.8282Z" fill="#43454F"/>
</g>
<defs>
<clipPath id="clip0">
<rect width="24" height="24" fill="white"/>
</clipPath>
</defs>
</svg>
