<svg width="24" height="24" viewBox="0 0 24 24" fill="none" xmlns="http://www.w3.org/2000/svg">
<g clip-path="url(#clip0)">
<path fill-rule="evenodd" clip-rule="evenodd" d="M17.92 11.2992C17.5336 12.0333 17.9393 11.9754 17.9393 11.9754C21.185 12.555 21.0305 15.2984 21.0305 15.2984C21.0305 15.2984 21.1464 17.9259 17.5916 19.8965C14.0368 21.8671 12.5001 22 9.0001 22C4.5001 21.5 1.78803 19.3555 1.24708 17.1531C0.706111 14.9506 0.988441 13.323 3.50002 10C6.01159 6.67702 9.40002 5.87036 9.40002 5.87036C11.3513 5.19416 12.1241 6.39199 12.1241 6.39199C12.1241 6.39199 12.7037 7.2034 12.3559 8.28532C12.0377 9.27542 12.2048 9.26235 12.3243 9.253C12.3354 9.25213 12.3461 9.2513 12.3559 9.2513C12.4718 9.2513 12.781 9.13539 12.781 9.13539L14.8288 8.55579C17.6882 7.89894 18.0746 9.59907 18.0746 9.59907C18.0746 9.59907 18.3064 10.565 17.92 11.2992ZM10.1725 20.5361C13.7487 20.2232 16.4917 18.1855 16.2992 15.9848C16.1066 13.7841 13.0515 12.2537 9.47528 12.5665C5.89909 12.8794 3.1561 14.9171 3.34864 17.1178C3.54118 19.3186 6.59634 20.849 10.1725 20.5361Z" fill="#43454F"/>
<path d="M9.01613 14.0926C7.66179 14.4636 6.78052 15.8422 7.04776 17.1718C7.31499 18.5014 8.62953 19.2784 9.98387 18.9074C11.3382 18.5364 12.2195 17.1578 11.9522 15.8282C11.685 14.4987 10.3705 13.7216 9.01613 14.0926Z" fill="#43454F"/>
<path d="M14.8158 3.16058C14.273 3.26237 13.9154 3.78494 14.0172 4.32776C14.119 4.87058 14.6416 5.22811 15.1844 5.12631L14.8158 3.16058ZM21.0001 5.89345L20.2192 6.51812L21.0001 5.89345ZM21.5137 11.2292C21.4229 11.7739 21.791 12.2892 22.3357 12.3799C22.8805 12.4707 23.3957 12.1027 23.4865 11.558L21.5137 11.2292ZM15.0001 4.14345C15.1844 5.12631 15.1841 5.12637 15.1838 5.12643C15.1837 5.12644 15.1834 5.1265 15.1833 5.12653C15.1829 5.12659 15.1827 5.12664 15.1825 5.12668C15.1821 5.12675 15.1819 5.12679 15.1819 5.12678C15.182 5.12676 15.1831 5.12657 15.185 5.12623C15.1889 5.12554 15.1964 5.12425 15.2073 5.12245C15.2292 5.11887 15.2648 5.11331 15.3126 5.10671C15.4083 5.09351 15.5522 5.07627 15.7331 5.06236C16.0969 5.03436 16.5984 5.02073 17.1506 5.07594C18.2813 5.189 19.4619 5.57142 20.2192 6.51812L21.781 5.26877C20.5383 3.71535 18.7189 3.22278 17.3496 3.08586C16.6518 3.01609 16.0283 3.03373 15.5796 3.06825C15.3542 3.0856 15.1701 3.10743 15.0392 3.12548C14.9737 3.13451 14.9214 3.14263 14.8837 3.14881C14.8649 3.1519 14.8497 3.15451 14.8383 3.15651C14.8326 3.15751 14.8279 3.15836 14.8241 3.15905C14.8222 3.15939 14.8206 3.15969 14.8192 3.15994C14.8185 3.16007 14.8179 3.16019 14.8173 3.16029C14.817 3.16035 14.8166 3.16042 14.8165 3.16044C14.8161 3.16051 14.8158 3.16058 15.0001 4.14345ZM20.2192 6.51812C21.0692 7.58068 21.3967 8.76034 21.507 9.69789C21.5619 10.1647 21.5616 10.5614 21.5482 10.837C21.5415 10.9744 21.5316 11.0803 21.524 11.1481C21.5201 11.182 21.5169 11.2063 21.515 11.2201C21.514 11.227 21.5134 11.2313 21.5131 11.2328C21.513 11.2336 21.513 11.2337 21.5131 11.2331C21.5131 11.2328 21.5132 11.2323 21.5133 11.2316C21.5134 11.2313 21.5134 11.2309 21.5135 11.2305C21.5135 11.2303 21.5136 11.23 21.5136 11.2299C21.5137 11.2295 21.5137 11.2292 22.5001 11.3936C23.4865 11.558 23.4866 11.5576 23.4866 11.5572C23.4867 11.557 23.4867 11.5566 23.4868 11.5563C23.4869 11.5557 23.487 11.5551 23.4871 11.5544C23.4873 11.553 23.4876 11.5514 23.4879 11.5497C23.4884 11.5462 23.4891 11.5419 23.4899 11.5369C23.4914 11.527 23.4933 11.5141 23.4955 11.4984C23.4999 11.4671 23.5055 11.4244 23.5114 11.3714C23.5234 11.2654 23.5369 11.1174 23.5458 10.9345C23.5636 10.5694 23.5634 10.0599 23.4933 9.4642C23.3536 8.27673 22.931 6.70633 21.781 5.26877L20.2192 6.51812Z" fill="#43454F"/>
</g>
<defs>
<clipPath id="clip0">
<rect width="24" height="24" fill="white"/>
</clipPath>
</defs>
</svg>
