<svg width="54" height="54" viewBox="0 0 54 54" fill="none" xmlns="http://www.w3.org/2000/svg">
<path d="M36.5291 21.0444H17.4702C16.1545 21.0444 15.0879 22.111 15.0879 23.4268V35.3386C15.0879 36.6543 16.1545 37.7209 17.4702 37.7209H36.5291C37.8448 37.7209 38.9114 36.6543 38.9114 35.3386V23.4268C38.9114 22.111 37.8448 21.0444 36.5291 21.0444Z" stroke="#43454F" stroke-width="2" stroke-linecap="round" stroke-linejoin="round"/>
<path d="M31.7657 37.7205V18.6616C31.7657 18.0298 31.5147 17.4238 31.068 16.9771C30.6212 16.5303 30.0152 16.2793 29.3834 16.2793H24.6187C23.9868 16.2793 23.3809 16.5303 22.9341 16.9771C22.4873 17.4238 22.2363 18.0298 22.2363 18.6616V37.7205" stroke="#43454F" stroke-width="2" stroke-linecap="round" stroke-linejoin="round"/>
<circle opacity="0.4" cx="27" cy="27" r="26" stroke="#43454F" stroke-width="2"/>
</svg>
