<svg width="24" height="24" viewBox="0 0 24 24" fill="none" xmlns="http://www.w3.org/2000/svg">
<path fill-rule="evenodd" clip-rule="evenodd" d="M17.2936 18.6041C19.7249 17.6134 21.6235 15.704 22.5417 13.3259C23.6323 10.051 22.7428 6.46546 20.2319 4.01464C16.4573 0.313105 9.47012 0.0241213 5.27073 3.12644C-0.176516 7.16372 -0.47742 14.3076 4.73973 18.5956C7.18679 20.6015 10.9702 21.8636 15.1519 21.7956C15.2399 21.7923 15.32 21.7458 15.364 21.6724C15.408 21.5991 15.4098 21.5093 15.3687 21.4344C15.2378 21.2103 15.0991 20.9518 14.9811 20.7316C14.8797 20.5426 14.7935 20.3819 14.7404 20.2955C14.4306 19.8025 14.643 19.5518 15.2271 19.3775C15.9297 19.1549 16.6195 18.8967 17.2936 18.6041ZM12.1387 15.5448C15.4495 15.0541 18.9892 12.2513 18.1717 6.90867L18.1758 6.88904C18.1595 6.80268 18.1022 6.75165 18.0082 6.75165C17.9911 6.74565 17.9723 6.74565 17.9551 6.75165C15.5231 6.45723 13.0788 8.10595 12.4207 8.77328L12.2858 8.92245C12.2391 8.97456 12.198 9.03112 12.1632 9.09125C12.1404 9.1204 12.1212 9.15202 12.106 9.18546C12.0698 9.26578 12.0543 9.35333 12.061 9.44062C12.1812 10.9842 11.0395 12.3548 9.44507 12.581C7.97359 12.8126 6.83729 11.949 6.66153 10.8695C6.48577 9.78999 7.20515 9.38959 7.52397 9.2993C7.74406 9.21519 7.99216 9.23269 8.19709 9.34679C8.40201 9.46089 8.5411 9.65898 8.57445 9.8842C8.61997 10.0799 8.60111 10.1851 8.58189 10.2922C8.56487 10.3871 8.54757 10.4835 8.57445 10.6457C8.66354 10.996 9.02345 11.2172 9.39193 11.1482C9.82929 11.0893 10.4015 10.6693 10.238 9.73896C10.0745 8.80861 8.9791 8.12165 7.81418 8.29045C6.64926 8.45924 5.22684 9.53091 5.59879 11.7567C6.03206 14.4574 9.06494 16.0158 12.1387 15.5448Z" fill="#43454F"/>
</svg>
