<?xml version="1.0" encoding="utf-8"?>
<!-- Generator: Adobe Illustrator 25.2.1, SVG Export Plug-In . SVG Version: 6.00 Build 0)  -->
<svg version="1.1" id="Layer_1" xmlns="http://www.w3.org/2000/svg" xmlns:xlink="http://www.w3.org/1999/xlink" x="0px" y="0px"
	 viewBox="0 0 61.2 54.9" style="enable-background:new 0 0 61.2 54.9;" xml:space="preserve">
<style type="text/css">
	.st0{fill:#EC202C;}
	.st1{fill:#E69564;}
	.st2{fill:#FFFFFF;}
	.st3{fill:#FEDD00;}
	.st4{opacity:0.44;fill:#C16F50;enable-background:new    ;}
	.st5{opacity:0.63;fill:#B82025;enable-background:new    ;}
	.st6{opacity:0.82;fill:#C6DFEC;enable-background:new    ;}
	.st7{opacity:0.42;}
	.st8{fill:#7B8D97;}
	.st9{opacity:0.59;fill:#C6DFEC;enable-background:new    ;}
	.st10{opacity:0.42;fill:#F1C3A1;enable-background:new    ;}
	.st11{opacity:0.88;fill:#F1C3A1;enable-background:new    ;}
	.st12{fill:#193441;}
</style>
<g>
	<g id="Layer_1_1_">
		<path class="st0" d="M51.9,33.3c0.1,0.3,0.2,0.5,0.5,0.6c0.1,0.1,0.2,0.1,0.3,0.1c-0.5,1.5-1.1,3-1.9,4.3
			c-0.1-0.2-0.3-0.3-0.6-0.4c-0.3-0.1-0.5,0-0.8,0.1c-1.4,0.8-2.4,2.2-2.7,3.7c-0.1,0.3,0,0.5,0.2,0.8c0.1,0.1,0.1,0.2,0.2,0.3
			c-1.3,1.2-2.8,2.2-4.3,3.1c0-0.1-0.1-0.2-0.2-0.3c-0.1-0.1-0.3-0.3-0.5-0.3c1.5-1.1,2.7-2.4,3.6-4c0.3-0.3,0.6-0.6,0.8-0.9
			c3.3-3.8,5.1-9,5.4-15.6c0.6,0.4,1.3,0.7,2,0.9c0,1-0.1,1.9-0.2,2.8c-0.2,0-0.4,0-0.5,0c-0.3,0.1-0.5,0.2-0.6,0.5
			C51.8,30.1,51.5,31.8,51.9,33.3z"/>
		<path class="st1" d="M38.5,43.9c-4.2,0-8.5-6.2-11.7-4.5c2.3,0.2,4.7,3.3,7.6,5.3c-1.3,0.2-2.6,0.3-3.9,0.3
			c-1.3,0-2.5-0.2-3.7-0.6c1-0.7,2.3-1.2,3.5-1.4c-3.1-1.1-6.5,2.6-8.4,1.6c-1.9-1-1.8-3.8-1.3-5c-1.5-0.2-2.4,2.6-1.6,4.7
			c-2.2,0.6-5.1-0.4-5.1-3.3c0-1.3,0.3-2.6,0.9-3.8c1.7-0.7,3.7-0.9,5.5-0.5c0.6-2.9-5.7-2.1-7.9,0.1c-1.6-2.8,2.1-5.4,6.6-5.4
			c8.5,0,11.6,8,17.6,8c6.2,0,7.3-11,7.4-13.9c0.6,0.6,1.1,1.2,1.4,2c0,0,0.6-4.6-4.7-4.6c-4,0-7.9,2-11.2,3.9
			c-0.3-0.3-0.6-0.6-0.9-0.9c0,0.5,0,0.9,0,1.4c-2.6,1.5-4.7,2.8-6,2.6c-2.6-0.4-3.1-2.5-2.1-4.2c-1.2-0.3-2.1,1.7-1.6,3.4
			c-1.1,0.4-2.2,0.5-3.3,0.3c-0.2-0.7-0.2-1.5,0.1-2.3l0.4-1l-1,0.3c-0.5,0.1-1,0.4-1.4,0.7c-0.1-0.3-0.1-0.6-0.1-0.9
			c0-2.9,2.5-4.3,3.8-4.8c0.8,1.4,1.9,2.5,3.2,3.4c0.3,0.2,0.6,0.2,0.9,0.1c1.9-0.8,3.5-2.1,4.6-3.8c0.1-0.2,0.1-0.5,0-0.8
			c3.2-0.7,4.8,0.9,5.5,3.2c0.1-0.6,0.2-1.2,0.1-1.7c0.9-0.7,5.2-3.1,9.1-3.1c4.1,0,6.3,4.1,6.3,11.6C46.9,35.2,43.6,43.9,38.5,43.9
			z"/>
		<path class="st0" d="M37.5,47.8c-2.2,0.5-4.5,0.7-6.8,0.7l0,0c0-0.1,0-0.1,0-0.2c-0.1-0.3-0.3-0.5-0.5-0.6
			c-0.8-0.5-1.7-0.7-2.7-0.8c-0.6,0-1.2,0.1-1.8,0.3c-0.2,0.1-0.4,0.2-0.5,0.4c-1.2-0.3-2.3-0.8-3.3-1.4c1.1,0,2.1-0.2,3-0.8
			c1.7,0.9,3.6,1.4,5.5,1.3c2.2,0,4.5-0.2,6.6-0.7c0.4,0.1,0.7,0.2,1.1,0.2l-0.4,0.3c-0.2,0.2-0.3,0.4-0.3,0.7
			C37.4,47.5,37.4,47.7,37.5,47.8z"/>
		<path class="st2" d="M56.2,31.7l-2.9,0.8c-0.2-0.8,0-1.7,0.4-2.4L56.2,31.7z M51.4,42.2l-2.9-0.5c0.2-0.8,0.7-1.5,1.4-2L51.4,42.2
			z M41.4,46.6l-0.3,3l-2-2.2C39.8,46.9,40.6,46.6,41.4,46.6z M29,48.8l-1.5,2.6l-1-2.8c0.3-0.1,0.6-0.1,0.9-0.1
			C28,48.4,28.5,48.5,29,48.8z M16,45.5c0.6,0.1,1.1,0.1,1.7,0l-1.9,1.2L16,45.5z"/>
		<path class="st2" d="M14.7,30.5c-0.7,0.2-1.4,0.5-2,0.8c0-0.8,0.1-1.6,0.5-2.3c0.2-0.4,0.6-0.8,0.9-1.1
			C14.1,28.8,14.3,29.7,14.7,30.5z"/>
		<path class="st2" d="M25,31.1c1-0.4,2-0.8,2.9-1.4c-0.3,0.8-0.7,1.5-1.2,2.2C26.2,31.6,25.6,31.3,25,31.1z"/>
		<path class="st2" d="M35.1,32.1c1.4-0.6,2.8-1.5,4.1-2.4c0.1,1,0.2,2,0.1,3c0.4-1.1,0.5-2.3,0.4-3.4c0.6-0.5,1.1-0.9,1.6-1.5
			c-0.5,0.4-1.1,0.7-1.7,1c-0.2-0.9-0.6-1.8-1.3-2.5c0.3,0.9,0.5,1.9,0.7,2.8c-1.3,0.7-2.7,1.3-4.1,1.8c-0.2-1.1-0.7-2.2-1.4-3.1
			c0.3,1.1,0.5,2.2,0.7,3.3c-0.9,0.3-1.8,0.5-2.7,0.7c-0.1-1.3-0.5-2.6-1.2-3.7c3-1.8,6.2-3.6,10.2-3.6c0.6,0,1.1,0,1.7,0.2
			c-0.2,5.2-2.4,12.4-5.9,12.4c-1.8,0-3.3-0.9-4.9-2.1c0.1-0.5,0.1-1.1,0.2-1.6c0.9-0.3,1.9-0.6,2.8-1c0.1,1.1,0.1,2.2,0,3.3
			C34.9,34.6,35.1,33.3,35.1,32.1z"/>
		<path class="st2" d="M30.4,34.2c-0.8-0.6-1.6-1.2-2.5-1.7c0.8-1.2,1.2-2.6,1.3-4C30.4,30.1,30.9,32.2,30.4,34.2z"/>
		<path class="st2" d="M17.7,19.4c-0.2,0.1-0.4,0.3-0.6,0.5c-0.4,0.1-0.8,0.2-1.2,0.4c-0.7-1.4-0.6-3.1,0.3-4.4
			c0.5,0.3,1,0.5,1.6,0.6C17.1,17.3,17.1,18.5,17.7,19.4z"/>
		<path class="st2" d="M34.1,13.4c-1.9,0.2-3.4,1.9-3.2,3.8c0,0.9,0.3,1.8,0.8,2.5c-0.3,0.2-0.5,0.3-0.7,0.4
			c-1.2-1.7-3.8-2.4-7.4-1.4c-0.2-0.1-0.4-0.1-0.6-0.2c0-0.3,0-0.6,0-0.9c0.2,0,0.4,0,0.6,0c3.2,0,10.7-7.1,15.6-8.4
			c0.4,1,1.2,3.5,0,7.6c-0.6,0.1-1.2,0.2-1.8,0.3c0-0.8-0.2-1.7-0.7-2.4c0,0.6-0.5,1.1-1.1,1.1c-0.6,0-1.1-0.4-1.1-1s0.4-1.1,1-1.1
			C35,13.5,34.6,13.4,34.1,13.4z"/>
		<path class="st3" d="M20.9,18c-0.6,0-1.1-0.5-1.1-1.1c0-0.2,0-0.3,0.1-0.5c0.4-0.1,0.7-0.1,1.1-0.2c0.2,0.5,0.5,0.9,0.9,1.1
			C21.8,17.7,21.4,18,20.9,18z"/>
		<path class="st1" d="M2.7,14.7c2.6-0.3,5.1-1.2,7.3-2.7c-0.7,1.3-1.6,2.4-2.6,3.5c4.5,0.2,6.9-8.1,7.7-9.7c1.1,0.1,2.1,0.6,3,1.3
			c-0.9,1.1-1.2,2.1-0.7,2.7c3.3-4.2,8.4-6.7,13.8-6.6c1.2,0,2.4,0.2,3.4,0.8c-4.4,2.5-7.1,5.8-8.3,5.9c-0.5,0.1-1.1-0.1-1.5-0.5
			c0,0,0.2,1.6,1.5,1.5c2.9-0.2,10.4-7.5,14.6-7.5c2.7,0,4.3,2.7,4.3,2.7c0.1-0.8-0.1-1.7-0.5-2.4c1.6-0.8,3.3-1.3,5-1.5
			c-0.2,4.1,1.3,8.9,4.2,8.6c-0.9-1.5-1.5-3.2-1.7-4.9c1.4-0.1,4.2-0.1,6.1,1.8c-2.7,5.1-3,11-0.8,16.3c-6.7,1.2-8.8-7.9-8.4-10
			c-0.9,0-1.5,1.2-1.5,2.8c0,2.4,0.9,4.7,2.5,6.5c0,3.1-0.4,6.2-1.3,9.2c0.1-0.7,0.1-1.4,0.1-2.1c0-4.9-0.5-13.2-8.1-13.5
			c1-2.2,1.1-4.4,0.6-7.5c0.9,0.3,1.6,0.8,2.3,1.5c0,0,0.3-3.8-3.3-3.8c-5.4,0-14.1,9.2-16.8,9.2c-0.8,0-1.3-0.2-1.3-1.1
			c0.1-0.7,0.3-1.3,0.8-1.8c-0.8-0.5-1.7,0-2.1,1.1c-3.5,0.8-5.1-0.4-4.9-2.4c-1.3-0.3-2.1,1.6-1.2,2.9c-1.1,1.1-1.6,2.7-1.5,4.3
			C7.2,20.5,3.9,18,2.7,14.7z"/>
		<path class="st1" d="M13.6,21.6c-1.4,1.1-2.1,2.8-2.1,4.5c0,0.9,0.2,1.9,0.6,2.7c-0.5,1-0.6,2.2-0.4,3.3c-1.7,1.7-1.7,4.4-0.1,6.1
			c0,0,0,0,0.1,0.1l0.9-0.4c-0.3,0.8-0.5,1.7-0.5,2.6c-2.3-0.5-3.4-3.4-3.4-7C8.7,28.6,10.2,23.3,13.6,21.6z"/>
		<path class="st4" d="M49.6,20.7L48.5,16l0.7-2.1c-2.7,0-2.6,6.2-2.6,6.2l1.5,7.6v7.1l1.5-2.6l1.6-5.8l0.3,0.2
			c0-1.4,0.1-2.9,0.2-4.3L49.6,20.7z"/>
		<path class="st5" d="M55.1,25l-3.5-2.7c-0.2,1.4-0.2,2.9-0.2,4.3c1.1,0.6,2.4,1,3.6,1.3L55.1,25z"/>
		<path class="st6" d="M30.3,28.8l-1.2-0.7c0.6,1.8,0.7,3.8,0.2,5.7l1.6,1.4l0.3-2.7L30.3,28.8z"/>
		<path class="st5" d="M50.4,32l-3.8,6.2l-4.1,5.4l-3.8,1.5l-7.2,0.6l-5.9-1L23,45.4h-3.1h-0.2c0,0.3,0.1,0.6,0.1,0.9l4.1,1.9
			l2.2-0.2H27c0.1-0.1,0.1-0.1,0.2-0.1c0.7-0.3,1.5,0.1,2.3,0.5v0.2c0.2,0,0.4,0.2,0.5,0.3s0,0.3-0.1,0.5l7.4-0.2l1-1.8l0.9-0.4l0,0
			c0.1-0.2,0.3-0.4,0.5-0.6c0.6-0.4,1.4-0.2,2,0v0.1c0.2,0.1,0.3,0.2,0.5,0.3l0.7,0.3l5.3-3.7l-0.5-2l0.9-1c0,0,1.4-1.4,2.3-1
			C51.1,36.8,51,34.4,50.4,32z"/>
		<g class="st7">
			<path class="st8" d="M41.9,46.3v-0.1c-0.7-0.2-1.5-0.4-2,0c-0.2,0.1-0.4,0.3-0.5,0.6l0,0l1.1-0.5l0.7,4l1.3-3l0.6-0.4l-0.7-0.3
				C42.2,46.5,42.1,46.4,41.9,46.3z"/>
			<path class="st8" d="M30,48.7c-0.1-0.1-0.2-0.4-0.5-0.3v-0.2c-0.8-0.4-1.6-0.8-2.3-0.5c-0.1,0-0.1,0.1-0.2,0.1h0.7l-0.3,4.6
				l1.7-3.2h0.8C30,49.1,30.1,48.9,30,48.7z"/>
			<path class="st8" d="M16,44.6l-1,1V48l4.2-2l0.4,0.2c0-0.3-0.1-0.6-0.1-0.9L16,44.6z"/>
			<polygon class="st8" points="48.7,40.3 52.3,42.7 51,39.3 50.1,38.8 			"/>
			<polygon class="st8" points="52.8,31 57.1,32 54.5,29.3 53.5,29.1 			"/>
		</g>
		<path class="st4" d="M40.8,22c-8.2,0-14.1,6.6-18.2,6.6c-1.2,0-2.6-0.3-2.3-2.8c-0.6,0.6-1,1.3-1.1,2.1c-1.3,0.6-2.8,0.7-4.2,0.2
			c0.1,1,0,2.1,0.2,3.1l3.3-1l5.5-0.2l5.5-2.6l2.6-1.5l7.6-1.9l3.4,0.2v1.7c1,1,2,2.1,2.7,3.3C45.7,29.2,46.8,22,40.8,22z"/>
		<path class="st4" d="M24.1,19.6l-4.2,4.5l1,1.3c0.3,0.4,0.9,0.5,1.3,0.3c2.7-1.3,5.9-3.8,4.8-5.7C26.2,19.5,25.1,19.3,24.1,19.6z"
			/>
		<path class="st4" d="M31.4,23.5c0,0,1.1-0.4,1.8-3.2c-0.9,0-1.8,0.2-2.6,0.6L31.4,23.5z"/>
		<path class="st4" d="M10.8,20.8c0.2,0,3.7-1.1,3.7-1.1c-0.3-0.8-0.4-1.6-0.3-2.4c-7.1,3.4-10.3-0.7-11.4-2.6l-0.3-0.6l-0.7,0.8
			l1.3,3.6C3.1,18.5,10.6,20.8,10.8,20.8z"/>
		<path class="st4" d="M15.8,14.3c0.8,0.4,1.6,0.8,2.3,1.4l3.2-0.5c0,0,0.8-0.5,0.4-1.2c-5,1.5-5.5-2-5.5-2l-0.7,0.6
			C15.6,13.1,15.7,13.7,15.8,14.3z"/>
		<path class="st4" d="M22.7,16.7l2.4-0.3l5.7-3.3l6.7-3.9c0.2-0.5,0.2-1.1,0.1-1.6c-6.1,2.1-11,7.4-13.8,7.4
			c-0.5,0-0.9-0.7-0.5-1.8l-1.1,0.5l-0.6,2.1L22.7,16.7z"/>
		<path class="st4" d="M41.8,17.1c0.8-1.9,1.1-4,0.8-6.1c0.7,0.5,1.2,1.1,1.7,1.9c-0.2-1.2-0.5-2.4-0.9-3.6l-2.4-1.1L40.6,10
			l-0.4,6.4C40.5,17.1,41.2,17.4,41.8,17.1C41.8,17.1,41.8,17.1,41.8,17.1z M42.4,10.2L42.4,10.2C42.4,10.1,42.3,10.2,42.4,10.2
			L42.4,10.2z"/>
		<path class="st4" d="M45.8,2.8L43.6,3c1.2,1.4,2,3.2,2.1,5.1C46.2,6.4,46.3,4.5,45.8,2.8z"/>
		<path class="st4" d="M48.9,14.7l0.5,6.3l5.6,4l4-0.8l-1.6-9.5l2.4-7.9L55.1,5l-3.5,0.1l0.1,2.7l2.2,2.8c0,0-0.2-3.4,1.1-3.4
			c2,0-1.3,5.4-0.9,11.1l0.7-1.3c0,2,0.3,4,1,5.8C51.6,22.1,50,19.2,48.9,14.7z"/>
		<path class="st4" d="M57,31.5c0-0.3,0-0.5,0-0.8l-1.2-0.7L57,31.5z"/>
		<path class="st4" d="M19.4,43.1c-0.5,0.1-1,0.1-1.5,0c0,0.3,0,0.4,0,0.4S20.4,44.2,19.4,43.1z"/>
		<path class="st4" d="M14.7,38.5c0.4-0.2,0.8-0.4,1.2-0.6l0.1-0.1L14.7,38.5z"/>
		<path class="st4" d="M46.9,30.3c0,4.9-4.6,12.2-8.7,12.2c-3.3,0-7-2.5-8.3-2.8c-1-0.5-2.1-0.6-3.2-0.3c3.1,1.6,5.7,4.8,3.6,4.8
			c-0.6,0-1.4-0.5-0.1-1.3c-2.7-1.3-5.6,0.3-7.9,0.3c-1.6,0-1.9-1.7-1.9-3.8c-2.5,0-2.7,2.6-2.6,3.7c0.5,0.1,1,0.1,1.5,0
			c1.1,1.1-1.5,0.4-1.5,0.4s0-0.2,0-0.4c-1.4-0.1-2.6-1.3-2.5-2.8c0-0.1,0-0.1,0-0.2c0-0.8,0.2-1.6,0.6-2.3
			c-0.4,0.2-0.8,0.4-1.2,0.6l-0.3,0.2l0.3-0.2l1.3-0.7L16,37.9c1.3-0.6,2.7-1,4.2-1.2c-1-0.4-2-0.8-3-1l-3.3,1L13,39.7l0.8,4l4,1.2
			H20l2.7,0.2h3.4l6.5,0.8l5.5-0.4l4.2-1.6l4.3-5.4l1.4-7.5C47.9,30.9,47.9,28.6,46.9,30.3z"/>
		<path class="st4" d="M8.3,31.6c1,4.7,1.8,6.4,4.7,6.7l-0.9,3.5l-2.1-0.9l-2-3.4l-0.8-3.2L8.3,31.6z"/>
		<path class="st6" d="M14.8,28c0,0-0.4,0-0.2-0.7c-1.8,1.2-0.8,4.2-0.8,4.2l1.3-0.4c-0.1-1-0.1-2.1-0.2-3.1L14.8,28z"/>
		<path class="st6" d="M22.4,17.6l1.1-0.4l3.7-1.9l8.2-5.5L39.5,8c0.6,0.7,0.9,1.5,0.9,2.4c-4,0-10.2,7.3-17.5,8.8L22.4,17.6z"/>
		<path class="st6" d="M15.4,16.7c0.8,0.4,1.7,0.7,2.6,0.8c0.2-0.6,0.4-1.1,0.7-1.7l-3-1.1L15.4,16.7z"/>
		<polygon class="st9" points="27,32.7 28.4,29.8 28.5,28.9 24,30.9 24.3,31.6 		"/>
		<path class="st6" d="M30.7,29.8c4.2-2.9,8.9-4.4,11.8-3.6l0.5-2L38.1,24L33,25.6l-3.3,1.9L30.7,29.8z"/>
		<path class="st10" d="M40.8,4.3C38.6,4.3,35,7,34,7.5c4-1.5,6.8-3.4,10.3-1.1C43.5,5.1,42.2,4.4,40.8,4.3z"/>
		<path class="st10" d="M18.4,10c3.7-3.2,8.2-5.1,13-5.6C28.4,3.3,22.1,5.5,18.4,10z"/>
		<path class="st10" d="M13.3,11.4c1.9-1.4,2.6-2.5,2.8-3.6l0.8,0.1l0.3-0.7c-0.4-0.4-1-0.6-1.6-0.7C15.2,8.6,14.4,9.7,13.3,11.4z"
			/>
		<path class="st11" d="M16.7,22.2l0.6,0.9c-0.9,0.1-2.2,1.2-3.5,3.1C13.9,26.2,14.4,23.3,16.7,22.2z"/>
		<path class="st12" d="M56.2,31.7l-2.9,0.8c-0.2-0.8,0-1.7,0.4-2.4L56.2,31.7z M51.9,33.3c0.1,0.3,0.2,0.5,0.5,0.6
			c0.1,0.1,0.2,0.1,0.3,0.1c-0.5,1.5-1.1,3-1.9,4.3c-0.1-0.2-0.3-0.3-0.6-0.4c-0.3-0.1-0.5,0-0.8,0.1c-1.4,0.8-2.4,2.2-2.7,3.7
			c-0.1,0.3,0,0.5,0.2,0.8c0.1,0.1,0.1,0.2,0.2,0.3c-1.3,1.2-2.8,2.2-4.3,3.1c0-0.1-0.1-0.2-0.2-0.3c-0.1-0.1-0.3-0.3-0.5-0.3
			c1.5-1.1,2.7-2.4,3.6-4c0.3-0.3,0.6-0.6,0.8-0.9c3.3-3.8,5.1-9,5.4-15.6c0.6,0.4,1.3,0.7,2,0.9c0,1-0.1,1.9-0.2,2.8
			c-0.2,0-0.4,0-0.5,0c-0.3,0.1-0.5,0.2-0.6,0.5C51.8,30.1,51.5,31.8,51.9,33.3z M51.4,42.2l-2.9-0.5c0.2-0.8,0.7-1.5,1.4-2
			L51.4,42.2z M38.5,43.9c-4.2,0-8.5-6.2-11.7-4.5c2.3,0.2,4.7,3.3,7.6,5.3c-1.3,0.2-2.6,0.3-3.9,0.3c-1.3,0-2.5-0.2-3.7-0.6
			c1-0.7,2.3-1.2,3.5-1.4c-3.1-1.1-6.5,2.6-8.4,1.6c-1.9-1-1.8-3.8-1.3-5c-1.5-0.2-2.4,2.6-1.6,4.7c-2.2,0.6-5.1-0.4-5.1-3.3
			c0-1.3,0.3-2.6,0.9-3.8c1.7-0.7,3.7-0.9,5.5-0.5c0.6-2.9-5.7-2.1-7.9,0.1c-1.6-2.8,2.1-5.4,6.6-5.4c8.5,0,11.6,8,17.6,8
			c6.2,0,7.3-11,7.4-13.9c0.6,0.6,1.1,1.2,1.4,2c0,0,0.6-4.6-4.7-4.6c-4,0-7.9,2-11.2,3.9c-0.3-0.3-0.6-0.6-0.9-0.9
			c0,0.5,0,0.9,0,1.4c-2.6,1.5-4.7,2.8-6,2.6c-2.6-0.4-3.1-2.5-2.1-4.2c-1.2-0.3-2.1,1.7-1.6,3.4c-1.1,0.4-2.2,0.5-3.3,0.3
			c-0.2-0.7-0.2-1.5,0.1-2.3l0.4-1l-1,0.3c-0.5,0.1-1,0.4-1.4,0.7c-0.1-0.3-0.1-0.6-0.1-0.9c0-2.9,2.5-4.3,3.8-4.8
			c0.8,1.4,1.9,2.5,3.2,3.4c0.3,0.2,0.6,0.2,0.9,0.1c1.9-0.8,3.5-2.1,4.6-3.8c0.1-0.2,0.1-0.5,0-0.8c3.2-0.7,4.8,0.9,5.5,3.2
			c0.1-0.6,0.2-1.2,0.1-1.7c0.9-0.7,5.2-3.1,9.1-3.1c4.1,0,6.3,4.1,6.3,11.6C46.9,35.2,43.6,43.9,38.5,43.9z M41.5,46.6l-0.3,3
			l-2-2.2C39.8,46.9,40.6,46.6,41.5,46.6L41.5,46.6z M37.6,47.8c-2.2,0.5-4.5,0.7-6.8,0.7l0,0c0-0.1,0-0.1,0-0.2
			c-0.1-0.3-0.3-0.5-0.5-0.6c-0.8-0.5-1.7-0.7-2.7-0.8c-0.6,0-1.2,0.1-1.8,0.3c-0.2,0.1-0.4,0.2-0.5,0.4c-1.2-0.3-2.3-0.8-3.3-1.4
			c1.1,0,2.1-0.2,3-0.8c1.7,0.9,3.6,1.4,5.5,1.3c2.2,0,4.5-0.2,6.6-0.7c0.4,0.1,0.7,0.2,1.1,0.2l-0.4,0.3c-0.2,0.2-0.3,0.4-0.3,0.7
			C37.4,47.5,37.4,47.7,37.6,47.8L37.6,47.8z M29,48.8l-1.5,2.6l-1-2.8c0.3-0.1,0.6-0.1,0.9-0.1C28,48.4,28.5,48.5,29,48.8L29,48.8z
			 M16,45.5c0.6,0.1,1.1,0.1,1.7,0l-1.9,1.2L16,45.5z M14.7,30.5c-0.7,0.2-1.4,0.5-2,0.8c0-0.8,0.1-1.6,0.5-2.3
			c0.2-0.4,0.6-0.8,0.9-1.1C14.1,28.8,14.3,29.7,14.7,30.5z M25,31.1c1-0.4,2-0.8,2.9-1.4c-0.3,0.8-0.7,1.5-1.2,2.2
			C26.2,31.6,25.6,31.3,25,31.1z M35.1,32.1c1.4-0.6,2.8-1.5,4.1-2.4c0.1,1,0.2,2,0.1,3c0.4-1.1,0.5-2.3,0.4-3.4
			c0.6-0.5,1.1-0.9,1.6-1.5c-0.5,0.4-1.1,0.7-1.7,1c-0.2-0.9-0.6-1.8-1.3-2.5c0.3,0.9,0.5,1.9,0.7,2.8c-1.3,0.7-2.7,1.3-4.1,1.8
			c-0.2-1.1-0.7-2.2-1.4-3.1c0.3,1.1,0.5,2.2,0.7,3.3c-0.9,0.3-1.8,0.5-2.7,0.7c-0.1-1.3-0.5-2.6-1.2-3.7c3-1.8,6.2-3.6,10.2-3.6
			c0.6,0,1.1,0,1.7,0.2c-0.2,5.2-2.4,12.4-5.9,12.4c-1.8,0-3.3-0.9-4.9-2.1c0.1-0.5,0.1-1.1,0.2-1.6c0.9-0.3,1.9-0.6,2.8-1
			c0.1,1.1,0.1,2.2,0,3.3C34.9,34.5,35.1,33.3,35.1,32.1L35.1,32.1z M30.4,34.2c-0.8-0.6-1.6-1.2-2.5-1.7c0.8-1.2,1.2-2.6,1.3-4
			C30.4,30.1,30.9,32.2,30.4,34.2L30.4,34.2z M17.7,19.4c-0.2,0.1-0.4,0.3-0.6,0.5c-0.4,0.1-0.8,0.2-1.2,0.4
			c-0.7-1.4-0.6-3.1,0.3-4.4c0.5,0.3,1,0.5,1.6,0.6C17.1,17.3,17.1,18.5,17.7,19.4z M31.6,19.7c-0.3,0.2-0.5,0.3-0.7,0.4
			c-1.1-1.7-3.7-2.4-7.3-1.4c-0.2-0.1-0.4-0.1-0.6-0.2c0-0.3,0-0.6,0-0.9c0.2,0,0.4,0,0.6,0c3.2,0,10.7-7.1,15.6-8.4
			c0.4,1,1.2,3.5,0,7.6c-0.6,0.1-1.2,0.2-1.8,0.3c0-0.9-0.5-3.8-3.3-3.8c-2,0.2-3.4,1.9-3.3,3.8C30.8,18.1,31.1,19,31.6,19.7z
			 M2.7,14.7c2.6-0.3,5.1-1.2,7.3-2.7c-0.7,1.3-1.6,2.4-2.6,3.5c4.5,0.2,6.9-8.1,7.7-9.7c1.1,0.1,2.1,0.6,3,1.3
			c-0.9,1.1-1.2,2.1-0.7,2.7c3.3-4.2,8.4-6.7,13.8-6.6c1.2,0,2.4,0.2,3.4,0.8c-4.4,2.5-7.1,5.8-8.3,5.9c-0.5,0.1-1.1-0.1-1.5-0.5
			c0,0,0.2,1.6,1.5,1.5c2.9-0.2,10.4-7.5,14.6-7.5c2.7,0,4.3,2.7,4.3,2.7c0.1-0.8-0.1-1.7-0.5-2.4c1.6-0.8,3.3-1.3,5-1.5
			c-0.2,4.1,1.3,8.9,4.2,8.6c-0.9-1.5-1.5-3.2-1.7-4.9c1.4-0.1,4.2-0.1,6.1,1.8c-2.7,5.1-3,11-0.8,16.3c-6.7,1.2-8.8-7.9-8.4-10
			c-0.9,0-1.5,1.2-1.5,2.8c0,2.4,0.9,4.7,2.5,6.5c0,3.1-0.4,6.2-1.3,9.2c0.1-0.7,0.1-1.4,0.1-2.1c0-4.9-0.5-13.2-8.1-13.5
			c1-2.2,1.1-4.4,0.6-7.5c0.9,0.3,1.6,0.8,2.3,1.5c0,0,0.3-3.8-3.3-3.8c-5.4,0-14.1,9.2-16.8,9.2c-0.8,0-1.3-0.2-1.3-1.1
			c0.1-0.7,0.3-1.3,0.8-1.8c-0.8-0.5-1.7,0-2.1,1.1c-3.5,0.8-5.1-0.4-4.9-2.4c-1.3-0.3-2.1,1.6-1.2,2.9c-1.1,1.1-1.6,2.7-1.5,4.3
			C7.2,20.5,3.9,18,2.7,14.7z M13.6,21.7c-1.4,1.1-2.1,2.8-2.1,4.5c0,0.9,0.2,1.9,0.6,2.7c-0.5,1-0.6,2.2-0.4,3.3
			c-1.7,1.7-1.7,4.4-0.1,6.1c0,0,0,0,0.1,0.1l0.9-0.4c-0.3,0.8-0.5,1.7-0.5,2.6c-2.3-0.5-3.4-3.4-3.4-7
			C8.7,28.6,10.2,23.3,13.6,21.7L13.6,21.7z M55.7,28.6c0.1-0.9,0.2-1.7,0.2-2.6h0.5c1.5,0,3-0.4,4.3-1.2
			c-4.4-7.4-1.2-14.3,0.6-17.9c-2.2-3-6.6-3.5-9-3.2c0-1.3,0.1-2.4,0.1-3.3C50.1-0.4,46,0,42.8,1.9c-0.6-0.2-1.2-0.3-1.8-0.3
			c-1.5,0.1-3,0.5-4.4,1.2c-1.6-1-3.5-1.6-5.4-1.5c-4.2,0-8.3,1.4-11.5,4c-1.7-1.4-3.8-2-6-1.8c-0.4,1.4-0.9,2.8-1.4,4.1
			c-2.8,3-8.7,5.7-12.3,5.5c1.4,7.4,7,8.5,10.8,8.4c-0.6,0.5-1,1-1.5,1.6l-1.6,3.1c-0.9,2.3-1.3,4.8-1.3,7.3c0,4.8,1.7,8.9,6,9.3
			c0.4,1.1,1.2,1.9,2.2,2.3l-0.8,4.5l4.9-3c2,1.4,4.3,2.5,6.7,3.1l1.8,5.2l2.7-4.5h0.9c2.8,0,5.5-0.3,8.2-1l3.4,3.7l0.5-5
			c2.5-1.1,4.7-2.7,6.6-4.7l4.9,0.9l-2.5-4.1c1.3-2,2.2-4.2,2.9-6.6l4.5-0.9L55.7,28.6z"/>
		<path class="st2" d="M19.2,21.2c-0.1-0.2,0-0.5,0.2-0.6c1.4-0.8,3.1-1,4.6-0.4c-1.7-1.1-3.9-1-5.5,0.3c-0.2,0.1-0.2,0.4-0.1,0.6
			c0.5,1.1,1.4,2,2.3,2.7C20,22.9,19.5,22.1,19.2,21.2z"/>
		<path class="st2" d="M20.9,18c-0.6,0-1.1-0.5-1.1-1.1c0-0.2,0-0.3,0.1-0.5c0.4-0.1,0.7-0.1,1.1-0.2c0.2,0.5,0.5,0.9,0.9,1.1
			C21.8,17.7,21.4,18,20.9,18z"/>
		<path class="st2" d="M36.2,15.5c-0.1,0.5-0.6,0.9-1.2,0.8s-0.9-0.6-0.8-1.2c0.1-0.5,0.5-0.8,1-0.8C35.8,14.4,36.3,14.9,36.2,15.5
			C36.2,15.5,36.2,15.5,36.2,15.5z"/>
	</g>
</g>
</svg>
