<?xml version="1.0" encoding="utf-8"?>
<!-- Generator: Adobe Illustrator 25.2.1, SVG Export Plug-In . SVG Version: 6.00 Build 0)  -->
<svg version="1.1" id="Layer_1" xmlns="http://www.w3.org/2000/svg" xmlns:xlink="http://www.w3.org/1999/xlink" x="0px" y="0px"
	 viewBox="0 0 2333.6 777.8" style="enable-background:new 0 0 2333.6 777.8;" xml:space="preserve">
<style type="text/css">
	.st0{fill:#E69564;}
	.st1{fill:#F0B78D;}
	.st2{fill:#EC202C;}
	.st3{fill:#FFFFFF;}
	.st4{fill:#FEDD00;}
	.st5{opacity:0.44;fill:#C16F50;}
	.st6{opacity:0.63;fill:#B82025;}
	.st7{opacity:0.82;fill:#C6DFEC;}
	.st8{opacity:0.42;}
	.st9{fill:#7B8D97;}
	.st10{opacity:0.59;fill:#C6DFEC;}
	.st11{opacity:0.42;fill:#F1C3A1;}
	.st12{opacity:0.88;fill:#F1C3A1;}
	.st13{fill:#193441;}
</style>
<g>
	<g>
		<circle class="st0" cx="388.9" cy="388.9" r="388.9"/>
		<circle class="st1" cx="388.9" cy="388.9" r="360.8"/>
		<g>
			<path class="st2" d="M588.6,494.4c0.6,2.6,2.3,4.9,4.6,6.3c1,0.6,2.1,1,3.2,1.2c-5,15.7-11.4,30.4-19.1,43.9
				c-1.4-1.9-3.4-3.3-5.7-3.8c-2.6-0.6-5.4-0.1-7.7,1.4c-15.5,10.1-22.7,20.4-26.4,37.8c-0.6,2.6,0,5.4,1.4,7.6
				c0.7,1,1.6,1.9,2.6,2.6c-13.1,12.3-27.8,22.6-44.1,30.9c-0.4-1.3-1-2.4-1.9-3.5c-1.3-1.5-3-2.6-5-3.2
				c13.4-9.2,25.8-23.5,36.3-40.6c2.9-2.9,5.7-5.9,8.4-9c33.2-38.1,51.4-91.3,54.3-158.3c6.3,3.9,13,7,20.2,9.2
				c-0.2,9.5-0.8,18.8-1.8,27.9c-1.7-0.6-3.6-0.8-5.4-0.4c-2.6,0.6-4.9,2.2-6.3,4.5C586.6,464.8,584.5,477.1,588.6,494.4z"/>
			<path class="st0" d="M452.4,602.4c-42.6,0-86.5-62.6-118.9-45.8c23.8,2.5,47.2,33.5,76.5,53.5c-12.6,1.8-25.8,2.7-39.7,2.7
				c-16.9,0-29.3-3.3-37.4-6.5c11.3-7,23-13.3,35.8-14.1c-31.8-11.2-66,25.5-85.3,15.6c-19.3-10-18.7-38.6-13.7-51.1
				c-15.6-2.2-24.6,26.3-16,47.6c-22.2,5.8-51.8-3.8-51.8-33c0-16.7,4.5-29.4,9-38.1c23.2-7.9,42.2-8.8,55.8-4.6
				c5.8-29.4-58.1-21-80.3,1.2c-16.3-28.8,21.2-54.8,67.2-54.8c85.9,0,117,80.9,178.1,80.9c63.1,0,74.5-111.6,75.4-140.7
				c5.4,4.6,9.7,11.1,14.3,20c0,0,6.3-46.7-47.3-46.7c-40.4,0-80.4,20.3-113.8,39.2c-2.9-3.1-6-6.1-9.4-8.9
				c0.5,4.9,0.5,9.6,0.2,14.2c-26.2,15.1-47.6,27.9-60.6,26.6c-27-2.7-31.1-24.3-21.8-41.7c-12.7-2.7-21.2,17-16.2,34.4
				c-12.1,4.5-24,5.4-33.6,2.9c-1.8-6.4-2.1-14.7,0.9-22.9l3.7-10.2l-10.4,2.9c-4.9,1.4-9.6,3.8-13.8,7.2c-0.9-2.8-1.4-5.9-1.4-9.3
				c0-29.4,25.6-43.4,38.9-48.7c8.7,14.6,17.8,23.8,32.9,34.7c2.6,1.9,6.1,2.2,9,0.7c21.1-11,34.4-20,46.9-38.8
				c1.6-2.4,1.6-5.3,0.3-7.7c32.5-7.3,48.1,9.3,55.6,32.8c1.3-6.3,1.6-12.2,0.8-17.7c9.5-7.2,53.1-31.2,92.3-31.2
				c41.7,0,63.5,41.1,63.5,117.7C537.7,513.7,503.7,602.4,452.4,602.4z"/>
			<path class="st2" d="M442.4,641.7c-21.2,4.7-44.1,7.1-68.8,7.1c-0.2,0-0.4,0-0.5,0c0-0.8-0.1-1.5-0.3-2.2c-0.7-2.6-2.5-4.8-4.9-6
				c-10.4-5.4-18.6-7.7-27.4-7.7c-5.7,0-11.6,1-18.5,3.1c-2.3,0.7-4.3,2.3-5.6,4.4c-13.2-4-24.5-9-33.8-13.9
				c11,1.2,21.3-2.9,31.5-8.6c7.8,4.7,26.5,13.7,56.3,13.7c24.3,0,46.7-2.5,67.2-7.6c3.7,1.1,7.5,2,11.4,2.5c-1.4,1-2.7,2.2-4.1,3.4
				c-2,1.8-3.2,4.3-3.4,6.9C441.2,638.4,441.6,640.2,442.4,641.7z"/>
			<path class="st3" d="M631.4,478.2l-29.3,7.8c-1.5-9.2-0.3-16,4.3-24.6L631.4,478.2z M583.1,584.8l-29.8-5.6
				c2.6-8.9,6.6-14.6,14.4-20.4L583.1,584.8z M482.3,630l-3.2,30l-20.5-22.3C466.1,632.1,472.8,630,482.3,630z M356.1,651.4
				l-15.2,26.1l-9.7-28.7c3.3-0.8,6.3-1.1,9.1-1.1C345.4,647.7,350.2,648.8,356.1,651.4z M224.5,618.1c5.7,0.7,11.6,0.7,17.1,0.3
				L222.4,630L224.5,618.1L224.5,618.1z"/>
			<path class="st3" d="M211.2,466.6c-7.7,2.2-14.2,5.1-19.7,8.5c-0.4-8.1,1.4-16.2,5.3-23.3c2.5-4.6,5.8-8.5,9.5-11.4
				C205.4,450,207.3,459.5,211.2,466.6z"/>
			<path class="st3" d="M315.4,472.2c9.8-3.4,19.6-8.4,29.7-14.2c-3.2,8.2-7.4,15.7-11.8,22.1C327.6,477.3,321.7,474.6,315.4,472.2z
				"/>
			<path class="st3" d="M417.9,482.5c13.1-6,27.6-13.9,41.3-24.2c1.2,9.5,1.6,19,1.1,30.5c3.6-10.3,5.9-22.6,4.5-34.9
				c5.6-4.6,11-9.5,16-15c-5.6,3.6-11.3,6.9-16.8,10c-1.8-9-5.8-17.8-12.8-25.7c3.3,11,5.6,20.1,7.1,28.8
				c-15.1,7.9-29.3,13.9-41.5,18.3c-1.9-10.7-6.3-21.4-14.4-31.1c3.3,12.7,5.7,23.4,7.2,33.6c-12.2,4.1-21.6,6.4-26.9,7.5
				c-1.3-13.8-5.1-26.6-11.7-37.9c29.9-18.1,62.9-36.5,102.9-36.5c6.8,0,12.4,0.5,17.3,1.6c-2.1,53.2-24.6,126-59.6,126
				c-18.1,0-33.3-9.5-50.1-21.6c0.9-5.5,1.4-10.9,1.6-16.2c6.5-2,16.4-5.3,28-10.2c0.8,10.4,0.7,21-0.2,33.6
				C415,508.3,418.1,495.5,417.9,482.5z"/>
			<path class="st3" d="M370.5,504c-7.8-5.7-16.1-11.6-25.4-17.2c7.2-11.2,11.1-22.7,13.7-41.4C369.5,459.6,375.5,480.2,370.5,504z"
				/>
			<path class="st3" d="M242,354c-2.2,1.4-4.4,2.9-6.5,4.6c-3.6,0.9-7.8,2.3-12.3,4.2c-8-11.6-5.9-31.2,2.6-44.8
				c4.7,3,10.2,5.2,16.6,6.4c-3.3,4.2-5.2,9.4-5.2,15.1C237.2,344.9,239,349.9,242,354z"/>
			<path class="st3" d="M407.6,293.2c-18.4,0-33.3,17.3-33.3,38.7c0,9.8,3.2,18.7,8.3,25.5c-2.6,1.6-4.9,3.1-6.8,4.4
				c-11.4-17.1-37.5-24.8-74.1-14.5c-2.1-0.7-4.3-1.3-6.5-1.8c0.4-3.8,0.2-6.7-0.2-8.9c1.9,0.3,4,0.5,6.3,0.5
				c32.3,0,108.1-72.2,157.9-85.2c4.5,9.9,12.1,35.2-0.2,76.5c-6.2,0.8-12.3,2-18.2,3.5c0-9.1-2.7-17.4-7.2-24
				c-0.1,5.9-5,10.7-11,10.7c-6.1,0-11-4.9-11-11c0-5.6,4.3-10.3,9.7-10.9C417.3,294.5,412.6,293.2,407.6,293.2z"/>
			<path class="st4" d="M274.3,340c-6.1,0-11-4.9-11-11c0-1.7,0.4-3.3,1.1-4.7c3.5-0.6,7.1-1.4,10.9-2.5c1.5,4.4,4.5,8.5,9.1,11.3
				C282.8,337.1,278.9,340,274.3,340z"/>
			<path class="st0" d="M89.7,306c34-5.1,57.4-15.9,73.5-27.4c-10.8,17.1-20.8,29.3-26.6,35.1c45,2.1,69.9-82.1,78.3-98.4
				c11,0,22.9,7.4,30.5,13c-9,11.4-12,21.7-7.2,27.4c34.6-41.6,80.9-67,140.1-67c12.3,0,24.1,2.4,34.9,8
				c-44.9,25-72.2,58.3-83.9,59.5c-6.5,0.7-12.3-1.3-15.2-4.2c0,0,1.7,15.8,15.2,14.9C359,265,434.4,191.3,477,191.3
				c27.5,0,43.7,26.9,43.7,26.9s1.4-12.6-4.6-24.4c18.5-9.8,38-13.9,50.7-15.6c-2.1,41.5,13.2,90.6,42.2,87.1
				c-10.8-16.6-15.4-33.9-17.2-50c13.9-1.4,42.3-1.4,61.9,18.2c-27.3,49.8-30.1,113.8-8,165.5c-67.9,11.8-89.7-79.7-85.3-101
				c-9.4,0-14.8,12.3-14.8,28.8c0,25,9.7,48.4,25.6,65.6c-0.3,34.8-4.7,65.9-13.1,92.8c0.9-7.3,1.4-14.5,1.4-21.5
				c0-49.7-5.2-134-81.8-136.3c10.1-22.5,10.9-44.7,6-75.9c13.4,4.3,22.9,15.1,22.9,15.1s3.1-38.9-33.6-38.9
				c-54.9,0-143.2,93.7-170,93.7c-7.8,0-12.8-2.2-12.8-11.5c0-7.2,5-15.3,7.8-18.1c-8.1-4.7-17.4,0.1-20.8,11.4
				c-35,7.9-51.5-4.1-49.8-24.5c-12.9-3.3-21.3,16.8-12.1,29.1c-10.5,10.4-16.5,27.4-15.2,43.1C135,364.5,102.3,340.1,89.7,306z"/>
			<path class="st0" d="M200.5,376.7c-12,10.3-21.6,25.1-21.6,45.6c0,9.7,2.4,19.6,6.5,27.2c-4.8,10.3-6.3,22.1-4.3,33.6
				c-18.9,18.5-16.4,44.8,0.1,62.9c3-1.6,6-3,8.9-4.4c-2.7,6.7-5,15.4-5.5,26.3c-23.2-5.1-34.1-34.2-34.1-71.4
				C150.5,447.6,165.5,393.1,200.5,376.7z"/>
			<path class="st5" d="M565.3,367.1l-11.9-47.4l7-21.6c-27.7,0-26.4,63.1-26.4,63.1l14.8,77.1v71.6l15.2-26.4l15.9-58.7
				c1.1,0.6,2.1,1.1,3.1,1.6c0.8-14.6-0.4-29.5,2.3-43.4L565.3,367.1z"/>
			<path class="st6" d="M620.3,410.3l-35-27.4c-2.7,13.9-1.5,28.8-2.3,43.4c13,6.6,23.2,10.4,36.8,13.2L620.3,410.3z"/>
			<path class="st7" d="M369.6,449.3l-12.7-6.8c5.7,17.3,7.3,33.6,1.9,57.6l16.3,14l3-26.9L369.6,449.3z"/>
			<path class="st6" d="M573.3,481.9l-38.8,62.3l-41.7,54.6l-38,15.4l-73.3,6.5l-59.7-10l-26.7,6.8h-32.2l-2.2-0.5
				c0.2,2.9,0.9,5.8,1.2,8.7l41.2,18.9l22-2.1H336c0.6-0.6,1.3-1,1.9-1.3c7.2-3.4,15.7,0.8,23.3,4.7c0,0.4,0,1.3,0,2.1
				c2.5-0.4,4.2,2.1,5.1,3.4c1.2,1.6,0.4,3.5-0.9,5.2l75.4-2.5l10.6-18.4l9.3-3.9c0-0.1,0-0.2,0-0.4c1.3-2.5,3.4-4.7,5.5-5.9
				c5.9-4.2,14-1.7,20.7,0v1.3c2.1,0.8,3.4,2.1,5.1,3c2.4,1.2,4.6,2.2,6.7,3.3l53.4-37.1l-5.1-19.9l8.9-10.6c0,0,14.4-14.4,22.9-9.7
				C582.2,517.5,573.3,481.9,573.3,481.9z"/>
			<g class="st8">
				<path class="st9" d="M486.9,626.7v-1.3c-6.8-1.7-14.8-4.2-20.7,0c-2.1,1.3-4.2,3.4-5.5,5.9c0,0.1,0,0.2,0,0.4l11-4.6l7.4,40.6
					l13.4-30.5l6.3-4.4c-2.1-1.1-4.3-2.1-6.7-3.3C490.3,628.8,489.1,627.6,486.9,626.7z"/>
				<path class="st9" d="M366.3,651.3c-0.8-1.3-2.5-3.8-5.1-3.4c0-0.8,0-1.7,0-2.1c-7.6-3.8-16.1-8-23.3-4.7
					c-0.6,0.2-1.2,0.7-1.9,1.3h7.4l-3,46.6l16.9-32.2l8-0.3C366.7,654.7,367.4,652.9,366.3,651.3z"/>
				<path class="st9" d="M224.4,608.9l-9.7,10.2l0.4,24.6l42.8-19.9l4.1,1.9c-0.3-2.9-1.1-5.8-1.2-8.7L224.4,608.9z"/>
				<polygon class="st9" points="556,565.3 592.7,590.3 578.8,555.6 570,550.5 				"/>
				<polygon class="st9" points="597.2,471.7 640.6,481.3 614.9,454.2 604.8,452.7 				"/>
			</g>
			<path class="st5" d="M475.9,379.8c-83.4,0-143.1,66.9-184.2,66.9c-11.9,0-26.3-3-23.3-29c0,0-11.4,11.6-11.4,21.8
				c-21.3,8.7-38.3,3.8-42.8,2.2c0.9,10.5,0.4,20.9,1.7,31.4l33.1-10.2l55.5-1.7l55.7-26.3l26.4-15.2l76.6-19.5l34.7,2.5v16.9
				c0,0,14.8,12.7,27.5,33C525.5,452.7,537.3,379.8,475.9,379.8z"/>
			<path class="st5" d="M306.5,356.1l-42.3,45.3l10,12.8c3.1,4,8.6,5.3,13.2,3.1c27.3-13.2,59.7-38,49.2-58.1
				C319.7,351.5,306.5,356.1,306.5,356.1z"/>
			<path class="st5" d="M381.1,395.7c0,0,10.9-4.3,18.2-32.2c-19.2,1.4-26.7,5.8-26.7,5.8L381.1,395.7z"/>
			<path class="st5" d="M172,367.7c2.5,0,37.8-10.7,37.8-10.7s-4.5-11.9-3.4-24.6c-72.3,34.2-104.7-7.3-115.8-26.5l-3.4-5.6
				l-7.3,7.6l13.6,36.7C93.6,344.6,169.5,367.7,172,367.7z"/>
			<path class="st5" d="M222.3,301.9c0.9-0.9,23.6,13.6,23.6,13.6l32.5-4.9c0,0,8.2-4.8,4.2-11.9c-50.2,15-55.4-19.9-55.4-19.9
				l-6.7,6.4C220.6,285.3,221.5,302.8,222.3,301.9z"/>
			<path class="st5" d="M292.3,326.2l24.3-2.8l57.5-33.1l67.8-39.1c0,0,2.8-8.5,1.5-16.3c-61.6,21.7-111.6,75-139.8,75
				c-5.6,0-9-7.1-5.6-17.8l-11,4.8l-5.9,21.5L292.3,326.2z"/>
			<path class="st5" d="M485.9,331c10.7-31.2,10-51,7.9-61.6c4.8,3.5,9.6,8.7,16.9,18.7c-4.2-25.1-9.6-36.4-9.6-36.4L476.9,241
				l-3.1,18.1l-3.7,65.5C470.1,324.5,474.4,335,485.9,331z M491.2,260.7c-0.3-0.6-0.4-0.9-0.4-0.9S491.2,260.2,491.2,260.7z"/>
			<path class="st5" d="M526.9,185.3l-23.1,2.8c8.8,12.1,19.2,24.5,21.3,52.1C530,219.7,532.5,204.2,526.9,185.3z"/>
			<path class="st5" d="M558.2,305.9l5.1,63.8l57,40.7l40.1-8.5l-16.4-96l24-80.5l-47.7-16.9l-35,1.1l0.8,27.1l22.8,28.7
				c0,0-2.1-34.1,11.1-34.1c20.2,0-13.2,54.8-9.3,112.6l7.6-13.3c-1.3,18,3.4,38.9,9.9,59.3C585.8,381.1,569.3,352.1,558.2,305.9z"
				/>
			<path class="st5" d="M640,476.9c0-2.7,0-5.3-0.1-8l-11.5-6.6L640,476.9z"/>
			<path class="st5" d="M258.7,594.1c-6.1,0.6-11.3,0.5-15.7-0.2c0.1,2.7,0.4,4.4,0.4,4.4S269.6,605,258.7,594.1z"/>
			<path class="st5" d="M211.8,547.7c4.1-2.3,8.3-4.5,12.5-6.4c0.4-0.7,0.6-1.1,0.6-1.1L211.8,547.7z"/>
			<path class="st5" d="M537.7,464.5c0,50-46.8,123.5-87.9,123.5c-33,0-71.2-25.3-83.7-28.6c-18.5-6.8-20.9-4.1-32.6-2.8
				c31.6,16.3,57.8,48.5,36.6,48.5c-5.9,0-14.6-5.4-1.4-13c-27.8-12.8-56.6,3.3-80.3,3.3c-16.1,0-18.7-17.4-18.7-38.7
				c-25.8,0-27.2,26.6-26.7,37.3c4.4,0.6,9.6,0.7,15.7,0.2c10.9,10.9-15.4,4.2-15.4,4.2s-0.2-1.7-0.4-4.4
				c-22-3.1-24.9-18.9-24.9-29.5c0-10.4,4.5-20,6.2-23.2c-4.2,2-8.4,4.1-12.5,6.4l-3.4,2c1.1-0.7,2.3-1.3,3.4-2l13.1-7.5
				c0,0-0.2,0.4-0.6,1.1c12.8-5.9,26.3-10.2,42.3-12.6c0,0-20-8.2-30.7-9.9l-33,9.3l-8.9,31.3l7.6,40.2l40.2,11.9h23.3l27.1,2.1
				h34.7l66.1,8.5l55.5-4.2l42.3-16.5l43.2-53.8l14-76.2C547.9,471.3,547.9,446.7,537.7,464.5z"/>
			<path class="st5" d="M146.9,477.7c10.5,47.3,18.5,64.8,47.8,67.7l-8.9,35.1l-21.2-8.9l-19.7-34.2l-8.2-32.3L146.9,477.7z"/>
			<path class="st7" d="M213,441.2c0,0-3.8,0-1.7-6.8c-18.2,12.3-8.9,42.8-8.9,42.8l13.5-4.2c-1.3-10.5-0.8-20.9-1.7-31.4
				C213.4,441.4,213,441.2,213,441.2z"/>
			<path class="st7" d="M289.9,335.5l11.1-4.2l37.8-19.2l83.6-55.9l39.8-18.1c0,0,9.3,9.3,9.3,24.3c-40.6,0-103.6,73.4-177.1,88.8
				L289.9,335.5z"/>
			<path class="st7" d="M218.1,326.8c0,0,10.4,6.2,26.3,7.6c3.7-11.6,6.8-17,6.8-17l-30.2-11L218.1,326.8z"/>
			<polygon class="st10" points="336.2,488.2 350.6,459.4 351,449.7 306.1,470 309.1,477.7 			"/>
			<path class="st7" d="M373.9,459c42.3-29.2,90-44.3,119.4-36.4l4.7-19.9l-49.1-2.5L397.1,417l-33.2,19.2L373.9,459z"/>
			<path class="st11" d="M476.3,201.2c-22.9,0-59.3,26.7-69.4,31.8c40.6-15.2,69.4-33.9,104.2-11.4
				C511.1,221.5,499.2,201.2,476.3,201.2z"/>
			<path class="st11" d="M249.4,258.3c47.7-37.6,80.4-49.5,132.1-57.2C350.2,190.7,286.6,213.4,249.4,258.3z"/>
			<path class="st11" d="M196.9,272.7c18.7-14.5,26.1-25.3,28-36.4l8.5,1.2l3.4-6.8c-6.4-6.4-16.2-7.2-16.2-7.2
				C216.9,244,208.3,255.3,196.9,272.7z"/>
			<path class="st12" d="M232,382l6.4,8.9c-9.4,1-21.9,12.1-35.1,31.8C203.2,422.6,208.6,393,232,382z"/>
			<path class="st13" d="M631.4,478.2l-29.3,7.8c-1.5-9.2-0.3-16,4.3-24.6L631.4,478.2z M588.6,494.4c0.6,2.6,2.3,4.9,4.6,6.3
				c1,0.6,2.1,1,3.2,1.2c-5,15.7-11.4,30.4-19.1,43.9c-1.4-1.9-3.4-3.3-5.7-3.8c-2.6-0.6-5.4-0.1-7.7,1.4
				c-15.5,10.1-22.7,20.4-26.4,37.8c-0.6,2.6,0,5.4,1.4,7.6c0.7,1,1.6,1.9,2.6,2.6c-13.1,12.3-27.8,22.6-44.1,30.9
				c-0.4-1.3-1-2.4-1.9-3.5c-1.3-1.5-3-2.6-5-3.2c13.4-9.2,25.8-23.5,36.3-40.6c2.9-2.9,5.7-5.9,8.4-9
				c33.2-38.1,51.4-91.3,54.3-158.3c6.3,3.9,13,7,20.2,9.2c-0.2,9.5-0.8,18.8-1.8,27.9c-1.7-0.6-3.6-0.8-5.4-0.4
				c-2.6,0.6-4.9,2.2-6.3,4.5C586.6,464.8,584.5,477.1,588.6,494.4z M583.1,584.8l-29.8-5.6c2.6-8.9,6.6-14.6,14.4-20.4L583.1,584.8
				z M452.4,602.4c-42.6,0-86.5-62.6-118.9-45.8c23.8,2.5,47.2,33.5,76.5,53.5c-12.6,1.8-25.8,2.7-39.7,2.7
				c-16.9,0-29.3-3.3-37.4-6.5c11.3-7,23-13.3,35.8-14.1c-31.8-11.2-66,25.5-85.3,15.6c-19.3-10-18.7-38.6-13.7-51.1
				c-15.6-2.2-24.6,26.3-16,47.6c-22.2,5.8-51.8-3.8-51.8-33c0-16.7,4.5-29.4,9-38.1c23.2-7.9,42.2-8.8,55.8-4.6
				c5.8-29.4-58.1-21-80.3,1.2c-16.3-28.8,21.2-54.8,67.2-54.8c85.9,0,117,80.9,178.1,80.9c63.1,0,74.5-111.6,75.4-140.7
				c5.4,4.6,9.7,11.1,14.3,20c0,0,6.3-46.7-47.3-46.7c-40.4,0-80.4,20.3-113.8,39.2c-2.9-3.1-6-6.1-9.4-8.9
				c0.5,4.9,0.5,9.6,0.2,14.2c-26.2,15.1-47.6,27.9-60.6,26.6c-27-2.7-31.1-24.3-21.8-41.7c-12.7-2.7-21.2,17-16.2,34.4
				c-12.1,4.5-24,5.4-33.6,2.9c-1.8-6.4-2.1-14.7,0.9-22.9l3.7-10.2l-10.4,2.9c-4.9,1.4-9.6,3.8-13.8,7.2c-0.9-2.8-1.4-5.9-1.4-9.3
				c0-29.4,25.6-43.4,38.9-48.7c8.7,14.6,17.8,23.8,32.9,34.7c2.6,1.9,6.1,2.2,9,0.7c21.1-11,34.4-20,46.9-38.8
				c1.6-2.4,1.6-5.3,0.3-7.7c32.5-7.3,48.1,9.3,55.6,32.8c1.3-6.3,1.6-12.2,0.8-17.7c9.5-7.2,53.1-31.2,92.3-31.2
				c41.7,0,63.5,41.1,63.5,117.7C537.7,513.7,503.7,602.4,452.4,602.4z M482.3,630l-3.2,30l-20.5-22.3
				C466.1,632.1,472.8,630,482.3,630z M442.4,641.7c-21.2,4.7-44.1,7.1-68.8,7.1c-0.2,0-0.4,0-0.5,0c0-0.8-0.1-1.5-0.3-2.2
				c-0.7-2.6-2.5-4.8-4.9-6c-10.4-5.4-18.6-7.7-27.4-7.7c-5.7,0-11.6,1-18.5,3.1c-2.3,0.7-4.3,2.3-5.6,4.4c-13.2-4-24.5-9-33.8-13.9
				c11,1.2,21.3-2.9,31.5-8.6c7.8,4.7,26.5,13.7,56.3,13.7c24.3,0,46.7-2.5,67.2-7.6c3.7,1.1,7.5,2,11.4,2.5c-1.4,1-2.7,2.2-4.1,3.4
				c-2,1.8-3.2,4.3-3.4,6.9C441.2,638.4,441.6,640.2,442.4,641.7z M356.1,651.4l-15.2,26.1l-9.7-28.7c3.3-0.8,6.3-1.1,9.1-1.1
				C345.4,647.7,350.2,648.8,356.1,651.4z M224.5,618.1c5.7,0.7,11.6,0.7,17.1,0.3L222.4,630L224.5,618.1L224.5,618.1z M211.2,466.6
				c-7.7,2.2-14.2,5.1-19.7,8.5c-0.4-8.1,1.4-16.2,5.3-23.3c2.5-4.6,5.8-8.5,9.5-11.4C205.4,450,207.3,459.5,211.2,466.6z
				 M315.4,472.2c9.8-3.4,19.6-8.4,29.7-14.2c-3.2,8.2-7.4,15.7-11.8,22.1C327.6,477.3,321.7,474.6,315.4,472.2z M417.9,482.5
				c13.1-6,27.6-13.9,41.3-24.2c1.2,9.5,1.6,19,1.1,30.5c3.6-10.3,5.9-22.6,4.5-34.9c5.6-4.6,11-9.5,16-15
				c-5.6,3.6-11.3,6.9-16.8,10c-1.8-9-5.8-17.8-12.8-25.7c3.3,11,5.6,20.1,7.1,28.8c-15.1,7.9-29.3,13.9-41.5,18.3
				c-1.9-10.7-6.3-21.4-14.4-31.1c3.3,12.7,5.7,23.4,7.2,33.6c-12.2,4.1-21.6,6.4-26.9,7.5c-1.3-13.8-5.1-26.6-11.7-37.9
				c29.9-18.1,62.9-36.5,102.9-36.5c6.8,0,12.4,0.5,17.3,1.6c-2.1,53.2-24.6,126-59.6,126c-18.1,0-33.3-9.5-50.1-21.6
				c0.9-5.5,1.4-10.9,1.6-16.2c6.5-2,16.4-5.3,28-10.2c0.8,10.4,0.7,21-0.2,33.6C415,508.3,418.1,495.5,417.9,482.5z M370.5,504
				c-7.8-5.7-16.1-11.6-25.4-17.2c7.2-11.2,11.1-22.7,13.7-41.4C369.5,459.6,375.5,480.2,370.5,504z M242,354
				c-2.2,1.4-4.4,2.9-6.5,4.6c-3.6,0.9-7.8,2.3-12.3,4.2c-8-11.6-5.9-31.2,2.6-44.8c4.7,3,10.2,5.2,16.6,6.4
				c-3.3,4.2-5.2,9.4-5.2,15.1C237.2,344.9,239,349.9,242,354z M382.6,357.5c-2.6,1.6-4.9,3.1-6.8,4.4
				c-11.4-17.1-37.5-24.8-74.1-14.5c-2.1-0.7-4.3-1.3-6.5-1.8c0.4-3.8,0.2-6.7-0.2-8.9c1.9,0.3,4,0.5,6.3,0.5
				c32.3,0,108.1-72.2,157.9-85.2c4.5,9.9,12.1,35.2-0.2,76.5c-6.2,0.8-12.3,2-18.2,3.5c0-9.1-4.9-38.7-33.3-38.7
				c-18.4,0-33.3,17.3-33.3,38.7C374.3,341.8,377.5,350.7,382.6,357.5z M89.7,306c34-5.1,57.4-15.9,73.5-27.4
				c-10.8,17.1-20.8,29.3-26.6,35.1c45,2.1,69.9-82.1,78.3-98.4c11,0,22.9,7.4,30.5,13c-9,11.4-12,21.7-7.2,27.4
				c34.6-41.6,80.9-67,140.1-67c12.3,0,24.1,2.4,34.9,8c-44.9,25-72.2,58.3-83.9,59.5c-6.5,0.7-12.3-1.3-15.2-4.2
				c0,0,1.7,15.8,15.2,14.9C359,265,434.4,191.3,477,191.3c27.5,0,43.7,26.9,43.7,26.9s1.4-12.6-4.6-24.4
				c18.5-9.8,38-13.9,50.7-15.6c-2.1,41.5,13.2,90.6,42.2,87.1c-10.8-16.6-15.4-33.9-17.2-50c13.9-1.4,42.3-1.4,61.9,18.2
				c-27.3,49.8-30.1,113.8-8,165.5c-67.9,11.8-89.7-79.7-85.3-101c-9.4,0-14.8,12.3-14.8,28.8c0,25,9.7,48.4,25.6,65.6
				c-0.3,34.8-4.7,65.9-13.1,92.8c0.9-7.3,1.4-14.5,1.4-21.5c0-49.7-5.2-134-81.8-136.3c10.1-22.5,10.9-44.7,6-75.9
				c13.4,4.3,22.9,15.1,22.9,15.1s3.1-38.9-33.6-38.9c-54.9,0-143.2,93.7-170,93.7c-7.8,0-12.8-2.2-12.8-11.5c0-7.2,5-15.3,7.8-18.1
				c-8.1-4.7-17.4,0.1-20.8,11.4c-35,7.9-51.5-4.1-49.8-24.5c-12.9-3.3-21.3,16.8-12.1,29.1c-10.5,10.4-16.5,27.4-15.2,43.1
				C135,364.5,102.3,340.1,89.7,306z M200.5,376.7c-12,10.3-21.6,25.1-21.6,45.6c0,9.7,2.4,19.6,6.5,27.2
				c-4.8,10.3-6.3,22.1-4.3,33.6c-18.9,18.5-16.4,44.8,0.1,62.9c3-1.6,6-3,8.9-4.4c-2.7,6.7-5,15.4-5.5,26.3
				c-23.2-5.1-34.1-34.2-34.1-71.4C150.5,447.6,165.5,393.1,200.5,376.7z M626.5,446.8c0.9-8.7,1.5-17.6,1.8-26.6
				c1.6,0.1,3.3,0.2,4.9,0.2c14.9,0,29.7-4.4,43.5-11.9c-44.2-75.3-12.4-144.8,5.6-181.8c-22.5-30.3-66.7-35.3-91.6-32.4
				c0.1-12.9,1.3-24.3,1.3-33c-22.5-7.9-64.6-3.2-96.1,15.4c-5-1.7-11-2.8-18.3-2.8c-12.9,0-28.3,4.9-44.5,12.4
				c-9.1-6.2-27.6-15.7-54.5-15.7c-49,0-91.2,19.9-116.8,41.1c-10.5-8.7-29.7-20.3-61.1-18.2c-4,14.9-9.1,28.9-14.6,41.7
				c-28.2,30.5-88.3,58-124.5,55.9c13.9,74.6,70.6,85.9,108.9,84.6c-5.4,4.5-10.3,9.9-14.8,16l-16.2,31
				c-8.5,22.5-12.8,48.7-12.8,73.8c0,48.2,16.9,90,60.5,94.5c4.2,12.2,12.7,19.6,22.8,23.6l-8,45.2l50-30.1
				c13.2,9.5,36.1,23,67.5,31.1l17.8,52.8l26.9-46.2c3.1,0.1,6.2,0.2,9.4,0.2c29.7,0,57.3-3.4,82.7-10.1l34.1,37l5.5-50.9
				c25.8-11.6,48.4-27.4,67.1-47.2l49.7,9.3l-24.6-41.6c12.5-19.8,22.2-42,29-66.5l45.2-9.2L626.5,446.8z"/>
			<path class="st3" d="M256.6,372.1c-0.9-2.4,0-5,2.1-6.4c14.6-9.4,32.3-9.5,46.4-4.3c-14-10-39-11.6-56.1,2.8
				c-1.8,1.5-2.3,4-1.2,6.1c6.5,12.1,12.7,18.9,23.7,27C265,389.9,260.7,382.6,256.6,372.1z"/>
			<g>
				<path class="st3" d="M274.3,340c-6.1,0-11-4.9-11-11c0-1.7,0.4-3.3,1.1-4.7c3.5-0.6,7.1-1.4,10.9-2.5c1.5,4.4,4.5,8.5,9.1,11.3
					C282.8,337.1,278.9,340,274.3,340z"/>
				<path class="st3" d="M429.3,314.7c0,6.6-4.4,12-9.8,12c-5.4,0-9.8-5.4-9.8-12c0-6.6,4.4-12,9.8-12
					C424.9,302.7,429.3,308.1,429.3,314.7z"/>
			</g>
		</g>
	</g>
	<g>
		<g>
			<path class="st3" d="M1163,363.8h-144.7c-13.5,0-20.1-7.3-20.1-21.6v-13.1c0-13.5,5.8-21.6,20.5-21.6H1212c5.8,0,8.5-2.7,8.5-8.5
				v-36.7c0-5.8-2.7-8.5-8.5-8.5h-204.6c-46.7,0-68.3,25.5-68.3,62.9v28.2c0,42.5,23.2,66.4,67.5,66.4h144.7
				c13.5,0,20.1,7.3,20.1,21.6v15.8c0,13.5-5.8,21.6-20.5,21.6H948.4c-5.8,0-8.9,2.7-8.9,8.5v36.7c0,5.8,3.1,8.5,8.9,8.5h213.8
				c46.7,0,68.3-25.5,68.3-62.9v-30.9C1230.5,387.7,1207.3,363.8,1163,363.8z M1470.5,253.8h-180.6c-7.7,0-11.6,3.9-11.6,11.6v247
				c0,7.7,3.9,11.6,11.6,11.6h180.6c83.8,0,118.1-33.6,118.1-108.8v-52.5C1588.6,287.4,1554.2,253.8,1470.5,253.8z M1529.5,410.1
				c0,45.5-15.1,60.2-60.6,60.2h-126.6c-3.5,0-5-1.5-5-5V312.9c0-3.9,1.5-5.4,5-5.4h126.6c45.5,0,60.6,14.7,60.6,60.2V410.1z
				 M1864.8,253.8h-119.3c-78,0-108.1,27.8-108.1,101.9v66.4c0,74.1,30.1,101.9,108.1,101.9h119.3c78.3,0,108.1-27.8,108.1-101.9
				v-66.4C1972.9,281.6,1943.1,253.8,1864.8,253.8z M1913.8,417.8c0,40.5-11.6,52.5-51.3,52.5h-114.6c-39.8,0-51.3-12-51.3-52.5V360
				c0-40.5,11.6-52.5,51.3-52.5h114.6c39.8,0,51.3,12,51.3,52.5V417.8z M2131.8,309h193.4c5.8,0,8.5-3.1,8.5-8.9v-37.8
				c0-5.8-2.7-8.5-8.5-8.5h-195.7c-78,0-108.1,27.8-108.1,101.9v66.4c0,74.1,30.1,101.9,108.1,101.9h155.9
				c30.9,0,47.9-15.8,47.9-59.1V375c0-7.7-3.9-11.6-11.6-11.6h-160.9c-5.4,0-8.5,3.1-8.5,8.9v28.9c0,5.8,3.1,8.9,8.5,8.9h113.1
				c3.5,0,4.6,1.5,4.6,5v31.3c0,17.4-5.8,23.5-19.3,23.5h-127.4c-39.8,0-51.3-12-51.3-52.9v-55.6C2080.4,320.6,2092,309,2131.8,309z
				"/>
		</g>
	</g>
</g>
</svg>
