<svg width="35" height="34" viewBox="0 0 35 34" fill="none" xmlns="http://www.w3.org/2000/svg">
<path d="M14.6188 14.4507C13.7114 14.4507 12.9951 15.2424 12.9951 16.2082C12.9951 17.174 13.7274 17.9657 14.6188 17.9657C15.5261 17.9657 16.2425 17.174 16.2425 16.2082C16.2584 15.2424 15.5261 14.4507 14.6188 14.4507ZM20.429 14.4507C19.5216 14.4507 18.8053 15.2424 18.8053 16.2082C18.8053 17.174 19.5376 17.9657 20.429 17.9657C21.3363 17.9657 22.0527 17.174 22.0527 16.2082C22.0527 15.2424 21.3363 14.4507 20.429 14.4507Z" fill="white"/>
<path d="M28.1652 1.1665H6.83455C5.03578 1.1665 3.57129 2.62317 3.57129 4.42817V25.8348C3.57129 27.6398 5.03578 29.0965 6.83455 29.0965H24.886L24.0423 26.1673L26.0799 28.0515L28.006 29.8248L31.4284 32.8332V4.42817C31.4284 2.62317 29.9639 1.1665 28.1652 1.1665ZM22.0207 21.8448C22.0207 21.8448 21.4476 21.164 20.9701 20.5623C23.0554 19.9765 23.8513 18.6782 23.8513 18.6782C23.1986 19.1057 22.5778 19.4065 22.0207 19.6123C21.2248 19.9448 20.4607 20.1665 19.7125 20.2932C18.1843 20.5782 16.7835 20.499 15.5897 20.2773C14.6823 20.1032 13.9023 19.8498 13.2497 19.5965C12.8835 19.454 12.4856 19.2798 12.0876 19.0582C12.0399 19.0265 11.9921 19.0107 11.9444 18.979C11.9125 18.9632 11.8966 18.9473 11.8807 18.9315C11.5941 18.7732 11.435 18.6623 11.435 18.6623C11.435 18.6623 12.199 19.929 14.2207 20.5307C13.7431 21.1323 13.1541 21.8448 13.1541 21.8448C9.63619 21.734 8.29904 19.4382 8.29904 19.4382C8.29904 14.3398 10.5913 10.2073 10.5913 10.2073C12.8835 8.49734 15.0644 8.54484 15.0644 8.54484L15.2235 8.73484C12.3582 9.55817 11.037 10.809 11.037 10.809C11.037 10.809 11.3872 10.619 11.9762 10.3498C13.6795 9.60567 15.0325 9.39984 15.5897 9.35234C15.6852 9.3365 15.7648 9.32067 15.8603 9.32067C16.8313 9.194 17.9297 9.16234 19.0758 9.28901C20.588 9.46317 22.2117 9.9065 23.8672 10.809C23.8672 10.809 22.6097 9.6215 19.9035 8.79817L20.1264 8.54484C20.1264 8.54484 22.3072 8.49734 24.5995 10.2073C24.5995 10.2073 26.8917 14.3398 26.8917 19.4382C26.8917 19.4382 25.5386 21.734 22.0207 21.8448V21.8448Z" fill="white"/>
</svg>
