<svg width="33" height="33" viewBox="0 0 33 33" fill="none" xmlns="http://www.w3.org/2000/svg">
<path fill-rule="evenodd" clip-rule="evenodd" d="M16.5 0C25.6066 0 33 7.39342 33 16.5C33 25.6066 25.6066 33 16.5 33C7.39342 33 0 25.6066 0 16.5C0 7.39342 7.39342 0 16.5 0ZM27.5 16.5C27.5 15.1684 26.4193 14.0877 25.0877 14.0877C24.4316 14.0877 23.8526 14.3386 23.4281 14.7632C21.7877 13.5859 19.5105 12.8141 17.0018 12.7176L18.1017 7.56493L21.6719 8.31755C21.7105 9.22453 22.4631 9.95788 23.3895 9.95788C24.3351 9.95788 25.107 9.18599 25.107 8.24033C25.107 7.29474 24.3351 6.52279 23.3895 6.52279C22.7141 6.52279 22.1351 6.90879 21.8649 7.48771L17.8701 6.63861C17.7544 6.61927 17.6386 6.63861 17.5421 6.69649C17.4456 6.75437 17.3877 6.85085 17.3491 6.96667L16.1333 12.7176C13.5667 12.7947 11.2701 13.5473 9.61054 14.7632C9.18599 14.3579 8.58773 14.0877 7.95087 14.0877C6.61927 14.0877 5.53859 15.1684 5.53859 16.5C5.53859 17.4842 6.11757 18.314 6.96667 18.7C6.92807 18.9316 6.9088 19.1825 6.9088 19.4333C6.9088 23.1386 11.2123 26.1298 16.5386 26.1298C21.8649 26.1298 26.1684 23.1386 26.1684 19.4333C26.1684 19.1825 26.1491 18.9509 26.1105 18.7193C26.9018 18.3333 27.5 17.4842 27.5 16.5ZM20.5912 22.7527C19.4141 23.9298 17.1755 24.007 16.5193 24.007C15.8631 24.007 13.6053 23.9105 12.4474 22.7527C12.2737 22.579 12.2737 22.2895 12.4474 22.1158C12.6211 21.9421 12.9105 21.9421 13.0842 22.1158C13.8175 22.8491 15.4 23.1193 16.5386 23.1193C17.6772 23.1193 19.2404 22.8491 19.993 22.1158C20.1667 21.9421 20.4561 21.9421 20.6298 22.1158C20.7649 22.3088 20.7649 22.579 20.5912 22.7527V22.7527ZM11 18.2175C11 17.272 11.7719 16.5 12.7176 16.5C13.6632 16.5 14.4351 17.272 14.4351 18.2175C14.4351 19.1631 13.6632 19.9351 12.7176 19.9351C11.7719 19.9351 11 19.1631 11 18.2175ZM20.2824 19.9351C19.3368 19.9351 18.5649 19.1631 18.5649 18.2175C18.5649 17.272 19.3368 16.5 20.2824 16.5C21.2281 16.5 22 17.272 22 18.2175C22 19.1631 21.2281 19.9351 20.2824 19.9351Z" fill="white"/>
</svg>
